<?xml version="1.0" encoding="UTF-8"?>
<svg xmlns="http://www.w3.org/2000/svg" onmouseup="{ if(window.parent.document.onmouseup) window.parent.document.onmouseup(arguments[0]);}" viewBox="0 0 50 50" data-name="Layer 2" id="Layer_2"><defs><style>
      .cls-1 {
        fill: #ee3f6c;
      }

      .cls-1, .cls-2, .cls-3 {
        stroke-width: 0px;
      }

      .cls-2 {
        fill: #fff;
      }

      .cls-3 {
        opacity: .1;
      }
    </style></defs><g data-name="Layer 1" id="Layer_1-2"><g><g id="search_button"><g><circle data-cppathid="10000" r="22.8" cy="25" cx="25" class="cls-1"/><path data-cppathid="10001" d="m25,2.2c12.59,0,22.8,10.21,22.8,22.8s-10.21,22.8-22.8,22.8S2.2,37.59,2.2,25,12.41,2.2,25,2.2m0-2.2C11.21,0,0,11.21,0,25s11.21,25,25,25,25-11.21,25-25S38.79,0,25,0h0Z" class="cls-2"/><path data-cppathid="10002" d="m34.06,33.29c-14.18,0-26.19-6.92-30.32-16.48-.98,2.54-1.54,5.3-1.54,8.19,0,12.59,10.21,22.8,22.8,22.8,10.42,0,19.18-6.99,21.91-16.54-3.93,1.3-8.28,2.02-12.85,2.02Z" class="cls-3"/></g></g><g><path data-cppathid="10003" d="m29.92,14.66v4.52c2.43,1.48,4.06,4.14,4.06,7.19,0,4.64-3.77,8.41-8.41,8.41s-8.41-3.77-8.41-8.41c0-3.05,1.63-5.71,4.06-7.19v-4.52c-4.75,1.77-8.15,6.34-8.15,11.7,0,6.89,5.61,12.5,12.5,12.5s12.5-5.61,12.5-12.5c0-5.36-3.4-9.93-8.15-11.7Z" class="cls-2"/><path data-cppathid="10004" d="m24.83,11.14c-.69,0-1.25.56-1.25,1.25v8.25c0,.69.56,1.25,1.25,1.25h1.48c.69,0,1.25-.56,1.25-1.25v-8.25c0-.69-.56-1.25-1.25-1.25h-1.48Z" class="cls-2"/></g></g></g></svg>