<?xml version="1.0" encoding="UTF-8"?>
<svg xmlns="http://www.w3.org/2000/svg" onmouseup="{ if(window.parent.document.onmouseup) window.parent.document.onmouseup(arguments[0]);}" version="1.0" preserveAspectRatio="xMidYMid meet" height="585" viewBox="0 0 780 438.749984" zoomAndPan="magnify" width="1040" xmlns:xlink="http://www.w3.org/1999/xlink"><defs><clipPath id="92bfa70519"><path data-cppathid="10000" clip-rule="nonzero" d="M 146.390625 123 L 632 123 L 632 137 L 146.390625 137 Z M 146.390625 123 "/></clipPath><clipPath id="d1ee53a0ea"><path data-cppathid="10001" clip-rule="nonzero" d="M 146.390625 122 L 633 122 L 633 137 L 146.390625 137 Z M 146.390625 122 "/></clipPath><clipPath id="95ecfb63f8"><path data-cppathid="10002" clip-rule="nonzero" d="M 148 424 L 633.609375 424 L 633.609375 438 L 148 438 Z M 148 424 "/></clipPath><clipPath id="f57c2434e3"><path data-cppathid="10003" clip-rule="nonzero" d="M 147 423 L 633.609375 423 L 633.609375 438.5 L 147 438.5 Z M 147 423 "/></clipPath></defs><path data-cppathid="10004" fill-rule="nonzero" fill-opacity="1" d="M 161.40625 136.378906 L 616.371094 136.378906 L 616.371094 423.371094 L 161.40625 423.371094 Z M 161.40625 136.378906 " fill="#fff5dc"/><g clip-path="url(#92bfa70519)"><path data-cppathid="10005" fill-rule="nonzero" fill-opacity="1" d="M 146.945312 123.027344 L 631.941406 123.027344 L 631.941406 136.378906 L 146.945312 136.378906 Z M 146.945312 123.027344 " fill="#b2783f"/></g><g clip-path="url(#d1ee53a0ea)"><path data-cppathid="10006" fill-rule="nonzero" fill-opacity="1" d="M 632.5 136.933594 L 146.390625 136.933594 L 146.390625 122.472656 L 632.5 122.472656 Z M 147.5 135.820312 L 631.386719 135.820312 L 631.386719 123.585938 L 147.5 123.585938 Z M 147.5 135.820312 " fill="#ffa348"/></g><path data-cppathid="10007" fill-rule="nonzero" fill-opacity="1" d="M 147.5 126.921875 L 631.386719 126.921875 L 631.386719 129.148438 L 147.5 129.148438 Z M 147.5 126.921875 " fill="#ffc794"/><g clip-path="url(#95ecfb63f8)"><path data-cppathid="10008" fill-rule="nonzero" fill-opacity="1" d="M 148.058594 424.484375 L 633.054688 424.484375 L 633.054688 437.832031 L 148.058594 437.832031 Z M 148.058594 424.484375 " fill="#b2783f"/></g><g clip-path="url(#f57c2434e3)"><path data-cppathid="10009" fill-rule="nonzero" fill-opacity="1" d="M 633.609375 438.390625 L 147.5 438.390625 L 147.5 423.929688 L 633.609375 423.929688 Z M 148.613281 437.277344 L 632.5 437.277344 L 632.5 425.039062 L 148.613281 425.039062 Z M 148.613281 437.277344 " fill="#ffa348"/></g><path data-cppathid="10010" fill-rule="nonzero" fill-opacity="1" d="M 148.613281 428.378906 L 632.5 428.378906 L 632.5 430.601562 L 148.613281 430.601562 Z M 148.613281 428.378906 " fill="#ffc794"/><path data-cppathid="10011" fill-rule="nonzero" fill-opacity="1" d="M 487 123.363281 L 381.65625 6.007812 L 289.328125 123.363281 L 288.441406 122.695312 L 381.65625 4.226562 L 487.777344 122.695312 Z M 487 123.363281 " fill="#b2783f"/><path data-cppathid="10012" fill-rule="nonzero" fill-opacity="1" d="M 385.550781 4.5625 C 385.550781 4.851562 385.523438 5.140625 385.464844 5.429688 C 385.40625 5.714844 385.324219 5.992188 385.210938 6.261719 C 385.101562 6.535156 384.960938 6.789062 384.800781 7.03125 C 384.636719 7.277344 384.453125 7.5 384.246094 7.707031 C 384.039062 7.914062 383.816406 8.097656 383.574219 8.261719 C 383.328125 8.421875 383.074219 8.558594 382.804688 8.671875 C 382.535156 8.785156 382.253906 8.867188 381.96875 8.925781 C 381.683594 8.980469 381.394531 9.011719 381.101562 9.011719 C 380.808594 9.011719 380.519531 8.980469 380.234375 8.925781 C 379.945312 8.867188 379.667969 8.785156 379.398438 8.671875 C 379.128906 8.558594 378.871094 8.421875 378.628906 8.261719 C 378.386719 8.097656 378.160156 7.914062 377.953125 7.707031 C 377.75 7.5 377.5625 7.277344 377.402344 7.03125 C 377.238281 6.789062 377.101562 6.535156 376.988281 6.261719 C 376.878906 5.992188 376.792969 5.714844 376.738281 5.429688 C 376.679688 5.140625 376.652344 4.851562 376.652344 4.5625 C 376.652344 4.269531 376.679688 3.980469 376.738281 3.691406 C 376.792969 3.40625 376.878906 3.128906 376.988281 2.859375 C 377.101562 2.589844 377.238281 2.332031 377.402344 2.089844 C 377.5625 1.847656 377.75 1.621094 377.953125 1.414062 C 378.160156 1.207031 378.386719 1.023438 378.628906 0.859375 C 378.871094 0.699219 379.128906 0.5625 379.398438 0.449219 C 379.667969 0.339844 379.945312 0.253906 380.234375 0.195312 C 380.519531 0.140625 380.808594 0.109375 381.101562 0.109375 C 381.394531 0.109375 381.683594 0.140625 381.96875 0.195312 C 382.253906 0.253906 382.535156 0.339844 382.804688 0.449219 C 383.074219 0.5625 383.328125 0.699219 383.574219 0.859375 C 383.816406 1.023438 384.039062 1.207031 384.246094 1.414062 C 384.453125 1.621094 384.636719 1.847656 384.800781 2.089844 C 384.960938 2.332031 385.101562 2.589844 385.210938 2.859375 C 385.324219 3.128906 385.40625 3.40625 385.464844 3.691406 C 385.523438 3.980469 385.550781 4.269531 385.550781 4.5625 Z M 385.550781 4.5625 " fill="#fff5dc"/></svg>