<?xml version="1.0" encoding="UTF-8"?>
<svg xmlns="http://www.w3.org/2000/svg" onmouseup="{ if(window.parent.document.onmouseup) window.parent.document.onmouseup(arguments[0]);}" xml:space="preserve" style="enable-background:new 0 0 36 36;" viewBox="0 0 36 36" y="0px" x="0px" id="S_VolumeMute_18_N_2x" version="1.1" xmlns:xlink="http://www.w3.org/1999/xlink"><style type="text/css">
	.st0{fill:#FFFFFF;}
</style><path data-cppathid="10000" d="M12,27c0-3.3,1.5-6.4,4-8.5V5c0-0.4-0.3-0.7-0.7-0.7c-0.2,0-0.3,0.1-0.5,0.2l-6.6,6.8c-0.4,0.4-0.7,0.8-1.4,0.8  H1c-0.6,0-1,0.4-1,1V23c0,0.6,0.4,1,1,1h5.7c0.7,0,1,0.4,1.4,0.8l4,4.1C12.1,28.3,12,27.7,12,27z" class="st0"/><path data-cppathid="10001" d="M23,18.1c-4.9,0-8.9,4-8.9,8.9s4,8.9,8.9,8.9s8.9-4,8.9-8.9S27.9,18.1,23,18.1L23,18.1z M16,27  c0-1.5,0.5-3,1.5-4.3l9.8,9.8c-3,2.4-7.4,1.8-9.8-1.2C16.5,30.1,16,28.6,16,27z M28.5,31.3l-9.8-9.8c3-2.4,7.4-1.8,9.8,1.2  C30.5,25.2,30.5,28.7,28.5,31.3z" class="st0"/></svg>