<?xml version="1.0" encoding="UTF-8"?>
<svg xmlns="http://www.w3.org/2000/svg" onmouseup="{ if(window.parent.document.onmouseup) window.parent.document.onmouseup(arguments[0]);}" viewBox="0 0 1041.01 585" xmlns:xlink="http://www.w3.org/1999/xlink"><defs><style>
      .cls-1, .cls-2, .cls-3, .cls-4, .cls-5, .cls-6, .cls-7, .cls-8, .cls-9, .cls-10, .cls-11, .cls-12, .cls-13, .cls-14, .cls-15, .cls-16, .cls-17, .cls-18, .cls-19, .cls-20, .cls-21, .cls-22, .cls-23, .cls-24, .cls-25, .cls-26, .cls-27, .cls-28, .cls-29, .cls-30, .cls-31, .cls-32, .cls-33, .cls-34, .cls-35, .cls-36, .cls-37, .cls-38, .cls-39, .cls-40, .cls-41, .cls-42, .cls-43, .cls-44, .cls-45, .cls-46, .cls-47, .cls-48, .cls-49, .cls-50, .cls-51, .cls-52, .cls-53, .cls-54, .cls-55, .cls-56, .cls-57, .cls-58, .cls-59, .cls-60, .cls-61, .cls-62, .cls-63, .cls-64, .cls-65, .cls-66, .cls-67, .cls-68, .cls-69, .cls-70, .cls-71, .cls-72, .cls-73, .cls-74, .cls-75, .cls-76, .cls-77, .cls-78, .cls-79, .cls-80, .cls-81, .cls-82, .cls-83, .cls-84, .cls-85, .cls-86, .cls-87, .cls-88, .cls-89, .cls-90 {
        stroke-width: 0px;
      }

      .cls-1, .cls-8, .cls-9, .cls-10, .cls-13, .cls-14, .cls-17, .cls-19, .cls-20, .cls-23, .cls-24, .cls-30, .cls-31, .cls-33, .cls-35, .cls-38, .cls-39, .cls-40, .cls-45, .cls-47, .cls-49, .cls-50, .cls-52, .cls-60, .cls-65, .cls-66, .cls-71, .cls-72, .cls-73, .cls-74, .cls-77, .cls-79, .cls-80, .cls-85, .cls-89, .cls-90 {
        fill-rule: evenodd;
      }

      .cls-1, .cls-68 {
        fill: #2d4c5b;
      }

      .cls-2 {
        fill: #c28073;
      }

      .cls-3 {
        fill: #c1c1c1;
      }

      .cls-4, .cls-24 {
        fill: #56c5d0;
      }

      .cls-5 {
        fill: #8b5e3c;
      }

      .cls-6 {
        fill: #a1d3cf;
      }

      .cls-7 {
        fill: #3f3634;
      }

      .cls-8 {
        fill: #1b1b21;
      }

      .cls-9 {
        fill: #cadfde;
      }

      .cls-10 {
        fill: #c5ddde;
      }

      .cls-11 {
        fill: #eafcfc;
      }

      .cls-91, .cls-21, .cls-48, .cls-64 {
        opacity: .5;
      }

      .cls-12 {
        fill: #eeded8;
      }

      .cls-13 {
        fill: #cd8c5d;
      }

      .cls-14 {
        fill: #fabd97;
      }

      .cls-15 {
        fill: #909290;
      }

      .cls-92 {
        isolation: isolate;
      }

      .cls-16 {
        fill: #bcd335;
      }

      .cls-17 {
        fill: #f21d3a;
      }

      .cls-18 {
        fill: #96d9c9;
      }

      .cls-19 {
        fill: #aaced1;
      }

      .cls-20 {
        fill: #f7b063;
      }

      .cls-21, .cls-46, .cls-60 {
        fill: #fff;
      }

      .cls-22 {
        fill: #13375b;
      }

      .cls-23 {
        fill: #858f94;
      }

      .cls-25 {
        fill: #7a8d94;
      }

      .cls-26 {
        opacity: .71;
      }

      .cls-26, .cls-28 {
        fill: #34696a;
      }

      .cls-27, .cls-72 {
        fill: #385662;
      }

      .cls-29 {
        fill: #f5f5f5;
      }

      .cls-30 {
        fill: #c3cdd0;
      }

      .cls-31 {
        fill: #a2b8c2;
      }

      .cls-32 {
        fill: #d9a76d;
      }

      .cls-33 {
        fill: #a5c3d2;
      }

      .cls-34, .cls-93, .cls-94 {
        fill: none;
      }

      .cls-35 {
        fill: #43525a;
      }

      .cls-36 {
        fill: #f9eede;
      }

      .cls-37 {
        fill: #8c8e8c;
      }

      .cls-38 {
        fill: #9ab6c5;
      }

      .cls-39 {
        fill: #288ea7;
      }

      .cls-40 {
        fill: #b7c9d1;
      }

      .cls-41 {
        fill: #803828;
      }

      .cls-42 {
        fill: #859e19;
      }

      .cls-43 {
        fill: #51321d;
      }

      .cls-44 {
        fill: #ccc;
      }

      .cls-45, .cls-51 {
        fill: #98a4aa;
      }

      .cls-47 {
        fill: #c4d7de;
      }

      .cls-48, .cls-63 {
        fill: #c6e3fd;
        mix-blend-mode: multiply;
      }

      .cls-49 {
        fill: #647883;
      }

      .cls-50 {
        fill: #bed9d9;
      }

      .cls-52 {
        fill: #456776;
      }

      .cls-53 {
        fill: #74492a;
      }

      .cls-54 {
        fill: #a6685c;
      }

      .cls-55 {
        fill: #fafafa;
      }

      .cls-56 {
        fill: #da9689;
      }

      .cls-57 {
        fill: #392619;
      }

      .cls-58 {
        fill: #84b8b6;
      }

      .cls-59 {
        fill: #752d29;
      }

      .cls-61 {
        fill: #86b1f2;
      }

      .cls-62 {
        fill: #eee;
      }

      .cls-63 {
        opacity: .3;
      }

      .cls-95 {
        clip-path: url(#clippath);
      }

      .cls-64 {
        fill: #466eb6;
      }

      .cls-65 {
        fill: #dee9e8;
      }

      .cls-66 {
        fill: #37a0bb;
      }

      .cls-67 {
        fill: #a5bc20;
      }

      .cls-93 {
        stroke: #303030;
        stroke-width: .57px;
      }

      .cls-93, .cls-94 {
        stroke-miterlimit: 10;
      }

      .cls-69 {
        fill: #f7cc7f;
      }

      .cls-70 {
        fill: #b1aba6;
      }

      .cls-71 {
        fill: #e1b390;
      }

      .cls-73 {
        fill: #99c4c7;
      }

      .cls-74 {
        fill: #f3a04d;
      }

      .cls-75 {
        fill: #bcc2c3;
      }

      .cls-76 {
        fill: #f47458;
      }

      .cls-77 {
        fill: #e08f46;
      }

      .cls-94 {
        stroke: #61412a;
        stroke-linecap: round;
        stroke-width: 4px;
      }

      .cls-78 {
        fill: #51404c;
      }

      .cls-79, .cls-87 {
        fill: #88a5b5;
      }

      .cls-80 {
        fill: #476b7a;
      }

      .cls-81 {
        fill: #0e403e;
      }

      .cls-82 {
        opacity: .2;
      }

      .cls-82, .cls-88 {
        fill: #303030;
      }

      .cls-83 {
        fill: #eecca4;
      }

      .cls-84 {
        fill: #3f2817;
      }

      .cls-85 {
        fill: #828a8f;
      }

      .cls-86 {
        fill: #e22d20;
      }

      .cls-89 {
        fill: #aed3d5;
      }

      .cls-90 {
        fill: #9cc5c9;
      }
    </style><clipPath id="clippath"><rect data-cppathid="10000" height="583.98" width="1040.47" class="cls-34"/></clipPath></defs><g class="cls-92"><g data-name="Layer 2" id="Layer_2"><g data-name="Layer 1" id="Layer_1-2"><g><g class="cls-95"><g><rect data-cppathid="10001" height="991.32" width="1762.35" y="-30.2" x=".22" class="cls-12"/><g data-name="Rak Piring" id="Rak_Piring"><g data-name="Piring 3" id="Piring_3"><path data-cppathid="10002" d="m182.56,112.13c-14.98,0-27.17-12.19-27.17-27.17s12.19-27.17,27.17-27.17,27.17,12.19,27.17,27.17-12.19,27.17-27.17,27.17Z" class="cls-55"/><circle data-cppathid="10003" r="17" cy="84.96" cx="182.56" class="cls-62"/></g><g data-name="Piring 2" id="Piring_2"><path data-cppathid="10004" d="m122.52,112.13c-14.98,0-27.17-12.19-27.17-27.17s12.19-27.17,27.17-27.17,27.17,12.19,27.17,27.17-12.19,27.17-27.17,27.17Z" class="cls-55"/><circle data-cppathid="10005" r="17" cy="84.96" cx="122.52" class="cls-62"/></g><g data-name="Piring 1" id="Piring_1"><path data-cppathid="10006" d="m62.48,112.13c-14.98,0-27.17-12.19-27.17-27.17s12.19-27.17,27.17-27.17,27.17,12.19,27.17,27.17-12.19,27.17-27.17,27.17Z" class="cls-55"/><circle data-cppathid="10007" r="17" cy="84.96" cx="62.48" class="cls-62"/></g><rect data-cppathid="10008" height="8.38" width="195.3" y="112.13" x="28.27" class="cls-5"/><line data-cppathid="10009" y2="124.56" x2="28.27" y1="92.18" x1="28.27" class="cls-94"/><line data-cppathid="10010" y2="124.56" x2="223" y1="92.18" x1="223" class="cls-94"/><rect data-cppathid="10011" height="3.74" width="195.3" y="96.88" x="27.7" class="cls-5"/></g><g data-name="Ambalan 1" id="Ambalan_1"><rect data-cppathid="10012" height="19.92" width="6.64" y="231.14" x="211.61" class="cls-5"/><rect data-cppathid="10013" height="5.7" width="6.64" y="231.14" x="211.61" class="cls-57"/><rect data-cppathid="10014" height="14.31" width="218.13" y="216.83" x="16.86" class="cls-5"/><rect data-cppathid="10015" height="19.92" width="6.64" y="231.14" x="32.82" class="cls-5"/><rect data-cppathid="10016" height="5.7" width="6.64" y="231.14" x="32.82" class="cls-57"/><polygon data-cppathid="10017" points="229.27 231.14 16.86 231.14 16.86 245.4 229.27 231.14" class="cls-82"/></g><g><path data-cppathid="10018" transform="translate(265.05 350.55) rotate(180)" d="m128.3,170.01h8.45c1.71,0,3.11,1.39,3.11,3.11v4.31c0,1.71-1.39,3.11-3.11,3.11h-8.45c-1.71,0-3.11-1.39-3.11-3.11v-4.31c0-1.71,1.39-3.11,3.11-3.11Z" class="cls-61"/><rect data-cppathid="10019" transform="translate(265.14 433.45) rotate(-180)" ry=".5" rx=".5" height="1.69" width="22.28" y="215.88" x="121.43" class="cls-76"/><path data-cppathid="10020" d="m121.48,182.55h1.32v-1.43c0-.29-.24-.53-.53-.53h0c-.29,0-.53-.24-.53-.53v-2.22c0-.29.24-.53.53-.53h20.52c.29,0,.53.24.53.53v2.22c0,.29-.24.53-.53.53s-.53.24-.53.53v1.43h1.32c2.16,0,3.92,1.75,3.92,3.92v26.34c0,2.16-1.75,3.92-3.92,3.92h-22.08c-2.16,0-3.92-1.75-3.92-3.92v-26.34c0-2.16,1.75-3.92,3.92-3.92Z" class="cls-69"/><path data-cppathid="10021" transform="translate(265.05 393.59) rotate(-180)" d="m124.83,189.41h15.4c2.41,0,4.36,1.95,4.36,4.36v6.06c0,2.41-1.95,4.36-4.36,4.36h-15.4c-2.41,0-4.36-1.95-4.36-4.36v-6.06c0-2.41,1.95-4.36,4.36-4.36Z" class="cls-21"/><path data-cppathid="10022" d="m143.01,180.54h-20.97c-.18-.08-.31-.27-.31-.48v-2.22c0-.29.24-.53.53-.53h20.52c.29,0,.53.24.53.53v2.22c0,.21-.13.4-.31.48Z" class="cls-76"/></g><g><rect data-cppathid="10023" transform="translate(189.88 350.55) rotate(180)" ry="3.11" rx="3.11" height="10.52" width="14.66" y="170.01" x="87.61" class="cls-69"/><rect data-cppathid="10024" transform="translate(189.97 433.45) rotate(180)" ry=".5" rx=".5" height="1.69" width="22.28" y="215.88" x="83.84" class="cls-61"/><path data-cppathid="10025" d="m83.9,182.55h1.32v-1.43c0-.29-.24-.53-.53-.53h0c-.29,0-.53-.24-.53-.53v-2.22c0-.29.24-.53.53-.53h20.52c.29,0,.53.24.53.53v2.22c0,.29-.24.53-.53.53s-.53.24-.53.53v1.43h1.32c2.16,0,3.92,1.75,3.92,3.92v26.34c0,2.16-1.75,3.92-3.92,3.92h-22.08c-2.16,0-3.92-1.75-3.92-3.92v-26.34c0-2.16,1.75-3.92,3.92-3.92Z" class="cls-76"/><path data-cppathid="10026" transform="translate(189.88 393.59) rotate(-180)" d="m87.24,189.41h15.4c2.41,0,4.36,1.95,4.36,4.36v6.06c0,2.41-1.95,4.36-4.36,4.36h-15.4c-2.41,0-4.36-1.95-4.36-4.36v-6.06c0-2.41,1.95-4.36,4.36-4.36Z" class="cls-21"/><path data-cppathid="10027" d="m105.42,180.54h-20.97c-.18-.08-.31-.27-.31-.48v-2.22c0-.29.24-.53.53-.53h20.52c.29,0,.53.24.53.53v2.22c0,.21-.13.4-.31.48Z" class="cls-61"/></g><g><path data-cppathid="10028" transform="translate(115.81 350.55) rotate(-180)" d="m53.68,170.01h8.45c1.71,0,3.11,1.39,3.11,3.11v4.31c0,1.71-1.39,3.11-3.11,3.11h-8.45c-1.71,0-3.11-1.39-3.11-3.11v-4.31c0-1.71,1.39-3.11,3.11-3.11Z" class="cls-76"/><rect data-cppathid="10029" transform="translate(115.9 433.45) rotate(180)" ry=".5" rx=".5" height="1.69" width="22.28" y="215.88" x="46.81" class="cls-69"/><path data-cppathid="10030" d="m46.86,182.55h1.32v-1.43c0-.29-.24-.53-.53-.53h0c-.29,0-.53-.24-.53-.53v-2.22c0-.29.24-.53.53-.53h20.52c.29,0,.53.24.53.53v2.22c0,.29-.24.53-.53.53s-.53.24-.53.53v1.43h1.32c2.16,0,3.92,1.75,3.92,3.92v26.34c0,2.16-1.75,3.92-3.92,3.92h-22.08c-2.16,0-3.92-1.75-3.92-3.92v-26.34c0-2.16,1.75-3.92,3.92-3.92Z" class="cls-61"/><rect data-cppathid="10031" transform="translate(115.81 393.59) rotate(-180)" ry="4.36" rx="4.36" height="14.78" width="24.12" y="189.41" x="45.84" class="cls-21"/><path data-cppathid="10032" d="m68.39,180.54h-20.97c-.18-.08-.31-.27-.31-.48v-2.22c0-.29.24-.53.53-.53h20.52c.29,0,.53.24.53.53v2.22c0,.21-.13.4-.31.48Z" class="cls-69"/></g><g><path data-cppathid="10033" d="m207.2,163.52v-28.35h-7.07v28.35h0c-2.87,0-5.2,2.34-5.2,5.23v48.82h17.47v-48.82c0-2.89-2.33-5.23-5.2-5.23h0Z" class="cls-11"/><path data-cppathid="10034" d="m207.2,163.52v-28.35h-3.64v28.35c2.87,0,5.2,2.34,5.2,5.23v48.82h3.64v-48.82c0-2.89-2.33-5.23-5.2-5.23Z" class="cls-48"/><rect data-cppathid="10035" height="13.76" width="7.07" y="135.16" x="200.13" class="cls-76"/><rect data-cppathid="10036" height="24.85" width="17.47" y="185.71" x="194.93" class="cls-18"/></g><g><path data-cppathid="10037" d="m182.52,163.52v-28.35h-7.07v28.35h0c-2.87,0-5.2,2.34-5.2,5.23v48.82h17.47v-48.82c0-2.89-2.33-5.23-5.2-5.23h0Z" class="cls-11"/><path data-cppathid="10038" d="m182.52,163.52v-28.35h-3.64v28.35c2.87,0,5.2,2.34,5.2,5.23v48.82h3.64v-48.82c0-2.89-2.33-5.23-5.2-5.23Z" class="cls-64"/><rect data-cppathid="10039" height="13.76" width="7.07" y="135.16" x="175.45" class="cls-76"/><rect data-cppathid="10040" height="24.85" width="17.47" y="185.71" x="170.25" class="cls-69"/></g><g><rect data-cppathid="10041" height="6.42" width="19.6" y="359.9" x="104.58" class="cls-75"/><rect data-cppathid="10042" height="15.09" width="5.78" y="359.9" x="124.18" class="cls-75"/></g><g><rect data-cppathid="10043" height="6.42" width="19.6" y="359.9" x="160.48" class="cls-75"/><rect data-cppathid="10044" height="15.09" width="5.78" y="359.9" x="154.7" class="cls-75"/></g><rect data-cppathid="10045" height="30.2" width="4.51" y="342.47" x="9.4" class="cls-15"/><rect data-cppathid="10046" height="15.09" width="13.07" y="357.57" x="11.66" class="cls-15"/><rect data-cppathid="10047" height="55.43" width="5.86" y="313.18" x="24.73" class="cls-15"/><g><rect data-cppathid="10048" height="5.7" width="34.69" y="312.47" x="24.73" class="cls-15"/><rect data-cppathid="10049" height="21.39" width="5.23" y="312.47" x="56.57" class="cls-15"/></g><g><rect data-cppathid="10050" height="47.78" width="5.05" y="323.16" x="141.02" class="cls-37"/><rect data-cppathid="10051" height="4.66" width="28.35" y="323.16" x="117.72" class="cls-37"/><rect data-cppathid="10052" height="17.49" width="4.27" y="323.16" x="115.78" class="cls-37"/></g><g><rect data-cppathid="10053" height="200.6" width="127.69" y="-30.2" x="681.31" class="cls-43"/><rect data-cppathid="10054" height="15.72" width="299.5" y="204.34" x="596.18" class="cls-53"/><rect data-cppathid="10055" height="19.71" width="251.62" y="219.36" x="621.06" class="cls-53"/><rect data-cppathid="10056" height="7.86" width="299.5" y="204.34" x="596.18" class="cls-84"/><rect data-cppathid="10057" height="4.12" width="251.62" y="219.36" x="621.06" class="cls-84"/><g><rect data-cppathid="10058" height="19.54" width="4.88" y="212.2" x="745.94" class="cls-67"/><rect data-cppathid="10059" height="19.54" width="4.88" y="212.2" x="755.44" class="cls-67"/><rect data-cppathid="10060" height="19.54" width="4.88" y="212.2" x="764.93" class="cls-67"/><rect data-cppathid="10061" height="19.54" width="4.88" y="212.2" x="831.4" class="cls-67"/><rect data-cppathid="10062" height="19.54" width="4.88" y="212.2" x="840.89" class="cls-67"/><rect data-cppathid="10063" height="19.54" width="4.88" y="212.2" x="850.39" class="cls-67"/></g><rect data-cppathid="10064" height="34.42" width="338.91" y="169.92" x="575.7" class="cls-53"/><rect data-cppathid="10065" height="23.29" width="127.69" y="147.11" x="681.31" class="cls-84"/></g><g id="panci"><path data-cppathid="10066" d="m821.55,318.42c0,2.38-1.93,4.31-4.31,4.31s-4.31-1.93-4.31-4.31,1.93-4.31,4.31-4.31,4.31,1.93,4.31,4.31Z" class="cls-88"/><polygon data-cppathid="10067" points="820.06 324.19 814.43 324.19 815.33 320.03 819.16 320.03 820.06 324.19" class="cls-88"/><g class="cls-91"><circle data-cppathid="10068" r="1.3" cy="316.72" cx="818.54" class="cls-46"/></g><path data-cppathid="10069" d="m779.63,338.89c-2.12-1.4-2.7-4.25-1.31-6.37,1.4-2.12,4.25-2.7,6.37-1.31" class="cls-88"/><path data-cppathid="10070" d="m806.28,299.85h21.91c4.09,0,7.41,3.32,7.41,7.41v23.73h-36.73v-23.73c0-4.09,3.32-7.41,7.41-7.41Z" class="cls-93"/><path data-cppathid="10071" d="m819.48,324.19h-4.49c-9.21,0-17.29,4.79-21.93,12.01l-8.46-5.6-5.57,8.41,10.29,6.81c-.25,1.45-.41,2.93-.41,4.45v21.94h56.64v-21.94c0-14.4-11.67-26.08-26.08-26.08Z" class="cls-44"/><path data-cppathid="10072" d="m823.3,324.51c-1.25-.18-2.52-.31-3.82-.31h-4.49c-9.21,0-17.29,4.79-21.93,12.01l-8.46-5.6-5.57,8.41,10.29,6.81c-.25,1.45-.41,2.93-.41,4.45v21.94h12.13v-21.94c0-13.1,9.67-23.91,22.26-25.77Z" class="cls-82"/><path data-cppathid="10073" d="m804.67,326.32c3.6.33,7.92.52,12.56.52s8.96-.19,12.56-.52c-3.17-1.37-6.65-2.13-10.32-2.13h-4.49c-3.67,0-7.15.76-10.32,2.13Z" class="cls-82"/><path data-cppathid="10074" d="m779.63,339.77c-.17,0-.35-.05-.5-.15-.42-.28-.53-.84-.25-1.26l5.06-7.64c.28-.42.84-.53,1.26-.26.42.28.53.84.26,1.26l-5.06,7.64c-.18.26-.46.41-.76.41Z" class="cls-88"/><g class="cls-91"><rect data-cppathid="10075" height="18.4" width="12.56" y="351.89" x="821.55" class="cls-46"/></g><g class="cls-91"><rect data-cppathid="10076" height="4.11" width="12.56" y="345.1" x="821.55" class="cls-46"/></g><g class="cls-91"><path data-cppathid="10077" d="m817.24,324.19c-.41.02-.81.04-1.22.05,15.07.55,27.1,11.05,27.1,23.96v24.01h2.44v-24.01c-1.39-13.35-12.12-24.86-28.32-24.01Z" class="cls-46"/></g></g><g data-name="panci" id="panci-2"><path data-cppathid="10078" d="m753.57,349.43l-55.54,15.45c-1.5.42-3.11-.29-3.6-1.59h0c-.48-1.3.34-2.69,1.84-3.1l55.54-15.45c1.5-.42,3.11.29,3.6,1.59h0c.48,1.3-.34,2.69-1.84,3.1Z" class="cls-7"/><path data-cppathid="10079" d="m697.43,371.93h-55.47c-6.17,0-11.17-4.32-11.17-9.64v-4.24h77.81v4.24c0,5.32-5,9.64-11.17,9.64Z" class="cls-70"/></g><g><rect data-cppathid="10080" height="293.89" width="186.01" y="398.49" x="884.33" class="cls-28"/><rect data-cppathid="10081" height="237.55" width="139.22" y="432.45" x="907.72" class="cls-58"/><polygon data-cppathid="10082" points="907.72 432.45 907.72 670 1046.95 432.45 907.72 432.45" class="cls-6"/><rect data-cppathid="10083" height="47.4" width="281.19" y="398.48" x="0" class="cls-28"/><rect data-cppathid="10084" height="248.42" width="140.59" y="443.96" x="0" class="cls-28"/><rect data-cppathid="10085" height="248.42" width="140.59" y="443.96" x="140.59" class="cls-28"/><rect data-cppathid="10086" height="237.84" width="105.08" y="432.49" x="17.37" class="cls-58"/><rect data-cppathid="10087" height="237.84" width="105.08" y="432.49" x="161.54" class="cls-58"/><rect data-cppathid="10088" height="7.35" width="57.89" y="414.83" x="67.75" class="cls-78"/><rect data-cppathid="10089" height="7.35" width="57.89" y="414.83" x="159.59" class="cls-78"/><rect data-cppathid="10090" height="59.19" width="140.46" y="398.48" x="281.19" class="cls-28"/><rect data-cppathid="10091" height="59.18" width="140.46" y="457.16" x="281.19" class="cls-28"/><rect data-cppathid="10092" height="59.18" width="140.46" y="515.84" x="281.19" class="cls-28"/><rect data-cppathid="10093" height="59.18" width="140.46" y="574.52" x="281.19" class="cls-28"/><rect data-cppathid="10094" height="3.18" width="140.46" y="456.07" x="281.19" class="cls-81"/><rect data-cppathid="10095" height="3.19" width="140.46" y="512.2" x="281.19" class="cls-81"/><rect data-cppathid="10096" height="3.19" width="140.46" y="572.15" x="281.19" class="cls-81"/><rect data-cppathid="10097" height="37.97" width="127.56" y="407.91" x="287" class="cls-58"/><rect data-cppathid="10098" height="293.89" width="186.01" y="398.49" x="421.65" class="cls-28"/><rect data-cppathid="10099" height="237.55" width="139.23" y="432.45" x="445.05" class="cls-58"/><rect data-cppathid="10100" height="310.44" width="278.35" y="382.6" x="605.98" class="cls-54"/><rect data-cppathid="10101" height="169.05" width="205.83" y="463.91" x="639.75" class="cls-58"/><rect data-cppathid="10102" height="7.31" width="278.35" y="432.47" x="605.98" class="cls-2"/><rect data-cppathid="10103" height="6.99" width="246.99" y="449.15" x="619.56" class="cls-6"/><rect data-cppathid="10104" height="6.3" width="1070.66" y="397.69" x=".15" class="cls-81"/><rect data-cppathid="10105" height="293.9" width="3.47" y="398.48" x="140.59" class="cls-81"/><rect data-cppathid="10106" height="293.9" width="3.47" y="398.48" x="278.36" class="cls-81"/><rect data-cppathid="10107" height="293.9" width="3.47" y="398.48" x="420.49" class="cls-81"/><polygon data-cppathid="10108" points="17.37 432.49 17.37 670.33 122.45 432.49 17.37 432.49" class="cls-6"/><polygon data-cppathid="10109" points="162.09 432.49 162.09 670.33 267.17 432.49 162.09 432.49" class="cls-6"/><polygon data-cppathid="10110" points="287 445.88 414.56 407.91 287 407.91 287 445.88" class="cls-6"/><rect data-cppathid="10111" height="4.72" width="56.13" y="423.45" x="324" class="cls-78"/><rect data-cppathid="10112" height="37.97" width="127.56" y="467.35" x="287" class="cls-58"/><polygon data-cppathid="10113" points="287 505.32 414.56 467.35 287 467.35 287 505.32" class="cls-6"/><rect data-cppathid="10114" height="4.72" width="56.13" y="482.89" x="324" class="cls-78"/><rect data-cppathid="10115" height="37.97" width="127.56" y="524.2" x="287" class="cls-58"/><polygon data-cppathid="10116" points="287 562.17 414.56 524.2 287 524.2 287 562.17" class="cls-6"/><rect data-cppathid="10117" height="4.72" width="56.13" y="539.75" x="324" class="cls-78"/><rect data-cppathid="10118" height="37.97" width="127.56" y="583.64" x="287" class="cls-58"/><polygon data-cppathid="10119" points="287 621.61 414.56 583.64 287 583.64 287 621.61" class="cls-6"/><polygon data-cppathid="10120" points="445.05 432.45 445.05 670 584.27 432.45 445.05 432.45" class="cls-6"/><rect data-cppathid="10121" height="7.35" width="57.89" y="411.15" x="432.87" class="cls-78"/><polygon data-cppathid="10122" points="639.75 632.96 845.58 463.91 639.75 463.91 639.75 632.96" class="cls-6"/><rect data-cppathid="10123" height="7.35" width="57.9" y="411.15" x="895.55" class="cls-78"/><rect data-cppathid="10124" height="50.12" width="278.35" y="382.6" x="605.98" class="cls-56"/><path data-cppathid="10125" d="m646.74,416.6c0,7.51-6.08,13.59-13.59,13.59s-13.59-6.09-13.59-13.59,6.09-13.59,13.59-13.59,13.59,6.08,13.59,13.59Z" class="cls-36"/><circle data-cppathid="10126" r="13.59" cy="416.6" cx="670.43" class="cls-36"/><circle data-cppathid="10127" r="13.59" cy="416.6" cx="710.82" class="cls-36"/><rect data-cppathid="10128" height="7.47" width="100.97" y="403.05" x="772.57" class="cls-36"/><rect data-cppathid="10129" height="7.47" width="100.97" y="420.13" x="772.57" class="cls-36"/><rect data-cppathid="10130" height="15.1" width="278.35" y="382.6" x="605.98" class="cls-86"/><rect data-cppathid="10131" height="17.73" width="1070.81" y="379.96" class="cls-83"/><polygon data-cppathid="10132" points="175.77 379.2 5.05 379.2 .22 362.68 180.61 362.68 175.77 379.2" class="cls-29"/><rect data-cppathid="10133" height="6.35" width="254.18" y="375.59" x="615.57" class="cls-88"/></g><g><rect data-cppathid="10134" height="2.95" width="169.46" y="143.92" x="288.11" class="cls-5"/><g><path data-cppathid="10135" d="m344.81,180.43h0c-2.01-2.01-4.66-3.25-7.49-3.51l-17.16-1.57v64.05h18.47c5.38,0,9.74-4.36,9.74-9.74v-40.63c0-3.22-1.28-6.32-3.56-8.6Zm-4.83,53.76c-2.13,0-3.86-1.73-3.86-3.86s1.73-3.86,3.86-3.86,3.86,1.73,3.86,3.86-1.73,3.86-3.86,3.86Z" class="cls-11"/><rect data-cppathid="10136" height="38.35" width="8.4" y="137.81" x="320.16" class="cls-22"/></g><g><path data-cppathid="10137" d="m357.96,213.26v-46l6.72.09v32.24s-1.18,13.68-6.72,13.68Z" class="cls-11"/><rect data-cppathid="10138" height="29.72" width="3.61" y="137.54" x="357.96" class="cls-22"/></g><g><path data-cppathid="10139" d="m296.51,166.63v67.41s11.08-22.73,10.75-67.41h-10.75Z" class="cls-11"/><rect data-cppathid="10140" height="29.72" width="5.12" y="136.91" x="296.51" class="cls-22"/></g><g><path data-cppathid="10141" d="m379.45,166.63v67.41s11.08-22.73,10.75-67.41h-10.75Z" class="cls-11"/><rect data-cppathid="10142" height="29.72" width="5.12" y="136.91" x="379.45" class="cls-22"/></g><g><rect data-cppathid="10143" height="62.71" width="2.35" y="139.27" x="405.52" class="cls-11"/><rect data-cppathid="10144" height="29.72" width="4.44" y="134.86" x="404.47" class="cls-22"/><path data-cppathid="10145" d="m412.8,200.59h-12.22c-1.47,0-2.66,1.19-2.66,2.66v16.95c0,1.47,1.19,2.66,2.66,2.66h12.22c1.47,0,2.66-1.19,2.66-2.66v-16.95c0-1.47-1.19-2.66-2.66-2.66Zm-10.58,18.14c0,.47-.38.85-.85.85s-.85-.38-.85-.85v-14.19c0-.47.38-.85.85-.85s.85.38.85.85v14.19Zm3.55,0c0,.47-.38.85-.85.85s-.85-.38-.85-.85v-14.19c0-.47.38-.85.85-.85s.85.38.85.85v14.19Zm3.55,0c0,.47-.38.85-.85.85s-.85-.38-.85-.85v-14.19c0-.47.38-.85.85-.85s.85.38.85.85v14.19Zm3.55,0c0,.47-.38.85-.85.85s-.85-.38-.85-.85v-14.19c0-.47.38-.85.85-.85s.85.38.85.85v14.19Z" class="cls-11"/></g><rect data-cppathid="10146" height="62.71" width="2.35" y="139.27" x="445.4" class="cls-11"/><rect data-cppathid="10147" height="29.72" width="4.44" y="134.86" x="444.35" class="cls-22"/><g><rect data-cppathid="10148" height="62.71" width="1.34" y="139.27" x="425.96" class="cls-11"/><rect data-cppathid="10149" height="29.72" width="3.36" y="134.86" x="424.95" class="cls-22"/><path data-cppathid="10150" d="m426.63,200.16c-7.67,1.1-3.09,19.45-3.09,19.45-.27-15.76,3.09-15.76,3.09-15.76,0,0,3.37,0,3.09,15.76,0,0,4.58-18.35-3.09-19.45Z" class="cls-11"/></g><g><path data-cppathid="10151" d="m446.57,210.54c5.5,0,9.95-4.46,9.95-9.95h-19.91c0,5.5,4.46,9.95,9.95,9.95Z" class="cls-11"/><path data-cppathid="10152" d="m440.6,200.59h-3.98c0,5.5,4.46,9.95,9.95,9.95.68,0,1.35-.07,1.99-.2-4.54-.92-7.96-4.94-7.96-9.75Z" class="cls-63"/></g></g><g><g><polygon data-cppathid="10153" points="1015.91 380.38 974.85 380.38 966.02 330.25 1025.89 330.25 1015.91 380.38" class="cls-41"/><rect data-cppathid="10154" height="7.67" width="52.57" y="374.98" x="969.09" class="cls-3"/><path data-cppathid="10155" d="m978.29,330.25s-4.6-56.01-25.91-68.68c0,0,29.95,11.29,32.83,68.68h-6.91Z" class="cls-42"/><path data-cppathid="10156" d="m1005.64,330.25s4.6-56.01,25.9-68.68c0,0-29.93,11.29-32.82,68.68h6.91Z" class="cls-42"/><path data-cppathid="10157" d="m987.22,330.25s4.61-56.01,25.9-68.68c0,0-29.93,11.29-32.82,68.68h6.91Z" class="cls-16"/><path data-cppathid="10158" d="m1005.92,330.25s-4.6-56.01-25.9-68.68c0,0,29.92,11.29,32.81,68.68h-6.91Z" class="cls-16"/><path data-cppathid="10159" d="m995.58,330.25s3.33-40.52,18.74-49.69c0,0-21.66,8.18-23.74,49.69h5Z" class="cls-16"/><path data-cppathid="10160" d="m1019.01,330.25s3.33-40.52,18.74-49.69c0,0-21.65,8.18-23.74,49.69h4.99Z" class="cls-16"/><path data-cppathid="10161" d="m972.89,330.25s-3.33-40.52-18.74-49.69c0,0,21.65,8.18,23.73,49.69h-4.99Z" class="cls-16"/></g><polygon data-cppathid="10162" points="973.91 375.08 1025.89 330.25 1016.98 374.98 973.91 375.08" class="cls-59"/></g><g><path data-cppathid="10163" d="m203.04,312.05h-2.97v-4.87c0-.13,0-.25.04-.37l.1-4.17,12.15,2.38v3.51h-9.3v3.51Z" class="cls-24"/><path data-cppathid="10164" d="m185.53,382.3h33.89v-40.56c0-7.89-9-22.72-17.47-22.73-8.48-.02-16.42,14.78-16.42,20.62v42.68Z" class="cls-9"/><path data-cppathid="10165" d="m210.36,382.3h9.06v-40.56c0-7.89-9-22.72-17.47-22.73-.15,0-.31,0-.46.01,3.78,5.29,6.51,10.18,7.75,14.53,3.55,12.44,1.23,33.43,1.12,48.75Z" class="cls-31"/><path data-cppathid="10166" d="m219.42,348.21v-6.47c0-2.02-.59-4.5-1.62-7.07-3.15,3.29-8.35,6.92-16.48,8.19-7.43,1.16-12.54,3.2-15.8,5.32v15.37c3.25-2.13,8.38-4.19,15.85-5.35,9.65-1.5,15.17-6.34,18.04-9.98Z" class="cls-24"/><rect data-cppathid="10167" height="9.61" width="11.13" y="311.03" x="196.43" class="cls-4"/></g><g><path data-cppathid="10168" d="m538,373.83h14.22v3.53c0,.22-.18.39-.39.39h-13.43c-.21,0-.39-.18-.39-.39v-3.53Z" class="cls-1"/><path data-cppathid="10169" d="m393.99,374.21h14.21v3.53c0,.21-.18.39-.39.39h-13.43c-.22,0-.39-.18-.39-.39v-3.53Z" class="cls-1"/><path data-cppathid="10170" d="m390.15,285.69h165.03c1.22,0,2.21.99,2.21,2.21v84.09c0,1.22-.99,2.21-2.21,2.21h-165.03c-1.22,0-2.21-.99-2.21-2.21v-84.1c0-1.22.99-2.21,2.21-2.21Z" class="cls-25"/><path data-cppathid="10171" d="m390.15,374.21h165.03c1.22,0,2.21-1,2.21-2.21v-84.09c0-1.22-1-2.21-2.21-2.21h-.27l-166.97,85.03v1.27c0,1.22.99,2.21,2.21,2.21Z" class="cls-30"/><path data-cppathid="10172" d="m390.29,374.21h164.89c1.22,0,2.21-1,2.21-2.21v-82.88l-167.1,85.1Z" class="cls-23"/><path data-cppathid="10173" d="m395.71,295.82h128.25c.95,0,1.72.77,1.72,1.72v65.35c0,.95-.77,1.72-1.72,1.72h-128.25c-.95,0-1.72-.77-1.72-1.72v-65.35c0-.95.77-1.72,1.72-1.72Z" class="cls-68"/><path data-cppathid="10174" d="m400.41,362.09h118.85c.87,0,1.59-.72,1.59-1.59v-60.56c0-.88-.72-1.59-1.59-1.59h-118.85c-.88,0-1.6.72-1.6,1.59v60.56c0,.88.72,1.59,1.6,1.59Z" class="cls-72"/><path data-cppathid="10175" d="m514.04,298.33h-113.63c-.88,0-1.6.72-1.6,1.6v52.76c32.59-15.64,85.78-40.58,115.22-54.36Z" class="cls-80"/><path data-cppathid="10176" d="m497.15,298.33h-96.74c-.88,0-1.6.72-1.6,1.6v44.75c30.32-14.45,71.57-33.82,98.34-46.35Z" class="cls-52"/><path data-cppathid="10177" d="m534.27,296.75h17.01c.52,0,.93.42.93.93v7.46c0,.51-.42.93-.93.93h-17.01c-.51,0-.93-.42-.93-.93v-7.47c0-.51.42-.93.93-.93Z" class="cls-27"/><path data-cppathid="10178" d="m542.78,343.81c3.52,0,6.38-2.87,6.38-6.39s-2.87-6.39-6.38-6.39-6.39,2.87-6.39,6.39,2.87,6.39,6.39,6.39Z" class="cls-72"/><path data-cppathid="10179" d="m542.78,366.39c5.21,0,9.46-4.25,9.46-9.47s-4.25-9.47-9.46-9.47-9.47,4.25-9.47,9.47,4.25,9.47,9.47,9.47Z" class="cls-72"/><path data-cppathid="10180" d="m541.95,335.69l3.43-2.28c.35-.24.83-.14,1.07.21l.21.32c.24.35.14.83-.21,1.07l-3.42,2.28c-.36.23-.83.14-1.07-.22l-.21-.32c-.24-.35-.14-.83.21-1.07Z" class="cls-45"/><path data-cppathid="10181" d="m541.98,357.36l-3.92-5.43c-.41-.56-.28-1.34.28-1.75l.51-.37c.55-.4,1.35-.28,1.75.28l3.92,5.43c.4.56.28,1.34-.28,1.75l-.51.37c-.56.4-1.35.28-1.75-.28Z" class="cls-45"/><rect data-cppathid="10182" height="88.52" width="1.63" y="285.69" x="526.61" class="cls-27"/><path data-cppathid="10183" d="m520.95,309.7h7.81c.54,0,.98.44.98.98v44.52c0,.54-.44.98-.98.98h-7.81c-.54,0-.98-.44-.98-.98v-44.52c0-.54.44-.98.98-.98Z" class="cls-51"/><path data-cppathid="10184" d="m520.95,309.7h3.01v46.47h-3.01c-.54,0-.98-.44-.98-.97v-44.52c0-.54.44-.98.98-.98Z" class="cls-30"/></g><g><path data-cppathid="10185" d="m284.21,295.89h1.03c1.13,0,1.98-.93,1.98-2.06v-7.76c.02-1.13-.98-2.06-2.11-2.06h-1.03c-1.13,0-1.98.93-1.98,2.06l-.02,7.76c0,1.13,1,2.06,2.13,2.06Z" class="cls-14"/><path data-cppathid="10186" d="m279.21,314.07s0-.03,0-.05l2.12-18.22h-1.24v-5.66h8.93v5.66h-1.33l1.81,18.72c4.59,1.78,6.74,6.7,6.74,11.01v51.15h-.01s.01-.62.01.13-5.29,3.78-11.82,3.78-11.82-3.03-11.82-3.78,0-.09.02-.13h-.02v-51.74c0-4.12,3.42-9.81,6.61-10.87Z" class="cls-8"/><polygon data-cppathid="10187" points="279.68 310.05 281.31 295.97 287.7 295.97 289.06 310.05 279.68 310.05" class="cls-17"/><path data-cppathid="10188" d="m296.24,333.12v29.29c0,.27-.05.52-.14.76h-23.42c-.05-.17-.08-.33-.08-.51v-29.54h23.64Z" class="cls-17"/><path data-cppathid="10189" d="m284.94,340.37c1.65,0,2.98,1.33,2.98,2.97s-1.33,2.97-2.98,2.97-2.97-1.33-2.97-2.97,1.33-2.97,2.97-2.97h0Zm6.57.8c1.22,0,2.21.99,2.21,2.21s-.99,2.21-2.21,2.21-2.21-.99-2.21-2.21.99-2.21,2.21-2.21h0Zm-10.3,6.53c1.22,0,2.21.99,2.21,2.21s-.99,2.21-2.21,2.21-2.21-1-2.21-2.21.99-2.21,2.21-2.21h0Zm7.43.21c.68,0,1.24.55,1.24,1.24s-.55,1.23-1.24,1.23-1.23-.55-1.23-1.23.55-1.23,1.23-1.23h0Zm-3.15,5.3c1.22,0,2.21.99,2.21,2.21s-.99,2.22-2.21,2.22c-1.22,0-2.21-1-2.21-2.22s.99-2.21,2.21-2.21h0Zm-7.61-12.76c1.22,0,2.21.99,2.21,2.21s-.99,2.21-2.21,2.21-2.21-.99-2.21-2.21.99-2.21,2.21-2.21h0Z" class="cls-60"/></g><g><g><g><path data-cppathid="10190" d="m326.1,319.81s.9-18.57.61-25.22c-.1-2.31-.82-4.3-2.41-6.24-.85-1.04-1.85-1.8-2.78-1.93-1.69-.25-2.77.09-.55.78,1.21.38,2.1,1.32,2.73,2.36,1.35,2.19,1.56,3.98,1.59,6.38l-.25,23.37,1.07.51Z" class="cls-89"/><path data-cppathid="10191" d="m324.25,319.83s-6.25-17.55-7.83-24.03c-.55-2.24-.41-4.36.58-6.66.53-1.23,1.27-2.23,2.13-2.63,1.56-.72,2.69-.69.75.6-1.05.7-1.64,1.85-1.97,3.02-.69,2.48-.39,4.26.26,6.57l6.96,22.35-.88.78Z" class="cls-65"/><path data-cppathid="10192" d="m322.87,319.74s-6.89-13.14-9.46-20.86c-2.57-7.72,4.24-12.85,6.56-13.14,2.31-.37,10.28,2.66,9.96,10.79-.32,8.13-3.06,22.64-3.06,22.64l-1.28.23c1.2-7.22,2.42-14.48,3.02-21.7.26-3.21-.75-7.6-4.26-9.46-4.06-2.16-4.6-2.08-7.89,1.12-2.85,2.77-2.61,7.26-1.45,10.28,2.59,6.8,5.76,13.43,9.16,19.97l-1.29.13Z" class="cls-10"/></g><path data-cppathid="10193" d="m327.41,320.8c5.84,14.29,5.59,23.37,5.49,38.82-.01,1.55-3.95,2.38-4.45.6-3.3-11.68-6.59-23.79-5.42-38.8l-.89.13c-.76.11-1.46-.43-1.57-1.18h0c-.11-.76.42-1.46,1.18-1.57l6.5-.92c.76-.11,1.46.42,1.57,1.18h0c.11.75-.42,1.46-1.18,1.57l-1.23.18Z" class="cls-35"/><path data-cppathid="10194" d="m330.8,361.18c-1.03.16-2.1-.09-2.35-.96-3.3-11.68-6.59-23.79-5.42-38.8l-.89.13c-.76.11-1.46-.43-1.57-1.18h0c-.11-.76.42-1.46,1.18-1.57l2.97-.42,6.08,42.8Z" class="cls-49"/><polygon data-cppathid="10195" points="323.06 321.36 327.32 320.75 327.22 321.64 322.96 322.24 323.06 321.36" class="cls-35"/><path data-cppathid="10196" d="m322.4,319.01c.45-.07.86.21.92.63.06.41-.26.8-.7.86-.45.06-.86-.22-.92-.63-.06-.41.26-.79.7-.86Z" class="cls-85"/><path data-cppathid="10197" d="m328.48,357.66c-2.91-10.49-5.5-21.48-4.64-34.74l.82-.12c-.86,13.25,1.73,24.25,4.64,34.74l-.82.12Z" class="cls-85"/></g><g><path data-cppathid="10198" d="m337.29,366.57s-1.63-26.12-2.04-36.89c-.09-2.57-1.29-5.02-1.21-5.27.41-1.32,2.55-.35,2.55-.35,0,0,1.26-4.19,1.5-1.65.14,1.43-.8,8.93-.62,10.86,1.15,12.25,3,32.43,2.64,32.87-.52.64-2.81.42-2.81.42Z" class="cls-50"/><path data-cppathid="10199" d="m337.79,327.28c-.21,2.41-.42,4.98-.32,6,.93,9.88,2.31,24.92,2.62,30.6-.61.41-1.08.66-1.08.66,0,0-2.4-30.36-2.24-32.65.11-1.53.52-3.53,1.02-4.6Z" class="cls-19"/><path data-cppathid="10200" d="m337,373.33l-.12-13.22c0-.15.01-.06.08-.02.03.02.08.03.13.04.29.14.74.21,1.23.18.84-.06,1.5-.41,1.48-.78,0-.05-.02-.11-.06-.15.02-.08.02-.13.02-.13,0,0,2.27,11.08,2.38,14.14.03.06.04.13.05.2,0,.11-.01.22-.06.32-.02.13-.05.22-.09.25-.05.03-.1.06-.16.09-.42.39-1.23.7-2.17.76-1.42.11-2.61-.36-2.66-1.04,0-.05,0-.09,0-.14-.04-.14-.06-.3-.05-.48Z" class="cls-66"/><path data-cppathid="10201" d="m338.69,360.25c.47-.08.86-.26,1.03-.47h.16c.46,2.25,2.18,10.94,2.27,13.6.03.06.04.13.05.2,0,.11-.01.22-.06.32-.02.13-.05.22-.09.25-.05.03-.1.06-.16.09-.35.33-.96.59-1.68.71l-1.5-14.68Z" class="cls-39"/><path data-cppathid="10202" d="m334.29,308.93l.37-.92s.9.4,1.94,1.15c2.16,1.58,3.51,4.9,3.86,8.87.31,3.51-.14,7.68-1.72,9.44-.46.51-.86.78-1.09,1.52-.06.21-.29-.37-.41-.74-.89-2.77-2.95-19.32-2.95-19.32Z" class="cls-19"/><path data-cppathid="10203" d="m337.34,310.22c1.52,1.78,2.47,4.59,2.76,7.83.31,3.51-.14,7.68-1.72,9.44-.35.39-.67.64-.91,1.08-.09-.02-.14-.04-.14-.04.94-1.29,1.49-3.69,1.8-5.36.81-4.35-.23-9.07-1.78-12.95Z" class="cls-90"/><path data-cppathid="10204" d="m333.33,318.91c.42,5.94,1.76,10.69,2.98,10.6,1.22-.09,1.87-4.98,1.44-10.92-.43-5.94-1.76-10.69-2.98-10.6-1.22.09-1.86,4.98-1.44,10.92Z" class="cls-50"/><path data-cppathid="10205" d="m335.64,329.58c.45.27.37.98.37.98,0,0,1.41,24.35,1.55,28.27.03.85-.52.74-.55,0l-1.36-29.25Z" class="cls-60"/><path data-cppathid="10206" d="m333.69,318.72c.36,4.99,1.48,8.97,2.5,8.89,1.02-.07,1.56-4.17,1.2-9.16-.36-4.98-1.48-8.97-2.5-8.89-1.03.07-1.56,4.18-1.21,9.16Z" class="cls-19"/><path data-cppathid="10207" d="m336.74,313.5c-.2-.94-.42-1.76-.66-2.4-.22-.49-.5-.9-.84-1.15-.26-.19-.51-.22-.74-.14-.33.43-.59,1.36-.74,2.63,1.19.58,2.86,2.25,3.01,2.23.07-.01.06-.5-.03-1.17Z" class="cls-90"/><path data-cppathid="10208" d="m334.09,322.22c.32,2.01.76,3.63,1.24,4.56.26-.36.97-1.38,1.37-3.07.53-2.23.28-5.05.28-5.05,0,0-1.32,2.46-2.88,3.56Z" class="cls-50"/><path data-cppathid="10209" d="m335.27,326.85c.58.36,1.41-.2,1.56.1.14.3-.07,1.28-.39,1.4-.32.12-1.11-.49-1.17-1.5Z" class="cls-60"/><path data-cppathid="10210" d="m334.87,309.42c.28-.05.59-.17,1.2,1.29.61,1.46,1.12,3.94,1.1,4.4-.01.46-.08.43-.08.43,0,0-.63-4.39-2.22-6.13Z" class="cls-60"/><path data-cppathid="10211" d="m337.3,361.38c.34-.21.53.2.55.48.02.27.58,11.43.33,11.66-.26.24-.44.33-.54.12-.1-.21-.57-10.67-.34-12.26Z" class="cls-60"/></g><g><path data-cppathid="10212" d="m314.24,298.12l3.9,16.13c1.24,5.1-2.2,9.69-2.3,14.77l11.64,40.03-.07.02c.44,1.83-.87,3.73-2.94,4.23-2.06.5-4.1-.59-4.55-2.42-.07-.27-.09-.55-.08-.82l-7.87-40.08c-2.56-4.22-8.43-6.24-9.61-11.14l-4.1-16.95c-.55-2.25,15.34-6.38,15.98-3.76h0Zm8.81,69.79c-.68.17-1.1.85-.93,1.52.17.68.85,1.1,1.52.93.68-.17,1.1-.85.94-1.53-.17-.68-.85-1.1-1.53-.93Z" class="cls-13"/><path data-cppathid="10213" d="m314.24,298.12v.03s-15.95,3.86-15.95,3.86l-.03-.13c-.55-2.25,15.34-6.38,15.98-3.76Z" class="cls-71"/></g><g><path data-cppathid="10214" d="m328.89,372.66c3.68-10.86,13.74-34.73,16.52-43.16l2.45.79c-.7,1.51-1.28,2.85-1.47,3.56-2.58,9.56-6.73,31.96-9.35,41.77-2.44,9.16-11.35,6.52-8.15-2.95Z" class="cls-50"/><path data-cppathid="10215" d="m347.86,330.28c-.7,1.51-1.28,2.85-1.47,3.56-2.87,10.62-6.6,32.29-8.48,38.3-1.7,7.08-3.31,7.92-3.31,7.92,0,0,10.93-46.47,11.61-47.95.68-1.48.68-1.35,1.09-2.02l.57.18Z" class="cls-19"/><path data-cppathid="10216" d="m346.09,329.71c.03.37-.16.73-.16.73,0,0-13.07,36.92-14.45,41.04-.3.9-.82.58-.57-.21l14.91-41.65.27.09Z" class="cls-60"/><path data-cppathid="10217" d="m345.27,330.28c1.41-3.49-2.66-14.47-.86-22.35,2.99-13.03,21.5-7.5,17.12,4.51-2.61,7.18-12.09,14.28-13.68,17.84-.48,1.08-2.32.22-2.32.22l-.27-.23Z" class="cls-50"/><path data-cppathid="10218" d="m346.17,328.11c1.26-3.13-2.39-12.97-.77-20.04,2.68-11.69,19.28-6.73,15.35,4.04-2.34,6.44-10.84,12.81-12.27,16-.43.97-2.08.2-2.08.2l-.24-.21Z" class="cls-19"/><path data-cppathid="10219" d="m346.45,326.35c.04-4.17-2.42-12.24-1.04-18.28.8-3.5,2.85-5.5,5.21-6.31.39.47.62.79.62.79-7.89,5.19-5.11,15.05-3.95,23.08-.23.35-.52.58-.85.72Z" class="cls-73"/><path data-cppathid="10220" d="m346.17,328.11c.19-.46.26-1.07.27-1.78,3.34-2.79,4.61-3.36,6.13-7.1,2.89-7.16,2.84-12.99-2.09-17.42,5.57-2.03,13.05,2.68,10.28,10.3-2.34,6.44-10.84,12.81-12.27,16-.43.97-2.08.2-2.08.2l-.24-.21Z" class="cls-73"/><path data-cppathid="10221" d="m346.56,309.66c-.71,3.82-.11,13.54.96,13.14,1.07-.41.58-13.39-.06-13.6-.64-.21-.59-.23-.9.46Z" class="cls-50"/><path data-cppathid="10222" d="m345.95,329.67c.1-.39-.34-2.32.31-2.7.65-.38,1.64.42,1.37,1.13-.27.71-1.23,1.87-1.68,1.57Z" class="cls-60"/></g><g><path data-cppathid="10223" d="m310.8,331.21h37.15v48.51h0c-.28,1.18-8.49,2.13-18.57,2.13s-18.29-.95-18.57-2.13h0v-48.51Z" class="cls-33"/><path data-cppathid="10224" d="m347.96,334.72v45h0c-.28,1.18-8.49,2.13-18.57,2.13s-18.29-.95-18.57-2.13h0v-2.18c2.36-1.07,4.89-2.39,7.4-4.01,7.85-5.09,21.23-16.57,29.76-38.81Z" class="cls-38"/><path data-cppathid="10225" d="m310.63,330.71h37.5c.69,0,1.25.56,1.25,1.25h0c0,.69-.56,1.25-1.25,1.25h-37.5c-.68,0-1.25-.56-1.25-1.25h0c0-.69.57-1.25,1.25-1.25Z" class="cls-33"/><path data-cppathid="10226" d="m310.63,330.71h37.5c.64,0,1.17.48,1.24,1.1h-39.98c.08-.62.61-1.1,1.24-1.1Z" class="cls-40"/><rect data-cppathid="10227" height="1.27" width="37.15" y="333.21" x="310.81" class="cls-87"/><path data-cppathid="10228" d="m319.07,341.37v31.82c0,3.06-4.64,3.06-4.64,0v-31.82c0-3.06,4.64-3.06,4.64,0Z" class="cls-47"/><path data-cppathid="10229" d="m344.53,338.98v37.26c0,3.59-13.01,3.59-13.01,0v-37.26c0-3.59,13.01-3.59,13.01,0Z" class="cls-79"/><g><path data-cppathid="10230" d="m316.65,342.74c1.49,0,2.71-1.22,2.71-2.71s-1.22-2.71-2.71-2.71-2.71,1.22-2.71,2.71,1.22,2.71,2.71,2.71Z" class="cls-79"/><path data-cppathid="10231" d="m316.83,342.5c1.36,0,2.47-1.11,2.47-2.47s-1.11-2.47-2.47-2.47-2.47,1.11-2.47,2.47,1.11,2.47,2.47,2.47Z" class="cls-52"/></g><g><path data-cppathid="10232" d="m316.16,356.72c1.49,0,2.71-1.22,2.71-2.71s-1.22-2.71-2.71-2.71-2.71,1.22-2.71,2.71,1.22,2.71,2.71,2.71Z" class="cls-79"/><path data-cppathid="10233" d="m316.35,356.48c1.36,0,2.47-1.11,2.47-2.47s-1.11-2.47-2.47-2.47-2.47,1.11-2.47,2.47,1.11,2.47,2.47,2.47Z" class="cls-52"/></g><g><path data-cppathid="10234" d="m315.68,370.69c1.49,0,2.71-1.22,2.71-2.71s-1.22-2.71-2.71-2.71-2.71,1.22-2.71,2.71,1.22,2.71,2.71,2.71Z" class="cls-79"/><path data-cppathid="10235" d="m315.86,370.45c1.36,0,2.47-1.11,2.47-2.47s-1.11-2.47-2.47-2.47-2.47,1.11-2.47,2.47,1.11,2.47,2.47,2.47Z" class="cls-52"/></g><g><path data-cppathid="10236" d="m325.46,342.74c1.49,0,2.71-1.22,2.71-2.71s-1.22-2.71-2.71-2.71-2.71,1.22-2.71,2.71,1.22,2.71,2.71,2.71Z" class="cls-79"/><path data-cppathid="10237" d="m325.64,342.5c1.36,0,2.47-1.11,2.47-2.47s-1.11-2.47-2.47-2.47-2.47,1.11-2.47,2.47,1.11,2.47,2.47,2.47Z" class="cls-52"/></g><g><path data-cppathid="10238" d="m324.97,356.72c1.49,0,2.71-1.22,2.71-2.71s-1.22-2.71-2.71-2.71-2.71,1.22-2.71,2.71,1.22,2.71,2.71,2.71Z" class="cls-79"/><path data-cppathid="10239" d="m325.16,356.48c1.36,0,2.47-1.11,2.47-2.47s-1.11-2.47-2.47-2.47-2.47,1.11-2.47,2.47,1.11,2.47,2.47,2.47Z" class="cls-52"/></g><g><path data-cppathid="10240" d="m324.49,370.69c1.49,0,2.71-1.22,2.71-2.71s-1.22-2.71-2.71-2.71-2.71,1.22-2.71,2.71,1.22,2.71,2.71,2.71Z" class="cls-79"/><path data-cppathid="10241" d="m324.68,370.45c1.36,0,2.47-1.11,2.47-2.47s-1.11-2.47-2.47-2.47-2.47,1.11-2.47,2.47,1.11,2.47,2.47,2.47Z" class="cls-52"/></g><g><path data-cppathid="10242" d="m334.27,342.74c1.49,0,2.71-1.22,2.71-2.71s-1.22-2.71-2.71-2.71-2.71,1.22-2.71,2.71,1.22,2.71,2.71,2.71Z" class="cls-79"/><path data-cppathid="10243" d="m334.46,342.5c1.36,0,2.47-1.11,2.47-2.47s-1.11-2.47-2.47-2.47-2.47,1.11-2.47,2.47,1.11,2.47,2.47,2.47Z" class="cls-52"/></g><g><path data-cppathid="10244" d="m333.79,356.72c1.49,0,2.71-1.22,2.71-2.71s-1.22-2.71-2.71-2.71-2.71,1.22-2.71,2.71,1.22,2.71,2.71,2.71Z" class="cls-79"/><path data-cppathid="10245" d="m333.97,356.48c1.36,0,2.47-1.11,2.47-2.47s-1.11-2.47-2.47-2.47-2.47,1.11-2.47,2.47,1.11,2.47,2.47,2.47Z" class="cls-52"/></g><g><path data-cppathid="10246" d="m333.3,370.69c1.49,0,2.71-1.22,2.71-2.71s-1.22-2.71-2.71-2.71-2.71,1.22-2.71,2.71,1.22,2.71,2.71,2.71Z" class="cls-79"/><path data-cppathid="10247" d="m333.49,370.45c1.36,0,2.47-1.11,2.47-2.47s-1.11-2.47-2.47-2.47-2.47,1.11-2.47,2.47,1.11,2.47,2.47,2.47Z" class="cls-52"/></g><g><path data-cppathid="10248" d="m343.08,342.74c1.49,0,2.71-1.22,2.71-2.71s-1.22-2.71-2.71-2.71-2.71,1.22-2.71,2.71,1.22,2.71,2.71,2.71Z" class="cls-79"/><path data-cppathid="10249" d="m343.27,342.5c1.36,0,2.47-1.11,2.47-2.47s-1.11-2.47-2.47-2.47-2.47,1.11-2.47,2.47,1.11,2.47,2.47,2.47Z" class="cls-52"/></g><g><path data-cppathid="10250" d="m342.6,356.72c1.49,0,2.71-1.22,2.71-2.71s-1.22-2.71-2.71-2.71-2.71,1.22-2.71,2.71,1.22,2.71,2.71,2.71Z" class="cls-79"/><path data-cppathid="10251" d="m342.78,356.48c1.36,0,2.47-1.11,2.47-2.47s-1.11-2.47-2.47-2.47-2.47,1.11-2.47,2.47,1.11,2.47,2.47,2.47Z" class="cls-52"/></g><g><path data-cppathid="10252" d="m342.12,370.69c1.49,0,2.71-1.22,2.71-2.71s-1.22-2.71-2.71-2.71-2.71,1.22-2.71,2.71,1.22,2.71,2.71,2.71Z" class="cls-79"/><path data-cppathid="10253" d="m342.3,370.45c1.36,0,2.47-1.11,2.47-2.47s-1.11-2.47-2.47-2.47-2.47,1.11-2.47,2.47,1.11,2.47,2.47,2.47Z" class="cls-52"/></g><g><path data-cppathid="10254" d="m320.77,349.2c1.49,0,2.71-1.22,2.71-2.71s-1.22-2.71-2.71-2.71-2.71,1.22-2.71,2.71,1.22,2.71,2.71,2.71Z" class="cls-79"/><path data-cppathid="10255" d="m320.95,348.96c1.36,0,2.47-1.11,2.47-2.47s-1.11-2.47-2.47-2.47-2.47,1.11-2.47,2.47,1.11,2.47,2.47,2.47Z" class="cls-52"/></g><g><path data-cppathid="10256" d="m320.28,363.18c1.49,0,2.71-1.22,2.71-2.71s-1.22-2.71-2.71-2.71-2.71,1.22-2.71,2.71,1.22,2.71,2.71,2.71Z" class="cls-79"/><path data-cppathid="10257" d="m320.46,362.94c1.36,0,2.47-1.11,2.47-2.47s-1.11-2.47-2.47-2.47-2.47,1.11-2.47,2.47,1.11,2.47,2.47,2.47Z" class="cls-52"/></g><g><path data-cppathid="10258" d="m319.8,377.15c1.49,0,2.71-1.22,2.71-2.71s-1.22-2.71-2.71-2.71-2.71,1.22-2.71,2.71,1.22,2.71,2.71,2.71Z" class="cls-79"/><path data-cppathid="10259" d="m319.98,376.91c1.36,0,2.47-1.11,2.47-2.47s-1.11-2.47-2.47-2.47-2.47,1.11-2.47,2.47,1.11,2.47,2.47,2.47Z" class="cls-52"/></g><g><path data-cppathid="10260" d="m329.58,349.2c1.49,0,2.71-1.22,2.71-2.71s-1.22-2.71-2.71-2.71-2.71,1.22-2.71,2.71,1.22,2.71,2.71,2.71Z" class="cls-79"/><path data-cppathid="10261" d="m329.76,348.96c1.36,0,2.47-1.11,2.47-2.47s-1.11-2.47-2.47-2.47-2.47,1.11-2.47,2.47,1.11,2.47,2.47,2.47Z" class="cls-52"/></g><g><path data-cppathid="10262" d="m329.09,363.18c1.49,0,2.71-1.22,2.71-2.71s-1.22-2.71-2.71-2.71-2.71,1.22-2.71,2.71,1.22,2.71,2.71,2.71Z" class="cls-79"/><path data-cppathid="10263" d="m329.28,362.94c1.36,0,2.47-1.11,2.47-2.47s-1.11-2.47-2.47-2.47-2.47,1.11-2.47,2.47,1.11,2.47,2.47,2.47Z" class="cls-52"/></g><g><path data-cppathid="10264" d="m328.61,377.15c1.49,0,2.71-1.22,2.71-2.71s-1.22-2.71-2.71-2.71-2.71,1.22-2.71,2.71,1.22,2.71,2.71,2.71Z" class="cls-79"/><path data-cppathid="10265" d="m328.79,376.91c1.36,0,2.47-1.11,2.47-2.47s-1.11-2.47-2.47-2.47-2.47,1.11-2.47,2.47,1.11,2.47,2.47,2.47Z" class="cls-52"/></g><g><path data-cppathid="10266" d="m338.39,349.2c1.49,0,2.71-1.22,2.71-2.71s-1.22-2.71-2.71-2.71-2.71,1.22-2.71,2.71,1.22,2.71,2.71,2.71Z" class="cls-79"/><path data-cppathid="10267" d="m338.57,348.96c1.36,0,2.47-1.11,2.47-2.47s-1.11-2.47-2.47-2.47-2.47,1.11-2.47,2.47,1.11,2.47,2.47,2.47Z" class="cls-52"/></g><g><path data-cppathid="10268" d="m337.91,363.18c1.49,0,2.71-1.22,2.71-2.71s-1.22-2.71-2.71-2.71-2.71,1.22-2.71,2.71,1.22,2.71,2.71,2.71Z" class="cls-79"/><path data-cppathid="10269" d="m338.09,362.94c1.36,0,2.47-1.11,2.47-2.47s-1.11-2.47-2.47-2.47-2.47,1.11-2.47,2.47,1.11,2.47,2.47,2.47Z" class="cls-52"/></g><g><path data-cppathid="10270" d="m337.42,377.15c1.49,0,2.71-1.22,2.71-2.71s-1.22-2.71-2.71-2.71-2.71,1.22-2.71,2.71,1.22,2.71,2.71,2.71Z" class="cls-79"/><path data-cppathid="10271" d="m337.61,376.91c1.36,0,2.47-1.11,2.47-2.47s-1.11-2.47-2.47-2.47-2.47,1.11-2.47,2.47,1.11,2.47,2.47,2.47Z" class="cls-52"/></g></g></g><g><path data-cppathid="10272" d="m258.63,368.67h2.93c1.21,0,6.16-.08,6.84-4.84l2.45-17.04c.88-6.12-5.21-5.26-7.11-5.26h-5.12v2.94c1.58-.06,8.45-.35,7.74,3.93l-2.25,13.7c-.57,3.45-4.45,3.6-5.49,3.61v2.97Z" class="cls-74"/><g><path data-cppathid="10273" d="m231.58,323.9s6.97,17.39,9.66,24.63c.65,1.73,2.01,3.12,2.01,3.31.02.98-1.65.81-1.65.81,0,0,.08,3.14-.66,1.46-.41-.94-1.46-6.26-2.01-7.53-3.54-8.07-9.31-21.37-9.17-21.76.21-.56,1.82-.92,1.82-.92Z" class="cls-50"/><path data-cppathid="10274" d="m240.06,350.73c-.4-1.68-.83-3.48-1.12-4.15-2.85-6.51-7.17-16.43-8.65-20.22.32-.41.59-.69.59-.69,0,0,8.44,20.11,8.85,21.71.27,1.06.44,2.52.34,3.35Z" class="cls-19"/><path data-cppathid="10275" d="m230.26,319.24l3.05,8.97c.03.1,0,.04-.05.03-.03,0-.06,0-.1,0-.23-.03-.55.02-.88.16-.56.23-.93.61-.83.86.01.03.04.07.07.09,0,.06.02.09.02.09,0,0-4.03-7.03-4.79-9.08-.03-.04-.06-.08-.08-.12-.03-.07-.04-.15-.03-.23-.02-.09-.02-.16,0-.19.02-.03.06-.07.09-.1.2-.36.68-.75,1.3-1,.94-.39,1.86-.34,2.04.11.01.03.02.06.03.1.06.09.11.19.14.31Z" class="cls-66"/><path data-cppathid="10276" d="m232.05,328.51c-.31.16-.52.37-.59.55l-.11.04c-.81-1.43-3.94-6.96-4.59-8.74-.03-.04-.06-.08-.08-.12-.03-.07-.04-.15-.03-.23-.02-.09-.02-.16,0-.19.02-.03.06-.07.09-.1.16-.3.52-.61.99-.86l4.32,9.65Z" class="cls-39"/><path data-cppathid="10277" d="m246.56,362.43l-.04.71s-.7-.07-1.57-.35c-1.82-.59-3.49-2.54-4.62-5.17-1-2.32-1.63-5.25-.94-6.8.2-.45.41-.72.4-1.28,0-.15.28.19.44.42,1.23,1.68,6.34,12.48,6.34,12.48Z" class="cls-19"/><path data-cppathid="10278" d="m244.2,362.23c-1.43-.87-2.71-2.57-3.63-4.71-1-2.32-1.63-5.26-.95-6.81.15-.35.32-.59.38-.93.07,0,.11,0,.11,0-.35,1.08-.19,2.85-.02,4.05.43,3.14,2.19,6.12,4.12,8.41Z" class="cls-90"/><path data-cppathid="10279" d="m244.97,355.42c-1.62-3.94-3.6-6.87-4.41-6.54-.81.33-.15,3.8,1.47,7.74,1.62,3.94,3.6,6.87,4.41,6.54.81-.33.15-3.8-1.47-7.75Z" class="cls-50"/><path data-cppathid="10280" d="m241.01,348.69c-.37-.08-.47-.58-.47-.58,0,0-6.42-16.25-7.39-18.88-.21-.57.18-.63.37-.12l7.49,19.58Z" class="cls-60"/><path data-cppathid="10281" d="m244.77,355.63c-1.36-3.31-3.02-5.77-3.7-5.49-.68.28-.12,3.19,1.24,6.5,1.36,3.31,3.02,5.77,3.7,5.49.68-.28.13-3.19-1.23-6.5Z" class="cls-19"/><path data-cppathid="10282" d="m243.87,359.86c.35.6.68,1.1.99,1.49.26.28.54.5.83.59.22.07.4.03.53-.07.13-.37.1-1.06-.09-1.96-.94-.13-2.45-.89-2.55-.84-.05.02.07.35.29.78Z" class="cls-90"/><path data-cppathid="10283" d="m243.71,353.34c-.67-1.29-1.33-2.3-1.86-2.82-.1.31-.35,1.16-.24,2.39.14,1.63.94,3.5.94,3.5,0,0,.35-1.97,1.17-3.07Z" class="cls-50"/><path data-cppathid="10284" d="m241.87,350.46c-.48-.12-.92.45-1.08.28-.16-.17-.24-.89-.05-1.03.19-.15.86.08,1.13.76Z" class="cls-60"/><path data-cppathid="10285" d="m246.05,362.22c-.18.1-.37.25-1.11-.61-.74-.86-1.64-2.43-1.73-2.74-.09-.31-.04-.31-.04-.31,0,0,1.41,2.84,2.88,3.66Z" class="cls-60"/><path data-cppathid="10286" d="m232.74,327.44c-.18.22-.41-.02-.48-.2-.07-.18-2.96-7.64-2.84-7.86.12-.22.22-.32.34-.2.11.12,2.78,7.13,2.98,8.27Z" class="cls-60"/></g><path data-cppathid="10287" d="m231.72,337.63h27.15v27.67c0,2.2.83,12.4-3.97,12.4h-18.17c-6.18,0-5-9.45-5-12.87v-27.2Z" class="cls-77"/><path data-cppathid="10288" d="m231.72,337.63h20.33v22.88c.35,7.37-.39,11.23-9.12,10.76h-11.19c-.23-2.44-.02-4.98-.02-6.43v-27.2Z" class="cls-74"/><path data-cppathid="10289" d="m234.04,337.7h4.68v27.44c0,3.09-4.68,3.09-4.68,0v-27.44Z" class="cls-20"/></g></g></g><rect data-cppathid="10290" height="585" width="1040.47" class="cls-26"/><rect data-cppathid="10291" height="203.62" width="1040.54" y="379.62" x=".47" class="cls-83"/><rect data-cppathid="10292" height="20.33" width="1038.71" y="564.67" x="1.11" class="cls-32"/></g></g></g></g></svg>