<?xml version="1.0" encoding="UTF-8"?>
<svg xmlns="http://www.w3.org/2000/svg" onmouseup="{ if(window.parent.document.onmouseup) window.parent.document.onmouseup(arguments[0]);}" version="1.0" preserveAspectRatio="xMidYMid meet" height="500" viewBox="0 0 375 374.999991" zoomAndPan="magnify" width="500" xmlns:xlink="http://www.w3.org/1999/xlink"><path data-cppathid="10000" fill-rule="nonzero" fill-opacity="1" d="M 117.617188 69.980469 C 116.054688 63.664062 110.539062 60.507812 108.820312 69.980469 C 107.117188 79.457031 100.148438 116.03125 100.148438 116.03125 L 126 116.03125 C 126 116.03125 119.167969 76.300781 117.617188 69.980469 " fill="#f9b614"/><path data-cppathid="10001" fill-rule="nonzero" fill-opacity="1" d="M 108.820312 69.980469 C 108.953125 69.257812 109.105469 68.605469 109.277344 68.027344 C 109.105469 68.605469 108.953125 69.257812 108.820312 69.980469 " fill="#e6c2ba"/><path data-cppathid="10002" fill-rule="nonzero" fill-opacity="1" d="M 100.570312 113.792969 C 102.113281 105.710938 107.367188 78.042969 108.820312 69.980469 C 108.953125 69.257812 109.105469 68.605469 109.277344 68.027344 C 109.667969 66.730469 110.144531 65.78125 110.675781 65.132812 C 112.453125 80.402344 107.726562 102.039062 118.507812 113.632812 C 116.34375 113.578125 114.144531 113.550781 111.957031 113.550781 C 108.070312 113.550781 104.203125 113.632812 100.570312 113.792969 " fill="#e28f14"/><path data-cppathid="10003" fill-rule="nonzero" fill-opacity="1" d="M 129.324219 126.027344 L 96.6875 126.027344 C 83.203125 126.027344 74.269531 131.929688 74.269531 137.597656 L 74.269531 300.578125 C 74.269531 308.394531 88.972656 319.246094 113 319.246094 C 139.113281 319.246094 151.742188 308.394531 151.742188 300.578125 L 151.742188 137.597656 C 151.742188 131.929688 142.359375 126.027344 129.324219 126.027344 " fill="#f9b614"/><path data-cppathid="10004" fill-rule="nonzero" fill-opacity="1" d="M 113 319.246094 C 88.972656 319.246094 74.269531 308.394531 74.269531 300.578125 C 74.269531 308.394531 88.972656 319.246094 113 319.246094 L 113.0625 319.246094 L 113 319.246094 M 113.082031 319.246094 L 113.152344 319.246094 L 113.082031 319.246094 M 113.164062 319.246094 L 113.21875 319.246094 L 113.164062 319.246094 M 113.234375 319.246094 L 113.296875 319.246094 L 113.234375 319.246094 M 113.316406 319.246094 L 113.371094 319.246094 L 113.316406 319.246094 M 113.386719 319.246094 L 113.453125 319.246094 L 113.386719 319.246094 M 113.46875 319.246094 L 113.523438 319.246094 L 113.46875 319.246094 M 113.53125 319.246094 L 113.597656 319.246094 L 113.53125 319.246094 M 113.621094 319.246094 L 113.667969 319.246094 L 113.621094 319.246094 M 113.695312 319.246094 L 113.75 319.246094 L 113.695312 319.246094 M 113.777344 319.246094 L 113.820312 319.246094 L 113.777344 319.246094 M 113.855469 319.246094 L 113.894531 319.246094 L 113.855469 319.246094 M 113.921875 319.246094 L 113.972656 319.246094 L 113.921875 319.246094 M 114.011719 319.246094 L 114.039062 319.246094 L 114.011719 319.246094 M 114.074219 319.246094 L 114.117188 319.246094 L 114.074219 319.246094 M 114.164062 319.238281 L 114.183594 319.238281 L 114.164062 319.238281 M 114.316406 319.238281 L 114.324219 319.238281 L 114.316406 319.238281 " fill="#e6c2ba"/><path data-cppathid="10005" fill-rule="nonzero" fill-opacity="1" d="M 113 319.246094 C 88.972656 319.246094 74.269531 308.394531 74.269531 300.578125 L 74.269531 137.597656 C 74.269531 134.742188 76.546875 131.820312 80.53125 129.621094 L 80.53125 130.097656 L 84.660156 130.097656 L 84.660156 130.207031 L 87.402344 130.207031 L 87.402344 130.097656 L 91.324219 130.097656 L 91.324219 130.207031 L 94.0625 130.207031 L 94.0625 130.097656 L 97.976562 130.097656 L 97.976562 130.207031 L 100.734375 130.207031 L 100.734375 130.097656 L 104.636719 130.097656 L 104.636719 130.207031 L 107.386719 130.207031 L 107.386719 130.097656 L 111.296875 130.097656 L 111.296875 130.207031 L 114.054688 130.207031 L 114.054688 130.097656 L 115.992188 130.097656 C 111.703125 132.515625 107.980469 135.28125 105.230469 138.238281 C 97.941406 146.0625 96.371094 157.273438 94.6875 167.34375 C 91.863281 184.160156 89.503906 201.0625 88.605469 218.125 C 87.308594 242.722656 91.042969 269.472656 105.175781 290.269531 C 111.992188 300.289062 123.410156 306.988281 135.5 308.980469 L 135.5 315.847656 C 129.917969 317.8125 122.871094 319.121094 114.324219 319.238281 L 114.164062 319.238281 C 114.144531 319.238281 114.128906 319.246094 114.117188 319.246094 L 113 319.246094 " fill="#e28f14"/><path data-cppathid="10006" fill-rule="nonzero" fill-opacity="1" d="M 148.386719 220.25 C 148.386719 252.851562 147.214844 279.28125 145.765625 279.28125 C 144.3125 279.28125 143.132812 252.851562 143.132812 220.25 C 143.132812 187.640625 144.3125 161.203125 145.765625 161.203125 C 147.214844 161.203125 148.386719 187.640625 148.386719 220.25 " fill="#ffffff"/><path data-cppathid="10007" fill-rule="nonzero" fill-opacity="1" d="M 80.53125 117.660156 C 80.53125 112.027344 144.820312 112.351562 144.820312 117.660156 L 144.820312 130.097656 L 80.53125 130.097656 L 80.53125 117.660156 " fill="#f5841b"/><path data-cppathid="10008" fill-rule="nonzero" fill-opacity="1" d="M 135.5 124.25 C 134.859375 123.527344 134.433594 122.796875 133.976562 122.078125 L 133.976562 118.605469 L 131.226562 118.605469 L 131.226562 119.128906 C 128.097656 117.210938 121.023438 116.128906 118.632812 114.289062 C 125.546875 114.523438 132.046875 115.191406 136.417969 116.28125 C 135.8125 117.488281 135.5 118.722656 135.5 119.960938 L 135.5 124.25 " fill="#f9b22f"/><path data-cppathid="10009" fill-rule="nonzero" fill-opacity="1" d="M 80.53125 117.660156 L 80.53125 117.652344 L 80.53125 117.660156 M 80.535156 117.644531 L 80.535156 117.632812 L 80.535156 117.644531 M 80.535156 117.632812 L 80.535156 117.625 L 80.535156 117.632812 M 80.535156 117.625 L 80.535156 117.617188 L 80.535156 117.625 M 80.535156 117.617188 L 80.535156 117.605469 L 80.535156 117.617188 M 80.535156 117.597656 L 80.535156 117.589844 L 80.535156 117.597656 " fill="#bcc5ca"/><path data-cppathid="10010" fill-rule="nonzero" fill-opacity="1" d="M 117.90625 130.097656 L 114.054688 130.097656 L 114.054688 129.53125 C 115.300781 129.703125 116.589844 129.855469 117.90625 129.980469 L 117.90625 130.097656 M 111.296875 130.097656 L 107.386719 130.097656 L 107.386719 128.296875 C 108.613281 128.59375 109.917969 128.863281 111.296875 129.097656 L 111.296875 130.097656 M 104.636719 130.097656 L 100.734375 130.097656 L 100.734375 125.816406 C 101.265625 126.117188 101.851562 126.402344 102.480469 126.691406 C 103.140625 126.980469 103.863281 127.25 104.636719 127.511719 L 104.636719 130.097656 M 97.976562 130.097656 L 94.0625 130.097656 L 94.0625 118.605469 L 91.324219 118.605469 L 91.324219 130.097656 L 87.402344 130.097656 L 87.402344 118.605469 L 84.660156 118.605469 L 84.660156 130.097656 L 80.53125 130.097656 L 80.53125 117.644531 L 80.535156 117.644531 L 80.535156 117.589844 C 80.738281 115.488281 89.933594 114.226562 101.300781 113.765625 C 100.046875 114.675781 99.09375 115.625 98.308594 116.480469 C 96.046875 118.949219 95.625 121.484375 97.976562 123.835938 L 97.976562 130.097656 " fill="#b66718"/><path data-cppathid="10011" fill-rule="nonzero" fill-opacity="1" d="M 84.660156 130.207031 L 87.40625 130.207031 L 87.40625 130.097656 L 84.660156 130.097656 Z M 84.660156 130.207031 " fill="#cd7013"/><path data-cppathid="10012" fill-rule="nonzero" fill-opacity="1" d="M 84.660156 130.097656 L 87.40625 130.097656 L 87.40625 118.605469 L 84.660156 118.605469 Z M 84.660156 130.097656 " fill="#a65216"/><path data-cppathid="10013" fill-rule="nonzero" fill-opacity="1" d="M 91.324219 130.207031 L 94.0625 130.207031 L 94.0625 130.097656 L 91.324219 130.097656 Z M 91.324219 130.207031 " fill="#cd7013"/><path data-cppathid="10014" fill-rule="nonzero" fill-opacity="1" d="M 91.324219 130.097656 L 94.0625 130.097656 L 94.0625 118.605469 L 91.324219 118.605469 Z M 91.324219 130.097656 " fill="#a65216"/><path data-cppathid="10015" fill-rule="nonzero" fill-opacity="1" d="M 97.976562 130.207031 L 100.734375 130.207031 L 100.734375 130.097656 L 97.976562 130.097656 Z M 97.976562 130.207031 " fill="#cd7013"/><path data-cppathid="10016" fill-rule="nonzero" fill-opacity="1" d="M 100.734375 125.816406 C 99.570312 125.179688 98.660156 124.511719 97.976562 123.835938 L 97.976562 118.605469 L 100.734375 118.605469 L 100.734375 125.816406 " fill="#df6919"/><path data-cppathid="10017" fill-rule="nonzero" fill-opacity="1" d="M 100.734375 130.097656 L 97.976562 130.097656 L 97.976562 123.835938 C 98.660156 124.511719 99.570312 125.179688 100.734375 125.816406 L 100.734375 130.097656 " fill="#a65216"/><path data-cppathid="10018" fill-rule="nonzero" fill-opacity="1" d="M 104.636719 130.207031 L 107.386719 130.207031 L 107.386719 130.097656 L 104.636719 130.097656 Z M 104.636719 130.207031 " fill="#cd7013"/><path data-cppathid="10019" fill-rule="nonzero" fill-opacity="1" d="M 107.386719 128.296875 C 106.414062 128.054688 105.492188 127.792969 104.636719 127.511719 L 104.636719 118.605469 L 107.386719 118.605469 L 107.386719 128.296875 " fill="#df6919"/><path data-cppathid="10020" fill-rule="nonzero" fill-opacity="1" d="M 107.386719 130.097656 L 104.636719 130.097656 L 104.636719 127.511719 C 105.492188 127.792969 106.414062 128.054688 107.386719 128.296875 L 107.386719 130.097656 " fill="#a65216"/><path data-cppathid="10021" fill-rule="nonzero" fill-opacity="1" d="M 111.296875 130.207031 L 114.054688 130.207031 L 114.054688 130.097656 L 111.296875 130.097656 Z M 111.296875 130.207031 " fill="#cd7013"/><path data-cppathid="10022" fill-rule="nonzero" fill-opacity="1" d="M 114.054688 129.53125 C 113.109375 129.394531 112.191406 129.261719 111.296875 129.097656 L 111.296875 118.605469 L 114.054688 118.605469 L 114.054688 129.53125 " fill="#df6919"/><path data-cppathid="10023" fill-rule="nonzero" fill-opacity="1" d="M 114.054688 130.097656 L 111.296875 130.097656 L 111.296875 129.097656 C 112.191406 129.261719 113.109375 129.394531 114.054688 129.53125 L 114.054688 130.097656 " fill="#a65216"/><path data-cppathid="10024" fill-rule="nonzero" fill-opacity="1" d="M 120.664062 130.207031 L 117.90625 130.207031 L 117.90625 130.097656 L 120.664062 130.097656 L 120.664062 130.207031 " fill="#e28f14"/><path data-cppathid="10025" fill-rule="nonzero" fill-opacity="1" d="M 120.664062 130.097656 L 119.21875 130.097656 C 118.777344 130.0625 118.335938 130.019531 117.90625 129.980469 L 117.90625 118.605469 L 120.664062 118.605469 L 120.664062 130.097656 " fill="#df6919"/><path data-cppathid="10026" fill-rule="nonzero" fill-opacity="1" d="M 119.21875 130.097656 L 117.90625 130.097656 L 117.90625 129.980469 C 118.335938 130.019531 118.777344 130.0625 119.21875 130.097656 " fill="#a65216"/><path data-cppathid="10027" fill-rule="nonzero" fill-opacity="1" d="M 124.566406 130.207031 L 127.3125 130.207031 L 127.3125 130.097656 L 124.566406 130.097656 Z M 124.566406 130.207031 " fill="#e28f14"/><path data-cppathid="10028" fill-rule="nonzero" fill-opacity="1" d="M 124.566406 130.097656 L 127.3125 130.097656 L 127.3125 118.605469 L 124.566406 118.605469 Z M 124.566406 130.097656 " fill="#df6919"/><path data-cppathid="10029" fill-rule="nonzero" fill-opacity="1" d="M 131.226562 130.207031 L 133.976562 130.207031 L 133.976562 130.097656 L 131.226562 130.097656 Z M 131.226562 130.207031 " fill="#e28f14"/><path data-cppathid="10030" fill-rule="nonzero" fill-opacity="1" d="M 133.976562 130.097656 L 131.226562 130.097656 L 131.226562 119.128906 C 131.425781 119.246094 131.605469 119.375 131.765625 119.507812 C 132.832031 120.339844 133.425781 121.203125 133.976562 122.078125 L 133.976562 130.097656 " fill="#df6919"/><path data-cppathid="10031" fill-rule="nonzero" fill-opacity="1" d="M 133.976562 122.078125 C 133.425781 121.203125 132.832031 120.339844 131.765625 119.507812 C 131.605469 119.375 131.425781 119.246094 131.226562 119.128906 L 131.226562 118.605469 L 133.976562 118.605469 L 133.976562 122.078125 " fill="#e28b28"/><path data-cppathid="10032" fill-rule="nonzero" fill-opacity="1" d="M 141.367188 295.125 C 132.101562 299.246094 127.757812 295.316406 120.3125 289.382812 C 110.972656 281.949219 106.980469 266.851562 103.574219 254.917969 C 99.363281 240.1875 97.859375 217.917969 99.253906 203.234375 C 100.5625 189.417969 106.765625 172.273438 107.359375 157.859375 C 107.890625 144.648438 114 139.417969 125.035156 135.308594 C 137.984375 130.496094 147.042969 136.679688 142.4375 151.089844 C 138.707031 162.78125 139.210938 171.769531 137.582031 184.277344 C 135.335938 201.558594 141.367188 212.535156 137.582031 233.09375 C 135.652344 243.597656 138.347656 255.980469 139.617188 266.410156 C 140.5 273.601562 138.472656 280.625 141.90625 287.085938 L 141.367188 295.125 " fill="#fac013"/><path data-cppathid="10033" fill-rule="nonzero" fill-opacity="1" d="M 274.65625 69.269531 C 273.089844 62.914062 267.535156 59.734375 265.8125 69.269531 C 264.09375 78.800781 257.089844 115.585938 257.089844 115.585938 L 283.085938 115.585938 C 283.085938 115.585938 276.226562 75.621094 274.65625 69.269531 " fill="#fffaa3"/><path data-cppathid="10034" fill-rule="nonzero" fill-opacity="1" d="M 257.523438 113.34375 C 259.0625 105.203125 264.34375 77.378906 265.8125 69.269531 C 266.246094 66.910156 266.90625 65.332031 267.679688 64.390625 C 269.457031 79.75 264.722656 101.519531 275.546875 113.171875 C 273.375 113.117188 271.167969 113.101562 268.960938 113.101562 C 265.058594 113.101562 261.164062 113.179688 257.523438 113.34375 " fill="#e6c078"/><path data-cppathid="10035" fill-rule="nonzero" fill-opacity="1" d="M 286.4375 125.648438 L 253.609375 125.648438 C 240.046875 125.648438 231.066406 131.578125 231.066406 137.28125 L 231.066406 301.210938 C 231.066406 309.078125 245.847656 319.992188 270.023438 319.992188 C 296.28125 319.992188 308.980469 309.078125 308.980469 301.210938 L 308.980469 137.28125 C 308.980469 131.578125 299.550781 125.648438 286.4375 125.648438 " fill="#fffaa3"/><path data-cppathid="10036" fill-rule="nonzero" fill-opacity="1" d="M 270.023438 319.992188 C 255.855469 319.992188 244.921875 316.246094 238.289062 311.558594 C 244.921875 316.246094 255.855469 319.992188 270.023438 319.992188 L 270.09375 319.992188 L 270.023438 319.992188 M 270.105469 319.992188 L 270.175781 319.992188 L 270.105469 319.992188 M 270.1875 319.992188 L 270.238281 319.992188 L 270.1875 319.992188 M 270.257812 319.992188 L 270.320312 319.992188 L 270.257812 319.992188 M 270.339844 319.992188 L 270.394531 319.992188 L 270.339844 319.992188 M 270.410156 319.992188 L 270.472656 319.992188 L 270.410156 319.992188 M 270.5 319.992188 L 270.546875 319.992188 L 270.5 319.992188 M 270.5625 319.992188 L 270.628906 319.992188 L 270.5625 319.992188 M 270.65625 319.992188 L 270.691406 319.992188 L 270.65625 319.992188 M 270.726562 319.992188 L 270.773438 319.992188 L 270.726562 319.992188 M 270.808594 319.992188 L 270.835938 319.992188 L 270.808594 319.992188 M 270.898438 319.992188 L 270.914062 319.992188 L 270.898438 319.992188 M 271.050781 319.992188 L 271.058594 319.992188 L 271.050781 319.992188 " fill="#e6c2ba"/><path data-cppathid="10037" fill-rule="nonzero" fill-opacity="1" d="M 270.023438 319.992188 C 255.855469 319.992188 244.921875 316.246094 238.289062 311.558594 L 238.289062 129.738281 L 241.503906 129.738281 L 241.503906 129.855469 L 244.28125 129.855469 L 244.28125 129.738281 L 248.210938 129.738281 L 248.210938 129.855469 L 250.976562 129.855469 L 250.976562 129.738281 L 254.90625 129.738281 L 254.90625 129.855469 L 257.675781 129.855469 L 257.675781 129.738281 L 261.605469 129.738281 L 261.605469 129.855469 L 264.371094 129.855469 L 264.371094 129.738281 L 268.3125 129.738281 L 268.3125 129.855469 L 271.078125 129.855469 L 271.078125 129.738281 L 273.023438 129.738281 C 268.707031 132.171875 264.96875 134.957031 262.199219 137.921875 C 254.871094 145.792969 253.292969 157.078125 251.601562 167.199219 C 248.75 184.125 246.390625 201.117188 245.480469 218.277344 C 244.183594 243.019531 247.933594 269.933594 262.144531 290.84375 C 270.421875 303.003906 285.410156 310.296875 300.210938 310.296875 C 301.507812 310.296875 302.804688 310.242188 304.09375 310.125 C 298.324219 315.34375 287.402344 319.8125 271.058594 319.992188 L 270.023438 319.992188 " fill="#e6c078"/><path data-cppathid="10038" fill-rule="nonzero" fill-opacity="1" d="M 305.617188 220.414062 C 305.617188 253.203125 304.4375 279.792969 302.976562 279.792969 C 301.515625 279.792969 300.328125 253.203125 300.328125 220.414062 C 300.328125 187.613281 301.515625 161.023438 302.976562 161.023438 C 304.4375 161.023438 305.617188 187.613281 305.617188 220.414062 " fill="#ffffff"/><path data-cppathid="10039" fill-rule="nonzero" fill-opacity="1" d="M 237.367188 117.21875 C 237.367188 111.558594 302.019531 111.890625 302.019531 117.21875 L 302.019531 129.738281 L 237.367188 129.738281 L 237.367188 117.21875 " fill="#fcd389"/><path data-cppathid="10040" fill-rule="nonzero" fill-opacity="1" d="M 297.820312 126.035156 L 297.820312 118.175781 L 295.054688 118.175781 L 295.054688 125.664062 C 294.449219 125.414062 293.828125 125.015625 293.207031 124.429688 C 292.234375 123.519531 291.699219 122.582031 291.113281 121.664062 L 291.113281 118.175781 L 288.347656 118.175781 L 288.347656 118.707031 C 285.210938 116.769531 278.082031 115.6875 275.683594 113.832031 C 288.070312 114.261719 299.128906 116.066406 299.128906 119.167969 L 299.128906 125.726562 C 298.910156 125.792969 298.441406 125.953125 297.820312 126.035156 " fill="#fde7b9"/><path data-cppathid="10041" fill-rule="nonzero" fill-opacity="1" d="M 237.546875 116.722656 C 238.367188 115.578125 242.046875 114.703125 247.253906 114.109375 C 242.046875 114.703125 238.367188 115.578125 237.546875 116.722656 " fill="#bcc5ca"/><path data-cppathid="10042" fill-rule="nonzero" fill-opacity="1" d="M 274.945312 129.738281 L 271.078125 129.738281 L 271.078125 129.160156 C 272.332031 129.34375 273.628906 129.488281 274.945312 129.621094 L 274.945312 129.738281 M 268.3125 129.738281 L 264.371094 129.738281 L 264.371094 127.925781 C 265.605469 128.226562 266.921875 128.496094 268.3125 128.738281 L 268.3125 129.738281 M 261.605469 129.738281 L 257.675781 129.738281 L 257.675781 125.429688 C 258.207031 125.726562 258.800781 126.027344 259.441406 126.3125 C 260.101562 126.601562 260.820312 126.882812 261.605469 127.132812 L 261.605469 129.738281 M 254.90625 129.738281 L 250.976562 129.738281 L 250.976562 118.175781 L 248.210938 118.175781 L 248.210938 129.738281 L 244.28125 129.738281 L 244.28125 118.175781 L 241.503906 118.175781 L 241.503906 129.738281 L 238.289062 129.738281 L 238.289062 119.960938 C 238.289062 118.878906 238.035156 117.789062 237.546875 116.722656 C 238.367188 115.578125 242.046875 114.703125 247.253906 114.109375 C 250.445312 113.738281 254.214844 113.480469 258.253906 113.308594 C 256.992188 114.226562 256.027344 115.171875 255.242188 116.039062 C 252.96875 118.527344 252.546875 121.066406 254.90625 123.4375 L 254.90625 129.738281 " fill="#b9a46e"/><path data-cppathid="10043" fill-rule="nonzero" fill-opacity="1" d="M 241.503906 129.855469 L 244.28125 129.855469 L 244.28125 129.738281 L 241.503906 129.738281 Z M 241.503906 129.855469 " fill="#d0955b"/><path data-cppathid="10044" fill-rule="nonzero" fill-opacity="1" d="M 241.503906 129.738281 L 244.28125 129.738281 L 244.28125 118.175781 L 241.503906 118.175781 Z M 241.503906 129.738281 " fill="#a98053"/><path data-cppathid="10045" fill-rule="nonzero" fill-opacity="1" d="M 248.210938 129.855469 L 250.976562 129.855469 L 250.976562 129.738281 L 248.210938 129.738281 Z M 248.210938 129.855469 " fill="#d0955b"/><path data-cppathid="10046" fill-rule="nonzero" fill-opacity="1" d="M 248.210938 129.738281 L 250.976562 129.738281 L 250.976562 118.175781 L 248.210938 118.175781 Z M 248.210938 129.738281 " fill="#a98053"/><path data-cppathid="10047" fill-rule="nonzero" fill-opacity="1" d="M 254.90625 129.855469 L 257.675781 129.855469 L 257.675781 129.738281 L 254.90625 129.738281 Z M 254.90625 129.855469 " fill="#d0955b"/><path data-cppathid="10048" fill-rule="nonzero" fill-opacity="1" d="M 257.675781 125.429688 C 256.503906 124.789062 255.59375 124.113281 254.90625 123.4375 L 254.90625 118.175781 L 257.675781 118.175781 L 257.675781 125.429688 " fill="#e4a367"/><path data-cppathid="10049" fill-rule="nonzero" fill-opacity="1" d="M 257.675781 129.738281 L 254.90625 129.738281 L 254.90625 123.4375 C 255.59375 124.113281 256.503906 124.789062 257.675781 125.429688 L 257.675781 129.738281 " fill="#a98053"/><path data-cppathid="10050" fill-rule="nonzero" fill-opacity="1" d="M 261.605469 129.855469 L 264.371094 129.855469 L 264.371094 129.738281 L 261.605469 129.738281 Z M 261.605469 129.855469 " fill="#d0955b"/><path data-cppathid="10051" fill-rule="nonzero" fill-opacity="1" d="M 264.371094 127.925781 C 263.390625 127.683594 262.460938 127.421875 261.605469 127.132812 L 261.605469 118.175781 L 264.371094 118.175781 L 264.371094 127.925781 " fill="#e4a367"/><path data-cppathid="10052" fill-rule="nonzero" fill-opacity="1" d="M 264.371094 129.738281 L 261.605469 129.738281 L 261.605469 127.132812 C 262.460938 127.421875 263.390625 127.683594 264.371094 127.925781 L 264.371094 129.738281 " fill="#a98053"/><path data-cppathid="10053" fill-rule="nonzero" fill-opacity="1" d="M 268.3125 129.855469 L 271.078125 129.855469 L 271.078125 129.738281 L 268.3125 129.738281 Z M 268.3125 129.855469 " fill="#d0955b"/><path data-cppathid="10054" fill-rule="nonzero" fill-opacity="1" d="M 271.078125 129.160156 C 270.132812 129.035156 269.203125 128.890625 268.3125 128.738281 L 268.3125 118.175781 L 271.078125 118.175781 L 271.078125 129.160156 " fill="#e4a367"/><path data-cppathid="10055" fill-rule="nonzero" fill-opacity="1" d="M 271.078125 129.738281 L 268.3125 129.738281 L 268.3125 128.738281 C 269.203125 128.890625 270.132812 129.035156 271.078125 129.160156 L 271.078125 129.738281 " fill="#a98053"/><path data-cppathid="10056" fill-rule="nonzero" fill-opacity="1" d="M 277.722656 129.855469 L 274.945312 129.855469 L 274.945312 129.738281 L 277.722656 129.738281 L 277.722656 129.855469 " fill="#e6c078"/><path data-cppathid="10057" fill-rule="nonzero" fill-opacity="1" d="M 277.722656 129.738281 L 276.277344 129.738281 C 275.828125 129.703125 275.386719 129.667969 274.945312 129.621094 L 274.945312 118.175781 L 277.722656 118.175781 L 277.722656 129.738281 " fill="#e4a367"/><path data-cppathid="10058" fill-rule="nonzero" fill-opacity="1" d="M 276.277344 129.738281 L 274.945312 129.738281 L 274.945312 129.621094 C 275.386719 129.667969 275.828125 129.703125 276.277344 129.738281 " fill="#a98053"/><path data-cppathid="10059" fill-rule="nonzero" fill-opacity="1" d="M 281.652344 129.855469 L 284.417969 129.855469 L 284.417969 129.738281 L 281.652344 129.738281 Z M 281.652344 129.855469 " fill="#e6c078"/><path data-cppathid="10060" fill-rule="nonzero" fill-opacity="1" d="M 281.652344 129.738281 L 284.417969 129.738281 L 284.417969 118.175781 L 281.652344 118.175781 Z M 281.652344 129.738281 " fill="#e4a367"/><path data-cppathid="10061" fill-rule="nonzero" fill-opacity="1" d="M 288.347656 129.855469 L 291.113281 129.855469 L 291.113281 129.738281 L 288.347656 129.738281 Z M 288.347656 129.855469 " fill="#e6c078"/><path data-cppathid="10062" fill-rule="nonzero" fill-opacity="1" d="M 291.113281 129.738281 L 288.347656 129.738281 L 288.347656 118.707031 C 288.546875 118.824219 288.734375 118.949219 288.898438 119.074219 C 289.960938 119.914062 290.566406 120.789062 291.113281 121.664062 L 291.113281 129.738281 " fill="#e4a367"/><path data-cppathid="10063" fill-rule="nonzero" fill-opacity="1" d="M 291.113281 121.664062 C 290.566406 120.789062 289.960938 119.914062 288.898438 119.074219 C 288.734375 118.949219 288.546875 118.824219 288.347656 118.707031 L 288.347656 118.175781 L 291.113281 118.175781 L 291.113281 121.664062 " fill="#e5b189"/><path data-cppathid="10064" fill-rule="nonzero" fill-opacity="1" d="M 295.054688 129.855469 L 297.820312 129.855469 L 297.820312 129.738281 L 295.054688 129.738281 Z M 295.054688 129.855469 " fill="#e6c078"/><path data-cppathid="10065" fill-rule="nonzero" fill-opacity="1" d="M 297.820312 129.738281 L 295.054688 129.738281 L 295.054688 125.664062 C 295.792969 125.980469 296.496094 126.078125 297.101562 126.078125 C 297.359375 126.078125 297.605469 126.0625 297.820312 126.035156 L 297.820312 129.738281 " fill="#e4a367"/><path data-cppathid="10066" fill-rule="nonzero" fill-opacity="1" d="M 297.101562 126.078125 C 296.496094 126.078125 295.792969 125.980469 295.054688 125.664062 L 295.054688 118.175781 L 297.820312 118.175781 L 297.820312 126.035156 C 297.605469 126.0625 297.359375 126.078125 297.101562 126.078125 " fill="#e5b189"/><path data-cppathid="10067" fill-rule="nonzero" fill-opacity="1" d="M 298.542969 295.738281 C 289.230469 299.875 284.859375 295.929688 277.371094 289.960938 C 267.976562 282.480469 263.964844 267.292969 260.53125 255.285156 C 256.304688 240.476562 254.800781 218.0625 256.1875 203.296875 C 257.503906 189.40625 263.742188 172.15625 264.335938 157.652344 C 264.875 144.375 271.03125 139.113281 282.121094 134.984375 C 295.152344 130.136719 304.265625 136.363281 299.632812 150.855469 C 295.875 162.609375 296.378906 171.652344 294.746094 184.234375 C 292.484375 201.613281 298.542969 212.652344 294.746094 233.339844 C 292.808594 243.902344 295.511719 256.351562 296.792969 266.851562 C 297.6875 274.089844 295.640625 281.136719 299.089844 287.644531 L 298.542969 295.738281 " fill="#fffbba"/><path data-cppathid="10068" fill-rule="nonzero" fill-opacity="1" d="M 193.011719 30.226562 C 190.941406 21.847656 183.621094 17.652344 181.339844 30.226562 C 179.070312 42.800781 169.832031 91.324219 169.832031 91.324219 L 204.125 91.324219 C 204.125 91.324219 195.078125 38.613281 193.011719 30.226562 " fill="#c0243b"/><path data-cppathid="10069" fill-rule="nonzero" fill-opacity="1" d="M 181.339844 30.226562 C 181.351562 30.21875 181.351562 30.210938 181.351562 30.199219 C 181.351562 30.210938 181.351562 30.21875 181.339844 30.226562 M 181.351562 30.191406 C 181.351562 30.183594 181.351562 30.175781 181.359375 30.167969 C 181.351562 30.175781 181.351562 30.183594 181.351562 30.191406 M 181.359375 30.160156 L 181.359375 30.136719 L 181.359375 30.160156 M 181.359375 30.121094 C 181.359375 30.117188 181.367188 30.109375 181.367188 30.101562 C 181.367188 30.109375 181.359375 30.113281 181.359375 30.121094 M 181.367188 30.085938 L 181.367188 30.082031 L 181.367188 30.085938 " fill="#e6c2ba"/><path data-cppathid="10070" fill-rule="nonzero" fill-opacity="1" d="M 170.398438 88.359375 C 172.433594 77.640625 179.410156 40.921875 181.339844 30.226562 C 181.351562 30.21875 181.351562 30.210938 181.351562 30.199219 L 181.351562 30.191406 C 181.351562 30.183594 181.351562 30.175781 181.359375 30.167969 L 181.359375 30.121094 C 181.359375 30.113281 181.367188 30.109375 181.367188 30.101562 L 181.367188 30.082031 C 181.9375 27.058594 182.792969 25.019531 183.800781 23.789062 C 186.152344 44.054688 179.898438 72.777344 194.195312 88.140625 C 191.328125 88.074219 188.40625 88.039062 185.496094 88.039062 C 180.347656 88.039062 175.210938 88.144531 170.398438 88.359375 " fill="#b01f32"/><path data-cppathid="10071" fill-rule="nonzero" fill-opacity="1" d="M 208.542969 104.589844 L 165.242188 104.589844 C 147.351562 104.589844 135.5 112.414062 135.5 119.960938 L 135.5 336.183594 C 135.5 346.546875 155.003906 360.960938 186.902344 360.960938 C 221.53125 360.960938 238.289062 346.546875 238.289062 336.183594 L 238.289062 119.960938 C 238.289062 112.414062 225.847656 104.589844 208.542969 104.589844 " fill="#c0243b"/><path data-cppathid="10072" fill-rule="nonzero" fill-opacity="1" d="M 186.902344 360.960938 C 155.003906 360.960938 135.5 346.546875 135.5 336.183594 L 135.5 119.960938 C 135.5 116.148438 138.519531 112.261719 143.816406 109.359375 L 143.816406 110 L 149.28125 110 L 149.28125 110.144531 L 152.929688 110.144531 L 152.929688 110 L 158.121094 110 L 158.121094 110.144531 L 161.773438 110.144531 L 161.773438 110 L 166.957031 110 L 166.957031 110.144531 L 170.613281 110.144531 L 170.613281 110 L 175.796875 110 L 175.796875 110.144531 L 179.4375 110.144531 L 179.4375 110 L 184.628906 110 L 184.628906 110.144531 L 188.28125 110.144531 L 188.28125 110 L 190.859375 110 C 185.164062 113.199219 180.222656 116.875 176.582031 120.796875 C 166.902344 131.171875 164.828125 146.054688 162.582031 159.402344 C 158.84375 181.726562 155.714844 204.152344 154.527344 226.785156 C 152.804688 259.421875 157.761719 294.917969 176.519531 322.507812 C 187.414062 338.550781 207.210938 348.160156 226.730469 348.160156 C 228.4375 348.160156 230.140625 348.097656 231.832031 347.945312 C 224.117188 354.910156 209.445312 360.859375 187.425781 360.960938 L 186.902344 360.960938 " fill="#b01f32"/><path data-cppathid="10073" fill-rule="nonzero" fill-opacity="1" d="M 233.84375 229.597656 C 233.84375 272.863281 232.285156 307.933594 230.355469 307.933594 C 228.4375 307.933594 226.867188 272.863281 226.867188 229.597656 C 226.867188 186.335938 228.4375 151.261719 230.355469 151.261719 C 232.285156 151.261719 233.84375 186.335938 233.84375 229.597656 " fill="#ffffff"/><path data-cppathid="10074" fill-rule="nonzero" fill-opacity="1" d="M 143.816406 93.476562 C 143.816406 86.007812 229.101562 86.445312 229.101562 93.476562 L 229.101562 110 L 143.816406 110 L 143.816406 93.476562 " fill="#821725"/><path data-cppathid="10075" fill-rule="nonzero" fill-opacity="1" d="M 223.558594 105.105469 L 223.558594 94.75 L 219.910156 94.75 L 219.910156 104.617188 C 219.125 104.285156 218.304688 103.761719 217.484375 102.996094 C 216.195312 101.789062 215.492188 100.5625 214.726562 99.335938 L 214.726562 94.75 L 211.074219 94.75 L 211.074219 95.433594 C 206.921875 92.890625 197.527344 91.460938 194.363281 89.011719 C 210.6875 89.574219 225.289062 91.953125 225.289062 96.046875 L 225.289062 104.707031 C 224.992188 104.789062 224.390625 105.007812 223.558594 105.105469 " fill="#b0314a"/><path data-cppathid="10076" fill-rule="nonzero" fill-opacity="1" d="M 193.402344 110 L 188.28125 110 L 188.28125 109.234375 C 189.941406 109.46875 191.652344 109.65625 193.402344 109.835938 L 193.402344 110 M 184.628906 110 L 179.4375 110 L 179.4375 107.601562 C 181.0625 108 182.800781 108.351562 184.628906 108.675781 L 184.628906 110 M 175.796875 110 L 170.613281 110 L 170.613281 104.3125 C 171.316406 104.707031 172.09375 105.085938 172.941406 105.476562 C 173.804688 105.851562 174.761719 106.214844 175.796875 106.554688 L 175.796875 110 M 166.957031 110 L 161.773438 110 L 161.773438 94.75 L 158.121094 94.75 L 158.121094 110 L 152.929688 110 L 152.929688 94.75 L 149.28125 94.75 L 149.28125 110 L 143.816406 110 L 143.816406 93.433594 C 143.960938 90.628906 156.203125 88.945312 171.371094 88.324219 C 169.703125 89.527344 168.441406 90.773438 167.386719 91.917969 C 164.40625 95.199219 163.84375 98.550781 166.957031 101.671875 L 166.957031 110 " fill="#64131d"/><path data-cppathid="10077" fill-rule="nonzero" fill-opacity="1" d="M 149.28125 110.144531 L 152.929688 110.144531 L 152.929688 110 L 149.28125 110 Z M 149.28125 110.144531 " fill="#781723"/><path data-cppathid="10078" fill-rule="nonzero" fill-opacity="1" d="M 149.28125 110 L 152.929688 110 L 152.929688 94.75 L 149.28125 94.75 Z M 149.28125 110 " fill="#470d14"/><path data-cppathid="10079" fill-rule="nonzero" fill-opacity="1" d="M 158.121094 110.144531 L 161.773438 110.144531 L 161.773438 110 L 158.121094 110 Z M 158.121094 110.144531 " fill="#781723"/><path data-cppathid="10080" fill-rule="nonzero" fill-opacity="1" d="M 158.121094 110 L 161.773438 110 L 161.773438 94.75 L 158.121094 94.75 Z M 158.121094 110 " fill="#470d14"/><path data-cppathid="10081" fill-rule="nonzero" fill-opacity="1" d="M 166.957031 110.144531 L 170.613281 110.144531 L 170.613281 110 L 166.957031 110 Z M 166.957031 110.144531 " fill="#781723"/><path data-cppathid="10082" fill-rule="nonzero" fill-opacity="1" d="M 170.613281 104.3125 C 169.0625 103.464844 167.855469 102.574219 166.957031 101.671875 L 166.957031 94.75 L 170.613281 94.75 L 170.613281 104.3125 " fill="#5b111a"/><path data-cppathid="10083" fill-rule="nonzero" fill-opacity="1" d="M 170.613281 110 L 166.957031 110 L 166.957031 101.671875 C 167.855469 102.574219 169.0625 103.464844 170.613281 104.3125 L 170.613281 110 " fill="#470d14"/><path data-cppathid="10084" fill-rule="nonzero" fill-opacity="1" d="M 175.796875 110.144531 L 179.4375 110.144531 L 179.4375 110 L 175.796875 110 Z M 175.796875 110.144531 " fill="#781723"/><path data-cppathid="10085" fill-rule="nonzero" fill-opacity="1" d="M 179.4375 107.601562 C 178.140625 107.277344 176.925781 106.933594 175.796875 106.554688 L 175.796875 94.75 L 179.4375 94.75 L 179.4375 107.601562 " fill="#5b111a"/><path data-cppathid="10086" fill-rule="nonzero" fill-opacity="1" d="M 179.4375 110 L 175.796875 110 L 175.796875 106.554688 C 176.925781 106.933594 178.140625 107.277344 179.4375 107.601562 L 179.4375 110 " fill="#470d14"/><path data-cppathid="10087" fill-rule="nonzero" fill-opacity="1" d="M 184.628906 110.144531 L 188.28125 110.144531 L 188.28125 110 L 184.628906 110 Z M 184.628906 110.144531 " fill="#781723"/><path data-cppathid="10088" fill-rule="nonzero" fill-opacity="1" d="M 188.28125 109.234375 C 187.027344 109.0625 185.8125 108.871094 184.628906 108.675781 L 184.628906 94.75 L 188.28125 94.75 L 188.28125 109.234375 " fill="#5b111a"/><path data-cppathid="10089" fill-rule="nonzero" fill-opacity="1" d="M 188.28125 110 L 184.628906 110 L 184.628906 108.675781 C 185.8125 108.871094 187.027344 109.0625 188.28125 109.234375 L 188.28125 110 " fill="#470d14"/><path data-cppathid="10090" fill-rule="nonzero" fill-opacity="1" d="M 197.042969 110.144531 L 193.402344 110.144531 L 193.402344 110 L 197.042969 110 L 197.042969 110.144531 " fill="#821a29"/><path data-cppathid="10091" fill-rule="nonzero" fill-opacity="1" d="M 197.042969 110 L 195.140625 110 C 194.554688 109.945312 193.96875 109.890625 193.402344 109.835938 L 193.402344 94.75 L 197.042969 94.75 L 197.042969 110 " fill="#5b111a"/><path data-cppathid="10092" fill-rule="nonzero" fill-opacity="1" d="M 195.140625 110 L 193.402344 110 L 193.402344 109.835938 C 193.96875 109.890625 194.554688 109.945312 195.140625 110 " fill="#470d14"/><path data-cppathid="10093" fill-rule="nonzero" fill-opacity="1" d="M 202.234375 110.144531 L 205.882812 110.144531 L 205.882812 110 L 202.234375 110 Z M 202.234375 110.144531 " fill="#821a29"/><path data-cppathid="10094" fill-rule="nonzero" fill-opacity="1" d="M 202.234375 110 L 205.882812 110 L 205.882812 94.75 L 202.234375 94.75 Z M 202.234375 110 " fill="#5b111a"/><path data-cppathid="10095" fill-rule="nonzero" fill-opacity="1" d="M 211.074219 110.144531 L 214.726562 110.144531 L 214.726562 110 L 211.074219 110 Z M 211.074219 110.144531 " fill="#821a29"/><path data-cppathid="10096" fill-rule="nonzero" fill-opacity="1" d="M 214.726562 110 L 211.074219 110 L 211.074219 95.433594 C 211.335938 95.597656 211.570312 95.765625 211.796875 95.929688 C 213.203125 97.039062 213.988281 98.183594 214.726562 99.335938 L 214.726562 110 " fill="#5b111a"/><path data-cppathid="10097" fill-rule="nonzero" fill-opacity="1" d="M 214.726562 99.335938 C 213.988281 98.183594 213.203125 97.039062 211.796875 95.929688 C 211.570312 95.765625 211.335938 95.597656 211.074219 95.433594 L 211.074219 94.75 L 214.726562 94.75 L 214.726562 99.335938 " fill="#792434"/><path data-cppathid="10098" fill-rule="nonzero" fill-opacity="1" d="M 219.910156 110.144531 L 223.558594 110.144531 L 223.558594 110 L 219.910156 110 Z M 219.910156 110.144531 " fill="#821a29"/><path data-cppathid="10099" fill-rule="nonzero" fill-opacity="1" d="M 223.558594 110 L 219.910156 110 L 219.910156 104.617188 C 220.882812 105.03125 221.8125 105.167969 222.613281 105.167969 C 222.957031 105.167969 223.269531 105.148438 223.558594 105.105469 L 223.558594 110 " fill="#5b111a"/><path data-cppathid="10100" fill-rule="nonzero" fill-opacity="1" d="M 222.613281 105.167969 C 221.8125 105.167969 220.882812 105.03125 219.910156 104.617188 L 219.910156 94.75 L 223.558594 94.75 L 223.558594 105.105469 C 223.269531 105.148438 222.957031 105.167969 222.613281 105.167969 " fill="#792434"/><path data-cppathid="10101" fill-rule="nonzero" fill-opacity="1" d="M 224.515625 328.953125 C 212.230469 334.414062 206.460938 329.207031 196.582031 321.335938 C 184.199219 311.46875 178.898438 291.449219 174.382812 275.613281 C 168.804688 256.070312 166.800781 226.507812 168.648438 207.027344 C 170.378906 188.695312 178.617188 165.945312 179.394531 146.820312 C 180.113281 129.296875 188.226562 122.355469 202.855469 116.914062 C 220.042969 110.523438 232.058594 118.722656 225.957031 137.84375 C 221 153.355469 221.667969 165.277344 219.503906 181.871094 C 216.527344 204.792969 224.515625 219.367188 219.503906 246.652344 C 216.945312 260.585938 220.523438 277.007812 222.207031 290.855469 C 223.371094 300.398438 220.683594 309.710938 225.234375 318.28125 L 224.515625 328.953125 " fill="#e2243d"/></svg>