<?xml version="1.0" encoding="UTF-8"?>
<svg xmlns="http://www.w3.org/2000/svg" onmouseup="{ if(window.parent.document.onmouseup) window.parent.document.onmouseup(arguments[0]);}" viewBox="0 0 93.09 130.41" xmlns:xlink="http://www.w3.org/1999/xlink"><defs><style>
      .cls-1 {
        opacity: .8;
      }

      .cls-1, .cls-2, .cls-3 {
        fill: #ffe;
        mix-blend-mode: soft-light;
      }

      .cls-4 {
        fill: url(#linear-gradient-2);
      }

      .cls-5 {
        fill: url(#linear-gradient-9);
      }

      .cls-5, .cls-6, .cls-7 {
        mix-blend-mode: color-burn;
      }

      .cls-8, .cls-9, .cls-10, .cls-11 {
        fill: #fff;
      }

      .cls-6 {
        fill: url(#linear-gradient-13);
      }

      .cls-9 {
        opacity: .25;
      }

      .cls-9, .cls-10, .cls-11 {
        mix-blend-mode: lighten;
      }

      .cls-12 {
        fill: url(#linear-gradient-14);
      }

      .cls-13 {
        isolation: isolate;
      }

      .cls-2, .cls-14, .cls-15, .cls-16 {
        opacity: .5;
      }

      .cls-17 {
        fill: url(#linear-gradient-4);
        opacity: .35;
      }

      .cls-17, .cls-14, .cls-15, .cls-16 {
        mix-blend-mode: overlay;
      }

      .cls-18 {
        fill: #e8ce9e;
      }

      .cls-19 {
        fill: url(#linear-gradient-10);
      }

      .cls-20 {
        fill: #6b7caf;
      }

      .cls-7 {
        fill: url(#linear-gradient-3);
      }

      .cls-21 {
        fill: #ffefcc;
      }

      .cls-22 {
        fill: #565147;
      }

      .cls-23 {
        fill: #6f80b5;
      }

      .cls-24 {
        fill: url(#linear-gradient-5);
      }

      .cls-14 {
        fill: url(#linear-gradient-11);
      }

      .cls-25 {
        fill: url(#linear-gradient-7);
      }

      .cls-10 {
        opacity: .15;
      }

      .cls-26 {
        fill: url(#linear-gradient);
      }

      .cls-11 {
        opacity: .65;
      }

      .cls-15 {
        fill: url(#linear-gradient-6);
      }

      .cls-16 {
        fill: url(#linear-gradient-8);
      }

      .cls-27 {
        fill: url(#linear-gradient-12);
      }
    </style><linearGradient gradientUnits="userSpaceOnUse" y2="14.54" x2="46.55" y1="130.72" x1="46.55" id="linear-gradient"><stop stop-color="#b0beea" offset="0"/><stop stop-color="#94a1d3" offset=".99"/></linearGradient><linearGradient gradientUnits="userSpaceOnUse" y2="70.78" x2="91.34" y1="70.78" x1="1.75" id="linear-gradient-2"><stop stop-color="#ffefcc" offset="0"/><stop stop-color="#f7e4bc" offset=".4"/><stop stop-color="#e8ce9e" offset=".99"/></linearGradient><linearGradient gradientUnits="userSpaceOnUse" y2="17.13" x2="79.05" y1="17.13" x1="14.21" id="linear-gradient-3"><stop stop-color="#ccc" offset="0"/><stop stop-color="#999" offset="1"/></linearGradient><linearGradient gradientUnits="userSpaceOnUse" y2="70.78" x2="91.34" y1="70.78" x1="45.29" id="linear-gradient-4"><stop stop-color="#e6e6e6" offset="0"/><stop stop-color="#fff" offset="1"/></linearGradient><linearGradient xlink:href="#linear-gradient" gradientTransform="translate(-.22 .2)" y2="14.72" x2="80.45" y1="14.72" x1="13.38" id="linear-gradient-5"/><linearGradient xlink:href="#linear-gradient-4" gradientTransform="translate(-.22 .2)" y2="14.72" x2="31.04" y1="14.72" x1="19" id="linear-gradient-6"/><linearGradient xlink:href="#linear-gradient" gradientTransform="translate(-.22 .2)" y2="10.55" x2="80.45" y1="10.55" x1="13.38" id="linear-gradient-7"/><linearGradient xlink:href="#linear-gradient-4" gradientTransform="translate(-.22 .2)" y2="10.55" x2="31.3" y1="10.55" x1="18.92" id="linear-gradient-8"/><linearGradient xlink:href="#linear-gradient-3" y2="65.7" x2="86.8" y1="65.7" x1="63.18" id="linear-gradient-9"/><linearGradient gradientUnits="userSpaceOnUse" y2="76.78" x2="91.69" y1="76.78" x1="1.38" id="linear-gradient-10"><stop stop-color="#202d4c" offset="0"/><stop stop-color="#253255" offset=".05"/><stop stop-color="#2f3d65" offset=".16"/><stop stop-color="#35436e" offset=".29"/><stop stop-color="#374572" offset=".45"/><stop stop-color="#202d4c" offset="1"/></linearGradient><linearGradient xlink:href="#linear-gradient-4" y2="65.67" x2="29.49" y1="65.67" x1="5.87" id="linear-gradient-11"/><linearGradient gradientUnits="userSpaceOnUse" y2="4.95" x2="81.8" y1="4.95" x1="11.58" id="linear-gradient-12"><stop stop-color="#372b42" offset="0"/><stop stop-color="#372b42" offset="0"/><stop stop-color="#43354d" offset=".14"/><stop stop-color="#473951" offset=".28"/><stop stop-color="#43354d" offset=".64"/><stop stop-color="#372b42" offset=".99"/><stop stop-color="#372b42" offset="1"/></linearGradient><linearGradient xlink:href="#linear-gradient-3" y2="9.04" x2="81.8" y1="9.04" x1="11.58" id="linear-gradient-13"/><linearGradient gradientUnits="userSpaceOnUse" y2="50.11" x2="46.87" y1="83.21" x1="46.87" id="linear-gradient-14"><stop stop-color="#4f7c0f" offset="0"/><stop stop-color="#558513" offset=".09"/><stop stop-color="#5e911a" offset=".25"/><stop stop-color="#63981d" offset=".48"/><stop stop-color="#659b1f" offset=".99"/></linearGradient></defs><g class="cls-13"><g data-name="Layer 2" id="Layer_2"><g data-name="Layer 1" id="Layer_1-2"><g><g><path data-cppathid="10000" d="M93.05,39.19l-.37,4.34-.99,11.68-4.31,51.04-1.19,14.05c-.26,3.08-2.3,5.74-5.24,7.13-.39,.19-.8,.34-1.21,.47-.65,.22-1.34,.38-2.05,.47-3.5,.45-7.99,.95-13.16,1.33-5.39,.41-11.52,.7-18.03,.7s-13.07-.32-18.6-.76c-.08,0-.16,0-.23-.02-2.17-.17-4.21-.36-6.09-.56-.68-.07-1.34-.14-1.97-.21-1.83-.2-3.5-.41-4.96-.6-.52-.06-1.04-.18-1.53-.33-.31-.08-.63-.19-.92-.32-.05-.02-.1-.05-.16-.06-.07-.03-.15-.06-.21-.09-2.79-1.25-4.74-3.75-4.98-6.64l-1.21-14.53L1.38,55.22,.04,39.19c-.42-5.75,2.56-11.41,8.09-14.44,.64-.35,1.32-.67,2.02-.94,2.28-.88,3.83-2.78,4.06-4.96,.02-.19,.03-.38,.03-.57v-3.75H78.85v3.75c0,.49,.06,.97,.2,1.43,.49,1.81,1.92,3.33,3.89,4.09,.71,.27,1.38,.58,2.02,.94,5.54,3.03,8.51,8.69,8.09,14.44Z" class="cls-26"/><path data-cppathid="10001" d="M19.6,128.86c-1.83-.2-3.5-.41-4.96-.6-.52-.06-1.04-.18-1.53-.33-.31-.08-.63-.19-.92-.32-.05-.02-.1-.05-.16-.06-.07-.03-.15-.06-.21-.09l-.72-13.75,6.98-1.09,1.52,16.26Z" class="cls-11"/><path data-cppathid="10002" d="M80.94,127.44c-.44,.21-.91,.39-1.39,.54-.6,.19-1.22,.32-1.87,.41-3.44,.45-7.84,.93-12.91,1.31-5.45,.42-11.67,.71-18.28,.71-13.15,0-24.76-1.21-31.85-2.15-.92-.12-1.8-.36-2.61-.72,6.27-4.49,19.37-7.58,34.52-7.58,6.78,0,13.16,.62,18.69,1.72,5.97,1.17,10.96,2.89,14.42,4.95,.45,.27,.88,.55,1.28,.83Z" class="cls-20"/><path data-cppathid="10003" d="M30.12,107.42l-2.46,22.21c-2.3-.19-4.46-.38-6.44-.59-2.48-.26-4.69-.53-6.58-.78-.89-.12-1.7-.34-2.45-.66l-2.22-17.86,20.15-2.32Z" class="cls-1"/><path data-cppathid="10004" d="M82.11,108.81l-2.38,19.1c-.65,.22-1.34,.38-2.05,.47-3.5,.45-7.99,.95-13.16,1.33l-2.56-23.22,20.15,2.32Z" class="cls-1"/><path data-cppathid="10005" d="M91.31,38.42l-6.75,78.71c-.31,3.6-3.4,6.49-7.5,7.01-7.05,.89-18.09,1.96-30.56,1.96s-24-1.13-31.21-2.09c-3.72-.48-6.52-3.13-6.79-6.41L1.79,38.42c-.21-2.73,.42-5.36,1.74-7.66,1.29-2.26,3.24-4.18,5.74-5.52,.61-.33,1.24-.62,1.85-.85,2.84-1.07,4.66-3.49,4.66-6.18v-2.74h61.55v2.74c0,2.69,1.83,5.11,4.66,6.18,.62,.23,1.25,.52,1.85,.85,2.71,1.47,4.79,3.6,6.06,6.12,1.1,2.14,1.6,4.57,1.41,7.06Z" class="cls-4"/><path data-cppathid="10006" d="M78.12,122.98c-7.3,.89-18.71,1.95-31.64,1.95s-24.83-1.13-32.3-2.08c-1.56-.2-2.96-.75-4.09-1.56,1.23,1.42,3.04,2.43,5.19,2.72,7.21,.95,18.48,2.08,31.2,2.08s23.51-1.06,30.57-1.95c2.39-.3,4.42-1.41,5.78-2.98-1.29,.95-2.9,1.6-4.71,1.82Z" class="cls-8"/><path data-cppathid="10007" d="M87.88,30.86c.67,.17,1.34,.32,2.02,.5-1.27-2.51-3.35-4.65-6.06-6.12-.61-.33-1.24-.62-1.85-.85-2.83-1.07-4.66-3.49-4.66-6.18v-2.74H15.77v2.74c0,2.69-1.82,5.11-4.66,6.18-.62,.23-1.25,.52-1.85,.85-2.49,1.35-4.45,3.27-5.74,5.52,9.13-2.72,30.64-7.48,59.79-4.28,5.37,.59,9.62,4.56,9.69,9.36,0,.17,0,.33-.01,.47l-6.75,84.6c-.15,1.79-.89,3.42-2.06,4.71,4.38-.35,8.22-.77,11.3-1.16,4.1-.52,7.19-3.41,7.5-7.01l6.75-78.71c.19-2.5-.31-4.92-1.41-7.06-.14-.27-.29-.54-.45-.81Z" class="cls-18"/><path data-cppathid="10008" d="M79.05,19.72c-11.52-2.13-59.95-.98-64.84-.86,.02-.19,.03-.38,.03-.57v-2.76l37.25-.99h27.36v3.75c0,.49,.06,.97,.2,1.43Z" class="cls-7"/><path data-cppathid="10009" d="M89.89,31.36c-1.27-2.51-3.35-4.65-6.06-6.12-.61-.33-1.24-.62-1.85-.85-2.83-1.07-4.66-3.49-4.66-6.18v-2.74h-2.44v2.74c0,2.69,1.83,5.11,4.66,6.18,.62,.23,1.25,.52,1.85,.85,2.71,1.47,4.79,3.6,6.06,6.12,1.1,2.14,1.6,4.57,1.41,7.06l-6.75,78.71c-.31,3.6-3.4,6.49-7.5,7.01-6.82,.86-17.35,1.88-29.31,1.95,.4,0,.79,0,1.19,0,12.48,0,23.51-1.07,30.56-1.96,4.1-.52,7.19-3.41,7.5-7.01l6.75-78.71c.19-2.5-.31-4.92-1.41-7.06Z" class="cls-17"/><g><rect data-cppathid="10010" height="5.1" width="64.8" y="10.32" x="14.16" class="cls-23"/><path data-cppathid="10011" d="M79.11,16.05H14.28c-.62,0-1.12-.51-1.12-1.13s.5-1.12,1.12-1.12H79.11c.62,0,1.12,.51,1.12,1.13,0,.62-.5,1.12-1.12,1.12Z" class="cls-24"/><rect data-cppathid="10012" ry=".43" rx=".43" height="2.24" width="12.04" y="13.8" x="18.78" class="cls-15"/><path data-cppathid="10013" d="M79.11,11.87H14.28c-.62,0-1.12-.51-1.12-1.13s.5-1.12,1.12-1.12H79.11c.62,0,1.12,.51,1.12,1.13,0,.62-.5,1.12-1.12,1.12Z" class="cls-25"/><rect data-cppathid="10014" ry=".43" rx=".43" height="2.24" width="12.39" y="9.63" x="18.69" class="cls-16"/></g><path data-cppathid="10015" d="M86.8,34.34c0,4.66-5.37,70.76-7.13,92.27-.04,.48-.08,.94-.12,1.36-.6,.19-1.22,.32-1.87,.41-3.44,.45-7.84,.93-12.91,1.31,.13-2.14,.29-4.86,.47-8.03,1.59-26.75,4.88-85.14,3.76-88.56-1.62-4.92-9.07-20.11-4.19-27.23,4.88-7.11,7.27-2.98,7.27-2.98,0,0-.52,17.75,2.88,21.47,3.18,3.46,11.83,4.41,11.83,9.98Z" class="cls-5"/><path data-cppathid="10016" d="M68.83,55.54c-3.17-6.22-11.95-10.76-22.29-10.76-10.34,0-19.12,4.55-22.29,10.76-7.63-.07-15.25-.18-22.87-.32,1.42,17.04,2.83,34.21,4.23,51.49,27.17,2.75,54.61,2.76,81.78,0,1.43-17.29,2.86-34.46,4.3-51.5-7.62,.14-15.24,.25-22.87,.32Z" class="cls-19"/><path data-cppathid="10017" d="M23.66,33.1c-1.26,3.83,3,76.29,4.23,96.54-.08,0-.16,0-.23-.02-2.17-.17-4.21-.36-6.09-.56-2.62-.27-4.95-.56-6.93-.82-.52-.06-1.04-.18-1.53-.33-1.64-20-7.24-88.83-7.24-93.58,0-5.57,8.65-6.51,11.82-9.98,1.43-1.57,2.18-5.63,2.55-9.82,.51-5.73,.33-11.65,.33-11.65,0,0,2.4-4.13,7.27,2.98,1.56,2.26,1.86,5.35,1.51,8.67-.76,7.08-4.58,15.21-5.69,18.56Z" class="cls-14"/><g><path data-cppathid="10018" d="M81.8,1.69v6.51c0,.94-.86,1.7-1.92,1.7H13.49c-1.05,0-1.9-.76-1.9-1.7V1.69c0-.93,.86-1.69,1.9-1.69H79.89c1.06,0,1.92,.76,1.92,1.69Z" class="cls-27"/><path data-cppathid="10019" d="M80.87,8.39H12.5c-.33,0-.64-.08-.92-.21,0,.96,.86,1.72,1.9,1.72H79.89c1.06,0,1.92-.76,1.92-1.7-.28,.11-.59,.19-.93,.19Z" class="cls-6"/><polygon data-cppathid="10020" points="45.58 0 44.7 9.9 16.72 9.9 15.75 0 45.58 0" class="cls-1"/><polygon data-cppathid="10021" points="78.26 0 77.52 9.9 69.89 9.9 69.49 0 78.26 0" class="cls-2"/><polygon data-cppathid="10022" points="32.63 0 32.35 9.9 21.51 9.9 20.55 0 32.63 0" class="cls-3"/></g><ellipse data-cppathid="10023" ry="18.56" rx="20.93" cy="66.66" cx="46.87" class="cls-21"/><path data-cppathid="10024" d="M74.15,101.43c-18.38,1.36-36.85,1.36-55.23,0-1.96-.14-3.46-1.6-3.46-3.32v-4.07c0-1.95,1.9-3.47,4.12-3.32,17.94,1.29,35.97,1.29,53.91,0,2.22-.16,4.12,1.36,4.12,3.32v4.07c0,1.73-1.5,3.18-3.46,3.32Z" class="cls-21"/><ellipse data-cppathid="10025" ry="16.55" rx="18.67" cy="66.66" cx="46.87" class="cls-12"/><path data-cppathid="10026" d="M92.69,43.53l-6.5,76.77c-.26,3.08-2.3,5.74-5.24,7.13-.39,.19-.8,.34-1.21,.47-.65,.22-1.34,.38-2.05,.47-3.5,.45-7.99,.95-13.16,1.33-5.39,.41-11.52,.7-18.03,.7-6.83,0-13.25-.32-18.83-.78-2.17-.17-4.21-.36-6.09-.56,.88-.29,1.77-.55,2.64-.79,8.82-2.42,18.03-4.26,25.82-8.67,12.24-6.92,19.17-19.12,24.86-30.95,4.8-10,9.13-20.18,12.96-30.49,.89-2.39,2.18-10.07,4.85-14.63Z" class="cls-10"/><path data-cppathid="10027" d="M7.31,29.59c-.98,1.09-1.78,2.67-.86,3.8,.55,.67,1.58,.93,2.52,.86s1.82-.4,2.7-.7c9.1-3.05,19.17-2.06,28.89-1.79,.83,.02,1.68,.04,2.46-.21s1.49-.81,1.61-1.53c.21-1.27-1.31-2.19-2.64-2.7-4.63-1.78-9.61-2.84-14.64-3.17-4.45-.29-9.95-.4-14.08,1.3-2.31,.95-4.37,2.37-5.96,4.13Z" class="cls-11"/><ellipse data-cppathid="10028" ry="2.2" rx="4.75" cy="36.93" cx="17.69" class="cls-8"/><g><circle data-cppathid="10029" r=".4" cy="35.41" cx="56.64" class="cls-22"/><circle data-cppathid="10030" r=".4" cy="39.01" cx="57.84" class="cls-22"/><circle data-cppathid="10031" r=".6" cy="36.81" cx="52.44" class="cls-22"/><circle data-cppathid="10032" r=".4" cy="35.41" cx="53.84" class="cls-22"/><circle data-cppathid="10033" r=".4" cy="33.01" cx="55.44" class="cls-22"/><circle data-cppathid="10034" r=".4" cy="33.98" cx="57.39" class="cls-22"/><circle data-cppathid="10035" r=".4" cy="35.01" cx="58.64" class="cls-22"/><circle data-cppathid="10036" r=".2" cy="36.81" cx="59.64" class="cls-22"/><circle data-cppathid="10037" r=".4" cy="35.41" cx="61.04" class="cls-22"/><circle data-cppathid="10038" r=".2" cy="38.01" cx="61.64" class="cls-22"/><circle data-cppathid="10039" r=".2" cy="38.81" cx="54.04" class="cls-22"/></g><g><circle data-cppathid="10040" r=".41" cy="39.29" cx="50.79" class="cls-22"/><circle data-cppathid="10041" r=".41" cy="42.99" cx="52.02" class="cls-22"/><circle data-cppathid="10042" r=".62" cy="40.73" cx="46.46" class="cls-22"/><circle data-cppathid="10043" r=".41" cy="39.29" cx="47.9" class="cls-22"/><circle data-cppathid="10044" r=".41" cy="36.82" cx="49.55" class="cls-22"/><circle data-cppathid="10045" r=".41" cy="37.82" cx="51.55" class="cls-22"/><circle data-cppathid="10046" r=".41" cy="38.88" cx="52.84" class="cls-22"/><circle data-cppathid="10047" r=".21" cy="40.73" cx="53.87" class="cls-22"/><circle data-cppathid="10048" r=".41" cy="39.29" cx="55.32" class="cls-22"/><circle data-cppathid="10049" r=".21" cy="41.96" cx="55.93" class="cls-22"/><circle data-cppathid="10050" r=".21" cy="42.79" cx="48.11" class="cls-22"/></g><g><circle data-cppathid="10051" r=".4" cy="37.41" cx="66.64" class="cls-22"/><circle data-cppathid="10052" r=".4" cy="41.01" cx="67.84" class="cls-22"/><circle data-cppathid="10053" r=".6" cy="38.81" cx="62.44" class="cls-22"/><circle data-cppathid="10054" r=".4" cy="37.41" cx="63.84" class="cls-22"/><circle data-cppathid="10055" r=".4" cy="35.01" cx="65.44" class="cls-22"/><circle data-cppathid="10056" r=".4" cy="35.98" cx="67.39" class="cls-22"/><circle data-cppathid="10057" r=".4" cy="37.01" cx="68.64" class="cls-22"/><circle data-cppathid="10058" r=".2" cy="38.81" cx="69.64" class="cls-22"/><circle data-cppathid="10059" r=".4" cy="37.41" cx="71.04" class="cls-22"/><circle data-cppathid="10060" r=".2" cy="40.01" cx="71.64" class="cls-22"/><circle data-cppathid="10061" r=".2" cy="40.81" cx="64.04" class="cls-22"/></g><g><circle data-cppathid="10062" r=".41" cy="41.29" cx="60.79" class="cls-22"/><circle data-cppathid="10063" r=".41" cy="44.99" cx="62.02" class="cls-22"/><circle data-cppathid="10064" r=".62" cy="42.73" cx="56.46" class="cls-22"/><circle data-cppathid="10065" r=".41" cy="41.29" cx="57.9" class="cls-22"/><circle data-cppathid="10066" r=".41" cy="38.82" cx="59.55" class="cls-22"/><circle data-cppathid="10067" r=".41" cy="39.82" cx="61.55" class="cls-22"/><circle data-cppathid="10068" r=".41" cy="40.88" cx="62.84" class="cls-22"/><circle data-cppathid="10069" r=".21" cy="42.73" cx="63.87" class="cls-22"/><circle data-cppathid="10070" r=".41" cy="41.29" cx="65.32" class="cls-22"/><circle data-cppathid="10071" r=".21" cy="43.96" cx="65.93" class="cls-22"/><circle data-cppathid="10072" r=".21" cy="44.79" cx="58.11" class="cls-22"/></g><g><circle data-cppathid="10073" r=".4" cy="26.58" cx="69.64" class="cls-22"/><circle data-cppathid="10074" r=".4" cy="30.19" cx="68.47" class="cls-22"/><circle data-cppathid="10075" r=".6" cy="25.21" cx="65.43" class="cls-22"/><circle data-cppathid="10076" r=".4" cy="24.91" cx="67.39" class="cls-22"/><circle data-cppathid="10077" r=".4" cy="23.94" cx="70.1" class="cls-22"/><circle data-cppathid="10078" r=".4" cy="25.87" cx="71.09" class="cls-22"/><circle data-cppathid="10079" r=".4" cy="27.45" cx="71.49" class="cls-22"/><circle data-cppathid="10080" r=".2" cy="29.49" cx="71.22" class="cls-22"/><circle data-cppathid="10081" r=".4" cy="29.2" cx="73.18" class="cls-22"/><circle data-cppathid="10082" r=".2" cy="31.64" cx="72.12" class="cls-22"/><circle data-cppathid="10083" r=".2" cy="27.77" cx="65.53" class="cls-22"/></g><g><circle data-cppathid="10084" r=".41" cy="26.22" cx="62.62" class="cls-22"/><circle data-cppathid="10085" r=".41" cy="29.93" cx="61.41" class="cls-22"/><circle data-cppathid="10086" r=".62" cy="24.81" cx="58.29" class="cls-22"/><circle data-cppathid="10087" r=".41" cy="24.5" cx="60.31" class="cls-22"/><circle data-cppathid="10088" r=".41" cy="23.5" cx="63.1" class="cls-22"/><circle data-cppathid="10089" r=".41" cy="25.49" cx="64.11" class="cls-22"/><circle data-cppathid="10090" r=".41" cy="27.11" cx="64.52" class="cls-22"/><circle data-cppathid="10091" r=".21" cy="29.21" cx="64.25" class="cls-22"/><circle data-cppathid="10092" r=".41" cy="28.91" cx="66.26" class="cls-22"/><circle data-cppathid="10093" r=".21" cy="31.43" cx="65.17" class="cls-22"/><circle data-cppathid="10094" r=".21" cy="27.44" cx="58.39" class="cls-22"/></g><g><circle data-cppathid="10095" r=".4" cy="32.58" cx="47.64" class="cls-22"/><circle data-cppathid="10096" r=".4" cy="36.19" cx="46.47" class="cls-22"/><circle data-cppathid="10097" r=".6" cy="31.21" cx="43.43" class="cls-22"/><circle data-cppathid="10098" r=".4" cy="30.91" cx="45.39" class="cls-22"/><circle data-cppathid="10099" r=".4" cy="29.94" cx="48.1" class="cls-22"/><circle data-cppathid="10100" r=".4" cy="31.87" cx="49.09" class="cls-22"/><circle data-cppathid="10101" r=".4" cy="33.45" cx="49.49" class="cls-22"/><circle data-cppathid="10102" r=".2" cy="35.49" cx="49.22" class="cls-22"/><circle data-cppathid="10103" r=".4" cy="35.2" cx="51.18" class="cls-22"/><circle data-cppathid="10104" r=".2" cy="37.64" cx="50.12" class="cls-22"/><circle data-cppathid="10105" r=".2" cy="33.77" cx="43.53" class="cls-22"/></g><g><circle data-cppathid="10106" r=".41" cy="32.22" cx="40.62" class="cls-22"/><circle data-cppathid="10107" r=".41" cy="35.93" cx="39.41" class="cls-22"/><circle data-cppathid="10108" r=".62" cy="30.81" cx="36.29" class="cls-22"/><circle data-cppathid="10109" r=".41" cy="30.5" cx="38.31" class="cls-22"/><circle data-cppathid="10110" r=".41" cy="29.5" cx="41.1" class="cls-22"/><circle data-cppathid="10111" r=".41" cy="31.49" cx="42.11" class="cls-22"/><circle data-cppathid="10112" r=".41" cy="33.11" cx="42.52" class="cls-22"/><circle data-cppathid="10113" r=".21" cy="35.21" cx="42.25" class="cls-22"/><circle data-cppathid="10114" r=".41" cy="34.91" cx="44.26" class="cls-22"/><circle data-cppathid="10115" r=".21" cy="37.43" cx="43.17" class="cls-22"/><circle data-cppathid="10116" r=".21" cy="33.44" cx="36.39" class="cls-22"/></g><g><circle data-cppathid="10117" r=".4" cy="44.58" cx="26.64" class="cls-22"/><circle data-cppathid="10118" r=".4" cy="48.19" cx="25.47" class="cls-22"/><circle data-cppathid="10119" r=".6" cy="43.21" cx="22.43" class="cls-22"/><circle data-cppathid="10120" r=".4" cy="42.91" cx="24.39" class="cls-22"/><circle data-cppathid="10121" r=".4" cy="41.94" cx="27.1" class="cls-22"/><circle data-cppathid="10122" r=".4" cy="43.87" cx="28.09" class="cls-22"/><circle data-cppathid="10123" r=".4" cy="45.45" cx="28.49" class="cls-22"/><circle data-cppathid="10124" r=".2" cy="47.49" cx="28.22" class="cls-22"/><circle data-cppathid="10125" r=".4" cy="47.2" cx="30.18" class="cls-22"/><circle data-cppathid="10126" r=".2" cy="49.64" cx="29.12" class="cls-22"/><circle data-cppathid="10127" r=".2" cy="45.77" cx="22.53" class="cls-22"/></g><g><circle data-cppathid="10128" r=".41" cy="44.22" cx="19.62" class="cls-22"/><circle data-cppathid="10129" r=".41" cy="47.93" cx="18.41" class="cls-22"/><circle data-cppathid="10130" r=".62" cy="42.81" cx="15.29" class="cls-22"/><circle data-cppathid="10131" r=".41" cy="42.5" cx="17.31" class="cls-22"/><circle data-cppathid="10132" r=".41" cy="41.5" cx="20.1" class="cls-22"/><circle data-cppathid="10133" r=".41" cy="43.49" cx="21.11" class="cls-22"/><circle data-cppathid="10134" r=".41" cy="45.11" cx="21.52" class="cls-22"/><circle data-cppathid="10135" r=".21" cy="47.21" cx="21.25" class="cls-22"/><circle data-cppathid="10136" r=".41" cy="46.91" cx="23.26" class="cls-22"/><circle data-cppathid="10137" r=".21" cy="49.43" cx="22.17" class="cls-22"/><circle data-cppathid="10138" r=".21" cy="45.44" cx="15.39" class="cls-22"/></g><g><circle data-cppathid="10139" r=".52" cy="39.21" cx="34.08" class="cls-22"/><circle data-cppathid="10140" r=".52" cy="43.89" cx="35.64" class="cls-22"/><circle data-cppathid="10141" r=".78" cy="41.03" cx="28.62" class="cls-22"/><circle data-cppathid="10142" r=".52" cy="39.21" cx="30.44" class="cls-22"/><circle data-cppathid="10143" r=".52" cy="36.09" cx="32.52" class="cls-22"/><circle data-cppathid="10144" r=".52" cy="37.35" cx="35.05" class="cls-22"/><circle data-cppathid="10145" r=".52" cy="38.69" cx="36.68" class="cls-22"/><circle data-cppathid="10146" r=".26" cy="41.03" cx="37.98" class="cls-22"/><circle data-cppathid="10147" r=".52" cy="39.21" cx="39.8" class="cls-22"/><circle data-cppathid="10148" r=".26" cy="42.59" cx="40.58" class="cls-22"/><circle data-cppathid="10149" r=".26" cy="43.63" cx="30.7" class="cls-22"/></g><g><circle data-cppathid="10150" r=".4" cy="26.58" cx="26.64" class="cls-22"/><circle data-cppathid="10151" r=".4" cy="30.19" cx="25.47" class="cls-22"/><circle data-cppathid="10152" r=".6" cy="25.21" cx="22.43" class="cls-22"/><circle data-cppathid="10153" r=".4" cy="24.91" cx="24.39" class="cls-22"/><circle data-cppathid="10154" r=".4" cy="23.94" cx="27.1" class="cls-22"/><circle data-cppathid="10155" r=".4" cy="25.87" cx="28.09" class="cls-22"/><circle data-cppathid="10156" r=".4" cy="27.45" cx="28.49" class="cls-22"/><circle data-cppathid="10157" r=".2" cy="29.49" cx="28.22" class="cls-22"/><circle data-cppathid="10158" r=".4" cy="29.2" cx="30.18" class="cls-22"/><circle data-cppathid="10159" r=".2" cy="31.64" cx="29.12" class="cls-22"/><circle data-cppathid="10160" r=".2" cy="27.77" cx="22.53" class="cls-22"/></g><g><circle data-cppathid="10161" r=".41" cy="26.22" cx="19.62" class="cls-22"/><circle data-cppathid="10162" r=".41" cy="29.93" cx="18.41" class="cls-22"/><circle data-cppathid="10163" r=".62" cy="24.81" cx="15.29" class="cls-22"/><circle data-cppathid="10164" r=".41" cy="24.5" cx="17.31" class="cls-22"/><circle data-cppathid="10165" r=".41" cy="23.5" cx="20.1" class="cls-22"/><circle data-cppathid="10166" r=".41" cy="25.49" cx="21.11" class="cls-22"/><circle data-cppathid="10167" r=".41" cy="27.11" cx="21.52" class="cls-22"/><circle data-cppathid="10168" r=".21" cy="29.21" cx="21.25" class="cls-22"/><circle data-cppathid="10169" r=".41" cy="28.91" cx="23.26" class="cls-22"/><circle data-cppathid="10170" r=".21" cy="31.43" cx="22.17" class="cls-22"/><circle data-cppathid="10171" r=".21" cy="27.44" cx="15.39" class="cls-22"/></g><g><circle data-cppathid="10172" r=".52" cy="21.21" cx="34.08" class="cls-22"/><circle data-cppathid="10173" r=".52" cy="25.89" cx="35.64" class="cls-22"/><circle data-cppathid="10174" r=".78" cy="23.03" cx="28.62" class="cls-22"/><circle data-cppathid="10175" r=".52" cy="21.21" cx="30.44" class="cls-22"/><circle data-cppathid="10176" r=".52" cy="18.09" cx="32.52" class="cls-22"/><circle data-cppathid="10177" r=".52" cy="19.35" cx="35.05" class="cls-22"/><circle data-cppathid="10178" r=".52" cy="20.69" cx="36.68" class="cls-22"/><circle data-cppathid="10179" r=".26" cy="23.03" cx="37.98" class="cls-22"/><circle data-cppathid="10180" r=".52" cy="21.21" cx="39.8" class="cls-22"/><circle data-cppathid="10181" r=".26" cy="24.59" cx="40.58" class="cls-22"/><circle data-cppathid="10182" r=".26" cy="25.63" cx="30.7" class="cls-22"/></g><g><circle data-cppathid="10183" r=".52" cy="27.21" cx="32.08" class="cls-22"/><circle data-cppathid="10184" r=".52" cy="31.89" cx="33.64" class="cls-22"/><circle data-cppathid="10185" r=".78" cy="29.03" cx="26.62" class="cls-22"/><circle data-cppathid="10186" r=".52" cy="27.21" cx="28.44" class="cls-22"/><circle data-cppathid="10187" r=".52" cy="24.09" cx="30.52" class="cls-22"/><circle data-cppathid="10188" r=".52" cy="25.35" cx="33.05" class="cls-22"/><circle data-cppathid="10189" r=".52" cy="26.69" cx="34.68" class="cls-22"/><circle data-cppathid="10190" r=".26" cy="29.03" cx="35.98" class="cls-22"/><circle data-cppathid="10191" r=".52" cy="27.21" cx="37.8" class="cls-22"/><circle data-cppathid="10192" r=".26" cy="30.59" cx="38.58" class="cls-22"/><circle data-cppathid="10193" r=".26" cy="31.63" cx="28.7" class="cls-22"/></g><g><circle data-cppathid="10194" r=".52" cy="22.21" cx="48.08" class="cls-22"/><circle data-cppathid="10195" r=".52" cy="26.89" cx="49.64" class="cls-22"/><circle data-cppathid="10196" r=".78" cy="24.03" cx="42.62" class="cls-22"/><circle data-cppathid="10197" r=".52" cy="22.21" cx="44.44" class="cls-22"/><circle data-cppathid="10198" r=".52" cy="19.09" cx="46.52" class="cls-22"/><circle data-cppathid="10199" r=".52" cy="20.35" cx="49.05" class="cls-22"/><circle data-cppathid="10200" r=".52" cy="21.69" cx="50.68" class="cls-22"/><circle data-cppathid="10201" r=".26" cy="24.03" cx="51.98" class="cls-22"/><circle data-cppathid="10202" r=".52" cy="22.21" cx="53.8" class="cls-22"/><circle data-cppathid="10203" r=".26" cy="25.59" cx="54.58" class="cls-22"/><circle data-cppathid="10204" r=".26" cy="26.63" cx="44.7" class="cls-22"/></g><g><circle data-cppathid="10205" r=".52" cy="40.21" cx="76.08" class="cls-22"/><circle data-cppathid="10206" r=".52" cy="44.89" cx="77.64" class="cls-22"/><circle data-cppathid="10207" r=".78" cy="42.03" cx="70.62" class="cls-22"/><circle data-cppathid="10208" r=".52" cy="40.21" cx="72.44" class="cls-22"/><circle data-cppathid="10209" r=".52" cy="37.09" cx="74.52" class="cls-22"/><circle data-cppathid="10210" r=".52" cy="38.35" cx="77.05" class="cls-22"/><circle data-cppathid="10211" r=".52" cy="39.69" cx="78.68" class="cls-22"/><circle data-cppathid="10212" r=".26" cy="42.03" cx="79.98" class="cls-22"/><circle data-cppathid="10213" r=".52" cy="40.21" cx="81.8" class="cls-22"/><circle data-cppathid="10214" r=".26" cy="43.59" cx="82.58" class="cls-22"/><circle data-cppathid="10215" r=".26" cy="44.63" cx="72.7" class="cls-22"/></g><g><circle data-cppathid="10216" r=".52" cy="45.21" cx="76.08" class="cls-22"/><circle data-cppathid="10217" r=".52" cy="49.89" cx="77.64" class="cls-22"/><circle data-cppathid="10218" r=".78" cy="47.03" cx="70.62" class="cls-22"/><circle data-cppathid="10219" r=".52" cy="45.21" cx="72.44" class="cls-22"/><circle data-cppathid="10220" r=".52" cy="42.09" cx="74.52" class="cls-22"/><circle data-cppathid="10221" r=".52" cy="43.35" cx="77.05" class="cls-22"/><circle data-cppathid="10222" r=".52" cy="44.69" cx="78.68" class="cls-22"/><circle data-cppathid="10223" r=".26" cy="47.03" cx="79.98" class="cls-22"/><circle data-cppathid="10224" r=".52" cy="45.21" cx="81.8" class="cls-22"/><circle data-cppathid="10225" r=".26" cy="48.59" cx="82.58" class="cls-22"/><circle data-cppathid="10226" r=".26" cy="49.63" cx="72.7" class="cls-22"/></g><g><circle data-cppathid="10227" r=".4" cy="116.41" cx="55.64" class="cls-22"/><circle data-cppathid="10228" r=".4" cy="120.01" cx="56.84" class="cls-22"/><circle data-cppathid="10229" r=".6" cy="117.81" cx="51.44" class="cls-22"/><circle data-cppathid="10230" r=".4" cy="116.41" cx="52.84" class="cls-22"/><circle data-cppathid="10231" r=".4" cy="114.01" cx="54.44" class="cls-22"/><circle data-cppathid="10232" r=".4" cy="114.98" cx="56.39" class="cls-22"/><circle data-cppathid="10233" r=".4" cy="116.01" cx="57.64" class="cls-22"/><circle data-cppathid="10234" r=".2" cy="117.81" cx="58.64" class="cls-22"/><circle data-cppathid="10235" r=".4" cy="116.41" cx="60.04" class="cls-22"/><circle data-cppathid="10236" r=".2" cy="119.01" cx="60.64" class="cls-22"/><circle data-cppathid="10237" r=".2" cy="119.81" cx="53.04" class="cls-22"/></g><g><circle data-cppathid="10238" r=".41" cy="120.29" cx="49.79" class="cls-22"/><circle data-cppathid="10239" r=".41" cy="123.99" cx="51.02" class="cls-22"/><circle data-cppathid="10240" r=".62" cy="121.73" cx="45.46" class="cls-22"/><circle data-cppathid="10241" r=".41" cy="120.29" cx="46.9" class="cls-22"/><circle data-cppathid="10242" r=".41" cy="117.82" cx="48.55" class="cls-22"/><circle data-cppathid="10243" r=".41" cy="118.82" cx="50.55" class="cls-22"/><circle data-cppathid="10244" r=".41" cy="119.88" cx="51.84" class="cls-22"/><circle data-cppathid="10245" r=".21" cy="121.73" cx="52.87" class="cls-22"/><circle data-cppathid="10246" r=".41" cy="120.29" cx="54.32" class="cls-22"/><circle data-cppathid="10247" r=".21" cy="122.96" cx="54.93" class="cls-22"/><circle data-cppathid="10248" r=".21" cy="123.79" cx="47.11" class="cls-22"/></g><g><circle data-cppathid="10249" r=".4" cy="119.41" cx="68.64" class="cls-22"/><circle data-cppathid="10250" r=".4" cy="123.01" cx="69.84" class="cls-22"/><circle data-cppathid="10251" r=".6" cy="120.81" cx="64.44" class="cls-22"/><circle data-cppathid="10252" r=".4" cy="119.41" cx="65.84" class="cls-22"/><circle data-cppathid="10253" r=".4" cy="117.01" cx="67.44" class="cls-22"/><circle data-cppathid="10254" r=".4" cy="117.98" cx="69.39" class="cls-22"/><circle data-cppathid="10255" r=".4" cy="119.01" cx="70.64" class="cls-22"/><circle data-cppathid="10256" r=".2" cy="120.81" cx="71.64" class="cls-22"/><circle data-cppathid="10257" r=".4" cy="119.41" cx="73.04" class="cls-22"/><circle data-cppathid="10258" r=".2" cy="122.01" cx="73.64" class="cls-22"/><circle data-cppathid="10259" r=".2" cy="122.81" cx="66.04" class="cls-22"/></g><g><circle data-cppathid="10260" r=".41" cy="116.29" cx="61.79" class="cls-22"/><circle data-cppathid="10261" r=".41" cy="119.99" cx="63.02" class="cls-22"/><circle data-cppathid="10262" r=".62" cy="117.73" cx="57.46" class="cls-22"/><circle data-cppathid="10263" r=".41" cy="116.29" cx="58.9" class="cls-22"/><circle data-cppathid="10264" r=".41" cy="113.82" cx="60.55" class="cls-22"/><circle data-cppathid="10265" r=".41" cy="114.82" cx="62.55" class="cls-22"/><circle data-cppathid="10266" r=".41" cy="115.88" cx="63.84" class="cls-22"/><circle data-cppathid="10267" r=".21" cy="117.73" cx="64.87" class="cls-22"/><circle data-cppathid="10268" r=".41" cy="116.29" cx="66.32" class="cls-22"/><circle data-cppathid="10269" r=".21" cy="118.96" cx="66.93" class="cls-22"/><circle data-cppathid="10270" r=".21" cy="119.79" cx="59.11" class="cls-22"/></g><g><circle data-cppathid="10271" r=".4" cy="113.58" cx="46.64" class="cls-22"/><circle data-cppathid="10272" r=".4" cy="117.19" cx="45.47" class="cls-22"/><circle data-cppathid="10273" r=".6" cy="112.21" cx="42.43" class="cls-22"/><circle data-cppathid="10274" r=".4" cy="111.91" cx="44.39" class="cls-22"/><circle data-cppathid="10275" r=".4" cy="110.94" cx="47.1" class="cls-22"/><circle data-cppathid="10276" r=".4" cy="112.87" cx="48.09" class="cls-22"/><circle data-cppathid="10277" r=".4" cy="114.45" cx="48.49" class="cls-22"/><circle data-cppathid="10278" r=".2" cy="116.49" cx="48.22" class="cls-22"/><circle data-cppathid="10279" r=".4" cy="116.2" cx="50.18" class="cls-22"/><circle data-cppathid="10280" r=".2" cy="118.64" cx="49.12" class="cls-22"/><circle data-cppathid="10281" r=".2" cy="114.77" cx="42.53" class="cls-22"/></g><g><circle data-cppathid="10282" r=".41" cy="113.22" cx="39.62" class="cls-22"/><circle data-cppathid="10283" r=".41" cy="116.93" cx="38.41" class="cls-22"/><circle data-cppathid="10284" r=".62" cy="111.81" cx="35.29" class="cls-22"/><circle data-cppathid="10285" r=".41" cy="111.5" cx="37.31" class="cls-22"/><circle data-cppathid="10286" r=".41" cy="110.5" cx="40.1" class="cls-22"/><circle data-cppathid="10287" r=".41" cy="112.49" cx="41.11" class="cls-22"/><circle data-cppathid="10288" r=".41" cy="114.11" cx="41.52" class="cls-22"/><circle data-cppathid="10289" r=".21" cy="116.21" cx="41.25" class="cls-22"/><circle data-cppathid="10290" r=".41" cy="115.91" cx="43.26" class="cls-22"/><circle data-cppathid="10291" r=".21" cy="118.43" cx="42.17" class="cls-22"/><circle data-cppathid="10292" r=".21" cy="114.44" cx="35.39" class="cls-22"/></g><g><circle data-cppathid="10293" r=".4" cy="114.58" cx="25.64" class="cls-22"/><circle data-cppathid="10294" r=".4" cy="118.19" cx="24.47" class="cls-22"/><circle data-cppathid="10295" r=".6" cy="113.21" cx="21.43" class="cls-22"/><circle data-cppathid="10296" r=".4" cy="112.91" cx="23.39" class="cls-22"/><circle data-cppathid="10297" r=".4" cy="111.94" cx="26.1" class="cls-22"/><circle data-cppathid="10298" r=".4" cy="113.87" cx="27.09" class="cls-22"/><circle data-cppathid="10299" r=".4" cy="115.45" cx="27.49" class="cls-22"/><circle data-cppathid="10300" r=".2" cy="117.49" cx="27.22" class="cls-22"/><circle data-cppathid="10301" r=".4" cy="117.2" cx="29.18" class="cls-22"/><circle data-cppathid="10302" r=".2" cy="119.64" cx="28.12" class="cls-22"/><circle data-cppathid="10303" r=".2" cy="115.77" cx="21.53" class="cls-22"/></g><g><circle data-cppathid="10304" r=".41" cy="117.22" cx="18.62" class="cls-22"/><circle data-cppathid="10305" r=".41" cy="120.93" cx="17.41" class="cls-22"/><circle data-cppathid="10306" r=".62" cy="115.81" cx="14.29" class="cls-22"/><circle data-cppathid="10307" r=".41" cy="115.5" cx="16.31" class="cls-22"/><circle data-cppathid="10308" r=".41" cy="114.5" cx="19.1" class="cls-22"/><circle data-cppathid="10309" r=".41" cy="116.49" cx="20.11" class="cls-22"/><circle data-cppathid="10310" r=".41" cy="118.11" cx="20.52" class="cls-22"/><circle data-cppathid="10311" r=".21" cy="120.21" cx="20.25" class="cls-22"/><circle data-cppathid="10312" r=".41" cy="119.91" cx="22.26" class="cls-22"/><circle data-cppathid="10313" r=".21" cy="122.43" cx="21.17" class="cls-22"/><circle data-cppathid="10314" r=".21" cy="118.44" cx="14.39" class="cls-22"/></g><g><circle data-cppathid="10315" r=".52" cy="119.21" cx="35.08" class="cls-22"/><circle data-cppathid="10316" r=".52" cy="123.89" cx="36.64" class="cls-22"/><circle data-cppathid="10317" r=".78" cy="121.03" cx="29.62" class="cls-22"/><circle data-cppathid="10318" r=".52" cy="119.21" cx="31.44" class="cls-22"/><circle data-cppathid="10319" r=".52" cy="116.09" cx="33.52" class="cls-22"/><circle data-cppathid="10320" r=".52" cy="117.35" cx="36.05" class="cls-22"/><circle data-cppathid="10321" r=".52" cy="118.69" cx="37.68" class="cls-22"/><circle data-cppathid="10322" r=".26" cy="121.03" cx="38.98" class="cls-22"/><circle data-cppathid="10323" r=".52" cy="119.21" cx="40.8" class="cls-22"/><circle data-cppathid="10324" r=".26" cy="122.59" cx="41.58" class="cls-22"/><circle data-cppathid="10325" r=".26" cy="123.63" cx="31.7" class="cls-22"/></g><g><circle data-cppathid="10326" r=".52" cy="112.21" cx="72.08" class="cls-22"/><circle data-cppathid="10327" r=".52" cy="116.89" cx="73.64" class="cls-22"/><circle data-cppathid="10328" r=".78" cy="114.03" cx="66.62" class="cls-22"/><circle data-cppathid="10329" r=".52" cy="112.21" cx="68.44" class="cls-22"/><circle data-cppathid="10330" r=".52" cy="109.09" cx="70.52" class="cls-22"/><circle data-cppathid="10331" r=".52" cy="110.35" cx="73.05" class="cls-22"/><circle data-cppathid="10332" r=".52" cy="111.69" cx="74.68" class="cls-22"/><circle data-cppathid="10333" r=".26" cy="114.03" cx="75.98" class="cls-22"/><circle data-cppathid="10334" r=".52" cy="112.21" cx="77.8" class="cls-22"/><circle data-cppathid="10335" r=".26" cy="115.59" cx="78.58" class="cls-22"/><circle data-cppathid="10336" r=".26" cy="116.63" cx="68.7" class="cls-22"/></g><g><circle data-cppathid="10337" r=".52" cy="112.21" cx="76.08" class="cls-22"/><circle data-cppathid="10338" r=".52" cy="116.89" cx="77.64" class="cls-22"/><circle data-cppathid="10339" r=".78" cy="114.03" cx="70.62" class="cls-22"/><circle data-cppathid="10340" r=".52" cy="112.21" cx="72.44" class="cls-22"/><circle data-cppathid="10341" r=".52" cy="109.09" cx="74.52" class="cls-22"/><circle data-cppathid="10342" r=".52" cy="110.35" cx="77.05" class="cls-22"/><circle data-cppathid="10343" r=".52" cy="111.69" cx="78.68" class="cls-22"/><circle data-cppathid="10344" r=".26" cy="114.03" cx="79.98" class="cls-22"/><circle data-cppathid="10345" r=".52" cy="112.21" cx="81.8" class="cls-22"/><circle data-cppathid="10346" r=".26" cy="115.59" cx="82.58" class="cls-22"/><circle data-cppathid="10347" r=".26" cy="116.63" cx="72.7" class="cls-22"/></g></g><path data-cppathid="10348" d="M77.1,26.72c3.21,.18,6.68,.57,9.01,2.55,.94,.79,1.65,1.87,1.62,3.02-.03,1.15-.96,2.31-2.24,2.46-1.44,.17-2.65-.86-3.77-1.68-2.82-2.03-6.41-3.05-10-3.49s-7.24-.36-10.87-.43c-1.28-.02-3.09-.61-2.07-1.97,.69-.92,4.25-.6,5.21-.63,4.37-.13,8.75-.07,13.11,.18Z" class="cls-9"/></g></g></g></g></svg>