<?xml version="1.0" encoding="UTF-8"?>
<svg xmlns="http://www.w3.org/2000/svg" onmouseup="{ if(window.parent.document.onmouseup) window.parent.document.onmouseup(arguments[0]);}" viewBox="0 0 83.42 130.02" xmlns:xlink="http://www.w3.org/1999/xlink"><defs><style>
      .cls-1 {
        fill: #ffe;
        mix-blend-mode: soft-light;
        opacity: .8;
      }

      .cls-2 {
        fill: url(#linear-gradient-2);
      }

      .cls-3 {
        fill: url(#linear-gradient-10);
      }

      .cls-3, .cls-4, .cls-5, .cls-6, .cls-7, .cls-8, .cls-9 {
        mix-blend-mode: color-burn;
      }

      .cls-3, .cls-10, .cls-11, .cls-8 {
        opacity: .35;
      }

      .cls-4 {
        fill: url(#linear-gradient-11);
      }

      .cls-12 {
        fill: url(#linear-gradient-18);
      }

      .cls-13 {
        fill: url(#linear-gradient-6);
      }

      .cls-14 {
        isolation: isolate;
      }

      .cls-10 {
        fill: url(#linear-gradient-3);
      }

      .cls-10, .cls-11 {
        mix-blend-mode: overlay;
      }

      .cls-5 {
        fill: url(#linear-gradient-14);
      }

      .cls-6 {
        fill: url(#linear-gradient-15);
      }

      .cls-7 {
        fill: url(#linear-gradient-4);
      }

      .cls-15 {
        fill: url(#linear-gradient-16);
      }

      .cls-16 {
        fill: #ffefcc;
      }

      .cls-17 {
        opacity: .27;
      }

      .cls-17, .cls-18, .cls-19 {
        mix-blend-mode: lighten;
      }

      .cls-17, .cls-19 {
        fill: #fff;
      }

      .cls-20 {
        fill: #8e2509;
      }

      .cls-21 {
        fill: #b0beea;
      }

      .cls-22 {
        fill: url(#linear-gradient-5);
      }

      .cls-18, .cls-19 {
        opacity: .15;
      }

      .cls-23 {
        fill: url(#linear-gradient-7);
        mix-blend-mode: multiply;
      }

      .cls-24 {
        fill: url(#linear-gradient);
      }

      .cls-11 {
        fill: url(#linear-gradient-9);
      }

      .cls-8 {
        fill: url(#linear-gradient-17);
      }

      .cls-25 {
        fill: url(#linear-gradient-19);
      }

      .cls-26 {
        fill: url(#linear-gradient-8);
      }

      .cls-27 {
        fill: url(#linear-gradient-12);
      }

      .cls-28 {
        fill: url(#linear-gradient-13);
      }
    </style><linearGradient gradientUnits="userSpaceOnUse" y2="11.38" x2="41.71" y1="130.02" x1="41.71" id="linear-gradient"><stop stop-color="#b0beea" offset="0"/><stop stop-color="#94a1d3" offset=".99"/></linearGradient><linearGradient gradientUnits="userSpaceOnUse" y2="73.2" x2="81.94" y1="73.2" x1="1.49" id="linear-gradient-2"><stop stop-color="#59170c" offset="0"/><stop stop-color="#822d12" offset=".18"/><stop stop-color="#772710" offset=".47"/><stop stop-color="#5b180c" offset=".96"/><stop stop-color="#59170c" offset=".99"/></linearGradient><linearGradient gradientUnits="userSpaceOnUse" y2="73.2" x2="81.94" y1="73.2" x1="54.49" id="linear-gradient-3"><stop stop-color="#e6e6e6" offset="0"/><stop stop-color="#fff" offset="1"/></linearGradient><linearGradient gradientUnits="userSpaceOnUse" y2="18.69" x2="62.91" y1="18.69" x1="25.78" id="linear-gradient-4"><stop stop-color="#ccc" offset="0"/><stop stop-color="#999" offset="1"/></linearGradient><linearGradient xlink:href="#linear-gradient-4" y2="59.19" x2="96.48" y1="59.19" x1=".39" id="linear-gradient-5"/><linearGradient gradientUnits="userSpaceOnUse" y2="103.69" x2="41.8" y1="116.07" x1="41.8" id="linear-gradient-6"><stop stop-color="#333" offset="0"/><stop stop-color="#fff" offset="1"/></linearGradient><linearGradient xlink:href="#linear-gradient-4" y2="15.21" x2="42.05" y1="34.02" x1="42.05" id="linear-gradient-7"/><linearGradient xlink:href="#linear-gradient" y2="17.74" x2="58.51" y1="17.74" x1="25.05" id="linear-gradient-8"/><linearGradient xlink:href="#linear-gradient-3" y2="71.07" x2="30.91" y1="71.07" x1="10.19" id="linear-gradient-9"/><linearGradient xlink:href="#linear-gradient-4" gradientTransform="translate(-20.48) rotate(-180) scale(1 -1)" y2="71.07" x2="-68.42" y1="71.07" x1="-99.86" id="linear-gradient-10"/><linearGradient xlink:href="#linear-gradient-4" y2="14.26" x2="60.88" y1="14.26" x1="27.3" id="linear-gradient-11"/><linearGradient gradientUnits="userSpaceOnUse" y2="6.98" x2="64.73" y1="6.98" x1="24.41" id="linear-gradient-12"><stop stop-color="#4f7c0f" offset="0"/><stop stop-color="#538212" offset=".03"/><stop stop-color="#5d9019" offset=".11"/><stop stop-color="#63981d" offset=".21"/><stop stop-color="#659b1f" offset=".39"/><stop stop-color="#4f7c0f" offset=".99"/></linearGradient><linearGradient xlink:href="#linear-gradient-12" y2="6.98" x2="64.73" y1="6.98" x1="24.41" id="linear-gradient-13"/><linearGradient xlink:href="#linear-gradient-4" y2="13.38" x2="62.14" y1="13.38" x1="26.35" id="linear-gradient-14"/><linearGradient xlink:href="#linear-gradient-4" y2="6.98" x2="56.36" y1="6.98" x1="48.77" id="linear-gradient-15"/><linearGradient gradientUnits="userSpaceOnUse" y2="63.79" x2="41.71" y1="104.46" x1="41.71" id="linear-gradient-16"><stop stop-color="#edb77d" offset="0"/><stop stop-color="#ffd8b0" offset="1"/></linearGradient><linearGradient xlink:href="#linear-gradient-4" y2="64.47" x2="42.25" y1="105.14" x1="42.25" id="linear-gradient-17"/><linearGradient xlink:href="#linear-gradient-16" y2="63.79" x2="41.71" y1="104.46" x1="41.71" id="linear-gradient-18"/><linearGradient xlink:href="#linear-gradient-16" y2="69.62" x2="41.71" y1="98.88" x1="41.71" id="linear-gradient-19"/></defs><g class="cls-14"><g data-name="Layer 2" id="Layer_2"><g data-name="Layer 1" id="Layer_1-2"><g><path data-cppathid="10000" d="M76.11,64.88v37.04c0,1.27,.32,2.51,.91,3.6,.42,.76,.98,1.45,1.66,2.02,1.65,1.37,3.58,3.71,4.08,7.36,.09,.59,.13,1.2,.13,1.85,0,2.34-.82,4.43-1.99,6.22-2.94,4.49-8.09,7.05-13.47,7.05H15.99c-5.38,0-10.52-2.56-13.47-7.05-1.17-1.79-1.99-3.88-1.99-6.22,0-1.02,.11-1.94,.3-2.8,.67-3.11,2.41-5.17,3.91-6.42,.83-.69,1.47-1.56,1.91-2.52,.43-.96,.66-2.02,.66-3.1v-37.04c0-.61-.11-1.21-.32-1.77-.24-.65-.59-1.24-1.07-1.76l-3.43-3.68c-.99-1.06-1.71-2.32-2.1-3.68-.26-.86-.39-1.76-.39-2.67v-10.44c0-4.05,2.88-7.57,6.86-8.25,5.92-1.02,14.25-4.14,18.92-13.4,.18-.35,.35-.71,.51-1.08,.37-.81,.71-1.67,1.02-2.58,.29-.84,.55-1.72,.78-2.64,.13-.5,.25-1.02,.36-1.56h26.54c.11,.54,.23,1.06,.36,1.56,.23,.92,.49,1.8,.78,2.64,.31,.9,.64,1.76,1.02,2.58,.16,.37,.33,.73,.51,1.08,4.67,9.26,12.99,12.38,18.92,13.4,3.98,.68,6.86,4.2,6.86,8.25v10.44c0,1.1-.19,2.18-.56,3.19-.42,1.16-1.07,2.23-1.93,3.15l-3.43,3.68c-.59,.63-1.01,1.41-1.22,2.23-.11,.41-.17,.85-.17,1.29Z" class="cls-24"/><path data-cppathid="10001" d="M75.3,101.92c0,2.45,1.05,4.73,2.86,6.24,1.79,1.49,3.92,4.18,3.92,8.59,0,1.95-.63,3.89-1.86,5.77-2.74,4.19-7.52,6.69-12.78,6.69H15.99c-5.27,0-10.04-2.49-12.78-6.69-1.24-1.88-1.86-3.82-1.86-5.77,0-4.4,2.13-7.1,3.92-8.59,1.81-1.51,2.86-3.79,2.86-6.24v-37.04c0-1.52-.57-2.97-1.61-4.08l-3.43-3.68c-1.47-1.58-2.28-3.63-2.28-5.79v-10.44c0-3.7,2.6-6.83,6.18-7.44,6.79-1.16,18.58-5.48,22.1-21.25h25.22c3.52,15.77,15.32,20.09,22.1,21.25,3.58,.61,6.18,3.75,6.18,7.44v10.44c0,2.16-.8,4.22-2.28,5.79l-3.43,3.68c-1.04,1.11-1.61,2.56-1.61,4.08v37.04Z" class="cls-21"/><path data-cppathid="10002" d="M74.74,64.57v36.83c0,2.45,1.02,4.71,2.81,6.21,1.76,1.48,3.84,4.15,3.84,8.54,0,1.93-.61,3.87-1.82,5.74-2.7,4.16-7.39,6.65-12.57,6.65H16.41c-.49,0-.98-.02-1.45-.07-4.59-.41-8.67-2.8-11.12-6.57-1.21-1.87-1.82-3.8-1.82-5.74,0-4.39,2.09-7.06,3.84-8.54,1.79-1.5,2.81-3.76,2.81-6.21v-36.83c0-1.5-.56-2.94-1.58-4.05l-3.37-3.66c-1.45-1.57-2.24-3.62-2.24-5.76v-10.38c0-3.18,1.9-5.92,4.69-7.02,.45-.17,.91-.31,1.4-.39,5.78-1,15.25-4.36,19.93-15.43h28.41c4.68,11.08,14.16,14.43,19.93,15.43,.74,.13,1.44,.37,2.08,.72,2.41,1.24,4.01,3.79,4.01,6.7v10.38c0,2.15-.8,4.19-2.24,5.76l-3.37,3.66c-1.02,1.11-1.58,2.54-1.58,4.05Z" class="cls-2"/><path data-cppathid="10003" d="M76.32,60.52l3.37-3.66c1.45-1.57,2.24-3.62,2.24-5.76v-10.38c0-2.91-1.59-5.46-4.01-6.7-.64-.34-1.34-.59-2.08-.72-5.78-1-15.25-4.36-19.93-15.43h-1.42c4.68,11.08,14.16,14.43,19.93,15.43,.74,.13,1.44,.37,2.08,.72,2.41,1.24,4.01,3.79,4.01,6.7v10.38c0,2.15-.8,4.19-2.24,5.76l-3.37,3.66c-1.02,1.11-1.58,2.54-1.58,4.05v36.83c0,2.45,1.02,4.71,2.81,6.21,1.76,1.48,3.84,4.15,3.84,8.54,0,1.93-.61,3.87-1.82,5.74-2.7,4.16-7.39,6.65-12.57,6.65h1.42c5.18,0,9.87-2.49,12.57-6.65,1.21-1.87,1.82-3.8,1.82-5.74,0-4.39-2.09-7.06-3.84-8.54-1.79-1.5-2.81-3.76-2.81-6.21v-36.83c0-1.5,.56-2.94,1.58-4.05Z" class="cls-10"/><path data-cppathid="10004" d="M57.65,19.23H25.78c.18-.35,.35-.71,.51-1.08h30.85c.16,.37,.33,.73,.51,1.08Z" class="cls-7"/><g class="cls-9"><path data-cppathid="10005" d="M82.86,54.52c-.42,1.16-1.07,2.23-1.93,3.15l-3.43,3.68c-.59,.63-1.01,1.41-1.22,2.23-23.08,1.21-46.21,1.05-69.28-.48-.24-.65-.59-1.24-1.07-1.76l-3.43-3.68c-.99-1.06-1.71-2.32-2.1-3.68,27.46,2.12,55.01,2.29,82.47,.53Z" class="cls-22"/></g><g class="cls-18"><path data-cppathid="10006" d="M82.76,114.9c-27.26,1.83-54.66,1.52-81.92-.94,.67-3.06,2.4-4.98,3.9-6.13,.83-.63,1.47-1.46,1.91-2.39,23.43,1.75,46.95,1.92,70.38,.5,.42,.74,.97,1.38,1.66,1.9,1.65,1.26,3.58,3.45,4.07,7.06Z" class="cls-13"/></g><path data-cppathid="10007" d="M77.93,34.02l-71.75-.33c.45-.17,.91-.31,1.4-.39,5.78-1,15.25-4.36,19.93-15.43h28.41c4.68,11.08,14.16,14.43,19.93,15.43,.74,.13,1.44,.37,2.08,.72Z" class="cls-23"/><path data-cppathid="10008" d="M57.69,18.56H25.87c-.45,0-.81-.36-.81-.81s.36-.81,.81-.81h31.83c.45,0,.81,.36,.81,.81s-.36,.81-.81,.81Z" class="cls-26"/><rect data-cppathid="10009" ry=".49" rx=".49" height="1.59" width="9.87" y="16.95" x="29.23" class="cls-1"/><path data-cppathid="10010" d="M30.91,13.95c-.02,1.37-.13,2.68-.29,3.92-.59,4.53-1.96,8.22-3.27,10.88-1.31,2.65-3.27,4.92-5.74,6.54-.82,.54-1.61,1.12-1.98,1.54-.77,.89-.28,12.43-.07,16.63,.05,.99,.33,1.95,.84,2.81l3.23,5.48c.93,1.59,1.42,3.4,1.41,5.26l-.18,37.48c0,1.45-.35,2.89-1.1,4.14-4.79,8.03-1.58,15.56,1.28,19.89h-8.63c-.49,0-.98-.02-1.45-.07-3.92-4.88-5.4-10.95-4.53-13.88,1.08-3.66,4.33-7.24,4.67-8.46,.34-1.22,1.22-39.01,1.22-41.92,0-2.02-2.28-5.83-3.59-7.82-.67-1-1.02-2.17-1.02-3.37,0-4.21,.07-14.03,.76-15.63,.66-1.52,3.41-2.85,4.75-3.43,.77-.33,1.52-.72,2.22-1.16,7.47-4.78,9.2-12.33,10.03-14.37,.07-.18,.13-.37,.19-.54,.56-2.05-.12-4.27-.12-4.27l1.39,.34Z" class="cls-11"/><path data-cppathid="10011" d="M47.94,13.95c.04,1.37,.21,2.68,.48,3.92,.96,4.53,3.21,8.22,5.35,10.88,2.14,2.65,5.36,4.92,9.39,6.54,1.34,.54,2.63,1.12,3.25,1.54,1.26,.89,.47,12.43,.12,16.63-.08,.99-.55,1.95-1.37,2.81l-5.28,5.48c-1.53,1.59-2.33,3.4-2.31,5.26l.29,37.48c0,1.45,.57,2.89,1.8,4.14,7.84,8.03,2.59,15.56-2.1,19.89l11.73-.2c.8,0-.31,.12,.47,.07,6.41-4.88,9.55-7.58,8.53-15.24-.53-4.03-3.89-5.82-4.45-7.04s-2-39.01-2-41.92c0-2.02,3.72-5.83,5.88-7.82,1.09-1,1.66-2.17,1.68-3.37,0-4.21-.08-14.05-1.24-15.63-2.38-3.25-5.59-2.85-7.78-3.43-1.26-.33-2.49-.72-3.63-1.16-12.23-4.78-15.06-12.33-16.42-14.37-.12-.18-.21-.37-.31-.54-.92-2.05,.2-4.27,.2-4.27l-2.27,.34Z" class="cls-3"/><path data-cppathid="10012" d="M56.12,15.58H27.3c.29-.84,.55-1.72,.78-2.64h27.26c.23,.92,.49,1.8,.78,2.64Z" class="cls-4"/><g><path data-cppathid="10013" d="M24.42,1.23l1.97,11.85c.08,.51,.52,.88,1.04,.88h28.56c.51,0,.95-.37,1.04-.88l1.97-11.85c.11-.64-.39-1.23-1.04-1.23H25.46c-.65,0-1.14,.58-1.04,1.23Z" class="cls-27"/><path data-cppathid="10014" d="M59,1.23l-1.97,11.85c-.09,.5-.53,.88-1.04,.88H27.43c-.51,0-.95-.37-1.04-.88l-1.97-11.85c-.11-.64,.39-1.23,1.04-1.23H57.96c.65,0,1.15,.59,1.04,1.23Z" class="cls-28"/><g><path data-cppathid="10015" d="M26.35,12.8l.05,.27c.08,.51,.52,.88,1.04,.88h28.56c.51,0,.95-.37,1.04-.88l.05-.27H26.35Z" class="cls-5"/><polygon data-cppathid="10016" points="43.46 0 42.87 13.95 28.62 13.95 26.92 0 43.46 0" class="cls-1"/><polygon data-cppathid="10017" points="38.21 0 37.81 13.95 30.91 13.95 29.56 0 38.21 0" class="cls-1"/><polygon data-cppathid="10018" points="56.36 0 54.17 13.95 49.21 13.95 48.77 0 56.36 0" class="cls-6"/></g></g><path data-cppathid="10019" d="M14.28,33.21c-1.71,.4-3.48,.54-5.17,1.05-1.68,.5-3.34,1.45-4.16,3-.59,1.1-.7,2.38-.79,3.62-.06,.79-.12,1.61,.1,2.37,.23,.76,.81,1.48,1.59,1.62,.89,.16,1.76-.44,2.26-1.19,.51-.75,.76-1.63,1.17-2.44,1.16-2.31,3.56-3.84,6.09-4.38s5.17-.19,7.65,.53c.83,.24,1.84,.48,2.47-.1,.56-.52,.5-1.44,.18-2.13-.32-.69-.85-1.27-1.16-1.97-.83-1.88,.12-4.05,1.15-5.83,.33-.57,2.91-5.19,.92-4.51-.86,.29-2.23,3.66-2.92,4.49-2.4,2.87-5.72,5-9.38,5.86Z" class="cls-17"/><path data-cppathid="10020" d="M6.19,120.03c.38,.84,.89,1.65,1.66,2.14,.77,.49,1.87,.57,2.58,0,.93-.76,.84-2.2,1.38-3.27,.83-1.65,2.92-2.12,4.75-2.37,4.85-.66,9.74-1.02,14.63-1.1,1.02-.02,2.22-.11,2.78-.96,.52-.8,.19-1.93-.51-2.59-.69-.66-1.65-.95-2.57-1.21-5.19-1.46-10.51-2.44-15.88-2.93-1.77-.16-4.66-.89-6.37-.18-1.67,.7-2.6,3.31-3.02,4.91-.66,2.49-.51,5.21,.56,7.56Z" class="cls-17"/><path data-cppathid="10021" d="M70.46,103.57c-19.15,1.19-38.34,1.19-57.49,0V63.79c19.15,1.19,38.34,1.19,57.49,0v39.77Z" class="cls-15"/><path data-cppathid="10022" d="M71,104.25c-19.15,1.19-38.34,1.19-57.49,0v-39.77c19.15,1.19,38.34,1.19,57.49,0v39.77Z" class="cls-8"/><path data-cppathid="10023" d="M70.46,63.79v39.78c-3.55,.22-7.1,.4-10.65,.54-5.14,.2-10.29,.32-15.43,.35-7.81,.04-15.6-.11-23.41-.46-2.67-.11-5.34-.26-8.01-.42V63.79c3.75,.24,7.49,.42,11.24,.56,7.05,.27,14.09,.37,21.14,.32,5.18-.04,10.36-.17,15.54-.38,3.19-.13,6.4-.3,9.59-.5Z" class="cls-12"/><path data-cppathid="10024" d="M82.07,116.75c0,1.95-.63,3.89-1.86,5.77-2.74,4.19-7.52,6.69-12.78,6.69h-28.92c18.8-10.29,30.59-33,36.79-48.59v21.31c0,2.45,1.05,4.73,2.86,6.24,1.79,1.49,3.92,4.18,3.92,8.59Z" class="cls-19"/><path data-cppathid="10025" d="M41.71,100.4c-8.19,0-16.48-.22-24.68-.66v-31.64c8.21,.43,16.49,.65,24.68,.65s16.47-.22,24.68-.65v31.64c-8.21,.44-16.49,.66-24.68,.66Z" class="cls-20"/><path data-cppathid="10026" d="M64.87,69.62v28.66c-2.32,.12-4.64,.22-6.96,.3-5.4,.2-10.82,.3-16.2,.3-7.69,0-15.46-.2-23.16-.6v-28.66c7.7,.39,15.47,.59,23.16,.59s15.46-.2,23.16-.59Z" class="cls-25"/><path data-cppathid="10027" d="M64.87,71.75v23.69c-2.16,1.11-4.49,2.16-6.96,3.14-5.4,.2-10.82,.3-16.2,.3-7.69,0-15.46-.2-23.16-.6v-10.87c5.43-4.56,14.04-9,24.22-12.07,8.04-2.42,15.75-3.6,22.1-3.58Z" class="cls-16"/></g></g></g></g></svg>