<?xml version="1.0" encoding="UTF-8"?>
<svg xmlns="http://www.w3.org/2000/svg" onmouseup="{ if(window.parent.document.onmouseup) window.parent.document.onmouseup(arguments[0]);}" viewBox="0 0 71.08 137.63" xmlns:xlink="http://www.w3.org/1999/xlink"><defs><style>
      .cls-1 {
        fill: url(#linear-gradient-16);
      }

      .cls-1, .cls-2, .cls-3, .cls-4, .cls-5, .cls-6 {
        mix-blend-mode: color-burn;
      }

      .cls-7 {
        opacity: .8;
      }

      .cls-7, .cls-8 {
        fill: #ffe;
        mix-blend-mode: soft-light;
      }

      .cls-2 {
        fill: url(#linear-gradient-9);
      }

      .cls-9, .cls-10, .cls-11, .cls-12, .cls-13, .cls-14 {
        fill: #fff;
      }

      .cls-15 {
        fill: url(#linear-gradient-17);
      }

      .cls-16 {
        fill: url(#linear-gradient-15);
      }

      .cls-17 {
        fill: url(#linear-gradient-18);
      }

      .cls-10 {
        opacity: .25;
      }

      .cls-10, .cls-18, .cls-12, .cls-13, .cls-14 {
        mix-blend-mode: lighten;
      }

      .cls-19 {
        fill: url(#linear-gradient-28);
      }

      .cls-20 {
        fill: url(#linear-gradient-14);
      }

      .cls-3 {
        fill: url(#linear-gradient-6);
      }

      .cls-3, .cls-21, .cls-11, .cls-22, .cls-13, .cls-23, .cls-24 {
        opacity: .5;
      }

      .cls-25 {
        fill: url(#linear-gradient-20);
      }

      .cls-26 {
        isolation: isolate;
      }

      .cls-27 {
        fill: url(#linear-gradient-11);
      }

      .cls-28 {
        fill: url(#linear-gradient-10);
      }

      .cls-29 {
        fill: #3f600b;
      }

      .cls-30 {
        fill: #7cb729;
      }

      .cls-31 {
        fill: #6b7caf;
      }

      .cls-32 {
        fill: url(#linear-gradient-21);
      }

      .cls-21 {
        fill: url(#linear-gradient-23);
      }

      .cls-21, .cls-11, .cls-22, .cls-23, .cls-24 {
        mix-blend-mode: overlay;
      }

      .cls-33 {
        fill: url(#linear-gradient-25);
      }

      .cls-34 {
        fill: #6f80b5;
      }

      .cls-35 {
        fill: url(#linear-gradient-5);
      }

      .cls-36 {
        clip-path: url(#clippath);
      }

      .cls-4 {
        fill: url(#linear-gradient-7);
      }

      .cls-37 {
        fill: none;
      }

      .cls-18 {
        fill: url(#linear-gradient-4);
      }

      .cls-22 {
        fill: url(#linear-gradient-27);
      }

      .cls-12 {
        opacity: .15;
      }

      .cls-38 {
        fill: url(#linear-gradient-24);
      }

      .cls-39 {
        fill: url(#linear-gradient-22);
      }

      .cls-40 {
        fill: url(#linear-gradient-3);
      }

      .cls-41 {
        fill: url(#linear-gradient);
      }

      .cls-42 {
        fill: url(#linear-gradient-29);
      }

      .cls-5 {
        fill: url(#linear-gradient-2);
      }

      .cls-43 {
        fill: url(#linear-gradient-19);
      }

      .cls-14 {
        opacity: .65;
      }

      .cls-44 {
        fill: red;
      }

      .cls-24 {
        fill: url(#linear-gradient-8);
      }

      .cls-45 {
        fill: url(#linear-gradient-12);
      }

      .cls-46 {
        fill: url(#linear-gradient-13);
      }

      .cls-47 {
        fill: url(#linear-gradient-26);
      }
    </style><linearGradient gradientUnits="userSpaceOnUse" y2="74.96" x2="71.08" y1="74.96" x1="0" id="linear-gradient"><stop stop-color="#b0beea" offset="0"/><stop stop-color="#94a1d3" offset=".99"/></linearGradient><linearGradient gradientUnits="userSpaceOnUse" y2="10.51" x2="50.77" y1="10.51" x1="20.3" id="linear-gradient-2"><stop stop-color="#ccc" offset="0"/><stop stop-color="#999" offset="1"/></linearGradient><linearGradient gradientUnits="userSpaceOnUse" y2="35.42" x2="60.61" y1="25.89" x1="41.16" id="linear-gradient-3"><stop stop-color="#e6e6e6" offset="0"/><stop stop-color="#fff" offset="1"/></linearGradient><linearGradient xlink:href="#linear-gradient-3" y2="101.55" x2="57.18" y1="88.85" x1="31.23" id="linear-gradient-4"/><linearGradient gradientUnits="userSpaceOnUse" y2="5.38" x2="54.56" y1="5.38" x1="16.51" id="linear-gradient-5"><stop stop-color="#659b1f" offset=".01"/><stop stop-color="#4f7c0f" offset=".99"/></linearGradient><linearGradient gradientUnits="userSpaceOnUse" y2=".07" x2="47.64" y1="10.76" x1="47.64" id="linear-gradient-6"><stop stop-color="#ccc" offset="0"/><stop stop-color="#ccc" offset=".85"/><stop stop-color="#ccc" offset=".99"/></linearGradient><linearGradient xlink:href="#linear-gradient-2" y2="12.3" x2="52.9" y1="134.79" x1="52.9" id="linear-gradient-7"/><linearGradient xlink:href="#linear-gradient-3" y2="12.3" x2="18.13" y1="134.79" x1="18.13" id="linear-gradient-8"/><linearGradient xlink:href="#linear-gradient-2" y2="65.84" x2="51.69" y1="122.24" x1="19.12" id="linear-gradient-9"/><linearGradient gradientUnits="userSpaceOnUse" y2="65.03" x2="50.76" y1="121.43" x1="18.2" id="linear-gradient-10"><stop stop-color="#4f7c0f" offset="0"/><stop stop-color="#659b1f" offset=".99"/></linearGradient><linearGradient gradientUnits="userSpaceOnUse" y2="64.09" x2="36" y1="121.89" x1="36" id="linear-gradient-11"><stop stop-color="#edb77d" offset="0"/><stop stop-color="#ffd8b0" offset="1"/></linearGradient><linearGradient gradientUnits="userSpaceOnUse" y2="28.66" x2="49.14" y1="38.04" x1="49.14" id="linear-gradient-12"><stop stop-color="#f9c38a" offset="0"/><stop stop-color="#ffdebb" offset="1"/></linearGradient><linearGradient xlink:href="#linear-gradient-12" y2="28.65" x2="22.22" y1="38.07" x1="22.22" id="linear-gradient-13"/><linearGradient xlink:href="#linear-gradient-5" y2="30.34" x2="53.85" y1="30.34" x1="17.26" id="linear-gradient-14"/><linearGradient xlink:href="#linear-gradient-5" y2="35.63" x2="54.92" y1="35.63" x1="16.21" id="linear-gradient-15"/><linearGradient xlink:href="#linear-gradient-2" y2="28.08" x2="40.87" y1="45.48" x1="40.87" id="linear-gradient-16"/><linearGradient xlink:href="#linear-gradient-5" y2="21.23" x2="35.54" y1="45.48" x1="35.54" id="linear-gradient-17"/><linearGradient xlink:href="#linear-gradient-12" y2="22.79" x2="35.54" y1="43.92" x1="35.54" id="linear-gradient-18"/><linearGradient gradientUnits="userSpaceOnUse" y2="34.27" x2="41.89" y1="34.27" x1="29.2" id="linear-gradient-19"><stop stop-color="#e93400" offset=".01"/><stop stop-color="#c92005" offset="1"/></linearGradient><linearGradient xlink:href="#linear-gradient-5" y2="29.79" x2="40.31" y1="29.79" x1="30.93" id="linear-gradient-20"/><linearGradient xlink:href="#linear-gradient-2" y2="27.98" x2="34.41" y1="27.98" x1="34.15" id="linear-gradient-21"/><linearGradient xlink:href="#linear-gradient-2" y2="30.96" x2="40.31" y1="30.96" x1="33.8" id="linear-gradient-22"/><linearGradient xlink:href="#linear-gradient-3" y2="33.06" x2="36.96" y1="33.06" x1="29.87" id="linear-gradient-23"/><clipPath id="clippath"><path data-cppathid="10000" d="M53.26,86.08c-.69,4.28-1.37,8.56-2.06,12.84-1.23,7.66-2.45,15.31-3.69,22.97H23.98c-.57-3.66-1.14-7.32-1.71-10.98-.37-2.41-.75-4.82-1.12-7.23-.94-6.13-1.88-12.26-2.85-18.38-.51-3.23-1.85-7.03-1.45-10.3,.37-3.01,2.27-5.49,4.79-7.1,2.19-1.4,4.68-2.31,7.18-2.93,1.22-.3,2.45-.53,3.7-.68,.77-.09,2.42,.12,3.05-.2h.35c5.7,.05,11.97,1.31,16.05,5.6,1.56,1.65,2.33,3.38,2.61,5.19,.57,3.56-.71,7.37-1.32,11.2Z" class="cls-37"/></clipPath><linearGradient xlink:href="#linear-gradient-19" gradientTransform="translate(-56.94 -3.05) rotate(-13.23)" y2="135.99" x2="90" y1="135.99" x1="53.33" id="linear-gradient-24"/><linearGradient xlink:href="#linear-gradient-5" gradientTransform="translate(-56.94 -3.05) rotate(-13.23)" y2="123.03" x2="85.45" y1="123.03" x1="58.32" id="linear-gradient-25"/><linearGradient xlink:href="#linear-gradient-2" gradientTransform="translate(-56.94 -3.05) rotate(-13.23)" y2="126.42" x2="85.45" y1="126.42" x1="66.62" id="linear-gradient-26"/><linearGradient xlink:href="#linear-gradient-3" gradientTransform="translate(-56.94 -3.05) rotate(-13.23)" y2="132.48" x2="75.77" y1="132.48" x1="55.28" id="linear-gradient-27"/><linearGradient xlink:href="#linear-gradient-10" y2="68.36" x2="35.54" y1="85.9" x1="35.54" id="linear-gradient-28"/><linearGradient gradientUnits="userSpaceOnUse" y2="77.13" x2="49.85" y1="77.13" x1="21.23" id="linear-gradient-29"><stop stop-color="#ffd8b0" offset="0"/><stop stop-color="#fbd1a5" offset=".53"/></linearGradient></defs><g class="cls-26"><g data-name="Layer 2" id="Layer_2"><g data-name="Layer 1" id="Layer_1-2"><g><g><path data-cppathid="10001" d="M70.95,64.21c-.11,.88-.56,3.3-1.25,6.76-2.97,15.08-10.33,49.75-12.74,61.09-.41,1.92-1.78,3.63-3.59,4.28-.29,.1-.59,.18-.9,.23-1.54,.23-3.5,.46-5.76,.64-3.22,.25-7.06,.42-11.16,.42-1.18,0-2.33-.02-3.46-.06-2.69-.08-5.2-.26-7.42-.48-1.7-.16-3.23-.35-4.55-.52-.76-.1-1.47-.31-2.14-.63-2.08-.96-3.65-2.87-4.14-5.2C10.54,115.26,.71,68.81,.13,64.21c-.69-5.54,1.38-8.77,6.46-11.54,2.96-1.62,6.79-6.92,9.27-15.82,.69-2.46,1.27-5.19,1.71-8.2,.61-4.18,.93-8.88,.84-14.11-.02-1.23,.97-2.24,2.2-2.24h29.85c1.23,0,2.21,1.02,2.19,2.24-.09,5.23,.24,9.94,.84,14.12,.44,3,1.02,5.74,1.71,8.2,2.49,8.9,6.31,14.2,9.27,15.82,5.08,2.77,7.15,6,6.46,11.54Z" class="cls-41"/><path data-cppathid="10002" d="M24.67,137.09c-.71-.07-1.38-.14-2.03-.21-.91-.1-1.76-.21-2.53-.31-.31-.04-.62-.1-.92-.18-.42-.11-.83-.26-1.22-.44l-.85-8.17,2.05-.23,2.31-.26,2.93-.32,.26,10.13Z" class="cls-7"/><path data-cppathid="10003" d="M22.65,136.88c-.91-.1-1.76-.21-2.53-.31-.31-.04-.62-.1-.92-.18l-.61-8.5,.59-.34,2.18-1.27,.12,1.02,1.17,9.59Z" class="cls-9"/><polygon data-cppathid="10004" points="35.65 9.76 35.42 9.76 20.3 9.76 20.3 12.45 35.42 12.45 35.65 12.45 50.77 12.45 50.77 9.76 35.65 9.76" class="cls-34"/><polygon data-cppathid="10005" points="35.65 9.76 35.42 9.76 20.3 9.76 20.3 11.26 35.42 11.26 35.65 11.26 50.77 11.26 50.77 9.76 35.65 9.76" class="cls-5"/><path data-cppathid="10006" d="M56.07,130.32c0,4.71-9.19,6.03-20.53,6.03s-20.53-1.32-20.53-6.03,9.19-11.04,20.53-11.04,20.53,6.33,20.53,11.04Z" class="cls-31"/><path data-cppathid="10007" d="M54.27,127.69l-.9,8.65c-.29,.1-.59,.18-.9,.23-1.54,.23-3.5,.46-5.76,.64l.27-10.32,7.29,.81Z" class="cls-7"/><path data-cppathid="10008" d="M69.99,64.5c-.58,4.56-10.72,51.74-13.6,65.12-.42,1.92-1.85,3.63-3.74,4.19-.2,.06-.42,.11-.63,.14-2.32,.35-5.61,.66-9.45,.85-2.19,.11-4.55,.17-7.01,.17-5.96,0-11.33-.53-15.01-1.02-3.04-.4-5.34-1.44-6.12-5.59-2.82-14.93-12.77-59.43-13.33-63.85-.67-5.31,1.34-8.41,6.28-11.07,4.85-2.61,12.07-15.24,11.49-37.48-.02-.7,.54-1.27,1.25-1.27h30.86c.71,0,1.26,.57,1.25,1.27-.58,22.24,6.64,34.87,11.49,37.48,4.94,2.66,6.96,5.76,6.28,11.07Z" class="cls-44"/><g class="cls-23"><g><path data-cppathid="10009" d="M51.44,15.34c-.55,21.11,5.93,33.55,10.73,37-4.7-4.16-10.49-16.38-9.96-36.38,.02-.58-.37-1.07-.92-1.22,.1,.18,.15,.39,.15,.6Z" class="cls-40"/><path data-cppathid="10010" d="M66.13,54.95c2.59,2.24,3.59,4.97,3.09,8.93-.58,4.56-10.72,51.74-13.6,65.12-.42,1.92-1.85,3.63-3.74,4.19-.2,.06-.42,.11-.63,.14-2.32,.35-5.61,.66-9.45,.85-2.19,.11-4.55,.17-7.01,.17-5.96,0-11.33-.53-15.01-1.02-1.34-.18-2.54-.48-3.53-1.12,1.1,1.08,2.58,1.52,4.3,1.74,3.68,.49,9.05,1.02,15.01,1.02,2.46,0,4.83-.06,7.01-.17,3.84-.18,7.13-.5,9.45-.85,.22-.03,.43-.08,.63-.14,1.89-.55,3.32-2.26,3.74-4.19,2.88-13.38,13.03-60.56,13.6-65.12,.55-4.33-.69-7.2-3.85-9.55Z" class="cls-18"/></g></g><path data-cppathid="10011" d="M54.54,2.56l-.88,6.35c-.14,1.06-1.05,1.85-2.12,1.85H19.53c-1.07,0-1.97-.79-2.12-1.85l-.88-6.35c-.18-1.28,.81-2.42,2.1-2.43h1.02s15.75-.13,15.75-.13h1.37s7.7,.07,7.7,.07l6.9,.05h1.05c1.29,.02,2.28,1.16,2.1,2.44Z" class="cls-35"/><polygon data-cppathid="10012" points="36.78 0 35.52 10.76 21.3 10.76 19.66 .12 21.98 .1 26.64 .06 35.42 0 35.66 0 36.78 0" class="cls-7"/><path data-cppathid="10013" d="M51.39,.12c-.51,2.99-1.25,7.4-1.79,10.64h-5.7L44.48,.07l6.9,.05Z" class="cls-3"/><path data-cppathid="10014" d="M26.82,10.76h-3.33c-.46-3.25-1.09-7.62-1.51-10.66l4.66-.04,.18,10.7Z" class="cls-8"/><path data-cppathid="10015" d="M65.09,70.51c-.19,1.68-.66,3.38-.99,5.04-.32,1.59-.46,3.36-.97,4.9-1.24,6.23-2.47,12.47-3.71,18.71-1.29,6.52-2.58,13.03-3.87,19.55-1,5.04-2,10.07-2.99,15.1-.2,.06-.42,.11-.63,.14-2.32,.35-5.61,.66-9.45,.85,2.63-16.01,10.94-69.93,4.63-77.82-8.57-10.71-8.15-36.55-7.72-44.68h11c-.03,3.28-.06,8.79,.08,11.57,.34,6.56,.99,13.31,3.05,19.58,.84,2.54,1.94,5.16,3.79,7.14,1.8,1.93,4.23,3.17,6.28,4.79,1.85,1.44,2.82,3.84,2.98,6.13,.22,3.16-1.14,5.96-1.49,9Z" class="cls-4"/><path data-cppathid="10016" d="M28.57,134.79c-3.84-.18-7.13-.5-9.45-.85-.22-.03-.43-.08-.63-.14-.99-5.03-1.99-10.06-2.99-15.1-1.29-6.52-2.58-13.03-3.87-19.55-1.23-6.24-2.47-12.47-3.71-18.71-.51-1.54-.65-3.31-.97-4.9-.33-1.66-.8-3.36-.99-5.04-.34-3.04-1.7-5.84-1.49-9,.16-2.29,1.13-4.69,2.98-6.13,2.06-1.61,4.48-2.85,6.28-4.79,1.85-1.98,2.96-4.6,3.79-7.14,2.06-6.27,2.71-13.02,3.05-19.58,.14-2.82,.08-8.33,.04-11.57h11c.43,8.07,.91,33.95-7.68,44.68-6.31,7.89,2,61.8,4.63,77.82Z" class="cls-24"/><path data-cppathid="10017" d="M49.81,124.77l8.18-49.39c.18-.89,.1-1.8-.24-2.64-1.3-3.21-5.92-10.46-21.16-10.49-.03,0-.05,0-.08,0-15.37,.04-19.63,7.37-20.76,10.55-.28,.79-.35,1.65-.18,2.47l7.95,49.5h26.3Z" class="cls-2"/><path data-cppathid="10018" d="M48.89,123.96l8.18-49.39c.18-.89,.1-1.8-.24-2.64-1.3-3.21-5.92-10.46-21.16-10.49-.03,0-.05,0-.08,0-15.37,.04-19.63,7.37-20.76,10.55-.28,.79-.35,1.65-.18,2.47l7.95,49.5h26.3Z" class="cls-28"/><path data-cppathid="10019" d="M53.26,86.08c-.69,4.28-1.37,8.56-2.06,12.84-1.23,7.66-2.45,15.31-3.69,22.97H23.98c-.57-3.66-1.14-7.32-1.71-10.98-.37-2.41-.75-4.82-1.12-7.23-.94-6.13-1.88-12.26-2.85-18.38-.51-3.23-1.33-7.43-.93-10.71,.37-3.01,1.75-5.09,4.27-6.69,2.19-1.4,4.68-2.31,7.18-2.93,1.22-.3,2.45-.53,3.7-.68,.77-.09,2.42,.12,3.05-.2h.35c5.7,.05,11.97,1.31,16.05,5.6,1.56,1.65,2.33,3.38,2.61,5.19,.57,3.56-.71,7.37-1.32,11.2Z" class="cls-27"/><path data-cppathid="10020" d="M15.1,75.24c-.17-.83-.1-1.68,.18-2.47,1.13-3.18,5.4-10.51,20.72-10.55,.07,0,.09,0,.12,0,12.41,.03,17.78,4.84,20.05,8.36-1.96-3.54-7.17-9.09-20.51-9.13-.03,0-.05,0-.08,0-15.37,.04-19.63,7.37-20.76,10.55-.28,.79-.35,1.65-.18,2.47l7.95,49.5h.34l-7.82-48.73Z" class="cls-11"/><g><path data-cppathid="10021" d="M55.22,36.85c-4.04,.55-8.1,.94-12.16,1.19,.03-.49,.06-.98,.09-1.48,.02-.42,.05-.83,.07-1.24,.08-1.44,.16-2.87,.24-4.3,.02-.42,.05-.83,.07-1.25,.02-.31,.04-.62,.05-.92,3.31-.07,6.61-.13,9.92-.19,.05,.33,.1,.66,.15,.98,.06,.41,.13,.82,.2,1.22,.23,1.32,.49,2.56,.77,3.73,.1,.41,.2,.8,.3,1.19,.1,.37,.2,.73,.3,1.08Z" class="cls-45"/><path data-cppathid="10022" d="M28.57,38.07c-4.25-.24-8.49-.65-12.71-1.22,.12-.42,.24-.85,.35-1.29,.07-.28,.14-.56,.21-.84,.31-1.27,.59-2.62,.83-4.07,.05-.29,.1-.59,.15-.89,.06-.37,.11-.74,.17-1.12,3.49,.06,6.98,.13,10.47,.2,.02,.33,.04,.66,.06,.99,.02,.36,.04,.73,.06,1.09,.09,1.49,.17,2.97,.26,4.46,.02,.37,.04,.73,.06,1.1,.03,.52,.06,1.05,.09,1.57Z" class="cls-46"/><path data-cppathid="10023" d="M53.85,30.86c-3.46,.09-6.93,.14-10.39,.16-5.1,.03-10.2,0-15.29-.09-3.64-.06-7.27-.16-10.91-.28,.05-.29,.1-.59,.15-.89,3.57,.04,7.13,.07,10.7,.07,5.14,.01,10.28-.01,15.42-.07,3.37-.03,6.75-.08,10.12-.14,.06,.41,.13,.82,.2,1.22Z" class="cls-20"/><path data-cppathid="10024" d="M54.92,35.77c-3.92,.39-7.84,.66-11.78,.79-4.88,.17-9.77,.14-14.66-.07-4.1-.18-8.19-.49-12.27-.93,.07-.28,.14-.56,.21-.84,3.99,.34,7.99,.56,11.99,.68,4.93,.14,9.86,.11,14.79-.08,3.81-.15,7.61-.39,11.4-.74,.1,.41,.2,.8,.3,1.19Z" class="cls-16"/></g><polygon data-cppathid="10025" points="35.54 45.48 46.12 40.46 46.2 28.54 45.43 28.08 35.54 45.48" class="cls-1"/><polygon data-cppathid="10026" points="35.38 21.23 25.39 28.15 25.39 39.84 35.54 45.48 45.69 39.84 45.69 28.15 35.38 21.23" class="cls-15"/><polygon data-cppathid="10027" points="35.4 22.79 26.69 28.83 26.69 39.01 35.54 43.92 44.38 39.01 44.38 28.83 35.4 22.79" class="cls-17"/><polygon data-cppathid="10028" points="17.86 28.64 25.32 28.76 25.39 28.15 35.38 21.23 25.74 28.39 25.74 28.83 17.86 28.64" class="cls-13"/><path data-cppathid="10029" d="M39.29,53.73c.95-.05,1.26,1.26,.38,1.64-2.59,1.14-5.45,1.74-8.27,2.16-4.05,.6-8.17,.89-12.07,2.13-4.23,1.35-8.28,4.03-9.88,8.24-.22,.57-.66,1.05-1.24,1.27-1.43,.55-2.25-.82-2.58-2-1.23-4.39,.59-11.3,5.11-13.39,1.24-.57,1.77-.07,3.08,.15,1.78,.29,3.74,.18,5.55,.22,3.63,.08,7.27,.04,10.9-.07,3.01-.09,6.02-.22,9.02-.36Z" class="cls-14"/><path data-cppathid="10030" d="M55.49,53.61c2.64-.25,5.4-.29,7.84,.74,2.45,1.03,4.51,3.36,4.47,6.02-.02,1.06-.74,2.35-1.78,2.12-.9-.2-1.15-1.32-1.49-2.18-.72-1.82-2.54-3.01-4.42-3.53-1.88-.52-3.87-.48-5.82-.52-.8-.02-6.19-.27-5.66-1.52,.52-1.23,5.83-1.03,6.86-1.13Z" class="cls-10"/><path data-cppathid="10031" d="M22.26,12.8c-.71-.04-1.48-.06-2.04,.37-.75,.59-.75,1.7-.69,2.65,.14,2.08,.27,4.15,.41,6.23,.04,.63,.2,1.41,.81,1.56,.47,.12,.94-.24,1.15-.68,.21-.44,.23-.93,.3-1.41,.3-1.82,1.52-3.41,3.04-4.46,1.18-.81,2.53-1.34,3.9-1.72,.74-.21,3.26-.34,2.64-1.61-.45-.92-3.36-.58-4.25-.64-1.76-.1-3.51-.21-5.27-.31Z" class="cls-13"/><path data-cppathid="10032" d="M69.7,70.96c-2.97,15.08-10.33,49.75-12.74,61.09-.41,1.92-1.78,3.63-3.59,4.28-.29,.1-.59,.18-.9,.23-1.54,.23-3.5,.46-5.76,.64-3.22,.25-7.06,.42-11.16,.42-1.18,0-2.33-.02-3.46-.06,1.79-.74,3.81-.86,5.71-1.31,5.68-1.35,10.24-5.78,13.1-10.87,2.86-5.09,4.26-10.85,5.63-16.53,2.32-9.6,4.63-19.2,6.94-28.8,.6-2.47,2.93-8.05,6.22-9.09Z" class="cls-12"/><g><path data-cppathid="10033" d="M41.89,33.52c0,3.5-2.84,6.34-6.34,6.34s-6.34-2.84-6.34-6.34,2.84-4.85,6.34-4.85,6.34,1.34,6.34,4.85Z" class="cls-43"/><path data-cppathid="10034" d="M40.31,28.85c-2.34-.49-2.29-.1-3.42-.2-.16-.09-.28-.27-.3-.45-.03-.28,.11-.55,.3-.76-.5,.14-.97,.36-1.38,.66,.06-.47,.08-.95,.04-1.42-.01-.17-.18-.29-.35-.25l-.33,.09c-.15,.04-.24,.19-.2,.34,.05,.2,.1,.44,.11,.48,.03,.27,0,.54-.07,.79-.02,.07-.05,.13-.08,.2-.07-.06-.13-.13-.19-.21-.26-.33-.62-.58-1.03-.69,.13,.3,.21,.61,.24,.93-1.82-.18-1.74,.24-2.72,0,.65,.27,1.31,.53,1.96,.8,.2,.08,.25,.36,.07,.49-.58,.43-.99,1.11-1.05,1.83,.04-.41,1.44-1.71,1.84-1.33,.16,.15-.08,1.15-.08,1.39,0,.54,.08,1.09,.22,1.61,.73-.94,.4-2.55,1.38-3.21,.18-.12,.4-.15,.62-.11,1.37,.24,1.37,.86,2.47,1.39l-1.2-1.68c-.12-.17,.02-.39,.22-.36,1.02,.14,2.07,.18,2.93-.33Z" class="cls-25"/><g class="cls-6"><path data-cppathid="10035" d="M34.22,27.91c.06,.08,.12,.15,.19,.21-.07-.11-.16-.2-.26-.28,.02,.03,.05,.05,.07,.07Z" class="cls-32"/><path data-cppathid="10036" d="M37.38,29.19c1.02,.14,2.07,.18,2.93-.33-.16-.03-.31-.06-.45-.09-.81,.38-1.77,.34-2.69,.21-.2-.03-.34,.2-.22,.36,.4,.56,.8,1.12,1.2,1.68-1.1-.53-1.1-1.15-2.47-1.39-.21-.04-.44,0-.62,.11-.92,.62-.68,2.08-1.26,3.04,.03,.13,.06,.26,.09,.38,.73-.94,.4-2.55,1.38-3.21,.18-.12,.4-.15,.62-.11,1.37,.24,1.37,.86,2.47,1.39-.4-.56-.8-1.12-1.2-1.68-.12-.17,.02-.39,.22-.36Z" class="cls-39"/></g><path data-cppathid="10037" d="M31.83,30.32c.18,.23,.11,.57-.04,.83s-.35,.47-.46,.75c-.06,.15-.08,.32-.02,.47s.23,.26,.39,.22c.12-.03,.2-.13,.28-.23,.31-.39,.61-.79,.92-1.18,.86-.37,.23,.9,.02,1.94-.08,.42,.4,.84,.82,.86,.33,.02,.62-.22,.81-.49,.24-.35,.37-.78,.36-1.21-.01-.41-.14-.85,.06-1.21,.19-.32,.62-.44,.97-.33,.35,.11,.63,.4,.78,.73s.2,.71,.22,1.07c.05,.91-.08,1.91-.72,2.55-.44,.44-1.05,.65-1.65,.78-.93,.2-1.92,.22-2.81-.13s-1.65-1.1-1.83-2.03c-.17-.86-.04-1.66,.2-2.48,.14-.49,1.14-1.63,1.68-.92Z" class="cls-21"/></g><g class="cls-36"><g><g><path data-cppathid="10038" d="M61.31,106.63c2.32,9.86-3.79,19.73-13.65,22.05-9.86,2.32-19.73-3.79-22.05-13.65s4.79-15.51,14.65-17.83,18.74-.42,21.06,9.43Z" class="cls-38"/><path data-cppathid="10039" d="M45.37,98.57c1.5,1.31,2.99,2.62,4.49,3.93-3.45-.77-3.85-2.5-7.86-2.27-.62,.03-1.24,.27-1.66,.73-2.33,2.5-.32,6.82-1.76,9.94-.76-1.38-1.33-2.85-1.7-4.38-.17-.7-.15-3.64-.7-3.98-1.36-.83-4.45,3.77-4.28,4.95-.29-2.08,.39-4.26,1.75-5.85,.42-.48,.1-1.24-.53-1.34-2.02-.32-4.03-.63-6.05-.95,2.9,.06,2.41-1.09,7.65-1.77-.3-.88-.74-1.72-1.3-2.47,1.21,.04,2.41,.49,3.35,1.25,.21,.17,.43,.34,.68,.46,.04-.21,.09-.42,.1-.62,.04-.77-.08-1.55-.34-2.28-.04-.11-.33-.77-.62-1.29-.22-.39-.06-.88,.33-1.09l.88-.46c.44-.24,1-.01,1.15,.46,.32,1.07,.57,2.16,.72,3.27,.04,.26,.07,.51,.1,.77,.98-1.12,2.15-2.07,3.46-2.78-.01,.02-.02,.03-.03,.05-.37,.71-.58,1.55-.31,2.3,.18,.52,.64,.94,1.15,1.08,3.26-.47,2.84-1.54,9.76-1.71-2.09,2.03-5.09,2.6-8.04,2.88-.58,.05-.82,.78-.38,1.16Z" class="cls-33"/><g class="cls-6"><path data-cppathid="10040" d="M45.75,97.41c2.95-.28,5.95-.85,8.04-2.88-.48,.01-.92,.03-1.33,.05-2.04,1.61-4.76,2.13-7.44,2.38-.58,.05-.82,.78-.38,1.16,1.5,1.31,2.99,2.62,4.49,3.92-3.45-.77-3.85-2.5-7.87-2.27-.62,.03-1.24,.27-1.66,.73-2.19,2.36-.55,6.32-1.55,9.38,.16,.34,.33,.68,.52,1.02,1.44-3.12-.56-7.44,1.76-9.94,.42-.46,1.04-.69,1.66-.73,4.02-.22,4.42,1.5,7.87,2.27-1.5-1.31-2.99-2.62-4.49-3.92-.44-.39-.21-1.11,.38-1.16Z" class="cls-47"/></g><path data-cppathid="10041" d="M30.89,104.27c.65,.54,.68,1.54,.45,2.35-.24,.81-.68,1.57-.79,2.4-.06,.46,0,.96,.27,1.34,.28,.38,.82,.57,1.23,.36,.32-.16,.48-.51,.63-.83,.6-1.31,1.21-2.62,1.81-3.94,2.17-1.61,1.24,2.39,1.35,5.44,.04,1.22,1.67,2.09,2.88,1.88,.94-.16,1.6-1.02,1.95-1.91,.45-1.15,.53-2.44,.21-3.63-.31-1.14-.97-2.31-.62-3.44,.32-1.01,1.44-1.64,2.5-1.58,1.06,.06,2.02,.71,2.68,1.55,.65,.84,1.03,1.85,1.34,2.87,.75,2.52,1.05,5.41-.33,7.65-.94,1.52-2.52,2.53-4.14,3.28-2.49,1.17-5.26,1.89-7.98,1.51-2.72-.38-5.36-2-6.48-4.5-1.04-2.32-1.2-4.64-1.07-7.1,.08-1.47,2.11-5.34,4.11-3.71Z" class="cls-22"/></g><path data-cppathid="10042" d="M30.39,99.12c.68,.23,1.42,.11,2.13,.09,.72-.02,1.51,.1,1.96,.66,.33,.41,.4,.99,.3,1.51-.1,.52-.34,1-.58,1.47,.3-.35,.61-.71,1.02-.94,.4-.23,.93-.3,1.33-.07,.5,.29,.65,.94,.69,1.52s.03,1.2,.35,1.68c-.11-.73-.22-1.46-.18-2.2,.04-.74,.26-1.48,.73-2.05,.44-.53,1.08-.86,1.72-1.11,1.15-.43,2.46-.62,3.58-.11-.53-.63-1.39-.91-2.21-.88-.82,.02-1.61,.32-2.35,.67-.58,.27-1.2,.59-1.84,.51-.6-.07-1.09-.49-1.44-.95-.3-.41-.41-.81-.97-.82-1.37,0-2.97,.58-4.25,1.03Z" class="cls-30"/><path data-cppathid="10043" d="M41.44,95.46c-.18,.4-.3,.92,0,1.22,.38,.39,1.12,.11,1.51,.49-.64-.17-1.31,.08-1.88,.41s-1.09,.75-1.71,.98c-.62,.23-1.38,.22-1.86-.23,.63,.21,1.37,.04,1.86-.41,1.06-.99,.22-2.03,.28-3.1,.04,.26,.07,.51,.1,.77,.98-1.12,2.15-2.07,3.46-2.78-.01,.02-.02,.03-.03,.05-.71,.78-1.34,1.67-1.75,2.6Z" class="cls-29"/><path data-cppathid="10044" d="M38.57,91.28c.1,.19-.24,.57-.76,.85-.52,.28-1.03,.35-1.13,.16s.24-.57,.76-.85c.52-.28,1.03-.35,1.13-.16Z" class="cls-30"/><path data-cppathid="10045" d="M27.51,110.08c.03,.49,.15,1.02,.51,1.36,.51,.48,1.38,.4,1.93-.03,.55-.43,.85-1.12,1-1.8,.28-1.25,.19-2.58-.28-3.78-.58-1.5-1.68-.06-2.18,.67-.71,1.05-1.08,2.33-.99,3.6Z" class="cls-13"/><path data-cppathid="10046" d="M31.33,111.02c-.15,.27-.26,.58-.13,.89,.18,.44,.81,.72,1.35,.7s.98-.27,1.34-.57c.64-.54,1.05-1.27,1.16-2.07,.13-.99-1.14-.66-1.74-.46-.86,.28-1.58,.81-1.97,1.5Z" class="cls-13"/></g></g></g><path data-cppathid="10047" d="M49.45,77.13c0,1.41-.53,2.74-1.47,3.92-2.28,2.87-7,4.85-12.44,4.85s-10.16-1.97-12.44-4.85c-.94-1.18-1.47-2.51-1.47-3.92s.53-2.74,1.47-3.92c2.28-2.87,7-4.85,12.44-4.85s10.17,1.97,12.44,4.85c.95,1.18,1.47,2.51,1.47,3.92Z" class="cls-19"/><path data-cppathid="10048" d="M49.85,77.13c0,1.41-.54,2.74-1.51,3.92H22.74c-.97-1.18-1.51-2.51-1.51-3.92s.55-2.74,1.51-3.92h25.59c.97,1.18,1.51,2.51,1.51,3.92Z" class="cls-42"/></g></g></g></g></svg>