<?xml version="1.0" encoding="UTF-8"?>
<svg xmlns="http://www.w3.org/2000/svg" onmouseup="{ if(window.parent.document.onmouseup) window.parent.document.onmouseup(arguments[0]);}" viewBox="0 0 115.18 95.2" xmlns:xlink="http://www.w3.org/1999/xlink"><defs><style>
      .cls-1 {
        fill: #ffe;
        mix-blend-mode: soft-light;
        opacity: .8;
      }

      .cls-2 {
        fill: url(#linear-gradient-2);
      }

      .cls-3 {
        fill: url(#linear-gradient-11);
      }

      .cls-3, .cls-4, .cls-5, .cls-6, .cls-7 {
        mix-blend-mode: color-burn;
      }

      .cls-4 {
        fill: url(#linear-gradient-10);
      }

      .cls-8 {
        fill: url(#linear-gradient-6);
      }

      .cls-9 {
        isolation: isolate;
      }

      .cls-5 {
        fill: url(#linear-gradient-4);
      }

      .cls-10 {
        fill: #6b7caf;
      }

      .cls-6 {
        fill: url(#linear-gradient);
      }

      .cls-11 {
        fill: url(#linear-gradient-5);
      }

      .cls-12 {
        fill: url(#linear-gradient-7);
        mix-blend-mode: overlay;
      }

      .cls-12, .cls-7 {
        opacity: .35;
      }

      .cls-7 {
        fill: url(#linear-gradient-8);
      }

      .cls-13 {
        opacity: .15;
      }

      .cls-13, .cls-14 {
        fill: #fff;
        mix-blend-mode: lighten;
      }

      .cls-15 {
        fill: url(#linear-gradient-9);
      }

      .cls-16 {
        fill: url(#linear-gradient-3);
      }

      .cls-14 {
        opacity: .65;
      }
    </style><linearGradient gradientUnits="userSpaceOnUse" y2="10.41" x2="85.47" y1="10.41" x1="29.72" id="linear-gradient"><stop stop-color="#ccc" offset="0"/><stop stop-color="#999" offset="1"/></linearGradient><linearGradient gradientUnits="userSpaceOnUse" y2="13.91" x2="57.59" y1="95.2" x1="57.59" id="linear-gradient-2"><stop stop-color="#b0beea" offset="0"/><stop stop-color="#94a1d3" offset=".99"/></linearGradient><linearGradient gradientUnits="userSpaceOnUse" y2="52.79" x2="112.95" y1="52.79" x1="2.23" id="linear-gradient-3"><stop stop-color="#dd8317" offset="0"/><stop stop-color="#e79a2d" offset=".03"/><stop stop-color="#f0b041" offset=".06"/><stop stop-color="#f6c04f" offset=".1"/><stop stop-color="#fac958" offset=".14"/><stop stop-color="#fccc5b" offset=".2"/><stop stop-color="#fac857" offset=".33"/><stop stop-color="#f7bc4e" offset=".45"/><stop stop-color="#f2a93e" offset=".56"/><stop stop-color="#f1a53b" offset=".58"/><stop stop-color="#eea137" offset=".72"/><stop stop-color="#e8962b" offset=".86"/><stop stop-color="#dd8418" offset=".99"/><stop stop-color="#dd8317" offset="1"/></linearGradient><linearGradient xlink:href="#linear-gradient" y2="54.78" x2="92.54" y1="54.78" x1="24.05" id="linear-gradient-4"/><linearGradient gradientUnits="userSpaceOnUse" y2="53.79" x2="91.84" y1="53.79" x1="23.35" id="linear-gradient-5"><stop stop-color="#202d4c" offset="0"/><stop stop-color="#253255" offset=".05"/><stop stop-color="#2f3d65" offset=".16"/><stop stop-color="#35436e" offset=".29"/><stop stop-color="#374572" offset=".45"/><stop stop-color="#202d4c" offset="1"/></linearGradient><linearGradient gradientUnits="userSpaceOnUse" y2="32.36" x2="57.59" y1="75.21" x1="57.59" id="linear-gradient-6"><stop stop-color="#edb77d" offset="0"/><stop stop-color="#ffd8b0" offset="1"/></linearGradient><linearGradient gradientUnits="userSpaceOnUse" y2="15.47" x2="32.28" y1="102.76" x1="32.28" id="linear-gradient-7"><stop stop-color="#e6e6e6" offset="0"/><stop stop-color="#fff" offset="1"/></linearGradient><linearGradient xlink:href="#linear-gradient" y2="47.07" x2="107.9" y1="47.07" x1="60.77" id="linear-gradient-8"/><linearGradient gradientUnits="userSpaceOnUse" y2="5.35" x2="88.91" y1="5.35" x1="26.27" id="linear-gradient-9"><stop stop-color="#c18627" offset="0"/><stop stop-color="#c98d2a" offset=".02"/><stop stop-color="#dd9e32" offset=".1"/><stop stop-color="#eca937" offset=".18"/><stop stop-color="#f4b03b" offset=".28"/><stop stop-color="#f7b33c" offset=".44"/><stop stop-color="#f1ae39" offset=".58"/><stop stop-color="#e1a133" offset=".76"/><stop stop-color="#c78b29" offset=".95"/><stop stop-color="#c18627" offset=".99"/></linearGradient><linearGradient xlink:href="#linear-gradient" y2="9.96" x2="87.92" y1="9.96" x1="27.27" id="linear-gradient-10"/><linearGradient xlink:href="#linear-gradient" y2="5.35" x2="84.23" y1="5.35" x1="71.2" id="linear-gradient-11"/></defs><g class="cls-9"><g data-name="Layer 2" id="Layer_2"><g data-name="Layer 1" id="Layer_1-2"><g><polygon data-cppathid="10000" points="58.53 9.31 56.65 9.31 29.72 9.31 29.72 14.09 56.65 14.09 58.53 14.09 85.47 14.09 85.47 9.31 58.53 9.31" class="cls-10"/><polygon data-cppathid="10001" points="58.53 9.31 56.65 9.31 29.72 9.31 29.72 11.51 56.65 11.51 58.53 11.51 85.47 11.51 85.47 9.31 58.53 9.31" class="cls-6"/><path data-cppathid="10002" d="M107,83.32c-2.93,2.75-6.18,4.83-9.63,6.41-7.55,3.47-16.11,4.56-24.59,5.06-.03,0-.05,0-.08,0-4.75,.28-9.51,.4-14.27,.41-4.13,0-8.25-.11-12.37-.33-1.83-.09-3.65-.21-5.48-.34-.31-.02-.62-.05-.93-.07l-5.36-.41c-1.42-.11-2.71-.47-4.09-.64-5.07-.62-9.99-2.17-14.42-4.62-2.72-1.49-5.27-3.33-7.58-5.48C2.83,78.3-1.34,71.55,.4,63.25,4.1,45.56,24.99,19.19,28.86,14.42c.26-.33,.65-.51,1.07-.51h55.32c.42,0,.81,.18,1.08,.51,1.87,2.3,7.71,9.66,13.67,18.64,6.38,9.6,12.88,21.05,14.79,30.19,1.73,8.3-2.43,15.04-7.79,20.06Z" class="cls-2"/><ellipse data-cppathid="10003" ry="8.13" rx="37.5" cy="85.07" cx="57.59" class="cls-10"/><path data-cppathid="10004" d="M40.57,94.53c-.31-.02-.62-.05-.93-.07l-5.36-.41c-1.42-.11-2.71-.47-4.09-.64-.46-.05-.92-.12-1.38-.19-3.83-.6-7.55-1.74-11.03-3.4-.68-.32-1.35-.67-2.01-1.03-7.02-14.2-8.61-31.37-8.61-31.37,0,0,38.45-33.1,27.55,6.31-3.95,14.28-.34,24.09,5.87,30.79Z" class="cls-13"/><path data-cppathid="10005" d="M106.45,57.42s-1.66,17.94-9.08,32.31c-7.55,3.47-16.11,4.56-24.59,5.06,6.36-6.71,10.12-16.58,6.11-31.05-10.9-39.41,27.55-6.31,27.55-6.31Z" class="cls-13"/><path data-cppathid="10006" d="M28.81,93.23c-3.83-.6-7.55-1.74-11.03-3.4-3.5-8.94-6.2-20.03-6.03-20.55,0,0,8.93-10.2,9.44,3.06,.25,6.57,3.96,14.53,7.63,20.88Z" class="cls-14"/><g><path data-cppathid="10007" d="M105.34,79.18c-1.66,1.5-3.43,2.79-5.28,3.89-8.2,4.88-18.04,6.14-27.64,6.69-2.75,.15-5.59,.26-8.58,.32-1.75,.04-3.56,.05-5.43,.06h-.85c-5.54,0-11.29-.24-17.57-.7l-5.3-.39c-.72-.05-1.42-.18-2.15-.31-.58-.11-1.19-.21-1.82-.29-7.89-.93-15.01-4.04-20.62-9.02-.09-.08-.18-.16-.27-.24-.1-.08-.18-.18-.28-.26-5.95-5.49-8.3-11.39-6.97-17.52,3.14-14.51,19.13-35.35,25.69-43.44,1.09-1.35,2.69-2.22,4.43-2.45,.3-.04,.6-.06,.91-.06h47.94c.18,0,.35,0,.53,.02,1.52,.11,2.95,.72,4.07,1.71,.13,.11,.25,.24,.37,.36,.13,.14,.25,.28,.37,.42,6.55,8.09,22.54,28.93,25.68,43.44,1.35,6.23-1.09,12.21-7.25,17.78Z" class="cls-16"/><path data-cppathid="10008" d="M105.34,79.18c-9.02,8.16-21.15,9.9-32.92,10.58-4.38,.24-8.95,.37-14.01,.38h-.85c-5.54,0-11.29-.24-17.57-.7l-5.3-.39c-.72-.05-1.42-.18-2.15-.31-.58-.11-1.19-.21-1.82-.29-7.89-.93-15.01-4.04-20.62-9.02-.09-.08-.18-.16-.27-.24-.1-.08-.18-.18-.28-.26,.17,.14,.34,.28,.5,.4,5.36,4.25,11.92,6.93,19.12,7.78,.64,.08,1.24,.18,1.82,.29,.73,.13,1.43,.26,2.15,.31l5.3,.39c6.37,.47,12.21,.7,17.84,.7h.58c5.06-.02,9.63-.14,14.01-.38,11.77-.67,23.9-2.41,32.92-10.58,6.15-5.57,8.59-11.55,7.25-17.78-3.14-14.51-19.13-35.35-25.68-43.44-.03-.03-.05-.05-.08-.08,.3,.19,.59,.41,.86,.64,.13,.11,.25,.24,.37,.36,.13,.14,.25,.28,.37,.42,6.55,8.09,22.54,28.93,25.68,43.44,1.35,6.23-1.09,12.21-7.25,17.78Z" class="cls-1"/></g><ellipse data-cppathid="10009" ry="24.68" rx="34.24" cy="54.78" cx="58.29" class="cls-5"/><ellipse data-cppathid="10010" ry="24.68" rx="34.24" cy="53.79" cx="57.59" class="cls-11"/><ellipse data-cppathid="10011" ry="21.43" rx="30.11" cy="53.79" cx="57.59" class="cls-8"/><path data-cppathid="10012" d="M23.86,54.55c0-13.63,15.33-24.68,34.24-24.68,13.39,0,24.98,5.54,30.61,13.62-5.42-8.49-17.31-14.38-31.12-14.38-18.91,0-34.24,11.05-34.24,24.68,0,3.98,1.31,7.73,3.63,11.06-2-3.13-3.12-6.62-3.12-10.3Z" class="cls-1"/><path data-cppathid="10013" d="M22.69,30.48c-.23,1.57-.13,3.44,1.17,4.36,1.01,.72,2.4,.58,3.56,.15,2.78-1.04,4.74-3.48,7-5.4,3.73-3.17,8.45-5.01,13.23-6.08s9.69-1.41,14.57-1.92c1.41-.15,3.13-.58,3.45-1.95,.23-.97-.44-1.97-1.32-2.45-.88-.48-1.91-.56-2.9-.62-7.65-.46-15.32-.53-22.98-.22-4.08,.17-7.3,1.07-10.31,3.88-2.89,2.68-4.87,6.35-5.45,10.26Z" class="cls-14"/><path data-cppathid="10014" d="M8.96,76.06c.63,.75,1.35,1.47,2.26,1.83s2.05,.29,2.75-.39c.71-.7,.79-1.86,.48-2.81-.31-.95-.94-1.77-1.49-2.6-4.21-6.31-4.63-14.96-1.04-21.65,.41-.76,.76-1.91,0-2.31-.74-.39-1.48,.49-1.86,1.23-4.38,8.59-8.27,18.22-1.08,26.71Z" class="cls-14"/><path data-cppathid="10015" d="M57.56,90.14c-5.54,0-11.29-.24-17.57-.7l-5.3-.39c-.72-.05-1.42-.18-2.15-.31-.58-.11-1.19-.21-1.82-.29-7.89-.93-15.01-4.04-20.62-9.02-.02-.03-.02-.07-.04-.1-3.89-9.65-4.26-20.7-.05-30.16,3.39-7.6,9.34-13.71,14.52-20.21,3.01-3.76,5.79-7.77,7.69-12.21,.17-.41,.33-.81,.47-1.23,1.06-3.05,1.55-6.49,3.11-9.26,3.99-7.11,12.66-1.94,12.08,5.26-.11,1.35-.45,2.66-.92,3.93-.7,1.9-1.69,3.72-2.64,5.51-4.63,8.74-8.65,18.01-9.73,27.83-1.09,9.83,1.09,20.37,7.63,27.79,3.44,3.9,7.87,6.75,11.82,10.14,.77,.66,1.53,1.35,2.26,2.09,.43,.44,.86,.88,1.26,1.34Z" class="cls-12"/><path data-cppathid="10016" d="M107.84,65.27c-.44,6.37-3.45,12.48-7.77,17.79-8.2,4.88-18.04,6.14-27.64,6.69-2.75,.15-5.59,.26-8.58,.32,.8-1.84,2.08-3.59,3.23-5.23,11.96-17.16,11.92-41.79-.08-58.91-2.16-3.08-5-6.73-5.92-10.49-.64-2.59-.36-5.24,1.68-7.79,3.53-4.4,9.88-4.91,13.42-.61,2.19,2.66,4.01,5.56,5.91,8.43,1.53,2.3,3.11,4.59,4.98,6.72,4.51,5.13,9.83,11.95,13.97,19.33,4.32,7.71,7.34,16.05,6.8,23.76Z" class="cls-7"/><path data-cppathid="10017" d="M107,83.32c-2.93,2.75-6.18,4.83-9.63,6.41-7.55,3.47-16.11,4.56-24.59,5.06-.03,0-.05,0-.08,0-4.75,.28-9.51,.4-14.27,.41-4.13,0-8.25-.11-12.37-.33,.28-.11,.56-.21,.84-.31,8-2.86,16.65-3.55,24.62-6.49,11.43-4.2,21.04-13.12,26.09-24.2,2.41-5.3,3.76-11.07,4.05-16.87,.12-2.49,.05-4.99-.22-7.47-.21-1.95-1.21-4.4-1.44-6.46,6.38,9.6,12.88,21.05,14.79,30.19,1.73,8.3-2.43,15.04-7.79,20.06Z" class="cls-13"/><g><path data-cppathid="10018" d="M88.88,3.04l-.65,5.3c-.17,1.35-1.32,2.37-2.7,2.37h-2.5s-11.4-.04-11.4-.04l-14.03-.05-4.75,.02-7.55,.02-10.02,.03h-3.77s-1.85,.02-1.85,.02c-1.37,0-2.53-1.02-2.7-2.37l-.65-5.3c-.2-1.61,1.06-3.04,2.69-3.04h57.22c1.63,0,2.89,1.42,2.69,3.04Z" class="cls-15"/><path data-cppathid="10019" d="M57.59,9.22l-30.32,.08c.47,.85,1.36,1.41,2.38,1.4l27.95-.08,27.95,.08c1.02,0,1.91-.56,2.38-1.4l-30.32-.08Z" class="cls-4"/><path data-cppathid="10020" d="M53.82,0l-.98,10.64-7.55,.02-10.02,.03h-3.77c-.54-3.41-1.2-7.66-1.65-10.69h23.97Z" class="cls-1"/><path data-cppathid="10021" d="M34.5,0h11.25l-.46,10.66-10.02,.03c-.26-3.42-.57-7.66-.77-10.69Z" class="cls-1"/><polygon data-cppathid="10022" points="84.23 0 83.03 10.7 71.63 10.67 71.2 0 84.23 0" class="cls-3"/></g></g></g></g></g></svg>