<?xml version="1.0" encoding="UTF-8"?>
<svg xmlns="http://www.w3.org/2000/svg" onmouseup="{ if(window.parent.document.onmouseup) window.parent.document.onmouseup(arguments[0]);}" viewBox="0 0 108.3 89.51" xmlns:xlink="http://www.w3.org/1999/xlink"><defs><style>
      .cls-1 {
        fill: #ffe;
        mix-blend-mode: soft-light;
        opacity: .8;
      }

      .cls-2 {
        fill: url(#linear-gradient-2);
      }

      .cls-3 {
        fill: url(#linear-gradient-9);
      }

      .cls-3, .cls-4, .cls-5, .cls-6, .cls-7 {
        mix-blend-mode: color-burn;
      }

      .cls-8 {
        fill: #f4e7cb;
      }

      .cls-9 {
        isolation: isolate;
      }

      .cls-10 {
        fill: #6b7caf;
      }

      .cls-4 {
        fill: url(#linear-gradient-3);
      }

      .cls-11 {
        fill: url(#linear-gradient-5);
        mix-blend-mode: overlay;
      }

      .cls-11, .cls-6 {
        opacity: .35;
      }

      .cls-5 {
        fill: url(#linear-gradient);
      }

      .cls-6 {
        fill: url(#linear-gradient-6);
      }

      .cls-12 {
        fill: #fcf2de;
      }

      .cls-13 {
        fill: url(#linear-gradient-7);
      }

      .cls-7 {
        fill: url(#linear-gradient-8);
      }

      .cls-14 {
        opacity: .15;
      }

      .cls-14, .cls-15 {
        fill: #fff;
        mix-blend-mode: lighten;
      }

      .cls-16 {
        fill: url(#linear-gradient-4);
      }

      .cls-15 {
        opacity: .65;
      }
    </style><linearGradient gradientUnits="userSpaceOnUse" y2="9.79" x2="80.36" y1="9.79" x1="27.94" id="linear-gradient"><stop stop-color="#ccc" offset="0"/><stop stop-color="#999" offset="1"/></linearGradient><linearGradient gradientUnits="userSpaceOnUse" y2="13.08" x2="54.15" y1="89.51" x1="54.15" id="linear-gradient-2"><stop stop-color="#b0beea" offset="0"/><stop stop-color="#94a1d3" offset=".99"/></linearGradient><linearGradient xlink:href="#linear-gradient" y2="51.5" x2="87.01" y1="51.5" x1="22.61" id="linear-gradient-3"/><linearGradient gradientUnits="userSpaceOnUse" y2="50.57" x2="86.35" y1="50.57" x1="21.95" id="linear-gradient-4"><stop stop-color="#202d4c" offset="0"/><stop stop-color="#253255" offset=".05"/><stop stop-color="#2f3d65" offset=".16"/><stop stop-color="#35436e" offset=".29"/><stop stop-color="#374572" offset=".45"/><stop stop-color="#202d4c" offset="1"/></linearGradient><linearGradient gradientUnits="userSpaceOnUse" y2="14.55" x2="30.35" y1="96.62" x1="30.35" id="linear-gradient-5"><stop stop-color="#e6e6e6" offset="0"/><stop stop-color="#fff" offset="1"/></linearGradient><linearGradient xlink:href="#linear-gradient" y2="44.26" x2="101.45" y1="44.26" x1="57.14" id="linear-gradient-6"/><linearGradient gradientUnits="userSpaceOnUse" y2="5.03" x2="83.59" y1="5.03" x1="24.7" id="linear-gradient-7"><stop stop-color="#c18627" offset="0"/><stop stop-color="#c98d2a" offset=".02"/><stop stop-color="#dd9e32" offset=".1"/><stop stop-color="#eca937" offset=".18"/><stop stop-color="#f4b03b" offset=".28"/><stop stop-color="#f7b33c" offset=".44"/><stop stop-color="#f1ae39" offset=".58"/><stop stop-color="#e1a133" offset=".76"/><stop stop-color="#c78b29" offset=".95"/><stop stop-color="#c18627" offset=".99"/></linearGradient><linearGradient xlink:href="#linear-gradient" y2="9.37" x2="82.66" y1="9.37" x1="25.64" id="linear-gradient-8"/><linearGradient xlink:href="#linear-gradient" y2="5.03" x2="79.2" y1="5.03" x1="66.94" id="linear-gradient-9"/></defs><g class="cls-9"><g data-name="Layer 2" id="Layer_2"><g data-name="Layer 1" id="Layer_1-2"><g><polygon data-cppathid="10000" points="55.03 8.75 53.27 8.75 27.94 8.75 27.94 13.25 53.27 13.25 55.03 13.25 80.36 13.25 80.36 8.75 55.03 8.75" class="cls-10"/><polygon data-cppathid="10001" points="55.03 8.75 53.27 8.75 27.94 8.75 27.94 10.82 53.27 10.82 55.03 10.82 80.36 10.82 80.36 8.75 55.03 8.75" class="cls-5"/><path data-cppathid="10002" d="M100.6,78.34c-2.76,2.58-5.81,4.54-9.05,6.03-7.1,3.27-15.15,4.29-23.12,4.76-.03,0-.05,0-.08,0-4.47,.27-8.94,.37-13.42,.38-3.89,0-7.76-.1-11.63-.31-1.72-.09-3.43-.2-5.15-.32-.29-.02-.58-.04-.87-.06l-5.04-.38c-1.34-.11-2.55-.44-3.85-.6-4.77-.58-9.39-2.04-13.56-4.35-2.56-1.4-4.96-3.13-7.12-5.15C2.66,73.62-1.26,67.27,.38,59.47,3.85,42.84,23.49,18.05,27.13,13.56c.24-.31,.61-.48,1.01-.48h52.01c.4,0,.76,.17,1.01,.48,1.76,2.17,7.25,9.08,12.85,17.53,6,9.02,12.11,19.79,13.91,28.38,1.63,7.8-2.29,14.15-7.32,18.87Z" class="cls-2"/><ellipse data-cppathid="10003" ry="7.64" rx="35.26" cy="79.98" cx="54.15" class="cls-10"/><path data-cppathid="10004" d="M38.15,88.88c-.29-.02-.58-.04-.87-.06l-5.04-.38c-1.34-.11-2.55-.44-3.85-.6-.43-.05-.86-.12-1.3-.18-3.6-.56-7.1-1.63-10.38-3.19-.64-.3-1.27-.63-1.89-.97-6.61-13.35-8.09-29.5-8.09-29.5,0,0,36.16-31.12,25.9,5.94-3.71,13.43-.32,22.65,5.52,28.95Z" class="cls-14"/><path data-cppathid="10005" d="M100.09,53.99s-1.56,16.87-8.53,30.38c-7.1,3.27-15.15,4.29-23.12,4.76,5.98-6.31,9.51-15.59,5.75-29.2-10.25-37.05,25.9-5.94,25.9-5.94Z" class="cls-14"/><path data-cppathid="10006" d="M27.09,87.66c-3.6-.56-7.1-1.63-10.38-3.19-3.29-8.4-5.83-18.84-5.67-19.32,0,0,8.4-9.59,8.87,2.88,.24,6.18,3.72,13.66,7.17,19.64Z" class="cls-15"/><g><path data-cppathid="10007" d="M99.05,74.45c-1.56,1.41-3.22,2.62-4.96,3.66-7.71,4.59-16.96,5.77-25.99,6.29-2.59,.14-5.26,.24-8.07,.3-1.65,.04-3.35,.05-5.11,.06h-.8c-5.21,0-10.62-.22-16.52-.66l-4.99-.37c-.68-.05-1.33-.17-2.02-.3-.55-.1-1.12-.2-1.71-.27-7.42-.87-14.11-3.8-19.38-8.48-.09-.07-.17-.15-.25-.22-.09-.08-.17-.17-.26-.24-5.59-5.17-7.8-10.71-6.55-16.48,2.95-13.64,17.99-33.24,24.15-40.85,1.03-1.27,2.53-2.09,4.17-2.3,.28-.04,.57-.06,.86-.06h45.08c.17,0,.33,0,.5,.02,1.43,.1,2.78,.68,3.83,1.6,.12,.11,.24,.22,.35,.34,.12,.13,.24,.26,.35,.4,6.16,7.61,21.2,27.2,24.15,40.85,1.27,5.86-1.03,11.48-6.81,16.72Z" class="cls-8"/><path data-cppathid="10008" d="M99.05,74.45c-8.48,7.68-19.89,9.31-30.95,9.94-4.12,.23-8.42,.35-13.17,.36h-.8c-5.21,0-10.62-.22-16.52-.66l-4.99-.37c-.68-.05-1.33-.17-2.02-.3-.55-.1-1.12-.2-1.71-.27-7.42-.87-14.11-3.8-19.38-8.48-.09-.07-.17-.15-.25-.22-.09-.08-.17-.17-.26-.24,.16,.13,.32,.26,.47,.37,5.04,4,11.21,6.52,17.98,7.32,.6,.07,1.17,.17,1.71,.27,.69,.12,1.35,.24,2.02,.3l4.99,.37c5.99,.45,11.48,.66,16.77,.66h.55c4.76-.01,9.06-.13,13.17-.36,11.07-.63,22.47-2.27,30.95-9.94,5.78-5.24,8.08-10.86,6.81-16.72-2.95-13.64-17.99-33.24-24.15-40.85-.03-.03-.05-.05-.08-.08,.28,.18,.55,.38,.81,.6,.12,.11,.24,.22,.35,.34,.12,.13,.24,.26,.35,.4,6.16,7.61,21.2,27.2,24.15,40.85,1.27,5.86-1.03,11.48-6.81,16.72Z" class="cls-1"/></g><ellipse data-cppathid="10009" ry="23.2" rx="32.2" cy="51.5" cx="54.81" class="cls-4"/><ellipse data-cppathid="10010" ry="23.2" rx="32.2" cy="50.57" cx="54.15" class="cls-16"/><ellipse data-cppathid="10011" ry="20.15" rx="28.31" cy="50.57" cx="54.15" class="cls-12"/><path data-cppathid="10012" d="M22.43,51.29c0-12.82,14.42-23.2,32.2-23.2,12.59,0,23.49,5.21,28.78,12.8-5.09-7.98-16.27-13.52-29.26-13.52-17.78,0-32.2,10.39-32.2,23.2,0,3.74,1.24,7.27,3.42,10.4-1.88-2.95-2.94-6.22-2.94-9.68Z" class="cls-1"/><path data-cppathid="10013" d="M21.33,28.66c-.22,1.47-.12,3.23,1.1,4.1,.95,.68,2.26,.55,3.35,.14,2.61-.98,4.46-3.27,6.58-5.08,3.51-2.98,7.94-4.71,12.44-5.71,4.5-1,9.11-1.32,13.7-1.81,1.32-.14,2.94-.54,3.24-1.84,.21-.91-.42-1.86-1.24-2.31-.82-.45-1.79-.52-2.73-.58-7.19-.43-14.41-.5-21.61-.21-3.84,.16-6.86,1.01-9.7,3.65-2.72,2.52-4.57,5.98-5.12,9.65Z" class="cls-15"/><path data-cppathid="10014" d="M8.43,71.51c.59,.71,1.27,1.38,2.12,1.72s1.93,.27,2.58-.37c.67-.66,.74-1.75,.45-2.65-.29-.9-.88-1.66-1.4-2.44-3.96-5.93-4.35-14.07-.98-20.35,.38-.72,.72-1.8,0-2.17-.69-.36-1.39,.46-1.75,1.16-4.12,8.08-7.78,17.13-1.02,25.11Z" class="cls-15"/><path data-cppathid="10015" d="M54.12,84.75c-5.21,0-10.62-.22-16.52-.66l-4.99-.37c-.68-.05-1.33-.17-2.02-.3-.55-.1-1.12-.2-1.71-.27-7.42-.87-14.11-3.8-19.38-8.48-.01-.03-.02-.06-.04-.09-3.66-9.07-4.01-19.46-.04-28.36,3.19-7.14,8.78-12.89,13.66-19,2.83-3.53,5.45-7.31,7.23-11.48,.16-.38,.31-.76,.45-1.16,1-2.87,1.46-6.1,2.92-8.71,3.75-6.68,11.91-1.83,11.35,4.95-.1,1.27-.42,2.5-.86,3.7-.66,1.78-1.59,3.5-2.48,5.18-4.35,8.22-8.14,16.93-9.15,26.17-1.02,9.25,1.02,19.15,7.17,26.13,3.23,3.67,7.4,6.35,11.11,9.53,.73,.62,1.44,1.27,2.12,1.96,.4,.41,.81,.83,1.19,1.26Z" class="cls-11"/><path data-cppathid="10016" d="M101.39,61.37c-.41,5.99-3.24,11.74-7.31,16.73-7.71,4.59-16.96,5.77-25.99,6.29-2.59,.14-5.26,.24-8.07,.3,.75-1.73,1.96-3.37,3.04-4.92,11.25-16.13,11.21-39.29-.08-55.39-2.03-2.9-4.7-6.33-5.56-9.86-.6-2.44-.34-4.93,1.58-7.32,3.32-4.14,9.29-4.61,12.62-.58,2.06,2.5,3.77,5.22,5.55,7.92,1.44,2.16,2.92,4.32,4.68,6.32,4.25,4.83,9.25,11.23,13.13,18.17,4.06,7.25,6.9,15.09,6.4,22.34Z" class="cls-6"/><path data-cppathid="10017" d="M100.6,78.34c-2.76,2.58-5.81,4.54-9.05,6.03-7.1,3.27-15.15,4.29-23.12,4.76-.03,0-.05,0-.08,0-4.47,.27-8.94,.37-13.42,.38-3.89,0-7.76-.1-11.63-.31,.27-.1,.53-.2,.79-.3,7.52-2.69,15.66-3.34,23.15-6.1,10.75-3.95,19.79-12.34,24.54-22.76,2.27-4.98,3.54-10.4,3.81-15.87,.12-2.34,.05-4.69-.21-7.02-.19-1.83-1.14-4.14-1.35-6.07,6,9.02,12.11,19.79,13.91,28.38,1.63,7.8-2.29,14.15-7.32,18.87Z" class="cls-14"/><g><path data-cppathid="10018" d="M83.57,2.86l-.61,4.98c-.16,1.27-1.24,2.23-2.54,2.23h-2.35s-10.72-.04-10.72-.04l-13.2-.04h-4.47s-7.1,.04-7.1,.04l-9.42,.03h-3.55s-1.74,.01-1.74,.01c-1.29,0-2.38-.96-2.54-2.23l-.61-4.98c-.19-1.52,.99-2.86,2.53-2.86h53.8c1.53,0,2.72,1.34,2.53,2.86Z" class="cls-13"/><path data-cppathid="10019" d="M54.15,8.67l-28.51,.08c.44,.79,1.28,1.32,2.24,1.32l26.28-.08,26.28,.08c.96,0,1.8-.53,2.24-1.32l-28.51-.08Z" class="cls-7"/><path data-cppathid="10020" d="M50.6,0l-.92,10-7.1,.02-9.42,.03h-3.55c-.51-3.21-1.13-7.2-1.55-10.05h22.53Z" class="cls-1"/><path data-cppathid="10021" d="M32.44,0h10.58l-.43,10.02-9.42,.03c-.24-3.22-.53-7.2-.73-10.05Z" class="cls-1"/><polygon data-cppathid="10022" points="79.2 0 78.07 10.06 67.35 10.03 66.94 0 79.2 0" class="cls-3"/></g></g></g></g></g></svg>