<?xml version="1.0" encoding="UTF-8"?>
<svg xmlns="http://www.w3.org/2000/svg" onmouseup="{ if(window.parent.document.onmouseup) window.parent.document.onmouseup(arguments[0]);}" viewBox="0 0 181.3 40.35" data-name="Layer 2" id="Layer_2"><defs><style>
      .cls-1 {
        font-family: Montserrat-Bold, Montserrat;
        font-size: 14px;
        font-weight: 700;
      }

      .cls-1, .cls-2 {
        fill: #a82859;
      }

      .cls-3 {
        letter-spacing: 0em;
      }

      .cls-2, .cls-4, .cls-5, .cls-6, .cls-7 {
        stroke-width: 0px;
      }

      .cls-4 {
        fill: #ddd;
      }

      .cls-5 {
        fill: #6d7271;
      }

      .cls-6 {
        fill: #fff;
      }

      .cls-7 {
        fill: #751c3e;
      }
    </style></defs><g data-name="Layer 1" id="Layer_1-2"><g><path data-cppathid="10000" d="m29.7.07h131.06c11.34,0,20.54,9.2,20.54,20.54h0c0,10.89-8.85,19.74-19.74,19.74H29.7c-6.37,0-11.54-5.17-11.54-11.54V11.61C18.15,5.24,23.33.07,29.7.07Z" class="cls-5"/><path data-cppathid="10001" d="m14.51,0h143.48C169.33,0,178.54,9.2,178.54,20.54h0c0,10.89-8.85,19.74-19.74,19.74H14.51V0h0Z" class="cls-4"/><polygon data-cppathid="10002" points="37.01 .07 13.75 .07 2.13 20.21 13.75 40.35 37.01 40.35 48.64 20.21 37.01 .07" class="cls-7"/><text data-cppathid="10003" transform="translate(53.25 25.3)" class="cls-1"><tspan data-cppathid="10004" y="0" x="0">IN</tspan><tspan data-cppathid="10005" y="0" x="15.9" class="cls-3">F</tspan><tspan data-cppathid="10006" y="0" x="24.75">ORMASI</tspan></text><polygon data-cppathid="10007" points="34.88 0 11.63 0 0 20.14 11.63 40.28 34.88 40.28 46.51 20.14 34.88 0" class="cls-2"/><path data-cppathid="10008" d="m34.24,12.52c0-.42-.05-.82-.14-1.19-.18-.78-.45-.89-.54-.92-.14-.06-.3-.04-.44.05-.4.26-.5.96-.56,1.62-.01.15.1.27.24.28.15.01.27-.1.28-.24.06-.8.19-1.09.29-1.19.05.06.13.22.2.52.08.33.12.69.12,1.07h-1.77c0-.42-.05-.82-.14-1.19-.18-.78-.45-.89-.54-.92-.14-.06-.3-.04-.44.05-.4.26-.5.96-.56,1.62-.01.15.1.27.24.28.15.01.27-.1.28-.24.06-.8.19-1.09.29-1.19.05.06.13.22.2.52.08.33.12.69.12,1.07h-1.77c0-.42-.05-.82-.14-1.19-.18-.78-.45-.89-.54-.92-.14-.06-.3-.04-.44.05-.4.26-.5.96-.56,1.62-.01.15.1.27.24.28.15.01.27-.1.28-.24.06-.8.19-1.09.29-1.19.05.06.13.22.2.52.08.33.12.69.12,1.07h-1.76c0-.42-.05-.82-.14-1.19-.18-.78-.45-.89-.54-.92-.14-.06-.3-.04-.44.05-.4.26-.5.96-.56,1.62-.01.15.1.27.24.28.14.01.27-.1.28-.24.06-.8.19-1.09.29-1.19.05.06.13.22.2.52.08.33.12.69.12,1.07h-1.77c0-.42-.05-.82-.14-1.19-.18-.78-.45-.89-.54-.92-.14-.06-.3-.04-.44.05-.4.26-.5.96-.56,1.62-.01.15.1.27.24.28.14.01.27-.1.28-.24.06-.8.19-1.09.29-1.19.05.06.13.22.2.52.08.33.12.69.12,1.07h-1.77c0-.42-.05-.82-.14-1.19-.18-.78-.45-.89-.54-.92-.14-.06-.3-.04-.44.05-.4.26-.5.96-.56,1.62-.01.15.1.27.24.28.14.01.27-.1.28-.24.06-.8.19-1.09.29-1.19.05.06.13.22.2.52.08.33.12.69.12,1.07h-1.76c0-.42-.05-.82-.14-1.19-.18-.78-.45-.89-.54-.92-.14-.06-.3-.04-.44.05-.4.26-.5.96-.56,1.62-.01.15.1.27.24.28.15.01.27-.1.28-.24.06-.8.19-1.09.29-1.19.05.06.13.22.2.52.08.33.12.69.12,1.07h-1.77c0-.42-.05-.82-.14-1.19-.18-.78-.45-.89-.54-.92-.14-.06-.3-.04-.44.05-.4.26-.5.96-.56,1.62-.01.15.1.27.24.28.15.01.27-.1.28-.24.06-.8.19-1.09.29-1.19.05.06.13.22.2.52.08.33.12.69.12,1.07h-2.28v15.42c0,1.16.95,2.11,2.11,2.11h15.78c1.16,0,2.11-.95,2.11-2.11v-15.42h-1.14Zm-1.53,14.76h-14.66v-.21h14.66v.21Zm0-2.66h-14.66v-.21h14.66v.21Zm0-2.66h-14.66v-.21h14.66v.21Zm0-2.66h-14.66v-.21h14.66v.21Zm0-2.66h-14.66v-.21h14.66v.21Z" class="cls-6"/></g></g></svg>