<?xml version="1.0" encoding="UTF-8"?>
<svg xmlns="http://www.w3.org/2000/svg" onmouseup="{ if(window.parent.document.onmouseup) window.parent.document.onmouseup(arguments[0]);}" viewBox="0 0 1036.62 367.44" data-name="Layer 2" id="Layer_2" xmlns:xlink="http://www.w3.org/1999/xlink"><defs><style>
      .cls-1 {
        fill: url(#Degradado_sin_nombre_46);
      }

      .cls-1, .cls-2, .cls-3 {
        stroke-width: 0px;
      }

      .cls-2 {
        fill: #fff;
        opacity: .53;
      }

      .cls-3 {
        fill: none;
      }

      .cls-4 {
        clip-path: url(#clippath);
      }
    </style><clipPath id="clippath"><rect data-cppathid="10000" height="289.62" width="1036.62" y="77.82" class="cls-3"/></clipPath><linearGradient gradientUnits="userSpaceOnUse" y2="78.63" x2="518.31" y1="428.63" x1="518.31" data-name="Degradado sin nombre 46" id="Degradado_sin_nombre_46"><stop stop-opacity="0" stop-color="#fff" offset=".46"/><stop stop-color="#fff" offset="1"/></linearGradient></defs><g data-name="Layer 1" id="Layer_1-2"><g class="cls-4"><path data-cppathid="10001" d="m931,78.63c-65.24,0-118.13,39.96-118.13,89.24,0,11.82,3.07,23.09,8.59,33.41-6.05-1.87-12.68-2.91-19.62-2.91-10.13,0-19.57,2.2-27.55,6-15.28-20.29-44.14-33.98-77.24-33.98-35.07,0-65.38,15.36-79.83,37.65-12.68-10.51-30.95-17.11-51.26-17.11-4.67,0-9.23.35-13.64,1.02-7.48-17.86-29.59-30.8-55.7-30.8-5.1,0-10.06.5-14.77,1.43-15.46-33.07-57.18-56.77-106.25-56.77-62.23,0-112.68,38.11-112.68,85.12,0,4.56.49,9.03,1.4,13.4-7.92-1.91-16.35-2.94-25.1-2.94-13.92,0-27.03,2.61-38.54,7.21.11-1.1.18-2.2.18-3.31,0-24.37-26.15-44.13-58.42-44.13-9.16,0-17.83,1.6-25.55,4.44-7.73-28.42-41.02-49.78-80.92-49.78-13.33,0-25.92,2.4-37.07,6.64v111.55l3.69,194.64h1034.78l.37-221.92-.34-77.67c-19.12-29.83-59.57-50.41-106.38-50.41Z" class="cls-1"/></g><path data-cppathid="10002" d="m211.54,34.39c0-.55-.01-1.11-.06-1.67-.96-10.82-10.51-18.81-21.33-17.85-4.85.43-9.12,2.59-12.28,5.82-3.5-3.81-8.66-6.02-14.21-5.53-8.22.73-14.57,7.12-15.57,14.99-.14,0-.27,0-.4.02-7.44.66-12.94,7.23-12.28,14.68.66,7.44,7.23,12.94,14.68,12.28,2.34-.21,4.48-1,6.3-2.21,2.75,3.02,6.81,4.77,11.19,4.38,2.33-.21,4.46-.99,6.28-2.2,2.55,1.85,5.75,2.83,9.13,2.53,4.06-.36,7.53-2.48,9.75-5.54.27-.01.54-.01.81-.03,1.66,2.6,4.67,4.22,7.96,3.93,4.2-.37,7.41-3.73,7.75-7.79.06,0,.13,0,.19,0,4.49-.4,7.81-4.37,7.42-8.86-.29-3.25-2.45-5.88-5.32-6.94Z" class="cls-2"/><path data-cppathid="10003" d="m848.9,20.71c0-.29,0-.58-.03-.87-.5-5.63-5.47-9.79-11.1-9.29-2.52.22-4.75,1.35-6.39,3.03-1.82-1.98-4.51-3.13-7.4-2.88-4.28.38-7.58,3.71-8.1,7.8-.07,0-.14,0-.21,0-3.87.34-6.74,3.76-6.39,7.64.34,3.87,3.76,6.74,7.64,6.39,1.22-.11,2.33-.52,3.28-1.15,1.43,1.57,3.55,2.48,5.83,2.28,1.21-.11,2.32-.52,3.27-1.14,1.33.96,2.99,1.47,4.75,1.32,2.11-.19,3.92-1.29,5.07-2.88.14,0,.28,0,.42-.02.86,1.36,2.43,2.2,4.15,2.04,2.19-.19,3.86-1.94,4.04-4.05.03,0,.07,0,.1,0,2.34-.21,4.07-2.27,3.86-4.61-.15-1.69-1.27-3.06-2.77-3.61Z" class="cls-2"/><path data-cppathid="10004" d="m652.66,32.49c-.02-.53-.05-1.05-.1-1.58-1.63-18.63-18.06-32.41-36.7-30.78-7.85.69-14.84,4.01-20.18,9.02-6.34-5.34-14.72-8.27-23.63-7.49-10.9.96-20.02,7.22-25.12,16.02-1.5-1.53-3.59-2.48-5.9-2.48-4.56,0-8.26,3.7-8.26,8.26,0,.82.12,1.61.35,2.36-.02,0-.04,0-.06,0-10.03.88-17.44,9.72-16.57,19.75.88,10.03,9.72,17.44,19.75,16.57,5.68-.5,10.52-3.56,13.49-7.93,6.54,8.07,16.84,12.85,27.97,11.88,6.89-.6,13.07-3.34,17.98-7.49,6.78,6.34,16.12,9.89,26.1,9.02,9.02-.79,16.89-5.05,22.44-11.35,1.91,1.13,4.14,1.79,6.52,1.79,7.1,0,12.86-5.76,12.86-12.86,0-6.45-4.75-11.77-10.94-12.7Z" class="cls-2"/></g></svg>