<?xml version="1.0" encoding="UTF-8"?>
<svg xmlns="http://www.w3.org/2000/svg" onmouseup="{ if(window.parent.document.onmouseup) window.parent.document.onmouseup(arguments[0]);}" viewBox="0 0 1039.04 150" data-name="Layer 2" id="Layer_2"><defs><style>
      .cls-1 {
        fill: #aace37;
        opacity: .5;
        stroke-width: 0px;
      }
    </style></defs><g data-name="Layer 1" id="Layer_1-2"><path data-cppathid="10000" d="m1021.31,39.11c-2.08.49-4.08,1.32-5.94,2.39.01-.33.03-.67.03-1,0-17.08-14.23-27.55-31.85-23.71-2.38.52-4.7,1.28-6.94,2.25-8.83-14.48-26.54-21.93-47.02-18.01-17.83,3.43-33.65,14.69-43.31,29.35-2.72-1.22-5.96-1.66-9.44-1.08-5.46.91-10.34,4.12-13.54,8.41-7.72-5.94-18.24-8.73-29.85-7.04-15.51,2.26-29.12,11.94-36.69,24.73-2.8-1.47-6.19-2.11-9.84-1.65-4.36.54-8.35,2.55-11.42,5.44-6.78-8.22-17.7-12.95-30.11-12.07-3.74-5.73-10.68-9.13-18.64-8.37-5.24.5-10.04,2.72-13.78,6.02-5.63-7.56-15.23-12.04-26.15-11.2-10.89.84-20.49,6.77-26.13,15.16-10.8-7.62-24.55-11.8-39.53-11.1-6.59.31-12.95,1.54-18.93,3.56-1.33-8.54-8.99-15.09-18.26-15.09-4.69,0-8.96,1.69-12.22,4.44-5.56-2.83-11.91-4.44-18.65-4.44-10.86,0-20.69,4.17-27.88,10.92-2.03-1.13-4.37-1.79-6.89-1.79-6,0-11.1,3.7-12.96,8.85-6.86-5.52-15.71-8.85-25.36-8.85-19.26,0-35.28,13.22-38.77,30.7-4.09-2.26-8.77-3.63-13.75-3.84-3.17-.13-6.22.22-9.07.99-2.16-7.04-8.9-12.42-16.89-12.85-7.88-.43-14.55,4.09-16.8,10.74-1.79-.82-3.75-1.34-5.81-1.48-7.06-.46-12.98,3.76-14.61,9.89-4.05-3.23-9.11-5.35-14.59-5.78-.83-.07-1.65-.08-2.46-.06-1.89-11.18-12.01-19.72-24.2-19.72-9.74,0-18.16,5.45-22.12,13.34-5.83-4.43-12.89-7.43-20.5-8.27-8.58-.95-16.45,1-22.64,5.03-5.5-7.28-13.97-12.59-23.49-13.84-2.84-.38-5.58-.36-8.19,0-.9-3.84-4.38-7.09-8.53-7.68-4.43-.62-8.09,2.01-8.67,6.02-4.5-5.12-10.8-8.83-17.78-9.89-3.25-.5-6.35-.37-9.19.28-7.48-9.96-18.85-17.41-31.56-19.6-17.23-2.96-31.92,4.58-37.84,18.01-2.96-1.57-6.15-2.74-9.47-3.39-15.74-3.07-28.47,6.57-28.47,21.77,0,.53.02,1.05.05,1.58-5.97,1.21-10.47,5.37-11.92,11.31-3.11-1.81-6.48-3.18-10.01-3.95-10.11-2.22-18.96.92-23.92,7.53-2.61-1.8-5.53-3.16-8.61-3.89-11.16-2.63-20.19,3.93-20.19,14.78v77.04h1039.04V52.08c0-9.53-7.93-15.3-17.73-12.97Z" class="cls-1"/></g></svg>