<?xml version="1.0" encoding="UTF-8"?>
<svg xmlns="http://www.w3.org/2000/svg" onmouseup="{ if(window.parent.document.onmouseup) window.parent.document.onmouseup(arguments[0]);}" viewBox="0 0 280.68 170.13"><defs><style>
      .cls-1 {
        isolation: isolate;
      }

      .cls-2 {
        fill: #694327;
      }

      .cls-2, .cls-3, .cls-4, .cls-5, .cls-6, .cls-7, .cls-8, .cls-9 {
        stroke-width: 0px;
      }

      .cls-3, .cls-4, .cls-5, .cls-6 {
        mix-blend-mode: multiply;
      }

      .cls-3, .cls-9 {
        fill: #c7db50;
      }

      .cls-4 {
        fill: #99674a;
        opacity: .5;
      }

      .cls-5, .cls-6 {
        fill: #639c42;
      }

      .cls-6 {
        opacity: .6;
      }

      .cls-7 {
        fill: #10834d;
      }

      .cls-8 {
        fill: #55a547;
      }
    </style></defs><g class="cls-1"><g data-name="Layer 2" id="Layer_2"><g data-name="Layer 1" id="Layer_1-2"><g><g><polygon data-cppathid="10000" points="67.5 141.44 66.49 141.44 59.21 141.44 58.2 141.44 52.84 170.13 59.21 170.13 66.49 170.13 72.86 170.13 67.5 141.44" class="cls-2"/><path data-cppathid="10001" d="m56.96,157.53c1.09-.25,2.14-.62,3.17-1.03,2.42-.96,4.82-2.27,6.45-4.36.09-.13-1.01,2.93-1.84,4.22,1.2-.28,2.18-1.66,2.79-2.61.04-.05,1.87,1.74,2.74,2.5l-2.76-14.81h-9.31l-3.04,16.3c.61.02,1.24-.08,1.81-.21Z" class="cls-4"/></g><g><polygon data-cppathid="10002" points="164.96 141.44 163.95 141.44 156.67 141.44 155.65 141.44 150.3 170.13 156.67 170.13 163.95 170.13 170.31 170.13 164.96 141.44" class="cls-2"/><path data-cppathid="10003" d="m154.42,157.53c1.08-.25,2.13-.62,3.16-1.03,2.43-.96,4.82-2.27,6.45-4.36.1-.13-1,2.93-1.84,4.22,1.2-.29,2.18-1.66,2.79-2.61.04-.05,1.86,1.73,2.74,2.5l-2.76-14.81h-9.31l-3.04,16.3c.6.02,1.24-.08,1.81-.21Z" class="cls-4"/></g><g><polygon data-cppathid="10004" points="112.48 147.1 111.68 147.1 105.83 147.1 105.02 147.1 100.72 170.13 105.83 170.13 111.68 170.13 116.79 170.13 112.48 147.1" class="cls-2"/><path data-cppathid="10005" d="m104.03,160.01c.87-.19,1.71-.49,2.54-.82,1.95-.77,3.87-1.83,5.18-3.5.08-.11-.8,2.35-1.47,3.38.96-.22,1.74-1.33,2.23-2.09.03-.06,1.49,1.38,2.2,2l-2.22-11.88h-7.46l-2.44,13.07c.49.03.98-.06,1.45-.17Z" class="cls-4"/></g><g><polygon data-cppathid="10006" points="239.32 146.81 238.5 146.81 232.58 146.81 231.76 146.81 227.41 170.13 232.58 170.13 238.5 170.13 243.68 170.13 239.32 146.81" class="cls-2"/><path data-cppathid="10007" d="m230.76,159.88c.89-.19,1.73-.49,2.57-.83,1.97-.79,3.92-1.85,5.24-3.55.09-.11-.81,2.39-1.49,3.44.98-.23,1.77-1.35,2.26-2.12.04-.06,1.51,1.41,2.23,2.02l-2.24-12.03h-7.56l-2.48,13.24c.5.02,1.01-.06,1.47-.17Z" class="cls-4"/></g><g><g><path data-cppathid="10008" d="m118.38,141.77c.29-.14-7.37-6.55-10.76-10.56,2.95.19,5.94-.12,8.96-1,.71-.22-11.06-11.5-15.99-16.73,1.64.92,7.84,3.99,9.61,4.33.87.15-9.7-10.24-12.04-13.19,3.42,1.51,7.05,1.81,10.59,1.12.77-.15-10.91-13.89-15.89-19.99,2.99.87,6.08,1.02,9.03.3.81-.2-5.69-4.86-7.81-6.79,3.57,1.32,7.28,1.65,10.97.39.69-.24-8.03-8.31-13.97-14.84,2.16-.04,4.47-.43,6.13-1.76.02-.01.14-.14.07-.17-6.75-3.61-13.4-8.01-17.75-14.34,4.27,4.49,10.14,5.86,14.94,4.45.04,0,.06-.04.09-.07-.37-.24-.73-.5-1.09-.76-2.92-2.13-12.66-11.33-14.87-13.79,1.4.69,2.83,1.08,4.35,1.18-1.71-1.55-3.31-3.31-4.64-5.33-1.43-1.45-2.77-3.11-4-5-1.4-2.16-3.68-6.4-4.54-7.42,2.91,3.42,6.13,6.73,9.88,6.72,0,0,.02,0,.03-.01-8.24-6.66-14.39-17.7-19.2-28.5-2.39,4.9-5.26,9.49-8.01,13.95-3.36,5.46-7.05,10.81-11.63,14.52.05.03.12.05.2.05,3.74.01,6.96-3.3,9.88-6.72-.86,1.02-3.15,5.26-4.55,7.42-2.41,3.72-9.3,10.38-8.83,10.35,1.59-.07,3.09-.47,4.55-1.2-4.7,5.24-16.5,14.45-15.86,14.62,4.97,1.46,11.11-.05,15.41-4.95-.26.36-.55.71-.77,1.04-.76,1.08-1.48,2.19-2.26,3.27-1.49,2.1-3.07,4.16-4.85,6.02-3.35,3.51-7.51,6.4-12.24,7.71-.03,0-.17.15-.11.17,1.91.84,3.98,1.03,6.02.88-5.68,5.98-12.43,12.31-11.8,12.52,3.69,1.26,7.4.93,10.97-.39-2.11,1.93-8.62,6.59-7.81,6.79,2.94.73,6.04.57,9.03-.3-4.97,6.09-16.66,19.84-15.88,19.99,3.55.69,7.17.38,10.59-1.12-2.33,2.95-12.46,12.03-11.57,11.87,1.77-.32,7.5-2.09,9.14-3.01-4.94,5.23-16.71,16.51-16,16.73,4.89,1.42,9.7,1.35,14.41.12-.25.2-.5.39-.75.58C12.48,135.07-.58,141.97.02,142.45c5.39,4.24,14.85,1.43,20.62-.07.19-.05.39-.11.58-.16-3.85,3.98-14.04,11.8-13.29,11.88,7.58.81,15.38-1.17,22.74-5.28-.07.09-.15.17-.22.26-.19.23-7,5.67-6.25,5.81,2.97.54,11.98-3.33,15.12-4.73-1.01,1.19-4.76,6.06-3.74,5.92,4.04-.59,8.59-2.33,12.95-5.14-.76,1.2-2.16,4.6-1.77,4.56,4.2-.5,8.4-3.63,12.28-6.03-.66,1.67-1.92,5.64-1.5,5.59,4.02-.49,8.32-3.68,11.81-7.83,2.36,4,5.3,7.49,8.95,9.49.5.28.89-5.68.75-7.8,3.8,5.74,9.18,9.42,15.1,7.69.47-.13-1.75-6.17-2.83-8.48,1.07,1,2.14,1.98,3.24,2.92,5.98,2.56,12.15,3.69,18.2,3.05.76-.09-9.73-8.01-13.63-12.23-.69-.75-1.38-1.51-2.05-2.26,1.61.81,3.3,1.47,5.09,1.94,5.38,1.39,10.96,2.83,16.22.22Z" class="cls-7"/><path data-cppathid="10009" d="m118.38,141.77c.29-.14-7.37-6.55-10.76-10.56,2.95.19,5.94-.12,8.96-1,.71-.22-11.06-11.5-15.99-16.73,1.64.92,7.84,3.99,9.61,4.33.87.15-9.7-10.24-12.04-13.19,3.42,1.51,7.05,1.81,10.59,1.12.77-.15-10.91-13.89-15.89-19.99,2.99.87,6.08,1.02,9.03.3.81-.2-5.69-4.86-7.81-6.79,3.57,1.32,7.28,1.65,10.97.39.69-.24-8.03-8.31-13.97-14.84,2.16-.04,4.47-.43,6.13-1.76.02-.01.14-.14.07-.17-6.75-3.61-13.4-8.01-17.75-14.34,4.27,4.49,10.14,5.86,14.94,4.45.04,0,.06-.04.09-.07-.37-.24-.73-.5-1.09-.76-2.92-2.13-12.66-11.33-14.87-13.79,1.4.69,2.83,1.08,4.35,1.18-1.71-1.55-3.31-3.31-4.64-5.33-1.43-1.45-2.77-3.11-4-5-1.4-2.16-3.68-6.4-4.54-7.42,2.91,3.42,6.13,6.73,9.88,6.72,0,0,.02,0,.03-.01-8.17-6.6-14.27-17.5-19.07-28.21.14,3.18.62,6.36,1.6,9.41,1.18,3.66,2.98,7.06,5.26,10.16.11.13-.09.3-.22.22-2.02-1.23-4.54-2.71-5.66-4.92.12,1.38.17,2.75.3,4.12,0,.15-.18.21-.28.12-.93-.87-1.75-1.98-2.32-3.18-.21,1.12-.54,2.25-1.28,3.04-.08.09-.24.05-.27-.07-.2-.85-.29-1.77-.24-2.68-.35.57-.73,1.11-1.09,1.66-1.06,1.59-1.93,3.41-3.58,4.49-.12.07-.28-.06-.24-.19.53-1.73,1.25-3.53,1.4-5.36-.86,1.42-2.01,2.72-3.4,3.43-.11.06-.29-.04-.24-.18.37-.97.94-1.87,1.31-2.83-3.02,4-6.04,8.09-10.19,10.96,3.55-.22,6.65-3.41,9.45-6.7-.86,1.02-3.15,5.26-4.55,7.42-2.41,3.72-9.3,10.38-8.83,10.35.07,0,.14,0,.2-.01,2.09-1.23,3.98-2.79,5.68-4.5,2.14-2.13,4.08-4.53,5.44-7.23.1-.19.37-.03.29.16-.86,1.94-1.99,3.72-3.24,5.42,2.83-1.34,5-3.83,7.21-5.97.13-.13.34.03.26.2-.45.83-.86,1.66-1.32,2.48,1.33-.97,2.33-2.34,3.53-3.48.12-.11.3,0,.27.16-.26,1.13-.78,2.22-.93,3.38,1.33-1.47,2.29-3.23,3.45-4.83.1-.14.35-.07.3.12-.46,1.45-.77,2.96-.89,4.47-.09,1.31-.12,2.8.51,3.99.98-2.77,1.86-5.6,3.68-7.97.11-.14.35-.07.3.13-.24.95-.51,1.93-.41,2.91.81-1.09,1.12-2.48,2.16-3.43.1-.08.28-.03.28.12-.07,2.66.86,5.33,2.02,7.7.26.51.53,1.01.81,1.5-.61-2.51-.9-5.07-.79-7.7.01-.19.26-.21.31-.04,1.09,3.06,2.16,6.22,4.04,8.91,1.68,2.4,3.85,4.44,5.47,6.89.08.12-.06.27-.19.24-2.35-.61-4.08-2.46-5.71-4.22.97,1.71,2.27,3.24,3.25,4.95.08.12-.04.28-.17.23-1.79-.45-3.6-1.11-5.19-2.09-.46-.29-.93-.62-1.35-.97.37,1.1.74,2.21,1.26,3.26.07.16-.13.34-.26.2-1.41-1.65-2.95-3.35-3.64-5.43-.08,1.54-.29,3.06-.58,4.56-.03.18-.27.14-.31,0-.37-.93-.54-1.97-.55-2.98-.7,1.83-1.43,3.74-2.88,5.08-.12.12-.31,0-.27-.16.21-.98.46-1.96.67-2.95-2.35,3.17-5.56,5.82-9.36,6.76-.12.04-.27-.12-.18-.24,1.26-1.65,2.4-3.37,3.47-5.14-.83.64-1.68,1.23-2.58,1.77-1.46.86-2.98,1.7-4.51,2.44-1.17.58-2.59,1.26-3.93.99-.11-.02-.16-.15-.11-.24.77-1.21,1.9-2.1,2.78-3.22.51-.66.86-1.42,1.24-2.17-.89.89-1.94,1.65-3.17,1.76-.16.01-.21-.18-.12-.27.81-.89,1.33-1.94,1.86-2.98-3.33,3.7-7.96,5.94-12.22,8.38-1.49.86-3.07,1.62-4.7,2.14-.48.16-1.33.45-2.07.45,4.9,1.24,10.8-.32,14.99-5.07-.26.36-.55.71-.77,1.04-.76,1.08-1.48,2.19-2.26,3.27-1.27,1.8-2.61,3.55-4.08,5.18.06-.03.11-.05.17-.09.91-.51,1.83-1.04,2.71-1.62,2.01-1.35,3.9-2.97,6.18-3.88.15-.06.24.13.19.23-1.1,2.12-3.09,3.48-4.61,5.26,4.3-.54,8.26-2.43,12.26-4.01.15-.05.27.18.15.28-.75.67-1.57,1.25-2.33,1.92,1.48-.35,2.75-1.29,4.06-2,.19-.09.34.17.17.29-.9.59-1.59,1.4-2.39,2.11-.65.58-5.15,3.19-6.26,4.47,1.21.07,6.1-1.89,7.37-2.45,3.18-1.39,6.21-2.9,9.13-4.78.16-.11.31.12.19.26-.65.71-1.29,1.43-1.93,2.14,1.56-.69,2.79-2.15,3.83-3.43.09-.12.26-.01.27.12.2,2.38.5,4.96,1.35,7.27,0-.19,0-.39,0-.57.06-1.97.38-3.92.7-5.86.02-.14.23-.16.29-.05.82,1.59,1.42,3.32,2.45,4.79-.25-2.16-.49-4.34-.1-6.5.03-.16.27-.15.31,0,.35,1.36.89,2.67,1.69,3.83-.07-1.44-.33-2.88.12-4.27.05-.16.25-.14.31,0,1.09,2.73,2.7,5.24,4.68,7.41,1.88,2.08,4.04,3.91,5.84,6.07.1.13,0,.32-.16.28-1.91-.46-3.79-1.27-5.53-2.33,1.15,3.22,3.92,5.9,6.48,7.95.11.1.02.29-.11.28-1.72-.06-3.42-.6-4.95-1.35-1.42-.68-2.79-1.55-3.87-2.69.21,1.21.55,2.38.79,3.58.03.16-.15.28-.27.16-.84-.79-1.45-1.77-1.91-2.83.06,2.14.32,4.27.77,6.36.04.17-.15.27-.27.17-1.59-1.28-2.66-3.32-3.16-5.45-.88,2.31-1.61,4.67-2.03,7.13-.03.12-.19.16-.27.08-1.38-1.57-1.82-3.62-2.09-5.68-.71.76-1.49,1.47-2.3,2.12-1.74,1.44-3.62,3.3-5.94,3.67-.12.02-.25-.06-.2-.2.3-.91.99-1.61,1.49-2.42.31-.5.54-1.04.77-1.57-1.35,1.52-3.28,2.62-5.01,3.56-.13.08-.33-.08-.22-.22.77-1.08,1.35-2.26,1.93-3.46-1.48,1.05-3.04,1.97-4.64,2.76-1.91.95-3.91,1.75-5.88,2.55-1.87.76-3.91,1.57-5.96,1.47-.14-.01-.21-.17-.12-.28,1.64-1.69,3.63-2.96,5.34-4.54-2.55,1.42-5.15,2.89-8.08,3.32-.18.02-.28-.18-.13-.3,1.8-1.28,3.63-2.51,5.34-3.9-.33.16-.66.32-.99.47-1.09.51-2.22.96-3.35,1.4-1.02.39-2.09.77-3.2.67-.13-.01-.22-.17-.11-.27,2.29-2.21,4.59-4.39,6.66-6.8-1.88,1.22-3.54,2.75-5.41,3.98-2.2,1.45-4.54,2.68-6.94,3.77-2.35,1.07-4.76,2.1-7.21,2.88-1.6.5-3.22.86-4.87.89,3.66,1.23,7.33.9,10.88-.42-2.11,1.93-8.62,6.59-7.81,6.79,2.94.73,6.04.57,9.03-.3-1.59,1.95-3.86,4.67-6.2,7.49,2.03-.36,3.99-1.31,5.75-2.28,2.46-1.37,4.75-3.01,7.22-4.36.13-.08.32.08.22.22-1.26,1.72-2.89,3.1-4.47,4.52,2.89-.71,5.25-2.64,7.82-4.08.15-.08.34.12.19.25-2.44,2.2-4.83,4.52-7.68,6.2,2.98-.05,5.95-.83,8.73-1.86,3.03-1.12,5.95-2.56,8.67-4.32.13-.08.31.08.22.22-.85,1.2-1.87,2.27-2.75,3.44,1.87-.68,3.24-2.24,4.75-3.5.11-.09.33-.01.26.16-1.25,3.11-3.14,5.98-5.59,8.24,1.84-.53,3.56-1.51,5.16-2.55,2.27-1.47,4.41-3.17,6.8-4.43.14-.06.31.08.23.22-.82,1.3-1.6,2.62-2.35,3.96,2.09-1.33,3.54-3.47,5.27-5.21.1-.1.26-.02.27.11.13,1.93.21,4.09,1.36,5.72.54-1.75.61-3.6,1.09-5.37.05-.16.26-.14.31,0,.61,1.68,1.53,3.38,3.15,4.28.2-1.47,0-2.97.37-4.41.03-.13.23-.16.29-.04.62,1.13,1.15,2.29,2.1,3.18.04-1.03-.14-2.07-.15-3.09,0-.2.26-.21.32-.05.95,2.45,3.54,3.82,5.78,4.94.11-1.75-.88-3.4-.68-5.17,0-.13.17-.23.27-.11,1.51,1.69,3.16,3.31,5.08,4.54,1.45.91,3,1.61,4.63,2.12-.31-.67-.58-1.35-.82-2.03-.73-2.1-1.29-4.44-.85-6.66.03-.15.23-.15.3-.04,3.33,5.15,6.13,10.76,11.43,14.2.14.1.05.37-.13.29-2.04-.81-3.92-1.91-5.71-3.17,2.9,3.61,6.16,6.88,9.92,9.61.1.07.11.27-.04.3-3.16.56-6.48-.03-9.44-1.2-1.25-.5-2.49-1.1-3.64-1.82,1,1.55,2.09,3.03,3.39,4.34,2.08,2.12,4.76,3.56,6.73,5.79.07.08.07.2-.03.26-1.67.87-3.91.36-5.63-.09-1.87-.5-3.7-1.17-5.51-1.88-1.62-.63-3.21-1.38-4.71-2.28.93,1.49,1.89,2.96,2.84,4.42.08.14-.09.31-.23.23-1.79-1.21-3.89-2.43-5.38-4.1.74,1.51,1.52,2.99,2.61,4.27,1.3,1.53,3.21,2.62,4.06,4.49.03.11-.02.24-.14.24-1.63-.03-3.17-.96-4.49-1.82-1.48-.98-2.86-2.07-4.24-3.16-2.17-1.69-4.23-3.77-5.66-6.19.07,2.31.32,4.62.95,6.87.04.17-.16.25-.27.16-1.68-1.38-3.16-3.39-3.68-5.57-.26,3.13-.59,6.26-.27,9.41.01.13-.19.22-.28.1-1.29-1.56-2.46-3.3-3.3-5.18-.24-.54-.47-1.12-.66-1.7-.87,1.09-1.83,2.11-2.85,3.05-1.44,1.32-3.05,2.58-4.92,3.23-.13.05-.27-.13-.18-.24.76-1.01,1.37-2.1,1.94-3.21-.53.67-1.11,1.29-1.71,1.84-1.09,1.03-2.31,2.04-3.75,2.54-.11.03-.23-.09-.2-.2.31-.92.71-1.81,1.13-2.67-1.76,1.43-3.69,2.67-5.66,3.79-1.94,1.1-3.94,2.11-5.97,3.06-1.86.87-3.88,1.76-5.98,1.69-.16,0-.24-.22-.08-.3,4.42-2.18,8.11-5.53,11.4-9.22-1.29.78-2.62,1.48-3.96,2.14-3.46,1.71-7.03,3.63-10.88,4.21-.19.02-.27-.18-.13-.29,1.35-1.05,2.65-2.14,3.86-3.33-1.94,1.26-3.84,2.59-5.87,3.71-2.23,1.22-4.69,2.34-7.29,2.3-.13,0-.23-.2-.11-.28,2.76-2.16,5.7-4.13,7.83-6.95-4.09,2.99-8.25,5.92-12.8,8.2-3.24,1.62-6.6,3.68-10.19,4.55,4.57,1.16,9.09,1.03,13.5-.13-.25.2-.5.39-.75.58-4.18,3.32-13.27,8.33-16.55,10.5,3.79.02,7.55-.93,11.11-2.19,4.33-1.53,8.46-3.55,12.61-5.49.17-.07.34.12.19.25-1.9,1.91-3.98,3.61-6.31,4.96,7.04-.52,13.12-4.58,19.62-6.95.14-.05.26.12.18.23-1.46,2.21-3.54,3.71-5.67,5.17,2.57-.03,5.16-.97,7.45-2.02,2.76-1.25,5.36-2.8,7.91-4.42.1-.07.26.01.24.14-.14,1.65-.97,3.02-1.91,4.34,1.53-.8,2.69-2.2,3.88-3.41.11-.1.33,0,.28.17-.78,1.97-2.37,3.37-3.76,4.91,3.58-1.15,6.66-3.66,9.72-5.76.13-.08.27.06.24.19-.34,1.56-1.4,2.75-2.54,3.8-1.13,1.05-2.46,2.04-3.14,3.45,4.28-1.16,7.97-3.74,11.65-6.11.09-.05.22,0,.24.1.25,1.3.67,2.54,1.34,3.69.28-1.47.65-2.92,1.11-4.35.04-.14.28-.16.31,0,.57,2.63,2.47,4.68,4.08,6.75.24-2.68.45-5.41,1.7-7.84.06-.13.26-.09.29.04.91,3.14,2.86,5.58,5.06,7.84.02-2.19.36-4.42.29-6.61,0-.19.28-.22.33-.04.53,2.07,1.28,4.25,2.56,6-.14-2.64-.25-5.28.84-7.75.05-.13.27-.1.29.03.98,6.94,4.12,13.4,7.64,19.38.08.13-.08.31-.22.22-1.94-1.23-3.55-2.88-4.95-4.7.71,2.24,1.54,4.45,2.54,6.59.05.14-.08.33-.23.23-3.52-2.52-7.15-5.29-8.92-9.35-.24,3.32-.43,6.66-.07,9.99.01.16-.18.19-.28.11-2.41-2-3.77-4.82-5.41-7.41-.43-.71-.82-1.46-1.19-2.19-.52.81-1.1,1.6-1.71,2.33-1.44,1.75-3.42,3.78-5.84,3.9-.13,0-.19-.14-.14-.24.61-1.43,1.13-2.88,1.56-4.36-.03.05-.08.08-.11.12-.92.95-2.04,1.98-3.42,2.1-.16.02-.19-.17-.11-.27,1.43-1.79,2.24-3.9,2.99-6.03-1.37,1.94-2.94,3.77-4.69,5.38-2,1.88-4.26,3.53-6.85,4.48-.15.05-.24-.12-.19-.23,1-2.01,1.94-4.06,2.62-6.2-1.51,1.38-3.06,2.71-4.74,3.86-2.57,1.79-5.6,3.42-8.83,3.24-.13,0-.23-.18-.11-.27,2.13-1.85,3.35-4.56,4.18-7.27-1.51,1.45-3.1,2.8-4.8,3.98-2.48,1.73-5.4,3.33-8.51,3.3-.13,0-.18-.13-.14-.25,1.34-2.68,2.79-5.3,3.8-8.12-8.04,5-16.75,10.31-26.33,11.35,7.26.54,14.68-1.45,21.72-5.37-.07.09-.15.17-.22.26-.19.23-7,5.67-6.25,5.81,2.97.54,11.98-3.33,15.12-4.73-1.01,1.19-4.76,6.06-3.74,5.92,4.04-.59,8.59-2.33,12.95-5.14-.76,1.2-2.16,4.6-1.77,4.56,4.2-.5,8.4-3.63,12.28-6.03-.66,1.67-1.92,5.64-1.5,5.59,4.02-.49,8.32-3.68,11.81-7.83,2.36,4,5.3,7.49,8.95,9.49.5.28.89-5.68.75-7.8,3.8,5.74,9.18,9.42,15.1,7.69.47-.13-1.75-6.17-2.83-8.48,1.07,1,2.14,1.98,3.24,2.92,5.98,2.56,12.15,3.69,18.2,3.05.76-.09-9.73-8.01-13.63-12.23-.69-.75-1.38-1.51-2.05-2.26,1.61.81,3.3,1.47,5.09,1.94,5.38,1.39,10.96,2.83,16.22.22Z" class="cls-5"/></g><g><path data-cppathid="10010" d="m215.84,141.77c.29-.14-7.37-6.55-10.76-10.56,2.95.18,5.94-.12,8.96-1.01.71-.22-11.06-11.5-15.99-16.73,1.64.92,7.83,3.99,9.61,4.33.88.16-9.7-10.24-12.04-13.19,3.42,1.51,7.05,1.81,10.6,1.12.77-.15-10.91-13.89-15.89-19.99,2.99.87,6.08,1.02,9.02.3.82-.2-5.69-4.86-7.8-6.79,3.57,1.33,7.28,1.65,10.97.39.69-.24-8.03-8.31-13.97-14.84,2.15-.04,4.47-.43,6.12-1.75.02-.02.14-.14.07-.17-6.75-3.6-13.4-8.01-17.75-14.34,4.27,4.49,10.14,5.86,14.94,4.45.04,0,.06-.04.09-.07-.36-.24-.73-.5-1.09-.76-2.92-2.13-12.66-11.33-14.87-13.79,1.39.69,2.83,1.08,4.35,1.18-1.71-1.56-3.31-3.31-4.63-5.33-1.43-1.45-2.77-3.12-4-5-1.4-2.16-3.68-6.4-4.54-7.42,2.91,3.42,6.13,6.74,9.88,6.72,0,0,.02,0,.03-.01-8.24-6.65-14.39-17.7-19.2-28.5-2.39,4.89-5.26,9.49-8,13.95-3.36,5.46-7.06,10.82-11.64,14.52.05.03.12.05.2.05,3.74.02,6.96-3.3,9.88-6.72-.87,1.02-3.15,5.26-4.55,7.42-2.42,3.72-9.3,10.38-8.83,10.35,1.6-.07,3.1-.48,4.56-1.2-4.71,5.24-16.5,14.45-15.87,14.63,4.98,1.46,11.11-.05,15.42-4.95-.27.36-.55.72-.78,1.05-.76,1.08-1.48,2.19-2.26,3.27-1.49,2.1-3.07,4.15-4.85,6.02-3.35,3.51-7.52,6.4-12.24,7.71-.03,0-.17.15-.11.17,1.91.84,3.98,1.03,6.02.88-5.68,5.98-12.43,12.31-11.81,12.52,3.69,1.26,7.4.93,10.97-.39-2.11,1.93-8.62,6.59-7.81,6.79,2.94.73,6.03.57,9.03-.3-4.98,6.09-16.66,19.84-15.88,19.99,3.55.69,7.18.38,10.6-1.12-2.34,2.95-12.46,12.03-11.58,11.87,1.77-.32,7.5-2.09,9.14-3.01-4.94,5.23-16.71,16.51-15.99,16.73,4.88,1.43,9.7,1.35,14.4.12-.26.2-.5.39-.75.58-5.28,4.17-18.34,11.07-17.74,11.54,5.38,4.24,14.84,1.43,20.62-.08.19-.05.38-.1.57-.15-3.84,3.97-14.04,11.79-13.29,11.88,7.57.81,15.37-1.18,22.74-5.28-.07.08-.14.17-.22.26-.19.23-7,5.67-6.25,5.81,2.97.54,11.98-3.33,15.12-4.73-1.01,1.19-4.76,6.06-3.74,5.92,4.04-.58,8.6-2.33,12.95-5.14-.76,1.2-2.16,4.6-1.77,4.56,4.2-.5,8.4-3.64,12.28-6.03-.65,1.67-1.91,5.64-1.49,5.59,4.02-.49,8.32-3.68,11.81-7.82,2.37,4,5.3,7.49,8.95,9.49.5.28.88-5.67.75-7.8,3.81,5.74,9.19,9.42,15.1,7.69.47-.13-1.75-6.17-2.83-8.48,1.07,1,2.14,1.98,3.24,2.92,5.98,2.56,12.15,3.69,18.21,3.05.75-.09-9.73-8.01-13.64-12.23-.69-.75-1.37-1.51-2.04-2.27,1.61.81,3.3,1.47,5.08,1.95,5.38,1.38,10.97,2.83,16.23.21Z" class="cls-7"/><path data-cppathid="10011" d="m215.84,141.77c.29-.14-7.37-6.55-10.76-10.56,2.95.18,5.94-.12,8.96-1.01.71-.22-11.06-11.5-15.99-16.73,1.64.92,7.83,3.99,9.61,4.33.88.16-9.7-10.24-12.04-13.19,3.42,1.51,7.05,1.81,10.6,1.12.77-.15-10.91-13.89-15.89-19.99,2.99.87,6.08,1.02,9.02.3.82-.2-5.69-4.86-7.8-6.79,3.57,1.33,7.28,1.65,10.97.39.69-.24-8.03-8.31-13.97-14.84,2.15-.04,4.47-.43,6.12-1.75.02-.02.14-.14.07-.17-6.75-3.6-13.4-8.01-17.75-14.34,4.27,4.49,10.14,5.86,14.94,4.45.04,0,.06-.04.09-.07-.36-.24-.73-.5-1.09-.76-2.92-2.13-12.66-11.33-14.87-13.79,1.39.69,2.83,1.08,4.35,1.18-1.71-1.56-3.31-3.31-4.63-5.33-1.43-1.45-2.77-3.12-4-5-1.4-2.16-3.68-6.4-4.54-7.42,2.91,3.42,6.13,6.74,9.88,6.72,0,0,.02,0,.03-.01-8.17-6.6-14.28-17.5-19.07-28.21.14,3.18.63,6.35,1.61,9.41,1.18,3.66,2.98,7.06,5.26,10.16.11.13-.09.3-.22.22-2.02-1.23-4.54-2.71-5.66-4.92.12,1.38.16,2.75.3,4.12,0,.15-.19.21-.28.12-.93-.87-1.75-1.98-2.32-3.18-.21,1.12-.54,2.25-1.28,3.04-.08.09-.24.05-.27-.07-.2-.85-.28-1.77-.24-2.68-.34.57-.72,1.11-1.09,1.66-1.06,1.59-1.92,3.41-3.57,4.49-.13.07-.28-.06-.24-.19.53-1.73,1.25-3.53,1.4-5.36-.86,1.42-2.01,2.73-3.4,3.43-.12.06-.29-.04-.24-.18.37-.97.94-1.87,1.31-2.83-3.02,4-6.04,8.09-10.19,10.96,3.55-.23,6.65-3.41,9.45-6.71-.87,1.02-3.15,5.26-4.55,7.42-2.42,3.72-9.3,10.38-8.83,10.35.07,0,.14,0,.2,0,2.09-1.23,3.98-2.8,5.68-4.51,2.14-2.13,4.08-4.53,5.44-7.23.1-.18.37-.03.29.17-.86,1.94-1.98,3.72-3.25,5.42,2.83-1.34,5-3.83,7.21-5.97.14-.13.35.03.27.2-.45.82-.86,1.66-1.32,2.48,1.33-.97,2.33-2.34,3.53-3.48.12-.11.3,0,.27.16-.27,1.13-.79,2.22-.93,3.38,1.33-1.47,2.28-3.23,3.45-4.83.1-.14.35-.07.29.13-.45,1.44-.76,2.96-.88,4.46-.09,1.31-.12,2.8.51,4,.98-2.77,1.86-5.61,3.68-7.97.11-.14.34-.07.3.13-.24.95-.51,1.93-.41,2.91.81-1.09,1.12-2.48,2.16-3.43.09-.08.27-.03.27.12-.07,2.66.85,5.33,2.02,7.7.26.51.53,1.01.81,1.5-.61-2.51-.9-5.08-.79-7.7.01-.19.26-.21.31-.04,1.09,3.06,2.16,6.22,4.04,8.91,1.68,2.41,3.84,4.44,5.46,6.89.08.12-.05.28-.19.24-2.35-.61-4.08-2.46-5.7-4.21.97,1.71,2.26,3.23,3.25,4.95.07.12-.05.28-.18.23-1.8-.45-3.61-1.11-5.19-2.09-.45-.29-.92-.62-1.34-.97.38,1.11.75,2.21,1.26,3.26.08.15-.13.34-.27.2-1.41-1.65-2.94-3.35-3.63-5.43-.08,1.54-.29,3.06-.59,4.56-.03.17-.27.13-.31,0-.37-.94-.54-1.97-.55-2.99-.7,1.84-1.43,3.74-2.88,5.08-.12.11-.31,0-.27-.16.21-.98.46-1.96.67-2.94-2.35,3.17-5.57,5.82-9.36,6.76-.12.03-.28-.12-.18-.24,1.27-1.65,2.4-3.37,3.47-5.14-.83.64-1.68,1.23-2.58,1.77-1.46.86-2.98,1.7-4.52,2.44-1.17.57-2.58,1.26-3.93.99-.1-.02-.16-.15-.1-.24.77-1.22,1.89-2.1,2.77-3.22.51-.66.86-1.42,1.24-2.16-.89.89-1.94,1.65-3.17,1.76-.15.01-.21-.17-.12-.27.81-.89,1.33-1.94,1.86-2.99-3.32,3.7-7.96,5.94-12.22,8.38-1.49.85-3.07,1.62-4.7,2.14-.48.16-1.33.45-2.07.45,4.89,1.25,10.8-.32,14.99-5.07-.27.36-.55.72-.78,1.05-.76,1.08-1.48,2.19-2.26,3.27-1.27,1.79-2.61,3.55-4.08,5.18.06-.03.11-.05.17-.09.91-.51,1.84-1.04,2.71-1.62,2.02-1.35,3.91-2.97,6.18-3.88.15-.06.25.13.19.23-1.1,2.12-3.09,3.48-4.61,5.26,4.3-.55,8.26-2.43,12.26-4.01.16-.05.27.18.16.28-.75.66-1.57,1.25-2.33,1.92,1.48-.35,2.75-1.29,4.06-2,.19-.09.34.17.17.29-.9.58-1.59,1.4-2.39,2.11-.66.59-5.15,3.19-6.26,4.48,1.2.07,6.09-1.89,7.37-2.44,3.18-1.39,6.21-2.9,9.13-4.78.16-.1.31.12.19.26-.65.71-1.29,1.43-1.94,2.15,1.56-.7,2.79-2.15,3.83-3.44.09-.11.26,0,.27.12.2,2.38.5,4.96,1.35,7.27,0-.19,0-.39,0-.57.06-1.97.38-3.91.7-5.85.02-.14.23-.16.29-.05.82,1.59,1.43,3.32,2.45,4.79-.25-2.17-.49-4.34-.1-6.51.03-.16.27-.15.31,0,.35,1.36.89,2.67,1.68,3.83-.07-1.44-.33-2.87.12-4.27.05-.16.25-.14.31,0,1.09,2.73,2.71,5.24,4.68,7.42,1.88,2.08,4.04,3.91,5.83,6.06.11.13.02.32-.15.28-1.91-.46-3.78-1.27-5.53-2.33,1.15,3.21,3.92,5.9,6.48,7.95.1.1.02.29-.11.28-1.72-.06-3.42-.6-4.95-1.35-1.42-.68-2.79-1.54-3.87-2.69.2,1.21.54,2.38.79,3.58.04.16-.15.28-.28.16-.83-.79-1.45-1.77-1.91-2.82.06,2.14.32,4.27.77,6.36.04.17-.15.27-.27.17-1.59-1.28-2.66-3.32-3.16-5.45-.88,2.31-1.61,4.67-2.03,7.13-.02.12-.19.16-.27.08-1.39-1.57-1.82-3.62-2.08-5.68-.72.76-1.49,1.47-2.3,2.13-1.74,1.44-3.62,3.3-5.94,3.67-.12.02-.25-.06-.21-.2.3-.91.99-1.61,1.49-2.42.31-.5.54-1.04.77-1.57-1.35,1.52-3.28,2.62-5.01,3.56-.13.08-.33-.08-.22-.22.77-1.08,1.35-2.26,1.93-3.46-1.47,1.05-3.04,1.96-4.65,2.76-1.91.95-3.9,1.75-5.88,2.55-1.87.76-3.91,1.57-5.97,1.47-.13-.01-.21-.18-.11-.28,1.64-1.68,3.63-2.96,5.34-4.54-2.55,1.42-5.15,2.89-8.08,3.32-.18.02-.28-.19-.13-.3,1.79-1.29,3.62-2.51,5.33-3.91-.33.16-.66.32-.99.47-1.1.51-2.22.97-3.35,1.39-1.02.4-2.08.77-3.2.67-.13-.01-.22-.17-.11-.27,2.28-2.21,4.59-4.39,6.66-6.8-1.88,1.22-3.54,2.74-5.41,3.98-2.2,1.44-4.54,2.68-6.94,3.77-2.35,1.07-4.76,2.11-7.22,2.88-1.59.5-3.22.86-4.86.89,3.66,1.23,7.33.9,10.88-.42-2.11,1.93-8.62,6.59-7.81,6.79,2.94.73,6.03.57,9.03-.3-1.59,1.95-3.86,4.67-6.2,7.5,2.03-.36,3.99-1.31,5.74-2.29,2.46-1.37,4.75-3.01,7.22-4.36.13-.08.32.08.22.22-1.26,1.72-2.89,3.1-4.47,4.51,2.9-.71,5.26-2.64,7.82-4.08.15-.08.34.12.19.25-2.45,2.21-4.84,4.52-7.69,6.2,2.99-.05,5.95-.83,8.74-1.86,3.03-1.12,5.94-2.57,8.66-4.32.13-.08.32.08.23.22-.85,1.19-1.87,2.27-2.76,3.43,1.88-.68,3.25-2.24,4.75-3.5.11-.1.33-.01.26.15-1.25,3.11-3.14,5.98-5.59,8.25,1.84-.53,3.56-1.51,5.15-2.55,2.27-1.47,4.4-3.17,6.8-4.43.14-.06.31.08.23.22-.83,1.3-1.6,2.62-2.34,3.96,2.08-1.33,3.54-3.47,5.26-5.21.1-.1.25-.02.27.11.12,1.93.21,4.09,1.36,5.72.54-1.75.61-3.6,1.09-5.37.05-.16.26-.14.32,0,.61,1.69,1.53,3.39,3.15,4.28.2-1.47,0-2.97.36-4.41.03-.13.23-.16.3-.04.62,1.13,1.15,2.29,2.1,3.18.04-1.03-.14-2.06-.15-3.09,0-.2.25-.21.32-.05.95,2.45,3.54,3.82,5.77,4.95.11-1.76-.88-3.4-.68-5.17,0-.13.17-.23.27-.11,1.51,1.7,3.16,3.31,5.08,4.54,1.45.91,3,1.61,4.63,2.12-.31-.67-.58-1.35-.82-2.02-.73-2.1-1.29-4.45-.84-6.66.03-.15.23-.15.3-.05,3.33,5.15,6.12,10.76,11.42,14.2.15.1.06.37-.12.3-2.05-.81-3.92-1.92-5.72-3.17,2.9,3.61,6.17,6.88,9.93,9.6.1.07.11.27-.04.3-3.16.56-6.47-.03-9.44-1.19-1.25-.5-2.49-1.1-3.64-1.82.99,1.55,2.09,3.02,3.39,4.33,2.07,2.12,4.75,3.57,6.72,5.79.06.08.06.21-.03.27-1.67.87-3.91.35-5.63-.1-1.87-.5-3.71-1.17-5.51-1.88-1.62-.63-3.21-1.38-4.71-2.29.93,1.49,1.89,2.96,2.84,4.43.08.13-.09.31-.23.23-1.8-1.21-3.89-2.43-5.39-4.1.74,1.51,1.53,2.99,2.62,4.27,1.29,1.53,3.2,2.62,4.06,4.49.03.11-.02.24-.15.24-1.62-.03-3.17-.96-4.48-1.82-1.48-.98-2.86-2.07-4.24-3.16-2.17-1.69-4.23-3.77-5.66-6.19.06,2.31.32,4.61.94,6.86.05.18-.15.26-.27.16-1.69-1.38-3.16-3.39-3.68-5.57-.26,3.13-.59,6.26-.27,9.41,0,.14-.19.22-.28.11-1.3-1.57-2.46-3.31-3.3-5.18-.24-.54-.47-1.11-.66-1.7-.87,1.09-1.83,2.11-2.84,3.05-1.45,1.32-3.05,2.58-4.92,3.23-.12.05-.26-.13-.18-.24.76-1.01,1.37-2.1,1.94-3.21-.53.67-1.1,1.29-1.71,1.84-1.09,1.03-2.31,2.04-3.74,2.54-.11.03-.24-.09-.2-.21.31-.92.71-1.81,1.13-2.67-1.76,1.43-3.7,2.67-5.66,3.8-1.94,1.1-3.94,2.11-5.97,3.06-1.86.87-3.88,1.77-5.98,1.7-.16,0-.24-.22-.08-.31,4.41-2.18,8.11-5.52,11.41-9.21-1.29.79-2.63,1.48-3.97,2.14-3.46,1.71-7.03,3.63-10.88,4.21-.19.02-.27-.18-.13-.29,1.35-1.04,2.65-2.14,3.87-3.33-1.94,1.26-3.84,2.59-5.88,3.71-2.22,1.22-4.69,2.34-7.28,2.3-.13,0-.23-.19-.11-.28,2.76-2.15,5.7-4.13,7.84-6.94-4.09,2.99-8.26,5.92-12.8,8.19-3.23,1.62-6.6,3.68-10.19,4.56,4.57,1.16,9.09,1.03,13.5-.13-.26.2-.5.39-.75.58-4.19,3.32-13.27,8.33-16.55,10.5,3.79.02,7.56-.93,11.11-2.19,4.33-1.53,8.46-3.55,12.61-5.49.17-.08.34.12.2.25-1.9,1.91-3.98,3.6-6.31,4.96,7.05-.52,13.12-4.58,19.62-6.95.13-.05.26.13.17.23-1.47,2.21-3.54,3.71-5.66,5.17,2.57-.03,5.15-.97,7.44-2.02,2.76-1.25,5.37-2.8,7.91-4.42.1-.07.26.01.24.13-.15,1.66-.97,3.03-1.91,4.35,1.52-.81,2.68-2.2,3.88-3.41.11-.1.33,0,.27.16-.78,1.98-2.36,3.37-3.76,4.91,3.58-1.15,6.66-3.66,9.72-5.76.13-.08.27.06.24.18-.34,1.57-1.4,2.76-2.55,3.8-1.12,1.05-2.45,2.04-3.13,3.44,4.28-1.15,7.97-3.73,11.65-6.11.09-.05.22,0,.24.1.25,1.3.67,2.54,1.34,3.69.27-1.47.65-2.92,1.11-4.35.05-.14.28-.16.31,0,.57,2.63,2.47,4.68,4.08,6.75.23-2.68.45-5.41,1.69-7.84.07-.13.26-.1.3.04.9,3.14,2.86,5.58,5.06,7.84.02-2.19.36-4.42.29-6.61,0-.18.28-.22.33-.04.53,2.07,1.27,4.25,2.56,6-.13-2.64-.24-5.28.84-7.75.05-.13.28-.1.3.03.98,6.94,4.12,13.4,7.64,19.38.08.13-.08.31-.22.22-1.94-1.23-3.55-2.88-4.95-4.7.71,2.25,1.54,4.45,2.54,6.59.05.14-.08.33-.23.23-3.52-2.53-7.14-5.29-8.92-9.35-.24,3.32-.43,6.67-.07,9.99.01.16-.18.19-.28.11-2.41-2-3.77-4.82-5.4-7.41-.43-.71-.82-1.46-1.2-2.19-.53.81-1.1,1.6-1.71,2.33-1.44,1.74-3.42,3.78-5.84,3.9-.13,0-.19-.14-.13-.24.61-1.43,1.13-2.88,1.55-4.36-.03.04-.08.08-.1.12-.92.95-2.05,1.98-3.43,2.1-.16.02-.19-.16-.11-.27,1.43-1.79,2.24-3.9,2.99-6.03-1.37,1.94-2.94,3.76-4.69,5.37-2,1.87-4.26,3.54-6.85,4.49-.15.05-.25-.12-.19-.23,1-2.01,1.93-4.06,2.62-6.2-1.51,1.38-3.06,2.71-4.75,3.86-2.57,1.8-5.6,3.42-8.83,3.24-.13-.01-.23-.18-.11-.27,2.13-1.84,3.35-4.55,4.18-7.26-1.51,1.45-3.1,2.8-4.81,3.98-2.48,1.72-5.39,3.32-8.51,3.29-.13,0-.19-.13-.13-.25,1.34-2.68,2.79-5.3,3.79-8.12-8.04,5-16.75,10.31-26.33,11.35,7.26.55,14.68-1.44,21.72-5.37-.07.08-.14.17-.22.26-.19.23-7,5.67-6.25,5.81,2.97.54,11.98-3.33,15.12-4.73-1.01,1.19-4.76,6.06-3.74,5.92,4.04-.58,8.6-2.33,12.95-5.14-.76,1.2-2.16,4.6-1.77,4.56,4.2-.5,8.4-3.64,12.28-6.03-.65,1.67-1.91,5.64-1.49,5.59,4.02-.49,8.32-3.68,11.81-7.82,2.37,4,5.3,7.49,8.95,9.49.5.28.88-5.67.75-7.8,3.81,5.74,9.19,9.42,15.1,7.69.47-.13-1.75-6.17-2.83-8.48,1.07,1,2.14,1.98,3.24,2.92,5.98,2.56,12.15,3.69,18.21,3.05.75-.09-9.73-8.01-13.64-12.23-.69-.75-1.37-1.51-2.04-2.27,1.61.81,3.3,1.47,5.08,1.95,5.38,1.38,10.97,2.83,16.23.21Z" class="cls-5"/></g><g><path data-cppathid="10012" d="m153.34,144.77c.23-.11-5.91-5.26-8.65-8.47,2.37.14,4.77-.11,7.19-.8.58-.17-8.87-9.23-12.84-13.43,1.31.74,6.29,3.21,7.71,3.48.7.12-7.79-8.23-9.67-10.59,2.75,1.21,5.67,1.45,8.51.9.62-.12-8.76-11.16-12.75-16.04,2.4.7,4.88.82,7.24.24.66-.17-4.58-3.9-6.27-5.45,2.87,1.05,5.85,1.32,8.81.31.56-.19-6.44-6.68-11.22-11.92,1.72-.03,3.59-.34,4.92-1.42.02-.01.11-.11.06-.13-5.42-2.9-10.76-6.42-14.27-11.51,3.44,3.61,8.16,4.7,12.01,3.57.03,0,.05-.04.06-.06-.29-.19-.58-.4-.86-.61-2.35-1.71-10.17-9.09-11.94-11.07,1.12.55,2.27.86,3.49.94-1.37-1.25-2.66-2.65-3.72-4.28-1.14-1.17-2.23-2.5-3.21-4.02-1.13-1.73-2.95-5.14-3.64-5.96,2.33,2.75,4.92,5.41,7.92,5.39,0,0,.03,0,.03,0-6.62-5.35-11.55-14.21-15.42-22.89-1.92,3.94-4.22,7.63-6.42,11.21-2.7,4.39-5.67,8.69-9.35,11.66.05.03.1.03.17.03,3,.02,5.59-2.64,7.92-5.39-.7.82-2.52,4.22-3.64,5.96-1.95,2.99-7.47,8.33-7.1,8.31,1.28-.06,2.48-.39,3.66-.96-3.77,4.2-13.24,11.6-12.73,11.74,3.98,1.17,8.92-.04,12.37-3.97-.21.29-.44.58-.61.83-.61.88-1.19,1.76-1.81,2.63-1.2,1.69-2.47,3.33-3.9,4.83-2.69,2.82-6.04,5.14-9.82,6.18-.03.01-.14.12-.09.15,1.53.67,3.19.82,4.84.7-4.56,4.8-9.97,9.89-9.48,10.06,2.96,1,5.94.74,8.81-.31-1.7,1.55-6.93,5.28-6.27,5.45,2.36.58,4.84.45,7.24-.24-4,4.89-13.37,15.93-12.75,16.04,2.84.55,5.76.31,8.5-.9-1.87,2.36-10,9.66-9.3,9.53,1.43-.26,6.03-1.69,7.35-2.42-3.96,4.2-13.42,13.26-12.84,13.43,3.92,1.14,7.78,1.09,11.56.1-.2.15-.4.31-.6.46-4.24,3.35-14.72,8.88-14.23,9.26,4.31,3.4,11.92,1.15,16.54-.06.16-.03.31-.08.46-.13-3.08,3.2-11.27,9.49-10.67,9.55,6.09.66,12.34-.94,18.26-4.24-.06.07-.12.14-.18.21-.15.18-5.62,4.55-5.02,4.66,2.38.44,9.61-2.66,12.13-3.79-.8.95-3.82,4.86-3,4.75,3.24-.46,6.9-1.86,10.4-4.12-.62.97-1.73,3.7-1.43,3.66,3.37-.4,6.75-2.93,9.86-4.85-.53,1.35-1.55,4.54-1.21,4.49,3.22-.4,6.68-2.95,9.49-6.28,1.89,3.21,4.25,6.02,7.18,7.63.4.21.71-4.57.61-6.27,3.05,4.61,7.37,7.56,12.11,6.17.37-.11-1.4-4.96-2.27-6.81.86.8,1.72,1.6,2.61,2.35,4.8,2.06,9.76,2.96,14.61,2.45.6-.06-7.81-6.43-10.94-9.81-.56-.61-1.1-1.21-1.65-1.82,1.3.65,2.65,1.19,4.09,1.56,4.31,1.11,8.79,2.27,13.03.17Z" class="cls-8"/><path data-cppathid="10013" d="m153.34,144.77c.23-.11-5.91-5.26-8.65-8.47,2.37.14,4.77-.11,7.19-.8.58-.17-8.87-9.23-12.84-13.43,1.31.74,6.29,3.21,7.71,3.48.7.12-7.79-8.23-9.67-10.59,2.75,1.21,5.67,1.45,8.51.9.62-.12-8.76-11.16-12.75-16.04,2.4.7,4.88.82,7.24.24.66-.17-4.58-3.9-6.27-5.45,2.87,1.05,5.85,1.32,8.81.31.56-.19-6.44-6.68-11.22-11.92,1.72-.03,3.59-.34,4.92-1.42.02-.01.11-.11.06-.13-5.42-2.9-10.76-6.42-14.27-11.51,3.44,3.61,8.16,4.7,12.01,3.57.03,0,.05-.04.06-.06-.29-.19-.58-.4-.86-.61-2.35-1.71-10.17-9.09-11.94-11.07,1.12.55,2.27.86,3.49.94-1.37-1.25-2.66-2.65-3.72-4.28-1.14-1.17-2.23-2.5-3.21-4.02-1.13-1.73-2.95-5.14-3.64-5.96,2.33,2.75,4.92,5.41,7.92,5.39,0,0,.03,0,.03,0-6.56-5.31-11.46-14.06-15.31-22.65.11,2.56.51,5.11,1.29,7.55.95,2.94,2.39,5.66,4.22,8.15.08.11-.07.25-.18.18-1.63-1-3.66-2.18-4.55-3.95.09,1.1.14,2.21.24,3.3.02.12-.15.17-.22.1-.75-.69-1.4-1.59-1.86-2.55-.17.9-.44,1.81-1.03,2.45-.06.07-.19.03-.21-.06-.17-.68-.22-1.42-.19-2.16-.27.46-.58.89-.88,1.34-.85,1.28-1.54,2.73-2.86,3.6-.1.06-.22-.04-.19-.14.43-1.39,1-2.84,1.12-4.3-.69,1.13-1.62,2.19-2.73,2.75-.1.05-.24-.03-.2-.15.3-.78.75-1.49,1.05-2.26-2.42,3.22-4.86,6.49-8.18,8.8,2.86-.18,5.34-2.74,7.58-5.38-.7.82-2.52,4.22-3.64,5.96-1.95,2.99-7.47,8.33-7.1,8.31.06,0,.11,0,.17-.02,1.67-.98,3.2-2.24,4.57-3.61,1.71-1.71,3.27-3.63,4.37-5.8.08-.15.3-.02.22.13-.69,1.56-1.59,2.99-2.61,4.35,2.27-1.08,4.02-3.08,5.8-4.79.11-.1.27.03.21.16-.36.66-.69,1.33-1.06,1.99,1.07-.77,1.88-1.88,2.83-2.78.09-.1.25,0,.22.12-.21.91-.63,1.79-.74,2.71,1.06-1.18,1.84-2.59,2.76-3.88.08-.11.29-.05.24.1-.36,1.16-.61,2.37-.7,3.59-.08,1.05-.1,2.25.41,3.2.79-2.22,1.49-4.5,2.95-6.39.09-.12.28-.06.25.1-.2.77-.42,1.54-.33,2.34.64-.87.9-2,1.74-2.75.08-.07.23-.03.22.1-.06,2.13.69,4.28,1.62,6.17.21.41.42.82.65,1.21-.5-2.02-.72-4.08-.63-6.19,0-.15.21-.17.25-.03.88,2.46,1.74,4.99,3.24,7.15,1.35,1.94,3.09,3.56,4.38,5.53.07.1-.04.22-.15.19-1.89-.49-3.28-1.98-4.58-3.38.78,1.38,1.82,2.59,2.62,3.97.05.1-.05.22-.15.2-1.44-.37-2.89-.9-4.16-1.68-.37-.24-.74-.49-1.08-.78.29.89.59,1.78,1,2.62.07.12-.11.28-.21.16-1.13-1.32-2.36-2.68-2.91-4.35-.07,1.23-.23,2.45-.47,3.66-.03.14-.21.11-.25,0-.29-.74-.43-1.58-.45-2.4-.56,1.48-1.14,3-2.3,4.08-.1.09-.24,0-.22-.12.17-.79.37-1.58.54-2.36-1.89,2.54-4.47,4.67-7.52,5.42-.1.03-.22-.09-.15-.19,1.02-1.32,1.93-2.71,2.78-4.13-.66.51-1.34.99-2.06,1.41-1.17.71-2.39,1.38-3.63,1.98-.95.46-2.08,1.01-3.16.79-.08-.02-.12-.12-.07-.19.61-.98,1.51-1.69,2.22-2.59.42-.53.7-1.14,1.01-1.74-.72.71-1.57,1.33-2.55,1.41-.12.01-.16-.15-.09-.22.64-.71,1.05-1.55,1.48-2.4-2.66,2.96-6.39,4.77-9.81,6.73-1.19.68-2.46,1.29-3.77,1.72-.38.13-1.07.36-1.66.36,3.92,1.01,8.67-.26,12.03-4.07-.21.29-.44.58-.61.83-.61.88-1.19,1.76-1.81,2.63-1.03,1.44-2.1,2.85-3.28,4.16.05-.02.09-.05.14-.07.74-.41,1.48-.84,2.18-1.3,1.62-1.08,3.14-2.38,4.96-3.11.12-.04.2.1.15.19-.88,1.7-2.48,2.79-3.69,4.21,3.45-.43,6.63-1.94,9.84-3.2.12-.05.23.14.12.22-.6.53-1.27,1-1.86,1.54,1.18-.28,2.2-1.03,3.26-1.6.14-.08.27.13.13.23-.73.47-1.28,1.12-1.92,1.7-.53.47-4.14,2.56-5.03,3.59.97.05,4.89-1.52,5.91-1.97,2.54-1.11,4.99-2.33,7.33-3.84.13-.08.25.11.15.21-.51.57-1.03,1.15-1.55,1.72,1.25-.55,2.23-1.73,3.06-2.76.08-.1.21,0,.23.09.16,1.91.39,3.98,1.08,5.84,0-.16,0-.31.01-.47.05-1.58.3-3.14.56-4.7.01-.11.18-.12.23-.03.66,1.27,1.14,2.66,1.97,3.84-.2-1.74-.4-3.49-.09-5.22.02-.13.23-.12.25,0,.28,1.09.72,2.14,1.35,3.07-.06-1.15-.27-2.3.1-3.43.03-.13.2-.11.25,0,.87,2.2,2.17,4.21,3.76,5.96,1.53,1.67,3.25,3.14,4.69,4.87.08.1.01.25-.13.22-1.53-.37-3.04-1.03-4.44-1.86.93,2.57,3.14,4.73,5.2,6.37.1.07.02.22-.09.22-1.37-.06-2.74-.49-3.97-1.08-1.13-.55-2.24-1.24-3.1-2.16.17.96.44,1.91.63,2.87.02.13-.11.22-.21.13-.68-.64-1.17-1.43-1.54-2.27.05,1.72.25,3.43.62,5.11.03.14-.12.21-.22.13-1.27-1.03-2.14-2.67-2.53-4.37-.71,1.85-1.29,3.75-1.62,5.73-.02.1-.16.13-.23.06-1.11-1.25-1.45-2.89-1.67-4.55-.57.61-1.2,1.18-1.85,1.7-1.4,1.16-2.9,2.65-4.77,2.95-.09,0-.19-.06-.16-.16.24-.73.79-1.29,1.19-1.94.25-.4.44-.83.62-1.26-1.09,1.22-2.64,2.1-4.02,2.85-.1.06-.26-.07-.18-.17.63-.87,1.09-1.82,1.55-2.77-1.19.84-2.44,1.57-3.74,2.21-1.53.76-3.14,1.41-4.71,2.05-1.51.61-3.14,1.26-4.79,1.18-.12,0-.18-.14-.1-.22,1.3-1.35,2.9-2.37,4.28-3.65-2.05,1.14-4.14,2.32-6.49,2.67-.15.01-.23-.15-.1-.24,1.44-1.03,2.92-2.03,4.28-3.14-.26.13-.52.26-.79.39-.87.4-1.78.77-2.69,1.12-.82.32-1.68.62-2.56.54-.11-.02-.19-.14-.09-.22,1.83-1.77,3.69-3.53,5.34-5.46-1.51.97-2.84,2.2-4.34,3.18-1.77,1.16-3.64,2.16-5.57,3.03-1.89.85-3.82,1.69-5.8,2.31-1.27.4-2.58.7-3.9.71,2.94.99,5.9.72,8.75-.33-1.7,1.55-6.93,5.28-6.27,5.45,2.36.58,4.84.45,7.24-.24-1.27,1.57-3.1,3.75-4.97,6.01,1.62-.29,3.19-1.05,4.6-1.83,1.97-1.1,3.82-2.41,5.79-3.5.1-.06.25.07.17.18-1.02,1.39-2.32,2.49-3.59,3.63,2.33-.57,4.22-2.13,6.27-3.28.13-.06.27.1.16.21-1.97,1.77-3.88,3.62-6.17,4.97,2.39-.04,4.77-.67,7.01-1.49,2.43-.9,4.77-2.06,6.95-3.47.11-.06.26.07.19.18-.69.96-1.51,1.82-2.22,2.76,1.51-.55,2.6-1.79,3.81-2.81.09-.08.27,0,.22.12-1.01,2.49-2.52,4.81-4.49,6.62,1.48-.42,2.86-1.22,4.14-2.04,1.81-1.18,3.53-2.55,5.46-3.56.11-.06.25.07.17.18-.65,1.04-1.28,2.1-1.88,3.17,1.67-1.07,2.84-2.78,4.22-4.18.08-.09.21-.02.22.09.11,1.55.17,3.29,1.1,4.6.43-1.41.49-2.89.88-4.31.04-.13.2-.12.25,0,.5,1.36,1.23,2.72,2.53,3.43.17-1.18,0-2.38.3-3.54.02-.1.19-.13.24-.03.49.91.92,1.84,1.68,2.55.04-.83-.11-1.66-.13-2.48,0-.15.21-.17.26-.03.76,1.96,2.83,3.07,4.63,3.97.08-1.41-.71-2.73-.55-4.15.01-.1.14-.19.22-.09,1.22,1.35,2.53,2.65,4.08,3.64,1.17.74,2.41,1.29,3.72,1.71-.25-.54-.46-1.09-.66-1.63-.59-1.68-1.03-3.57-.67-5.35.02-.12.18-.12.24-.03,2.68,4.13,4.92,8.64,9.17,11.4.12.08.05.29-.1.24-1.64-.65-3.14-1.53-4.58-2.54,2.33,2.89,4.94,5.53,7.97,7.71.08.05.09.22-.03.23-2.54.45-5.2-.02-7.57-.96-1.01-.4-2-.88-2.92-1.45.8,1.24,1.67,2.42,2.71,3.48,1.67,1.7,3.82,2.87,5.4,4.65.05.06.05.16-.02.2-1.34.7-3.14.29-4.52-.07-1.51-.39-2.97-.94-4.42-1.51-1.3-.51-2.58-1.11-3.78-1.83.75,1.19,1.51,2.37,2.27,3.55.07.11-.07.25-.18.18-1.45-.96-3.13-1.95-4.32-3.3.59,1.22,1.22,2.41,2.1,3.44,1.04,1.23,2.57,2.11,3.25,3.6.04.08,0,.19-.11.19-1.3-.03-2.55-.77-3.6-1.47-1.19-.77-2.29-1.65-3.41-2.53-1.74-1.36-3.4-3.02-4.54-4.97.05,1.86.26,3.71.76,5.51.03.14-.12.22-.22.13-1.35-1.1-2.53-2.72-2.95-4.47-.21,2.51-.47,5.03-.21,7.55,0,.11-.16.18-.23.1-1.04-1.27-1.98-2.67-2.66-4.17-.19-.44-.38-.9-.52-1.37-.7.87-1.46,1.69-2.29,2.44-1.16,1.06-2.45,2.07-3.94,2.59-.11.03-.21-.1-.15-.19.61-.81,1.11-1.68,1.57-2.57-.42.52-.89,1.02-1.38,1.48-.87.83-1.86,1.63-3,2.03-.09.03-.19-.07-.17-.16.25-.74.57-1.44.92-2.14-1.42,1.15-2.98,2.15-4.55,3.05-1.56.89-3.16,1.7-4.78,2.46-1.49.7-3.13,1.41-4.8,1.36-.13,0-.2-.17-.07-.25,3.55-1.74,6.52-4.43,9.16-7.39-1.03.62-2.11,1.18-3.19,1.72-2.77,1.36-5.65,2.91-8.73,3.37-.15.02-.22-.14-.1-.23,1.08-.83,2.12-1.71,3.1-2.66-1.56,1.02-3.08,2.08-4.72,2.97-1.79.98-3.77,1.88-5.85,1.84-.11,0-.19-.15-.09-.22,2.22-1.73,4.58-3.32,6.29-5.57-3.28,2.4-6.63,4.75-10.27,6.58-2.6,1.3-5.3,2.95-8.18,3.65,3.67.94,7.29.84,10.84-.09-.2.15-.4.31-.6.46-3.36,2.66-10.65,6.69-13.28,8.43,3.04.01,6.07-.75,8.92-1.76,3.48-1.23,6.79-2.85,10.13-4.4.13-.07.27.09.15.19-1.53,1.54-3.19,2.9-5.06,3.99,5.64-.42,10.52-3.69,15.74-5.58.11-.04.22.1.15.19-1.18,1.78-2.84,2.98-4.56,4.15,2.06-.02,4.14-.78,5.98-1.62,2.21-1,4.31-2.25,6.36-3.55.08-.05.2.01.19.11-.12,1.33-.79,2.43-1.54,3.49,1.22-.65,2.16-1.77,3.12-2.73.08-.09.27,0,.22.13-.63,1.59-1.89,2.7-3.01,3.94,2.87-.93,5.34-2.94,7.81-4.63.1-.07.21.05.19.15-.28,1.26-1.12,2.21-2.05,3.06-.9.83-1.97,1.63-2.52,2.76,3.44-.92,6.4-2.99,9.35-4.9.07-.05.18,0,.2.09.2,1.04.54,2.04,1.08,2.95.22-1.19.52-2.34.9-3.49.04-.12.22-.13.25,0,.46,2.11,1.98,3.75,3.28,5.41.2-2.15.37-4.34,1.37-6.3.05-.1.21-.07.23.04.74,2.51,2.3,4.48,4.07,6.3.01-1.76.29-3.55.23-5.32,0-.15.22-.17.26-.03.43,1.67,1.02,3.42,2.05,4.83-.1-2.12-.19-4.24.67-6.23.05-.1.22-.07.24.04.79,5.57,3.31,10.75,6.13,15.54.07.11-.06.25-.17.19-1.56-.98-2.85-2.32-3.98-3.78.57,1.8,1.24,3.57,2.03,5.3.05.11-.06.26-.18.17-2.83-2.02-5.74-4.24-7.16-7.5-.19,2.67-.34,5.35-.07,8.02.02.13-.15.16-.22.09-1.94-1.61-3.02-3.87-4.34-5.96-.35-.57-.66-1.17-.96-1.76-.43.66-.89,1.28-1.37,1.87-1.16,1.41-2.75,3.03-4.69,3.14-.11,0-.15-.11-.11-.2.49-1.15.9-2.31,1.25-3.5-.03.04-.06.06-.09.09-.74.77-1.64,1.6-2.75,1.7-.12,0-.15-.15-.09-.22,1.14-1.43,1.79-3.13,2.4-4.84-1.1,1.57-2.36,3.03-3.76,4.33-1.62,1.49-3.43,2.82-5.51,3.6-.12.04-.19-.1-.15-.19.81-1.61,1.55-3.25,2.11-4.98-1.21,1.11-2.45,2.16-3.8,3.1-2.07,1.44-4.5,2.75-7.08,2.6-.11,0-.19-.14-.1-.21,1.71-1.49,2.69-3.65,3.35-5.82-1.21,1.15-2.49,2.23-3.85,3.18-2,1.39-4.34,2.67-6.83,2.64-.11,0-.16-.11-.11-.19,1.08-2.15,2.24-4.25,3.05-6.52-6.45,4.01-13.46,8.27-21.14,9.11,5.83.44,11.79-1.15,17.44-4.3-.06.07-.12.14-.18.21-.15.18-5.62,4.55-5.02,4.66,2.38.44,9.61-2.66,12.13-3.79-.8.95-3.82,4.86-3,4.75,3.24-.46,6.9-1.86,10.4-4.12-.62.97-1.73,3.7-1.43,3.66,3.37-.4,6.75-2.93,9.86-4.85-.53,1.35-1.55,4.54-1.21,4.49,3.22-.4,6.68-2.95,9.49-6.28,1.89,3.21,4.25,6.02,7.18,7.63.4.21.71-4.57.61-6.27,3.05,4.61,7.37,7.56,12.11,6.17.37-.11-1.4-4.96-2.27-6.81.86.8,1.72,1.6,2.61,2.35,4.8,2.06,9.76,2.96,14.61,2.45.6-.06-7.81-6.43-10.94-9.81-.56-.61-1.1-1.21-1.65-1.82,1.3.65,2.65,1.19,4.09,1.56,4.31,1.11,8.79,2.27,13.03.17Z" class="cls-6"/></g><g><path data-cppathid="10014" d="m280.67,144.64c.23-.11-5.98-5.32-8.75-8.59,2.4.15,4.83-.1,7.27-.81.58-.17-8.99-9.35-13-13.59,1.33.75,6.37,3.24,7.81,3.51.71.13-7.89-8.32-9.78-10.71,2.78,1.23,5.73,1.47,8.61.91.62-.12-8.87-11.29-12.91-16.24,2.44.71,4.94.82,7.34.25.66-.17-4.63-3.95-6.35-5.51,2.91,1.07,5.92,1.34,8.91.31.56-.2-6.53-6.76-11.35-12.06,1.74-.03,3.63-.35,4.98-1.43.02,0,.12-.11.05-.14-5.48-2.93-10.88-6.5-14.42-11.65,3.47,3.65,8.25,4.76,12.14,3.62.04-.01.05-.04.07-.07-.29-.2-.59-.4-.88-.62-2.37-1.72-10.29-9.21-12.08-11.2,1.14.56,2.3.87,3.53.95-1.38-1.26-2.69-2.69-3.76-4.33-1.17-1.18-2.25-2.53-3.24-4.06-1.13-1.75-2.99-5.21-3.69-6.03,2.36,2.79,4.99,5.49,8.02,5.47h.03c-6.7-5.42-11.7-14.4-15.6-23.17-1.94,3.98-4.27,7.72-6.5,11.34-2.73,4.44-5.73,8.79-9.46,11.79.05.02.1.04.17.04,3.03.02,5.65-2.68,8.02-5.47-.71.83-2.56,4.28-3.7,6.03-1.97,3.02-7.55,8.43-7.17,8.42,1.29-.07,2.52-.39,3.7-.97-3.82,4.26-13.4,11.73-12.89,11.88,4.04,1.18,9.02-.05,12.53-4.03-.22.3-.45.58-.64.85-.61.89-1.21,1.78-1.83,2.66-1.21,1.71-2.49,3.38-3.94,4.9-2.73,2.86-6.11,5.2-9.95,6.26-.03,0-.15.12-.09.13,1.55.69,3.22.85,4.89.72-4.61,4.85-10.09,10-9.6,10.17,3.01,1.02,6.01.76,8.92-.31-1.71,1.56-7.01,5.35-6.35,5.51,2.39.58,4.9.46,7.33-.25-4.04,4.95-13.52,16.12-12.9,16.24,2.88.56,5.83.32,8.61-.91-1.88,2.39-10.11,9.78-9.39,9.65,1.44-.26,6.1-1.7,7.43-2.44-4.02,4.24-13.58,13.42-13,13.59,3.97,1.15,7.89,1.1,11.71.1-.2.17-.4.32-.6.48-4.3,3.39-14.91,8.99-14.42,9.37,4.37,3.44,12.06,1.16,16.75-.06.16-.05.31-.09.46-.13-3.12,3.23-11.4,9.6-10.79,9.67,6.16.67,12.49-.97,18.47-4.29-.05.07-.12.13-.17.2-.16.19-5.69,4.6-5.08,4.71,2.41.45,9.73-2.7,12.28-3.84-.82.97-3.86,4.93-3.04,4.82,3.29-.47,6.99-1.9,10.53-4.18-.62.97-1.76,3.74-1.45,3.7,3.42-.4,6.83-2.96,9.99-4.9-.54,1.35-1.57,4.59-1.23,4.54,3.27-.41,6.77-2.97,9.6-6.36,1.93,3.26,4.31,6.1,7.27,7.72.41.23.72-4.62.62-6.34,3.08,4.67,7.46,7.66,12.26,6.25.38-.11-1.42-5.01-2.3-6.9.87.83,1.75,1.63,2.64,2.39,4.86,2.08,9.88,3,14.79,2.48.61-.07-7.91-6.51-11.08-9.94-.56-.61-1.12-1.22-1.67-1.84,1.31.66,2.68,1.2,4.14,1.58,4.36,1.12,8.9,2.29,13.18.18Z" class="cls-9"/><path data-cppathid="10015" d="m280.67,144.64c.23-.11-5.98-5.32-8.75-8.59,2.4.15,4.83-.1,7.27-.81.58-.17-8.99-9.35-13-13.59,1.33.75,6.37,3.24,7.81,3.51.71.13-7.89-8.32-9.78-10.71,2.78,1.23,5.73,1.47,8.61.91.62-.12-8.87-11.29-12.91-16.24,2.44.71,4.94.82,7.34.25.66-.17-4.63-3.95-6.35-5.51,2.91,1.07,5.92,1.34,8.91.31.56-.2-6.53-6.76-11.35-12.06,1.74-.03,3.63-.35,4.98-1.43.02,0,.12-.11.05-.14-5.48-2.93-10.88-6.5-14.42-11.65,3.47,3.65,8.25,4.76,12.14,3.62.04-.01.05-.04.07-.07-.29-.2-.59-.4-.88-.62-2.37-1.72-10.29-9.21-12.08-11.2,1.14.56,2.3.87,3.53.95-1.38-1.26-2.69-2.69-3.76-4.33-1.17-1.18-2.25-2.53-3.24-4.06-1.13-1.75-2.99-5.21-3.69-6.03,2.36,2.79,4.99,5.49,8.02,5.47h.03c-6.63-5.37-11.6-14.23-15.49-22.93.11,2.59.51,5.17,1.3,7.64.95,2.98,2.43,5.73,4.27,8.25.08.11-.07.25-.17.18-1.65-1.01-3.7-2.2-4.6-3.99.09,1.11.13,2.23.23,3.35.01.11-.15.16-.22.08-.76-.7-1.43-1.6-1.89-2.57-.17.91-.44,1.83-1.04,2.48-.06.07-.2.03-.23-.06-.17-.7-.23-1.44-.19-2.18-.28.46-.59.9-.89,1.35-.86,1.29-1.57,2.77-2.9,3.65-.1.06-.23-.04-.2-.15.43-1.41,1.02-2.87,1.14-4.36-.69,1.15-1.63,2.21-2.77,2.78-.09.05-.23-.03-.19-.15.3-.79.75-1.51,1.06-2.29-2.46,3.25-4.91,6.58-8.27,8.91,2.88-.19,5.39-2.78,7.67-5.46-.71.83-2.56,4.28-3.7,6.03-1.97,3.02-7.55,8.43-7.17,8.42.06,0,.11,0,.17,0,1.69-1,3.24-2.28,4.62-3.66,1.73-1.73,3.31-3.67,4.42-5.87.08-.15.29-.02.23.13-.71,1.58-1.61,3.03-2.64,4.41,2.29-1.1,4.07-3.11,5.86-4.85.11-.11.28.03.21.16-.36.66-.7,1.35-1.07,2.02,1.09-.78,1.9-1.9,2.87-2.82.1-.1.25,0,.22.13-.22.92-.64,1.81-.75,2.74,1.08-1.2,1.86-2.62,2.8-3.92.08-.11.29-.05.24.11-.37,1.17-.63,2.4-.71,3.62-.08,1.06-.1,2.27.41,3.25.8-2.25,1.51-4.56,2.99-6.49.09-.11.28-.05.25.1-.19.78-.42,1.57-.33,2.36.65-.88.9-2.02,1.76-2.77.08-.07.23-.03.22.09-.05,2.16.7,4.34,1.64,6.26.21.41.43.81.66,1.22-.5-2.04-.73-4.13-.63-6.26,0-.15.21-.17.27-.03.87,2.49,1.75,5.05,3.27,7.23,1.36,1.96,3.12,3.61,4.43,5.6.07.11-.04.23-.15.2-1.91-.5-3.32-1.99-4.64-3.43.79,1.4,1.84,2.63,2.65,4.02.05.1-.05.22-.16.19-1.46-.37-2.92-.91-4.2-1.7-.37-.23-.75-.5-1.09-.79.3.9.6,1.8,1.01,2.65.07.13-.1.28-.21.16-1.14-1.33-2.39-2.71-2.95-4.41-.07,1.24-.24,2.48-.48,3.71-.03.14-.2.11-.25,0-.3-.76-.43-1.59-.45-2.42-.56,1.49-1.15,3.03-2.34,4.12-.09.09-.25,0-.22-.12.17-.8.37-1.6.54-2.39-1.91,2.57-4.52,4.73-7.59,5.49-.11.03-.23-.09-.16-.2,1.03-1.33,1.96-2.73,2.82-4.18-.67.53-1.36,1-2.09,1.44-1.19.7-2.43,1.39-3.67,1.99-.96.46-2.1,1.02-3.2.8-.08-.01-.12-.13-.07-.19.61-.99,1.54-1.71,2.24-2.62.43-.54.72-1.16,1.02-1.75-.72.71-1.57,1.33-2.58,1.43-.12,0-.16-.15-.09-.23.65-.71,1.06-1.58,1.5-2.42-2.7,3-6.46,4.84-9.92,6.82-1.22.69-2.49,1.31-3.82,1.74-.38.12-1.08.35-1.68.35,3.98,1.02,8.77-.25,12.18-4.11-.22.3-.45.58-.64.85-.61.89-1.21,1.78-1.83,2.66-1.03,1.46-2.13,2.88-3.31,4.21.05-.02.09-.04.14-.07.74-.42,1.49-.85,2.21-1.33,1.63-1.08,3.17-2.41,5.02-3.14.11-.04.19.1.14.19-.88,1.73-2.5,2.83-3.74,4.28,3.5-.44,6.71-1.98,9.96-3.25.13-.06.23.13.13.22-.62.54-1.28,1.02-1.89,1.56,1.2-.29,2.23-1.05,3.3-1.62.15-.08.27.13.13.23-.74.47-1.3,1.13-1.95,1.72-.54.47-4.19,2.58-5.09,3.63.99.05,4.95-1.54,5.99-1.99,2.58-1.12,5.05-2.35,7.41-3.88.13-.08.25.1.17.21-.53.59-1.05,1.16-1.58,1.75,1.27-.56,2.27-1.75,3.1-2.78.09-.1.21-.02.22.09.17,1.94.41,4.03,1.1,5.9,0-.16,0-.31,0-.47.05-1.61.31-3.18.57-4.76.02-.11.2-.12.25-.03.66,1.3,1.15,2.7,1.98,3.89-.2-1.76-.4-3.53-.08-5.29.01-.13.23-.12.25,0,.28,1.11.73,2.18,1.37,3.11-.07-1.17-.27-2.34.09-3.46.04-.14.21-.12.25,0,.89,2.22,2.2,4.25,3.8,6.02,1.54,1.69,3.28,3.17,4.75,4.92.08.11,0,.25-.14.23-1.55-.37-3.08-1.03-4.49-1.89.94,2.61,3.18,4.79,5.26,6.46.09.07.01.23-.1.22-1.38-.06-2.77-.49-4.02-1.1-1.15-.56-2.27-1.25-3.14-2.19.17.98.44,1.93.65,2.92.02.12-.12.22-.23.12-.67-.64-1.17-1.44-1.55-2.3.04,1.74.26,3.47.63,5.18.03.13-.11.21-.22.12-1.29-1.04-2.16-2.69-2.56-4.43-.71,1.89-1.31,3.79-1.65,5.8-.01.09-.15.12-.21.06-1.13-1.27-1.49-2.93-1.7-4.6-.58.61-1.21,1.18-1.87,1.72-1.42,1.16-2.93,2.69-4.82,2.98-.09.01-.19-.06-.16-.17.24-.74.8-1.31,1.21-1.97.25-.41.44-.85.62-1.28-1.1,1.23-2.66,2.13-4.07,2.89-.11.06-.26-.07-.18-.18.63-.88,1.09-1.84,1.57-2.8-1.2.85-2.46,1.59-3.77,2.23-1.56.77-3.18,1.43-4.79,2.07-1.51.61-3.17,1.28-4.84,1.19-.11,0-.18-.14-.1-.21,1.34-1.38,2.95-2.41,4.34-3.71-2.07,1.16-4.19,2.35-6.57,2.7-.14.03-.22-.14-.1-.24,1.46-1.05,2.95-2.05,4.32-3.18-.26.13-.53.26-.79.39-.9.42-1.81.79-2.73,1.14-.82.32-1.69.63-2.59.55-.1-.01-.19-.14-.1-.23,1.87-1.79,3.74-3.56,5.42-5.52-1.53.99-2.88,2.23-4.39,3.22-1.8,1.18-3.7,2.18-5.66,3.07-1.9.86-3.86,1.7-5.86,2.34-1.29.41-2.62.7-3.95.71,2.97,1,5.97.74,8.85-.33-1.71,1.56-7.01,5.35-6.35,5.51,2.39.58,4.9.46,7.33-.25-1.28,1.58-3.14,3.79-5.03,6.09,1.65-.29,3.24-1.05,4.66-1.85,2-1.11,3.86-2.45,5.86-3.54.11-.06.27.06.18.18-1.02,1.4-2.35,2.51-3.63,3.67,2.35-.58,4.26-2.16,6.35-3.31.13-.08.27.1.16.2-1.99,1.8-3.92,3.67-6.26,5.02,2.42-.04,4.84-.66,7.11-1.5,2.46-.93,4.83-2.09,7.03-3.52.11-.07.26.07.18.18-.7.97-1.52,1.84-2.24,2.79,1.53-.55,2.64-1.81,3.86-2.84.09-.07.26,0,.22.13-1.03,2.52-2.55,4.86-4.56,6.69,1.5-.43,2.89-1.23,4.2-2.06,1.84-1.2,3.58-2.59,5.53-3.6.1-.05.25.07.18.18-.67,1.04-1.3,2.12-1.9,3.21,1.69-1.09,2.87-2.81,4.27-4.23.09-.09.22-.02.23.1.1,1.57.17,3.32,1.11,4.65.43-1.42.49-2.93.88-4.36.03-.13.21-.12.25,0,.5,1.37,1.25,2.74,2.56,3.48.16-1.19,0-2.41.29-3.58.03-.11.19-.14.25-.04.5.92.93,1.86,1.71,2.58.03-.84-.11-1.68-.13-2.52,0-.16.21-.16.26-.03.78,1.98,2.88,3.09,4.7,4.01.09-1.43-.71-2.76-.55-4.19,0-.11.14-.2.22-.1,1.22,1.38,2.55,2.69,4.12,3.68,1.19.75,2.44,1.31,3.76,1.72-.25-.53-.46-1.09-.66-1.64-.6-1.7-1.05-3.61-.69-5.41.02-.13.19-.13.25-.03,2.71,4.18,4.98,8.74,9.28,11.54.11.08.04.3-.1.24-1.66-.65-3.19-1.55-4.64-2.57,2.36,2.93,5,5.59,8.07,7.8.08.06.09.22-.03.25-2.57.46-5.26-.03-7.67-.97-1.02-.42-2.01-.9-2.95-1.48.8,1.26,1.69,2.45,2.74,3.52,1.7,1.72,3.87,2.9,5.47,4.72.05.05.05.16-.03.2-1.36.71-3.16.29-4.57-.08-1.52-.4-3.01-.94-4.48-1.52-1.31-.52-2.61-1.12-3.82-1.84.75,1.2,1.52,2.4,2.3,3.59.07.1-.08.25-.18.17-1.46-.96-3.16-1.97-4.38-3.33.61,1.22,1.25,2.43,2.13,3.48,1.05,1.23,2.6,2.14,3.3,3.64.04.09,0,.2-.12.2-1.31-.04-2.57-.8-3.63-1.49-1.2-.79-2.32-1.67-3.45-2.56-1.77-1.38-3.44-3.06-4.59-5.03.04,1.88.26,3.75.76,5.58.04.13-.13.2-.22.12-1.36-1.11-2.56-2.75-2.98-4.52-.22,2.54-.49,5.1-.23,7.65.02.11-.15.17-.22.09-1.06-1.28-2-2.68-2.68-4.2-.19-.46-.38-.93-.53-1.39-.7.88-1.48,1.71-2.32,2.48-1.17,1.08-2.47,2.09-3.98,2.61-.11.04-.22-.09-.15-.19.62-.82,1.12-1.69,1.58-2.61-.43.54-.9,1.04-1.39,1.5-.89.83-1.88,1.64-3.04,2.05-.09.05-.19-.06-.16-.15.25-.75.57-1.46.93-2.17-1.43,1.15-3.01,2.17-4.6,3.08-1.58.89-3.2,1.71-4.84,2.49-1.52.7-3.16,1.43-4.87,1.37-.13,0-.19-.18-.07-.24,3.58-1.77,6.59-4.49,9.28-7.49-1.05.64-2.14,1.2-3.24,1.74-2.81,1.38-5.71,2.95-8.84,3.42-.15.02-.23-.15-.09-.24,1.08-.85,2.14-1.74,3.13-2.7-1.57,1.02-3.12,2.1-4.77,3.01-1.81.99-3.82,1.9-5.92,1.86-.1,0-.18-.15-.09-.22,2.26-1.75,4.64-3.36,6.38-5.64-3.32,2.43-6.71,4.8-10.41,6.66-2.63,1.32-5.36,2.98-8.28,3.69,3.71.95,7.38.84,10.97-.1-.2.17-.4.32-.6.48-3.4,2.68-10.79,6.76-13.45,8.53,3.08.02,6.14-.75,9.03-1.77,3.52-1.25,6.88-2.89,10.25-4.46.13-.07.27.09.15.2-1.55,1.55-3.24,2.92-5.12,4.04,5.72-.44,10.66-3.74,15.94-5.65.1-.04.21.09.14.19-1.19,1.79-2.88,3.02-4.61,4.19,2.09-.02,4.2-.78,6.05-1.62,2.24-1.02,4.35-2.29,6.43-3.62.07-.05.2.02.2.13-.12,1.34-.8,2.45-1.55,3.52,1.22-.65,2.17-1.78,3.15-2.76.08-.09.27,0,.22.13-.63,1.6-1.92,2.74-3.05,4,2.91-.94,5.41-2.98,7.89-4.68.11-.07.22.03.19.15-.28,1.27-1.14,2.23-2.07,3.08-.91.85-2,1.66-2.55,2.8,3.48-.94,6.48-3.03,9.47-4.96.07-.05.17,0,.19.08.21,1.06.55,2.06,1.1,3,.21-1.21.52-2.38.91-3.54.03-.13.22-.13.25,0,.46,2.13,2.01,3.79,3.32,5.48.2-2.18.37-4.39,1.39-6.36.05-.11.21-.07.24.03.74,2.55,2.31,4.53,4.11,6.37.01-1.78.29-3.6.24-5.38,0-.14.22-.17.26-.03.43,1.68,1.03,3.46,2.08,4.88-.11-2.15-.19-4.29.68-6.31.04-.09.23-.07.25.04.79,5.63,3.34,10.89,6.21,15.74.07.11-.07.25-.17.18-1.59-1-2.89-2.35-4.03-3.82.57,1.83,1.25,3.62,2.06,5.36.06.12-.06.28-.18.18-2.87-2.05-5.8-4.29-7.25-7.59-.2,2.7-.35,5.41-.06,8.11,0,.13-.15.17-.23.11-1.96-1.63-3.06-3.92-4.38-6.04-.37-.57-.67-1.18-.98-1.78-.43.67-.89,1.3-1.39,1.9-1.17,1.42-2.78,3.06-4.75,3.17-.1,0-.15-.12-.11-.2.5-1.16.91-2.34,1.26-3.53-.03.03-.06.05-.09.09-.75.77-1.66,1.61-2.78,1.71-.13,0-.16-.15-.09-.23,1.16-1.45,1.82-3.16,2.43-4.9-1.11,1.58-2.39,3.06-3.8,4.37-1.64,1.51-3.47,2.86-5.58,3.65-.11.04-.19-.1-.15-.2.81-1.63,1.57-3.3,2.14-5.04-1.23,1.12-2.5,2.2-3.86,3.14-2.09,1.45-4.55,2.78-7.18,2.64-.1-.01-.19-.15-.08-.23,1.73-1.49,2.72-3.7,3.39-5.9-1.22,1.17-2.51,2.27-3.9,3.23-2.01,1.4-4.38,2.71-6.9,2.68-.11,0-.15-.11-.11-.19,1.09-2.18,2.26-4.31,3.08-6.61-6.53,4.07-13.62,8.39-21.4,9.23,5.9.43,11.93-1.17,17.65-4.36-.05.07-.12.13-.17.2-.16.19-5.69,4.6-5.08,4.71,2.41.45,9.73-2.7,12.28-3.84-.82.97-3.86,4.93-3.04,4.82,3.29-.47,6.99-1.9,10.53-4.18-.62.97-1.76,3.74-1.45,3.7,3.42-.4,6.83-2.96,9.99-4.9-.54,1.35-1.57,4.59-1.23,4.54,3.27-.41,6.77-2.97,9.6-6.36,1.93,3.26,4.31,6.1,7.27,7.72.41.23.72-4.62.62-6.34,3.08,4.67,7.46,7.66,12.26,6.25.38-.11-1.42-5.01-2.3-6.9.87.83,1.75,1.63,2.64,2.39,4.86,2.08,9.88,3,14.79,2.48.61-.07-7.91-6.51-11.08-9.94-.56-.61-1.12-1.22-1.67-1.84,1.31.66,2.68,1.2,4.14,1.58,4.36,1.12,8.9,2.29,13.18.18Z" class="cls-3"/></g></g></g></g></g></g></svg>