<?xml version="1.0" encoding="UTF-8"?>
<svg xmlns="http://www.w3.org/2000/svg" onmouseup="{ if(window.parent.document.onmouseup) window.parent.document.onmouseup(arguments[0]);}" viewBox="0 0 1043 100.1" data-name="Layer 2" id="Layer_2" xmlns:xlink="http://www.w3.org/1999/xlink"><defs><style>
      .cls-1 {
        fill: none;
      }

      .cls-1, .cls-2, .cls-3, .cls-4 {
        stroke-width: 0px;
      }

      .cls-2 {
        fill: #202729;
      }

      .cls-5 {
        clip-path: url(#clippath);
      }

      .cls-3 {
        fill: #0a0b0c;
      }

      .cls-4 {
        fill: #384046;
      }
    </style><clipPath id="clippath"><rect data-cppathid="10000" height="99.77" width="67.77" x="975.22" class="cls-1"/></clipPath></defs><g data-name="Layer 1" id="Layer_1-2"><g><g><g><g><path data-cppathid="10001" d="m191.52,12.04c0,.87-.7,1.57-1.56,1.57H1.8c-.87,0-1.57-.7-1.57-1.57H.23c0-.87.7-1.57,1.57-1.57h188.15c.86,0,1.56.7,1.56,1.57h0Z" class="cls-2"/><path data-cppathid="10002" d="m189.95,13.84H1.8c-1,0-1.8-.81-1.8-1.8s.81-1.8,1.8-1.8h188.15c.99,0,1.8.81,1.8,1.8s-.81,1.8-1.8,1.8ZM1.8,10.71c-.74,0-1.33.59-1.33,1.33s.6,1.33,1.33,1.33h188.15c.73,0,1.33-.6,1.33-1.33s-.6-1.33-1.33-1.33H1.8Z" class="cls-3"/></g><g><path data-cppathid="10003" d="m191.52,52.07c0,.86-.7,1.56-1.56,1.56H1.8c-.87,0-1.57-.7-1.57-1.56H.23c0-.87.7-1.57,1.57-1.57h188.15c.86,0,1.56.7,1.56,1.57h0Z" class="cls-2"/><path data-cppathid="10004" d="m189.95,53.87H1.8c-1,0-1.8-.81-1.8-1.8s.81-1.81,1.8-1.81h188.15c.99,0,1.8.81,1.8,1.81s-.81,1.8-1.8,1.8ZM1.8,50.74c-.74,0-1.33.6-1.33,1.34s.6,1.33,1.33,1.33h188.15c.73,0,1.33-.6,1.33-1.33s-.6-1.34-1.33-1.34H1.8Z" class="cls-3"/></g><g><path data-cppathid="10005" d="m191.52,89.11c0,.87-.7,1.57-1.56,1.57H1.8c-.87,0-1.57-.7-1.57-1.57H.23c0-.87.7-1.57,1.57-1.57h188.15c.86,0,1.56.7,1.56,1.57h0Z" class="cls-2"/><path data-cppathid="10006" d="m189.95,90.91H1.8c-1,0-1.8-.81-1.8-1.81s.81-1.81,1.8-1.81h188.15c.99,0,1.8.81,1.8,1.81s-.81,1.81-1.8,1.81ZM1.8,87.78c-.74,0-1.33.6-1.33,1.33s.6,1.34,1.33,1.34h188.15c.73,0,1.33-.6,1.33-1.34s-.6-1.33-1.33-1.33H1.8Z" class="cls-3"/></g><g><g><g><path data-cppathid="10007" d="m6.08,99.48c-.7,0-1.29-.89-1.29-2.02l-.13-94.44c0-1.13.57-2.04,1.3-2.04s1.29.92,1.29,2.03l.14,94.44c0,1.13-.57,2.05-1.3,2.03Z" class="cls-4"/><path data-cppathid="10008" d="m6.1,99.72h-.02c-.86,0-1.53-1-1.53-2.26l-.14-94.43c0-1.28.68-2.28,1.54-2.28s1.53,1,1.53,2.27l.14,94.44c0,.76-.25,1.47-.66,1.89-.25.25-.55.38-.86.38ZM5.95,1.21c-.59,0-1.06.81-1.06,1.81l.13,94.43c0,.97.49,1.79,1.06,1.79h.02c.23,0,.41-.13.52-.24.33-.33.53-.92.53-1.55l-.14-94.44c0-.97-.49-1.79-1.06-1.79Z" class="cls-3"/></g><g><path data-cppathid="10009" d="m24.17,99.45c-.72,0-1.29-.89-1.29-2.02l-.13-94.45c0-1.12.58-2.02,1.29-2.03.72,0,1.3.9,1.3,2.03l.14,94.44c0,1.13-.59,2.03-1.31,2.04Z" class="cls-4"/><path data-cppathid="10010" d="m24.18,99.69h0c-.86,0-1.53-.99-1.53-2.26l-.13-94.45c0-.75.24-1.45.66-1.87.25-.26.55-.4.87-.4.85,0,1.53.99,1.54,2.26l.14,94.44c0,1.27-.68,2.27-1.54,2.27Zm-.14-98.5c-.23,0-.42.14-.54.26-.33.34-.52.91-.52,1.53l.13,94.45c0,.98.48,1.79,1.06,1.79s1.07-.83,1.07-1.8l-.14-94.44c0-.99-.49-1.79-1.07-1.79Z" class="cls-3"/></g><g><path data-cppathid="10011" d="m42.28,99.43c-.73,0-1.31-.89-1.31-2.04l-.14-94.44c0-1.13.57-2.03,1.3-2.03.72,0,1.31.91,1.3,2.02l.14,94.44c0,1.13-.58,2.04-1.3,2.04Z" class="cls-4"/><path data-cppathid="10012" d="m42.28,99.67c-.87,0-1.54-1-1.54-2.27l-.14-94.44c0-1.27.68-2.27,1.53-2.27.32,0,.63.13.88.4.42.42.66,1.12.66,1.86l.14,94.43c0,1.28-.68,2.28-1.53,2.28Zm-.14-98.51c-.59,0-1.06.81-1.07,1.8l.13,94.44c0,.99.48,1.8,1.07,1.8s1.05-.81,1.06-1.81l-.14-94.44c0-.62-.19-1.21-.52-1.53-.12-.12-.3-.26-.53-.26Z" class="cls-3"/></g><g><path data-cppathid="10013" d="m60.37,99.41c-.72.01-1.3-.9-1.3-2.03l-.14-94.44c0-1.12.58-2.04,1.31-2.04.71,0,1.3.91,1.3,2.04l.12,94.43c.02,1.14-.57,2.04-1.28,2.04Z" class="cls-4"/><path data-cppathid="10014" d="m60.36,99.64c-.31,0-.61-.13-.87-.39-.42-.42-.66-1.12-.66-1.88l-.14-94.44c0-1.28.69-2.28,1.54-2.28.86,0,1.53,1.01,1.53,2.27l.12,94.43c0,.76-.23,1.47-.65,1.89-.25.26-.55.39-.87.39h0Zm-.13-98.52c-.57,0-1.06.83-1.07,1.81l.14,94.44c0,.63.2,1.22.53,1.55.11.11.3.25.53.25v.23-.23c.24,0,.43-.14.54-.26.33-.33.52-.91.51-1.55l-.12-94.44c0-.97-.49-1.8-1.06-1.8Z" class="cls-3"/></g><g><path data-cppathid="10015" d="m78.46,99.38c-.72,0-1.31-.91-1.31-2.04l-.14-94.43c0-1.12.59-2.04,1.31-2.04.72,0,1.28.9,1.29,2.03l.14,94.44c0,1.13-.58,2.04-1.29,2.04Z" class="cls-4"/><path data-cppathid="10016" d="m78.46,99.62h0c-.43,0-.83-.25-1.12-.7-.27-.43-.42-.98-.42-1.57l-.14-94.43c0-1.27.69-2.27,1.54-2.28.85,0,1.52,1,1.53,2.27l.14,94.44c0,.76-.25,1.47-.67,1.89-.25.26-.55.39-.86.39Zm-.14-98.51c-.57,0-1.06.83-1.07,1.81l.14,94.43c0,.5.12.96.35,1.32.2.31.46.49.72.49h0c.23,0,.41-.13.52-.25.33-.33.53-.93.53-1.55l-.14-94.44c0-.99-.48-1.8-1.06-1.8Z" class="cls-3"/></g><g><path data-cppathid="10017" d="m96.55,99.36c-.73,0-1.3-.91-1.3-2.03l-.13-94.45c0-1.11.58-2.04,1.3-2.04.7,0,1.28.91,1.29,2.04l.14,94.44c0,1.13-.59,2.04-1.3,2.04Z" class="cls-4"/><path data-cppathid="10018" d="m96.55,99.6c-.85,0-1.53-1-1.54-2.27l-.13-94.45c0-.76.25-1.46.67-1.88.25-.25.55-.39.86-.39.86,0,1.53,1,1.53,2.27l.15,94.45c0,1.27-.68,2.27-1.53,2.27Zm-.13-98.52c-.24,0-.42.14-.53.25-.33.33-.54.92-.53,1.55l.13,94.45c0,.99.49,1.79,1.07,1.79s1.06-.82,1.06-1.8l-.15-94.44c0-.98-.49-1.8-1.05-1.8h0Z" class="cls-3"/></g><g><path data-cppathid="10019" d="m114.65,99.34c-.71,0-1.3-.9-1.31-2.04l-.13-94.45c0-1.11.58-2.03,1.29-2.03.72,0,1.31.91,1.31,2.03l.12,94.45c0,1.12-.57,2.03-1.28,2.03Z" class="cls-4"/><path data-cppathid="10020" d="m114.65,99.57h0c-.85,0-1.54-1-1.55-2.27l-.13-94.45c0-1.27.67-2.27,1.52-2.27.87,0,1.54,1,1.54,2.27l.12,94.45c0,1.27-.65,2.26-1.51,2.27Zm-.15-98.52c-.57,0-1.05.83-1.05,1.8l.13,94.45c0,.97.5,1.79,1.08,1.8.57,0,1.05-.82,1.04-1.79l-.12-94.46c0-.97-.49-1.8-1.07-1.8Z" class="cls-3"/></g><g><path data-cppathid="10021" d="m132.74,99.31c-.72,0-1.3-.91-1.3-2.04l-.14-94.45c0-1.12.57-2.04,1.3-2.04.72,0,1.29.92,1.29,2.05l.14,94.43c0,1.13-.59,2.04-1.29,2.04Z" class="cls-4"/><path data-cppathid="10022" d="m132.74,99.55c-.32,0-.62-.14-.87-.39-.42-.42-.66-1.12-.66-1.88l-.15-94.45c0-1.27.68-2.27,1.54-2.27.31,0,.61.14.86.39.42.42.67,1.13.67,1.9l.14,94.43c0,1.28-.67,2.28-1.53,2.28Zm-.14-98.53c-.58,0-1.07.82-1.07,1.8l.14,94.45c0,.63.2,1.22.52,1.55.12.11.3.25.54.25.57,0,1.05-.83,1.06-1.81l-.15-94.43c0-.64-.2-1.24-.53-1.57-.11-.11-.29-.25-.52-.25Z" class="cls-3"/></g><g><path data-cppathid="10023" d="m150.83,99.28c-.72,0-1.31-.91-1.31-2.04l-.14-94.43c0-1.13.59-2.03,1.3-2.04.71,0,1.31.92,1.29,2.04l.14,94.43c.01,1.13-.58,2.04-1.28,2.04Z" class="cls-4"/><path data-cppathid="10024" d="m150.84,99.51h0c-.86,0-1.54-1-1.55-2.27l-.14-94.43c.01-1.27.69-2.27,1.54-2.27.32,0,.62.13.87.39.42.43.66,1.13.65,1.88l.14,94.43c0,.76-.24,1.47-.66,1.89-.25.25-.54.38-.85.38Zm-.14-98.51c-.58,0-1.07.83-1.08,1.8l.14,94.43c0,.98.5,1.8,1.07,1.8h.01c.22,0,.4-.13.51-.25.33-.33.53-.93.52-1.55l-.14-94.44c0-.62-.19-1.21-.52-1.55-.11-.12-.3-.25-.53-.25Z" class="cls-3"/></g><g><path data-cppathid="10025" d="m168.92,99.26c-.72,0-1.31-.92-1.32-2.04l-.13-94.44c0-1.12.59-2.02,1.3-2.03.71,0,1.29.91,1.3,2.03l.13,94.46c0,1.11-.59,2.04-1.29,2.03Z" class="cls-4"/><path data-cppathid="10026" d="m168.93,99.49h0c-.86,0-1.54-1.01-1.55-2.28l-.13-94.44c0-1.26.67-2.26,1.54-2.27.86,0,1.53.99,1.53,2.26l.13,94.46c0,1.25-.68,2.27-1.52,2.27Zm-.14-98.52c-.58,0-1.07.83-1.07,1.79l.13,94.44c.01.97.5,1.8,1.08,1.81v.24s0-.24,0-.24c.56,0,1.05-.84,1.05-1.8l-.13-94.45c0-.97-.49-1.8-1.05-1.8Z" class="cls-3"/></g><g><path data-cppathid="10027" d="m187.01,99.76c-.72,0-1.3-.91-1.3-2.04l-.14-94.43c0-1.12.58-2.05,1.29-2.04.72,0,1.3.9,1.31,2.03l.13,94.45c0,1.12-.58,2.03-1.29,2.04Z" class="cls-4"/><path data-cppathid="10028" d="m187.01,99.99h0c-.43,0-.83-.25-1.12-.7-.27-.42-.42-.98-.41-1.57l-.14-94.43c0-1.28.66-2.28,1.51-2.28s1.54,1,1.55,2.27l.13,94.45c0,1.25-.68,2.27-1.52,2.27h0Zm-.14-98.51c-.58,0-1.05.83-1.05,1.81l.14,94.43c0,.5.12.96.34,1.31.2.31.46.49.72.49.58,0,1.06-.83,1.06-1.8l-.13-94.45c0-.97-.5-1.79-1.07-1.79Z" class="cls-3"/></g></g><g><path data-cppathid="10029" d="m8.46,3c0,1.33-1.12,2.41-2.51,2.42-1.39.01-2.5-1.08-2.51-2.41,0-1.34,1.13-2.41,2.52-2.42,1.38,0,2.5,1.08,2.5,2.41Z" class="cls-4"/><path data-cppathid="10030" d="m5.93,5.65c-1.49,0-2.71-1.19-2.73-2.65C3.2,1.56,4.43.37,5.95.35c1.51,0,2.74,1.19,2.74,2.65,0,1.46-1.23,2.65-2.74,2.65h-.03Zm.03-4.83c-1.26.01-2.28.99-2.28,2.18.01,1.2,1.03,2.17,2.26,2.17v.24l.02-.24c1.26,0,2.28-.98,2.27-2.18,0-1.2-1.02-2.18-2.27-2.18Z" class="cls-3"/></g><g><path data-cppathid="10031" d="m26.53,2.97c0,1.34-1.13,2.42-2.5,2.42-1.4.01-2.51-1.08-2.52-2.4-.01-1.36,1.12-2.42,2.51-2.43,1.39,0,2.49,1.07,2.52,2.41Z" class="cls-4"/><path data-cppathid="10032" d="m24.01,5.63c-1.5,0-2.72-1.18-2.74-2.64,0-1.48,1.19-2.66,2.74-2.67,1.52,0,2.73,1.16,2.75,2.64,0,1.46-1.23,2.66-2.74,2.66h-.02Zm0-4.83c-1.28,0-2.28.97-2.27,2.2,0,1.2,1.03,2.17,2.26,2.17v.24l.02-.24c1.25,0,2.27-.99,2.27-2.19-.02-1.22-1.02-2.17-2.28-2.17Z" class="cls-3"/></g><g><path data-cppathid="10033" d="m44.6,2.95c0,1.34-1.12,2.42-2.5,2.42-1.39,0-2.5-1.08-2.51-2.41,0-1.33,1.12-2.4,2.51-2.42,1.39,0,2.5,1.08,2.51,2.41Z" class="cls-4"/><path data-cppathid="10034" d="m42.08,5.61c-1.49,0-2.72-1.19-2.73-2.65,0-1.47,1.2-2.64,2.74-2.66,1.51,0,2.73,1.18,2.74,2.64,0,1.47-1.23,2.66-2.74,2.66h-.02Zm.03-4.83c-1.29.02-2.29.97-2.28,2.18,0,1.2,1.02,2.18,2.26,2.18v.24l.02-.24c1.25,0,2.27-.98,2.27-2.19,0-1.2-1.02-2.17-2.26-2.17Z" class="cls-3"/></g><g><path data-cppathid="10035" d="m62.67,2.92c.02,1.34-1.13,2.42-2.51,2.41-1.37,0-2.51-1.07-2.51-2.4,0-1.35,1.13-2.42,2.52-2.43,1.38,0,2.5,1.08,2.5,2.41Z" class="cls-4"/><path data-cppathid="10036" d="m60.18,5.57l-.03-.24v-.24h.01c.64,0,1.23-.25,1.66-.68.4-.41.62-.94.61-1.49,0-1.2-1.02-2.18-2.27-2.18-1.26,0-2.28.99-2.28,2.19s1.02,2.16,2.26,2.16v.47c-1.5,0-2.73-1.18-2.73-2.63,0-1.46,1.23-2.66,2.75-2.66,1.51,0,2.73,1.19,2.74,2.65,0,.68-.26,1.33-.74,1.83-.52.52-1.24.82-1.98.82Z" class="cls-3"/></g><g><path data-cppathid="10037" d="m80.74,2.9c0,1.33-1.12,2.43-2.51,2.43s-2.5-1.08-2.52-2.42c0-1.33,1.13-2.43,2.52-2.41,1.39,0,2.51,1.07,2.51,2.4Z" class="cls-4"/><path data-cppathid="10038" d="m78.23,5.56c-1.51,0-2.74-1.19-2.75-2.66,0-.69.27-1.34.77-1.84.52-.52,1.21-.8,1.95-.8,1.55,0,2.78,1.18,2.78,2.64,0,.69-.27,1.35-.77,1.85-.52.52-1.23.82-1.98.82Zm.01-4.83c-.66,0-1.23.24-1.66.67-.41.41-.63.94-.63,1.51.01,1.2,1.03,2.18,2.28,2.18.62,0,1.21-.24,1.64-.68.41-.41.63-.95.63-1.51,0-1.19-1.02-2.17-2.27-2.17h0Z" class="cls-3"/></g><g><path data-cppathid="10039" d="m98.8,2.88c0,1.33-1.11,2.42-2.5,2.42s-2.51-1.08-2.51-2.41c-.01-1.34,1.12-2.43,2.49-2.42,1.4,0,2.52,1.07,2.52,2.41Z" class="cls-4"/><path data-cppathid="10040" d="m96.31,5.53c-1.52,0-2.75-1.18-2.75-2.64,0-.69.26-1.35.76-1.85.52-.52,1.21-.81,1.95-.81,1.54,0,2.77,1.19,2.77,2.65,0,.69-.27,1.34-.76,1.84-.52.52-1.22.81-1.98.81Zm0-4.83c-.64,0-1.22.24-1.64.67-.41.41-.63.95-.62,1.52,0,1.2,1.02,2.17,2.28,2.17.63,0,1.21-.24,1.64-.67.41-.41.63-.94.62-1.51,0-1.2-1.02-2.18-2.27-2.18Z" class="cls-3"/></g><g><path data-cppathid="10041" d="m116.88,2.86c0,1.32-1.12,2.41-2.51,2.4-1.38.01-2.51-1.08-2.51-2.4-.01-1.34,1.11-2.42,2.51-2.42,1.38,0,2.5,1.09,2.51,2.42Z" class="cls-4"/><path data-cppathid="10042" d="m114.35,5.5c-.73,0-1.41-.27-1.92-.77-.52-.5-.8-1.16-.8-1.87,0-.68.26-1.34.75-1.84.52-.53,1.23-.82,2-.82,1.51,0,2.74,1.2,2.75,2.66-.01,1.46-1.24,2.64-2.73,2.64l-.03-.24.02-.23c1.25,0,2.27-.97,2.28-2.17,0-1.2-1.03-2.18-2.27-2.18-.64,0-1.23.24-1.66.68-.4.41-.62.94-.61,1.5,0,.58.23,1.12.66,1.53.43.41.99.64,1.6.64v.47Z" class="cls-3"/></g><g><path data-cppathid="10043" d="m134.94,2.83c.01,1.34-1.11,2.41-2.49,2.41-1.4,0-2.52-1.07-2.52-2.4s1.12-2.42,2.51-2.43c1.38,0,2.5,1.09,2.5,2.42Z" class="cls-4"/><path data-cppathid="10044" d="m132.44,5.47c-1.51,0-2.75-1.18-2.75-2.64s1.23-2.66,2.74-2.67c1.51,0,2.74,1.2,2.74,2.65,0,.69-.26,1.34-.75,1.84-.52.52-1.22.81-1.97.81h0Zm0-4.83c-1.25,0-2.27.99-2.27,2.19s1.02,2.16,2.27,2.16v.24-.24c.64,0,1.22-.24,1.65-.67.4-.41.62-.94.61-1.51,0-1.2-1.02-2.17-2.26-2.18Z" class="cls-3"/></g><g><path data-cppathid="10045" d="m153.03,2.8c0,1.33-1.12,2.42-2.51,2.42s-2.52-1.08-2.53-2.42c0-1.33,1.13-2.42,2.51-2.42s2.52,1.08,2.52,2.42Z" class="cls-4"/><path data-cppathid="10046" d="m150.52,5.46c-1.52,0-2.76-1.19-2.76-2.65,0-1.47,1.24-2.66,2.75-2.66s2.76,1.19,2.76,2.65c0,1.47-1.24,2.66-2.74,2.66Zm-.02-4.84c-1.25,0-2.27.98-2.27,2.19,0,1.2,1.03,2.18,2.29,2.18s2.27-.98,2.27-2.19c0-1.2-1.03-2.18-2.29-2.18Z" class="cls-3"/></g><g><path data-cppathid="10047" d="m171.09,2.76c0,1.34-1.11,2.43-2.51,2.43-1.38.01-2.51-1.07-2.51-2.4,0-1.35,1.12-2.43,2.5-2.44,1.39.02,2.51,1.08,2.51,2.41Z" class="cls-4"/><path data-cppathid="10048" d="m168.56,5.42c-1.5,0-2.72-1.18-2.72-2.63,0-1.47,1.22-2.67,2.74-2.67,1.54.02,2.75,1.18,2.75,2.65,0,1.47-1.23,2.66-2.74,2.66h-.02Zm.02-4.84c-1.25,0-2.27.99-2.27,2.2,0,1.19,1.01,2.16,2.25,2.16v.24l.02-.24c1.25,0,2.27-.98,2.27-2.19,0-1.2-1-2.16-2.28-2.18Z" class="cls-3"/></g><g><path data-cppathid="10049" d="m189.16,2.75c0,1.33-1.12,2.41-2.5,2.42-1.38,0-2.51-1.08-2.51-2.41,0-1.32,1.1-2.42,2.5-2.42,1.39,0,2.51,1.08,2.51,2.41Z" class="cls-4"/><path data-cppathid="10050" d="m186.64,5.4c-1.5,0-2.73-1.19-2.73-2.65,0-.69.27-1.35.76-1.85.52-.52,1.22-.81,1.97-.81,1.53,0,2.75,1.19,2.75,2.65,0,1.45-1.22,2.64-2.74,2.66h-.01Zm.02-4.83c-.64,0-1.23.24-1.65.67-.41.41-.63.95-.62,1.51,0,1.2,1.01,2.18,2.26,2.18v.24-.24c1.27-.01,2.29-.99,2.28-2.18,0-1.2-1.01-2.18-2.26-2.18Z" class="cls-3"/></g><g><path data-cppathid="10051" d="m8.6,97.45c0,1.34-1.13,2.42-2.51,2.42-1.39,0-2.52-1.07-2.52-2.41,0-1.34,1.13-2.42,2.51-2.42s2.51,1.08,2.52,2.41Z" class="cls-4"/><path data-cppathid="10052" d="m6.08,100.1c-1.51,0-2.74-1.19-2.74-2.64,0-.69.27-1.34.76-1.84.52-.52,1.24-.82,1.98-.82,1.51,0,2.74,1.19,2.76,2.64,0,1.47-1.23,2.66-2.75,2.66h0Zm0-4.83c-.61,0-1.22.25-1.64.68-.41.41-.63.95-.63,1.51,0,1.19,1.02,2.17,2.27,2.17v.23-.23c1.26,0,2.29-.98,2.29-2.18,0-1.2-1.03-2.18-2.29-2.18Z" class="cls-3"/></g><g><path data-cppathid="10053" d="m26.65,97.42c0,1.34-1.11,2.4-2.5,2.42-1.38.01-2.51-1.08-2.51-2.41s1.13-2.42,2.52-2.43c1.37,0,2.5,1.08,2.49,2.41Z" class="cls-4"/><path data-cppathid="10054" d="m24.14,100.08c-1.51,0-2.73-1.19-2.73-2.65s1.23-2.65,2.75-2.66c.74,0,1.46.3,1.97.82.49.49.75,1.14.75,1.83,0,1.47-1.19,2.64-2.73,2.66h-.01Zm.02-4.83c-1.26,0-2.28.99-2.28,2.19s1.01,2.17,2.26,2.17v.24-.24c1.29-.01,2.28-.97,2.27-2.18,0-.56-.22-1.09-.62-1.5-.42-.43-1.02-.68-1.64-.68Z" class="cls-3"/></g><g><path data-cppathid="10055" d="m44.73,97.4c0,1.33-1.12,2.42-2.5,2.42s-2.5-1.09-2.52-2.41c0-1.33,1.12-2.41,2.52-2.42,1.39,0,2.5,1.08,2.5,2.41Z" class="cls-4"/><path data-cppathid="10056" d="m42.23,100.06c-1.5,0-2.74-1.19-2.75-2.65,0-1.46,1.23-2.65,2.75-2.66,1.51,0,2.74,1.19,2.74,2.65,0,1.47-1.23,2.66-2.74,2.66Zm0-4.84c-1.26,0-2.28.98-2.28,2.19.01,1.2,1.03,2.18,2.28,2.18s2.26-.98,2.27-2.19c0-1.2-1.02-2.18-2.27-2.18Z" class="cls-3"/></g><g><path data-cppathid="10057" d="m62.81,97.35c0,1.36-1.13,2.44-2.51,2.44-1.39,0-2.51-1.08-2.52-2.41,0-1.33,1.12-2.41,2.52-2.42,1.38,0,2.51,1.07,2.51,2.39Z" class="cls-4"/><path data-cppathid="10058" d="m60.3,100.03h0c-1.51,0-2.74-1.2-2.75-2.65,0-1.46,1.23-2.65,2.75-2.66,1.52,0,2.75,1.18,2.75,2.63s-1.23,2.68-2.75,2.68Zm.02-4.83c-1.28,0-2.3.98-2.3,2.18,0,1.19,1.03,2.17,2.28,2.18,1.25,0,2.27-.99,2.27-2.2s-1.01-2.16-2.25-2.16Z" class="cls-3"/></g><g><path data-cppathid="10059" d="m80.87,97.34c.02,1.34-1.11,2.43-2.51,2.43-1.37,0-2.5-1.09-2.51-2.42,0-1.34,1.13-2.42,2.51-2.42,1.39,0,2.51,1.08,2.51,2.41Z" class="cls-4"/><path data-cppathid="10060" d="m78.36,100.01h0c-1.5-.02-2.73-1.2-2.74-2.65,0-.69.27-1.35.77-1.85.51-.52,1.24-.82,1.98-.82,1.52,0,2.75,1.19,2.75,2.64,0,.68-.26,1.34-.75,1.84-.52.53-1.23.83-2,.83Zm0-4.84c-.63,0-1.22.24-1.65.67-.41.41-.63.95-.63,1.51,0,1.19,1.03,2.17,2.27,2.18.64,0,1.23-.25,1.66-.69.4-.41.62-.95.61-1.5,0-1.2-1.02-2.18-2.26-2.18Z" class="cls-3"/></g><g><path data-cppathid="10061" d="m98.94,97.32c0,1.32-1.12,2.42-2.51,2.42s-2.51-1.09-2.51-2.43,1.12-2.39,2.5-2.39c1.4-.01,2.52,1.07,2.52,2.4Z" class="cls-4"/><path data-cppathid="10062" d="m96.43,99.98c-1.51,0-2.75-1.2-2.75-2.67s1.23-2.63,2.74-2.63,2.75,1.18,2.75,2.64c0,.69-.27,1.35-.77,1.85-.52.52-1.22.81-1.97.81Zm.01-4.83c-1.27,0-2.28.97-2.28,2.16s1.02,2.2,2.27,2.2c.62,0,1.2-.24,1.64-.67.41-.41.64-.95.64-1.51,0-1.2-1.02-2.17-2.26-2.17Z" class="cls-3"/></g><g><path data-cppathid="10063" d="m117.01,97.29c0,1.34-1.11,2.43-2.5,2.43-1.39,0-2.5-1.08-2.51-2.41,0-1.33,1.13-2.42,2.51-2.41,1.39-.01,2.5,1.06,2.5,2.4Z" class="cls-4"/><path data-cppathid="10064" d="m114.51,99.96h0c-1.5-.01-2.74-1.2-2.75-2.65.01-1.47,1.24-2.65,2.74-2.65s2.74,1.16,2.75,2.63c0,.7-.27,1.36-.77,1.86-.52.52-1.22.81-1.97.81Zm.02-4.82c-1.27,0-2.29.97-2.3,2.18,0,1.19,1.03,2.17,2.28,2.17.62,0,1.21-.24,1.63-.67.41-.41.63-.95.63-1.52,0-1.21-.99-2.16-2.25-2.16Z" class="cls-3"/></g><g><path data-cppathid="10065" d="m135.08,97.27c.01,1.33-1.1,2.43-2.49,2.43-1.4,0-2.52-1.09-2.52-2.42s1.12-2.42,2.51-2.41c1.38,0,2.5,1.06,2.5,2.4Z" class="cls-4"/><path data-cppathid="10066" d="m132.6,99.92h-.01c-1.52,0-2.76-1.19-2.76-2.65s1.22-2.64,2.73-2.64,2.76,1.18,2.76,2.64c0,.69-.26,1.35-.76,1.85-.52.53-1.21.81-1.96.81Zm0-4.82c-1.28,0-2.29.97-2.29,2.17s1.03,2.18,2.29,2.18v.24s0-.24,0-.24c.62,0,1.19-.24,1.62-.67.41-.41.63-.95.62-1.51,0-1.19-1.01-2.16-2.25-2.16Z" class="cls-3"/></g><g><path data-cppathid="10067" d="m153.16,97.24c0,1.34-1.12,2.42-2.5,2.42-1.4,0-2.52-1.07-2.53-2.41,0-1.34,1.13-2.42,2.52-2.42s2.51,1.08,2.51,2.41Z" class="cls-4"/><path data-cppathid="10068" d="m150.65,99.9c-1.51,0-2.74-1.19-2.76-2.65,0-.69.27-1.35.77-1.84.52-.53,1.23-.81,1.99-.81,1.52,0,2.75,1.19,2.75,2.64,0,.69-.27,1.35-.77,1.85-.52.52-1.22.81-1.97.81h-.01Zm0-4.83c-.63,0-1.22.24-1.65.68-.41.41-.63.94-.63,1.51.01,1.2,1.03,2.17,2.28,2.17v.24-.24c.63,0,1.21-.24,1.64-.67.41-.4.63-.94.63-1.51,0-1.2-1.02-2.17-2.28-2.17Z" class="cls-3"/></g><g><path data-cppathid="10069" d="m171.22,97.22c0,1.34-1.11,2.41-2.5,2.41-1.39,0-2.52-1.08-2.53-2.41,0-1.33,1.13-2.41,2.52-2.42,1.38,0,2.51,1.08,2.51,2.42Z" class="cls-4"/><path data-cppathid="10070" d="m168.74,99.87h-.01c-1.51,0-2.75-1.19-2.76-2.64.01-1.46,1.25-2.66,2.75-2.66,1.52,0,2.74,1.19,2.74,2.66,0,.69-.27,1.34-.76,1.84-.52.52-1.21.81-1.96.81Zm-.02-4.83c-1.26,0-2.28.99-2.29,2.19,0,1.19,1.04,2.17,2.29,2.17h.01c.62,0,1.19-.24,1.62-.66.41-.41.63-.94.62-1.5,0-1.21-1.02-2.19-2.26-2.19Z" class="cls-3"/></g><g><path data-cppathid="10071" d="m189.3,97.19c0,1.34-1.11,2.41-2.51,2.43-1.39,0-2.52-1.09-2.52-2.41,0-1.34,1.13-2.42,2.5-2.43,1.4,0,2.52,1.09,2.53,2.41Z" class="cls-4"/><path data-cppathid="10072" d="m186.79,99.85c-1.52,0-2.75-1.19-2.75-2.65,0-1.46,1.22-2.66,2.73-2.67,1.51,0,2.75,1.19,2.77,2.65,0,1.48-1.19,2.65-2.74,2.67h0Zm-.02-4.84c-1.25,0-2.26.99-2.26,2.19,0,1.2,1.02,2.18,2.28,2.18,1.28-.02,2.28-.98,2.28-2.19-.01-1.2-1.04-2.18-2.29-2.18Z" class="cls-3"/></g></g></g><g><g><path data-cppathid="10073" d="m386.87,12.04c0,.87-.7,1.57-1.56,1.57h-188.15c-.86,0-1.57-.7-1.57-1.57h0c0-.87.7-1.57,1.57-1.57h188.15c.86,0,1.56.7,1.56,1.57h0Z" class="cls-2"/><path data-cppathid="10074" d="m385.31,13.84h-188.15c-.99,0-1.8-.81-1.8-1.8s.81-1.8,1.8-1.8h188.15c1,0,1.8.81,1.8,1.8s-.8,1.8-1.8,1.8Zm-188.15-3.13c-.73,0-1.33.59-1.33,1.33s.6,1.33,1.33,1.33h188.15c.73,0,1.33-.6,1.33-1.33s-.6-1.33-1.33-1.33h-188.15Z" class="cls-3"/></g><g><path data-cppathid="10075" d="m386.87,52.07c0,.86-.7,1.56-1.56,1.56h-188.15c-.86,0-1.57-.7-1.57-1.56h0c0-.87.7-1.57,1.57-1.57h188.15c.86,0,1.56.7,1.56,1.57h0Z" class="cls-2"/><path data-cppathid="10076" d="m385.31,53.87h-188.15c-.99,0-1.8-.81-1.8-1.8s.81-1.81,1.8-1.81h188.15c1,0,1.8.81,1.8,1.81s-.8,1.8-1.8,1.8Zm-188.15-3.14c-.73,0-1.33.6-1.33,1.34s.6,1.33,1.33,1.33h188.15c.73,0,1.33-.6,1.33-1.33s-.6-1.34-1.33-1.34h-188.15Z" class="cls-3"/></g><g><path data-cppathid="10077" d="m386.87,89.11c0,.87-.7,1.57-1.56,1.57h-188.15c-.86,0-1.57-.7-1.57-1.57h0c0-.87.7-1.57,1.57-1.57h188.15c.86,0,1.56.7,1.56,1.57h0Z" class="cls-2"/><path data-cppathid="10078" d="m385.31,90.91h-188.15c-.99,0-1.8-.81-1.8-1.81s.81-1.81,1.8-1.81h188.15c1,0,1.8.81,1.8,1.81s-.8,1.81-1.8,1.81Zm-188.15-3.14c-.73,0-1.33.6-1.33,1.33s.6,1.34,1.33,1.34h188.15c.73,0,1.33-.6,1.33-1.34s-.6-1.33-1.33-1.33h-188.15Z" class="cls-3"/></g><g><g><g><path data-cppathid="10079" d="m201.43,99.48c-.7,0-1.29-.89-1.29-2.02l-.13-94.44c0-1.13.58-2.04,1.3-2.04s1.3.92,1.3,2.03l.14,94.44c0,1.13-.58,2.05-1.3,2.03Z" class="cls-4"/><path data-cppathid="10080" d="m201.45,99.72h-.02c-.85,0-1.52-1-1.53-2.26l-.13-94.43c0-1.28.68-2.28,1.53-2.28s1.53,1,1.53,2.27l.14,94.44c0,.76-.25,1.47-.67,1.89-.25.25-.55.38-.86.38Zm-.15-98.5c-.58,0-1.06.81-1.06,1.81l.13,94.43c0,.97.49,1.79,1.06,1.79h.01c.23,0,.41-.13.53-.24.33-.33.53-.92.53-1.55l-.14-94.44c0-.97-.49-1.79-1.06-1.79Z" class="cls-3"/></g><g><path data-cppathid="10081" d="m219.53,99.45c-.72,0-1.3-.89-1.3-2.02l-.13-94.45c0-1.12.58-2.02,1.29-2.03.72,0,1.29.9,1.3,2.03l.14,94.44c0,1.13-.59,2.03-1.3,2.04Z" class="cls-4"/><path data-cppathid="10082" d="m219.53,99.69h0c-.86,0-1.53-.99-1.53-2.26l-.13-94.45c0-.75.24-1.45.66-1.87.25-.26.56-.4.87-.4.85,0,1.53.99,1.54,2.26l.14,94.44c0,1.27-.68,2.27-1.54,2.27Zm-.14-98.5c-.24,0-.42.14-.54.26-.33.34-.52.91-.52,1.53l.13,94.45c0,.98.48,1.79,1.06,1.79s1.07-.83,1.07-1.8l-.14-94.44c-.01-.99-.49-1.79-1.07-1.79Z" class="cls-3"/></g><g><path data-cppathid="10083" d="m237.63,99.43c-.72,0-1.31-.89-1.31-2.04l-.14-94.44c0-1.13.57-2.03,1.3-2.03.72,0,1.31.91,1.3,2.02l.15,94.44c0,1.13-.58,2.04-1.3,2.04Z" class="cls-4"/><path data-cppathid="10084" d="m237.63,99.67c-.86,0-1.54-1-1.54-2.27l-.14-94.44c0-1.27.68-2.27,1.53-2.27.32,0,.62.13.88.4.42.42.66,1.12.66,1.86l.14,94.43c0,1.28-.69,2.28-1.54,2.28Zm-.14-98.51c-.59,0-1.06.81-1.07,1.8l.14,94.44c0,.99.48,1.8,1.07,1.8s1.06-.81,1.06-1.81l-.15-94.44c0-.62-.19-1.21-.52-1.53-.11-.12-.3-.26-.54-.26Z" class="cls-3"/></g><g><path data-cppathid="10085" d="m255.72,99.41c-.72.01-1.31-.9-1.3-2.03l-.14-94.44c0-1.12.58-2.04,1.31-2.04.71,0,1.3.91,1.3,2.04l.12,94.43c.01,1.14-.57,2.04-1.28,2.04Z" class="cls-4"/><path data-cppathid="10086" d="m255.71,99.64c-.32,0-.61-.13-.87-.39-.42-.42-.66-1.12-.66-1.88l-.14-94.44c0-1.28.69-2.28,1.54-2.28.86,0,1.53,1.01,1.53,2.27l.12,94.43c0,.76-.23,1.47-.65,1.89-.26.26-.56.39-.87.39h0Zm-.13-98.52c-.57,0-1.06.83-1.07,1.81l.14,94.44c0,.63.2,1.22.52,1.54.11.12.3.26.53.26v.23-.23c.24,0,.43-.14.54-.26.33-.33.52-.91.51-1.55l-.12-94.44c0-.97-.49-1.8-1.06-1.8Z" class="cls-3"/></g><g><path data-cppathid="10087" d="m273.81,99.38c-.72,0-1.31-.91-1.31-2.04l-.14-94.43c.01-1.12.59-2.04,1.31-2.04.72,0,1.28.9,1.3,2.03l.13,94.44c0,1.13-.58,2.04-1.29,2.04Z" class="cls-4"/><path data-cppathid="10088" d="m273.81,99.62h0c-.43,0-.83-.25-1.12-.7-.27-.43-.42-.98-.42-1.57l-.14-94.43c0-1.27.69-2.27,1.54-2.28.85,0,1.52,1,1.53,2.27l.13,94.44c0,.76-.24,1.47-.67,1.89-.25.26-.55.39-.86.39Zm-.14-98.51c-.57,0-1.06.83-1.07,1.81l.14,94.43c0,.5.12.96.35,1.32.2.31.46.49.72.49h0c.23,0,.41-.13.52-.25.33-.33.53-.93.53-1.55l-.13-94.44c0-.99-.48-1.8-1.06-1.8Z" class="cls-3"/></g><g><path data-cppathid="10089" d="m291.9,99.36c-.73,0-1.3-.91-1.3-2.03l-.13-94.45c0-1.11.58-2.04,1.3-2.04.7,0,1.28.91,1.29,2.04l.15,94.44c0,1.13-.59,2.04-1.3,2.04Z" class="cls-4"/><path data-cppathid="10090" d="m291.9,99.6c-.85,0-1.53-1-1.54-2.27l-.13-94.45c0-.76.25-1.46.67-1.88.25-.25.55-.39.86-.39.85,0,1.53,1.02,1.53,2.27l.15,94.44c0,1.27-.68,2.27-1.53,2.27Zm-.14-98.52c-.24,0-.42.14-.53.25-.33.33-.53.92-.53,1.55l.13,94.45c0,.99.49,1.79,1.07,1.79s1.06-.82,1.06-1.8l-.15-94.44c0-.98-.48-1.8-1.05-1.8h0Z" class="cls-3"/></g><g><path data-cppathid="10091" d="m310,99.34c-.71,0-1.3-.9-1.31-2.04l-.13-94.45c0-1.11.57-2.03,1.29-2.03.72,0,1.31.91,1.31,2.03l.12,94.45c0,1.12-.56,2.03-1.28,2.03Z" class="cls-4"/><path data-cppathid="10092" d="m310,99.57h0c-.85,0-1.53-1-1.55-2.27l-.13-94.45c0-1.27.67-2.27,1.53-2.27.87,0,1.54,1,1.54,2.27l.12,94.45c0,1.27-.66,2.26-1.51,2.27Zm-.15-98.52c-.57,0-1.05.83-1.05,1.8l.13,94.45c.01.97.5,1.79,1.08,1.8.57,0,1.05-.82,1.04-1.79l-.12-94.46c0-.97-.49-1.8-1.07-1.8Z" class="cls-3"/></g><g><path data-cppathid="10093" d="m328.09,99.31c-.72,0-1.3-.91-1.29-2.04l-.14-94.45c0-1.12.57-2.04,1.3-2.04.72,0,1.29.92,1.29,2.05l.14,94.43c0,1.13-.59,2.04-1.29,2.04Z" class="cls-4"/><path data-cppathid="10094" d="m328.09,99.55c-.31,0-.62-.14-.87-.39-.42-.42-.67-1.12-.66-1.88l-.14-94.45c0-1.27.67-2.27,1.53-2.27.32,0,.61.14.86.39.42.42.67,1.13.67,1.9l.14,94.43c0,1.28-.68,2.28-1.53,2.28Zm-.13-98.53c-.58,0-1.07.82-1.07,1.8l.14,94.45c0,.63.2,1.22.53,1.55.11.11.3.25.53.25.57,0,1.05-.83,1.06-1.81l-.14-94.43c0-.64-.2-1.24-.53-1.57-.11-.11-.29-.25-.52-.25Z" class="cls-3"/></g><g><path data-cppathid="10095" d="m346.18,99.28c-.72,0-1.31-.91-1.31-2.04l-.14-94.43c.01-1.13.59-2.03,1.31-2.04.71,0,1.31.92,1.29,2.04l.14,94.43c0,1.13-.58,2.04-1.28,2.04Z" class="cls-4"/><path data-cppathid="10096" d="m346.19,99.51h0c-.87,0-1.54-1-1.55-2.27l-.14-94.43c.02-1.27.69-2.27,1.54-2.27.33,0,.62.13.88.39.42.43.66,1.13.65,1.88l.14,94.43c0,.76-.24,1.47-.66,1.89-.25.25-.54.38-.85.38Zm-.14-98.51c-.58,0-1.07.83-1.08,1.8l.14,94.43c0,.98.5,1.8,1.07,1.8h.01c.23,0,.4-.13.52-.25.33-.33.53-.93.52-1.55l-.14-94.44c.01-.62-.18-1.21-.51-1.55-.12-.12-.3-.25-.53-.25Z" class="cls-3"/></g><g><path data-cppathid="10097" d="m364.28,99.26c-.72,0-1.31-.92-1.32-2.04l-.13-94.44c0-1.12.59-2.02,1.31-2.03.71,0,1.29.91,1.29,2.03l.14,94.46c0,1.11-.59,2.04-1.29,2.03Z" class="cls-4"/><path data-cppathid="10098" d="m364.28,99.49h0c-.86,0-1.54-1.01-1.55-2.28l-.13-94.44c0-1.26.68-2.26,1.54-2.27.86,0,1.53.99,1.53,2.26l.14,94.46c0,1.25-.68,2.27-1.52,2.27Zm-.14-98.52c-.58,0-1.07.83-1.07,1.79l.13,94.44c.01.97.5,1.8,1.08,1.81v.24s0-.24,0-.24c.56,0,1.05-.84,1.05-1.8l-.14-94.45c0-.97-.48-1.8-1.05-1.8Z" class="cls-3"/></g><g><path data-cppathid="10099" d="m382.36,99.76c-.72,0-1.3-.91-1.3-2.04l-.14-94.43c0-1.12.57-2.05,1.28-2.04.72,0,1.3.9,1.31,2.03l.13,94.45c0,1.12-.58,2.03-1.29,2.04Z" class="cls-4"/><path data-cppathid="10100" d="m382.36,99.99h0c-.87,0-1.54-1-1.53-2.27l-.13-94.43c0-1.28.66-2.28,1.51-2.28s1.54,1,1.55,2.27l.13,94.45c0,1.25-.68,2.27-1.53,2.27h0Zm-.14-98.51c-.58,0-1.05.83-1.05,1.81l.14,94.43c0,.97.48,1.79,1.06,1.8.57,0,1.06-.83,1.05-1.8l-.13-94.45c0-.97-.5-1.79-1.07-1.79Z" class="cls-3"/></g></g><g><path data-cppathid="10101" d="m203.81,3c0,1.33-1.12,2.41-2.51,2.42-1.39.01-2.5-1.08-2.51-2.41,0-1.34,1.13-2.41,2.52-2.42,1.38,0,2.5,1.08,2.5,2.41Z" class="cls-4"/><path data-cppathid="10102" d="m201.28,5.65c-1.49,0-2.72-1.19-2.73-2.65,0-1.45,1.23-2.64,2.75-2.66,1.51,0,2.74,1.19,2.74,2.65,0,.71-.28,1.37-.8,1.88-.52.5-1.21.77-1.94.78h-.02Zm.03-4.83c-1.26.01-2.28.99-2.28,2.18.01,1.2,1.02,2.17,2.26,2.17v.24l.02-.24c.61,0,1.18-.23,1.61-.65.43-.41.66-.96.66-1.54,0-1.2-1.02-2.18-2.27-2.18Z" class="cls-3"/></g><g><path data-cppathid="10103" d="m221.88,2.97c0,1.34-1.12,2.42-2.5,2.42-1.39.01-2.51-1.08-2.52-2.4,0-1.36,1.12-2.42,2.51-2.43,1.39,0,2.5,1.07,2.51,2.41Z" class="cls-4"/><path data-cppathid="10104" d="m219.36,5.63c-1.5,0-2.72-1.18-2.74-2.64,0-1.48,1.2-2.66,2.74-2.67,1.52,0,2.73,1.16,2.75,2.64,0,1.46-1.22,2.66-2.73,2.66h-.02Zm0-4.83c-1.28,0-2.28.97-2.27,2.2.01,1.2,1.03,2.17,2.27,2.17v.24l.02-.24c1.25,0,2.26-.99,2.26-2.19-.02-1.22-1.02-2.17-2.28-2.17Z" class="cls-3"/></g><g><path data-cppathid="10105" d="m239.95,2.95c0,1.34-1.12,2.42-2.5,2.42-1.39,0-2.5-1.08-2.51-2.41,0-1.33,1.11-2.4,2.51-2.42,1.39,0,2.49,1.08,2.51,2.41Z" class="cls-4"/><path data-cppathid="10106" d="m237.43,5.61c-1.49,0-2.72-1.19-2.73-2.65,0-1.47,1.2-2.64,2.74-2.66,1.51,0,2.73,1.18,2.75,2.64,0,1.47-1.23,2.66-2.74,2.66h-.02Zm.03-4.83c-1.29.02-2.29.97-2.28,2.18,0,1.2,1.02,2.18,2.25,2.18v.24l.02-.24c1.25,0,2.27-.98,2.27-2.19-.01-1.2-1.02-2.17-2.26-2.17Z" class="cls-3"/></g><g><path data-cppathid="10107" d="m258.02,2.92c.02,1.34-1.13,2.42-2.5,2.41-1.38,0-2.51-1.07-2.51-2.4,0-1.35,1.13-2.42,2.52-2.43,1.37,0,2.5,1.08,2.5,2.41Z" class="cls-4"/><path data-cppathid="10108" d="m255.53,5.57l-.03-.24v-.24h.02c.63,0,1.23-.25,1.66-.68.4-.41.62-.94.61-1.49,0-1.2-1.02-2.18-2.27-2.18-1.25,0-2.28.99-2.28,2.19,0,1.19,1.02,2.16,2.26,2.16v.47c-1.5,0-2.73-1.18-2.73-2.63,0-1.46,1.23-2.66,2.75-2.66,1.51,0,2.73,1.19,2.74,2.65,0,.68-.26,1.33-.75,1.83-.51.52-1.24.82-1.98.82Z" class="cls-3"/></g><g><path data-cppathid="10109" d="m276.1,2.9c0,1.33-1.12,2.43-2.51,2.43s-2.5-1.08-2.51-2.42c0-1.33,1.12-2.43,2.51-2.41,1.39,0,2.51,1.07,2.51,2.4Z" class="cls-4"/><path data-cppathid="10110" d="m273.58,5.56c-1.51,0-2.74-1.19-2.75-2.66,0-.69.27-1.34.76-1.84.52-.52,1.21-.81,1.95-.81,1.55,0,2.78,1.18,2.78,2.64,0,.69-.27,1.35-.77,1.85-.52.53-1.23.82-1.98.82Zm.01-4.83c-.66,0-1.23.24-1.66.67-.41.41-.63.94-.63,1.51,0,1.2,1.03,2.18,2.28,2.18.63,0,1.21-.24,1.64-.68.41-.41.64-.95.63-1.51,0-1.19-1.02-2.17-2.26-2.17h0Z" class="cls-3"/></g><g><path data-cppathid="10111" d="m294.16,2.88c0,1.33-1.11,2.42-2.5,2.42s-2.51-1.08-2.51-2.41c-.01-1.34,1.12-2.43,2.49-2.42,1.4,0,2.52,1.07,2.52,2.41Z" class="cls-4"/><path data-cppathid="10112" d="m291.66,5.53c-1.52,0-2.75-1.18-2.75-2.64,0-.69.26-1.35.76-1.85.51-.52,1.21-.81,1.95-.81,1.54,0,2.77,1.19,2.77,2.65,0,.69-.27,1.34-.76,1.84-.52.52-1.22.81-1.98.81Zm0-4.83c-.64,0-1.22.24-1.64.67-.41.41-.63.95-.62,1.52,0,1.2,1.02,2.17,2.28,2.17.63,0,1.21-.24,1.64-.67.41-.41.63-.94.63-1.51,0-1.2-1.02-2.18-2.28-2.18Z" class="cls-3"/></g><g><path data-cppathid="10113" d="m312.24,2.86c0,1.32-1.12,2.41-2.51,2.4-1.38.01-2.51-1.08-2.51-2.4-.02-1.34,1.11-2.42,2.51-2.42,1.38,0,2.5,1.09,2.51,2.42Z" class="cls-4"/><path data-cppathid="10114" d="m309.71,5.5c-.73,0-1.41-.27-1.92-.77-.52-.5-.8-1.16-.8-1.87,0-.68.26-1.34.75-1.84.52-.53,1.23-.82,2-.82,1.51,0,2.73,1.2,2.74,2.66-.01,1.46-1.23,2.64-2.73,2.64l-.03-.24.02-.23c1.25,0,2.27-.97,2.27-2.17,0-1.2-1.02-2.18-2.27-2.18-.63,0-1.22.24-1.66.68-.4.41-.62.94-.61,1.5,0,.58.23,1.12.66,1.53.43.41.99.64,1.6.64v.47Z" class="cls-3"/></g><g><path data-cppathid="10115" d="m330.3,2.83c.01,1.34-1.11,2.41-2.49,2.41-1.4,0-2.52-1.07-2.52-2.4s1.12-2.42,2.51-2.43c1.38,0,2.5,1.09,2.5,2.42Z" class="cls-4"/><path data-cppathid="10116" d="m327.8,5.47c-1.51,0-2.75-1.18-2.75-2.64s1.23-2.66,2.74-2.67c1.51,0,2.74,1.2,2.74,2.65,0,.69-.26,1.34-.75,1.84-.52.52-1.22.81-1.97.81h-.01Zm0-4.83c-1.25,0-2.27.99-2.27,2.19s1.02,2.16,2.27,2.16v.24-.24c.64,0,1.22-.24,1.64-.67.4-.41.62-.94.62-1.51,0-1.2-1.02-2.17-2.27-2.18Z" class="cls-3"/></g><g><path data-cppathid="10117" d="m348.38,2.8c0,1.33-1.12,2.42-2.51,2.42s-2.52-1.08-2.52-2.42c0-1.33,1.13-2.42,2.51-2.42s2.52,1.08,2.52,2.42Z" class="cls-4"/><path data-cppathid="10118" d="m345.87,5.46c-1.51,0-2.76-1.19-2.76-2.65,0-1.47,1.24-2.66,2.74-2.66s2.76,1.19,2.76,2.65c0,1.47-1.23,2.66-2.74,2.66Zm-.02-4.84c-1.25,0-2.27.98-2.27,2.19,0,1.2,1.03,2.18,2.29,2.18s2.27-.98,2.27-2.19c0-1.2-1.03-2.18-2.29-2.18Z" class="cls-3"/></g><g><path data-cppathid="10119" d="m366.45,2.76c0,1.34-1.11,2.43-2.51,2.43-1.39.01-2.51-1.07-2.51-2.4,0-1.35,1.12-2.43,2.51-2.44,1.39.02,2.51,1.08,2.51,2.41Z" class="cls-4"/><path data-cppathid="10120" d="m363.92,5.42c-1.5,0-2.73-1.18-2.73-2.63s1.23-2.67,2.74-2.67c1.54.02,2.75,1.18,2.75,2.65,0,1.47-1.23,2.66-2.74,2.66h-.02Zm.01-4.84c-1.25,0-2.27.99-2.27,2.2s1.01,2.16,2.25,2.16v.24l.02-.24c1.25,0,2.27-.98,2.27-2.19,0-1.2-1-2.16-2.28-2.18Z" class="cls-3"/></g><g><path data-cppathid="10121" d="m384.51,2.75c0,1.33-1.12,2.41-2.51,2.42-1.38,0-2.5-1.08-2.5-2.41,0-1.32,1.1-2.42,2.5-2.42,1.39,0,2.51,1.08,2.51,2.41Z" class="cls-4"/><path data-cppathid="10122" d="m382,5.4c-1.51,0-2.73-1.19-2.73-2.65,0-.69.27-1.35.77-1.85.52-.52,1.22-.81,1.97-.81,1.52,0,2.75,1.19,2.75,2.65,0,1.45-1.22,2.64-2.74,2.66h-.01Zm.02-4.83c-.64,0-1.22.24-1.65.67-.41.41-.63.95-.63,1.51,0,1.2,1.02,2.18,2.26,2.18v.24-.24c1.27-.01,2.29-.99,2.28-2.18,0-1.2-1.02-2.18-2.26-2.18Z" class="cls-3"/></g><g><path data-cppathid="10123" d="m203.96,97.45c0,1.34-1.13,2.42-2.51,2.42-1.39,0-2.52-1.07-2.52-2.41,0-1.34,1.13-2.42,2.51-2.42s2.51,1.08,2.52,2.41Z" class="cls-4"/><path data-cppathid="10124" d="m201.43,100.1c-1.51,0-2.74-1.19-2.74-2.64,0-.69.27-1.34.76-1.84.52-.52,1.24-.82,1.98-.82,1.51,0,2.75,1.19,2.76,2.64,0,1.47-1.24,2.66-2.75,2.66h-.01Zm0-4.83c-.62,0-1.22.25-1.64.68-.41.41-.63.95-.63,1.51,0,1.19,1.02,2.17,2.27,2.17v.23-.23c1.26,0,2.28-.98,2.29-2.18-.01-1.2-1.03-2.18-2.29-2.18Z" class="cls-3"/></g><g><path data-cppathid="10125" d="m222.01,97.42c.01,1.34-1.11,2.4-2.5,2.42-1.39.01-2.51-1.08-2.51-2.41s1.12-2.42,2.52-2.43c1.37,0,2.5,1.08,2.49,2.41Z" class="cls-4"/><path data-cppathid="10126" d="m219.49,100.08c-1.5,0-2.73-1.19-2.73-2.65s1.23-2.65,2.75-2.66c.75,0,1.45.29,1.97.82.49.5.76,1.15.75,1.83.01,1.47-1.19,2.64-2.73,2.66h-.02Zm.02-4.83c-1.26,0-2.28.99-2.28,2.19s1.01,2.17,2.26,2.17v.24-.24c1.29-.01,2.28-.97,2.27-2.18,0-.56-.22-1.09-.62-1.5-.43-.43-1.01-.68-1.64-.68Z" class="cls-3"/></g><g><path data-cppathid="10127" d="m240.08,97.4c0,1.33-1.12,2.42-2.51,2.42s-2.5-1.09-2.51-2.41c0-1.33,1.12-2.41,2.51-2.42,1.39,0,2.51,1.08,2.51,2.41Z" class="cls-4"/><path data-cppathid="10128" d="m237.58,100.06c-1.5,0-2.74-1.19-2.75-2.65,0-1.46,1.23-2.65,2.75-2.66,1.51,0,2.74,1.19,2.74,2.65,0,1.47-1.23,2.66-2.74,2.66Zm0-4.84c-1.26,0-2.28.98-2.28,2.19.01,1.2,1.03,2.18,2.28,2.18s2.27-.98,2.27-2.19c0-1.2-1.02-2.18-2.27-2.18Z" class="cls-3"/></g><g><path data-cppathid="10129" d="m258.16,97.35c0,1.36-1.13,2.44-2.51,2.44-1.38,0-2.51-1.08-2.52-2.41,0-1.33,1.12-2.41,2.52-2.42,1.38,0,2.51,1.07,2.51,2.39Z" class="cls-4"/><path data-cppathid="10130" d="m255.65,100.03h0c-1.51,0-2.74-1.2-2.75-2.65,0-1.46,1.23-2.65,2.75-2.66,1.53,0,2.75,1.18,2.75,2.63s-1.23,2.68-2.75,2.68Zm.02-4.83c-1.28,0-2.3.98-2.3,2.18,0,1.19,1.03,2.17,2.28,2.18,1.25,0,2.27-.99,2.27-2.2s-1.01-2.16-2.25-2.16Z" class="cls-3"/></g><g><path data-cppathid="10131" d="m276.22,97.34c.02,1.34-1.11,2.43-2.51,2.43-1.36,0-2.5-1.09-2.51-2.42,0-1.34,1.13-2.42,2.51-2.42,1.39,0,2.51,1.08,2.51,2.41Z" class="cls-4"/><path data-cppathid="10132" d="m273.71,100.01h0c-1.5-.02-2.73-1.2-2.74-2.65,0-.69.27-1.35.77-1.85.52-.52,1.24-.82,1.98-.82,1.52,0,2.75,1.19,2.75,2.64.01.68-.26,1.34-.74,1.84-.53.53-1.23.83-2,.83Zm.01-4.84c-.63,0-1.22.24-1.65.68-.41.41-.63.95-.63,1.51,0,1.19,1.02,2.17,2.27,2.18.64,0,1.23-.25,1.66-.69.4-.41.62-.95.61-1.5,0-1.2-1.01-2.18-2.26-2.18Z" class="cls-3"/></g><g><path data-cppathid="10133" d="m294.29,97.32c0,1.32-1.11,2.42-2.5,2.42s-2.51-1.09-2.51-2.43,1.12-2.39,2.5-2.39c1.4-.01,2.52,1.07,2.52,2.4Z" class="cls-4"/><path data-cppathid="10134" d="m291.79,99.98c-1.52,0-2.75-1.2-2.75-2.67s1.23-2.63,2.73-2.63,2.75,1.18,2.75,2.64c0,.69-.27,1.35-.77,1.85-.52.52-1.22.81-1.97.81Zm0-4.83c-1.27,0-2.29.97-2.29,2.16s1.02,2.2,2.28,2.2c.62,0,1.2-.24,1.63-.67.41-.41.64-.95.64-1.51,0-1.2-1.01-2.17-2.26-2.17Z" class="cls-3"/></g><g><path data-cppathid="10135" d="m312.37,97.29c0,1.34-1.11,2.43-2.5,2.43-1.39,0-2.51-1.08-2.52-2.41.01-1.33,1.13-2.42,2.51-2.41,1.39-.01,2.5,1.06,2.51,2.4Z" class="cls-4"/><path data-cppathid="10136" d="m309.86,99.96h0c-1.5-.01-2.74-1.2-2.75-2.65.01-1.47,1.24-2.65,2.74-2.65s2.74,1.16,2.75,2.63c0,.7-.27,1.36-.77,1.86-.52.52-1.22.81-1.97.81Zm.02-4.82c-1.27,0-2.29.97-2.3,2.18,0,1.19,1.03,2.17,2.28,2.17.62,0,1.2-.24,1.63-.67.41-.41.63-.95.63-1.52,0-1.21-.99-2.16-2.24-2.16Z" class="cls-3"/></g><g><path data-cppathid="10137" d="m330.43,97.27c.01,1.33-1.1,2.43-2.49,2.43-1.4,0-2.52-1.09-2.52-2.42s1.12-2.42,2.52-2.41c1.37,0,2.5,1.06,2.5,2.4Z" class="cls-4"/><path data-cppathid="10138" d="m327.95,99.92h-.01c-1.52,0-2.76-1.19-2.76-2.65s1.22-2.64,2.73-2.64,2.76,1.18,2.76,2.64c0,.69-.27,1.35-.76,1.85-.52.52-1.21.81-1.96.81Zm0-4.82c-1.28,0-2.29.97-2.29,2.17s1.03,2.18,2.29,2.18v.24s.01-.24.01-.24c.62,0,1.19-.24,1.62-.67.41-.41.63-.95.63-1.52,0-1.19-1.01-2.16-2.25-2.16Z" class="cls-3"/></g><g><path data-cppathid="10139" d="m348.51,97.24c0,1.34-1.12,2.42-2.5,2.42-1.4,0-2.52-1.07-2.53-2.41,0-1.34,1.13-2.42,2.52-2.42s2.51,1.08,2.51,2.41Z" class="cls-4"/><path data-cppathid="10140" d="m346,99.9c-1.5,0-2.74-1.19-2.75-2.65,0-.69.27-1.35.77-1.84.52-.53,1.23-.81,1.99-.81,1.52,0,2.75,1.19,2.75,2.64,0,.69-.27,1.35-.77,1.84-.52.53-1.22.82-1.97.82h-.01Zm0-4.83c-.63,0-1.22.24-1.65.68-.4.41-.63.94-.63,1.51.01,1.22,1.02,2.17,2.28,2.17v.24-.24c.64,0,1.22-.24,1.65-.67.41-.41.63-.94.63-1.51,0-1.2-1.02-2.17-2.28-2.17Z" class="cls-3"/></g><g><path data-cppathid="10141" d="m366.58,97.22c0,1.34-1.11,2.41-2.5,2.41-1.39,0-2.52-1.08-2.53-2.41.01-1.33,1.13-2.41,2.52-2.42,1.38,0,2.51,1.08,2.51,2.42Z" class="cls-4"/><path data-cppathid="10142" d="m364.09,99.87h-.01c-1.51,0-2.75-1.19-2.77-2.64.01-1.46,1.25-2.66,2.75-2.66,1.51,0,2.74,1.19,2.74,2.66,0,.69-.27,1.34-.76,1.84-.52.52-1.21.81-1.96.81Zm-.02-4.83c-1.25,0-2.28.99-2.29,2.19,0,1.19,1.03,2.17,2.29,2.17h.01c.62,0,1.19-.24,1.62-.66s.63-.94.63-1.5c0-1.21-1.02-2.19-2.27-2.19Z" class="cls-3"/></g><g><path data-cppathid="10143" d="m384.65,97.19c0,1.34-1.11,2.41-2.51,2.43-1.39,0-2.52-1.09-2.52-2.41s1.13-2.42,2.5-2.43c1.4,0,2.52,1.09,2.53,2.41Z" class="cls-4"/><path data-cppathid="10144" d="m382.14,99.85c-1.52,0-2.75-1.19-2.75-2.65,0-1.46,1.22-2.66,2.73-2.67,1.51,0,2.75,1.19,2.77,2.65.01,1.48-1.19,2.65-2.74,2.67h0Zm-.02-4.84c-1.25,0-2.26.99-2.26,2.19s1.02,2.18,2.28,2.18c1.28-.02,2.29-.98,2.28-2.19-.01-1.2-1.04-2.18-2.29-2.18Z" class="cls-3"/></g></g></g><g><g><path data-cppathid="10145" d="m582.22,12.04c0,.87-.7,1.57-1.56,1.57h-188.15c-.87,0-1.57-.7-1.57-1.57h0c0-.87.7-1.57,1.57-1.57h188.15c.86,0,1.56.7,1.56,1.57h0Z" class="cls-2"/><path data-cppathid="10146" d="m580.66,13.84h-188.15c-.99,0-1.8-.81-1.8-1.8s.81-1.8,1.8-1.8h188.15c.99,0,1.8.81,1.8,1.8s-.81,1.8-1.8,1.8Zm-188.15-3.13c-.73,0-1.33.59-1.33,1.33s.59,1.33,1.33,1.33h188.15c.73,0,1.33-.6,1.33-1.33s-.59-1.33-1.33-1.33h-188.15Z" class="cls-3"/></g><g><path data-cppathid="10147" d="m582.22,52.07c0,.86-.7,1.56-1.56,1.56h-188.15c-.87,0-1.57-.7-1.57-1.56h0c0-.87.7-1.57,1.57-1.57h188.15c.86,0,1.56.7,1.56,1.57h0Z" class="cls-2"/><path data-cppathid="10148" d="m580.66,53.87h-188.15c-.99,0-1.8-.81-1.8-1.8s.81-1.81,1.8-1.81h188.15c.99,0,1.8.81,1.8,1.81s-.81,1.8-1.8,1.8Zm-188.15-3.14c-.73,0-1.33.6-1.33,1.34s.59,1.33,1.33,1.33h188.15c.73,0,1.33-.6,1.33-1.33s-.59-1.34-1.33-1.34h-188.15Z" class="cls-3"/></g><g><path data-cppathid="10149" d="m582.22,89.11c0,.87-.7,1.57-1.56,1.57h-188.15c-.87,0-1.57-.7-1.57-1.57h0c0-.87.7-1.57,1.57-1.57h188.15c.86,0,1.56.7,1.56,1.57h0Z" class="cls-2"/><path data-cppathid="10150" d="m580.66,90.91h-188.15c-.99,0-1.8-.81-1.8-1.81s.81-1.81,1.8-1.81h188.15c.99,0,1.8.81,1.8,1.81s-.81,1.81-1.8,1.81Zm-188.15-3.14c-.73,0-1.33.6-1.33,1.33s.59,1.34,1.33,1.34h188.15c.73,0,1.33-.6,1.33-1.34s-.59-1.33-1.33-1.33h-188.15Z" class="cls-3"/></g><g><g><g><path data-cppathid="10151" d="m396.79,99.48c-.7,0-1.29-.89-1.29-2.02l-.13-94.44c0-1.13.58-2.04,1.3-2.04s1.3.92,1.3,2.03l.14,94.44c0,1.13-.58,2.05-1.3,2.03Z" class="cls-4"/><path data-cppathid="10152" d="m396.8,99.72h-.02c-.85,0-1.53-1-1.53-2.26l-.14-94.43c0-1.28.68-2.28,1.53-2.28s1.53,1,1.53,2.27l.14,94.44c0,.76-.25,1.47-.67,1.89-.25.25-.55.38-.86.38Zm-.15-98.5c-.58,0-1.06.81-1.06,1.81l.13,94.43c0,.97.49,1.79,1.06,1.79h.02c.23,0,.41-.13.52-.24.33-.33.53-.92.53-1.55l-.14-94.44c0-.97-.49-1.79-1.06-1.79Z" class="cls-3"/></g><g><path data-cppathid="10153" d="m414.88,99.45c-.72,0-1.3-.89-1.3-2.02l-.13-94.45c0-1.12.58-2.02,1.29-2.03.72,0,1.3.9,1.3,2.03l.14,94.44c0,1.13-.59,2.03-1.31,2.04Z" class="cls-4"/><path data-cppathid="10154" d="m414.88,99.69h0c-.86,0-1.53-.99-1.53-2.26l-.13-94.45c0-.75.24-1.45.66-1.87.25-.26.56-.4.87-.4.86,0,1.53.99,1.54,2.26l.14,94.44c0,1.27-.68,2.27-1.54,2.27Zm-.14-98.5c-.24,0-.42.14-.54.26-.33.34-.52.91-.52,1.53l.13,94.45c0,.98.48,1.79,1.06,1.79s1.07-.83,1.07-1.8l-.14-94.44c0-.99-.49-1.79-1.07-1.79Z" class="cls-3"/></g><g><path data-cppathid="10155" d="m432.98,99.43c-.72,0-1.31-.89-1.31-2.04l-.13-94.44c0-1.13.57-2.03,1.3-2.03.72,0,1.31.91,1.3,2.02l.15,94.44c-.01,1.13-.58,2.04-1.3,2.04Z" class="cls-4"/><path data-cppathid="10156" d="m432.98,99.67c-.86,0-1.54-1-1.54-2.27l-.13-94.44c0-1.27.68-2.27,1.53-2.27.32,0,.62.13.88.4.42.42.66,1.12.66,1.86l.15,94.43c-.01,1.28-.68,2.28-1.54,2.28Zm-.14-98.51c-.59,0-1.06.81-1.07,1.8l.14,94.44c0,.99.48,1.8,1.07,1.8s1.05-.81,1.07-1.81l-.15-94.44c0-.62-.2-1.21-.52-1.53-.12-.12-.3-.26-.54-.26Z" class="cls-3"/></g><g><path data-cppathid="10157" d="m451.07,99.41c-.72.01-1.3-.9-1.3-2.03l-.15-94.44c.01-1.12.58-2.04,1.31-2.04.71,0,1.3.91,1.3,2.04l.12,94.43c.01,1.14-.57,2.04-1.28,2.04Z" class="cls-4"/><path data-cppathid="10158" d="m451.06,99.64c-.31,0-.61-.13-.86-.39-.42-.42-.66-1.12-.66-1.88l-.15-94.44c.01-1.28.69-2.28,1.55-2.28.86,0,1.53,1.01,1.53,2.27l.12,94.43c0,.76-.23,1.47-.65,1.89-.26.26-.55.39-.87.39h0Zm-.13-98.52c-.57,0-1.06.83-1.07,1.81l.15,94.44c0,.63.2,1.22.52,1.54.12.12.3.26.53.26v.23-.23c.24,0,.43-.14.54-.26.33-.33.52-.91.51-1.55l-.12-94.44c0-.97-.49-1.8-1.07-1.8Z" class="cls-3"/></g><g><path data-cppathid="10159" d="m469.17,99.38c-.72,0-1.31-.91-1.31-2.04l-.14-94.43c0-1.12.59-2.04,1.31-2.04.72,0,1.28.9,1.29,2.03l.14,94.44c0,1.13-.58,2.04-1.29,2.04Z" class="cls-4"/><path data-cppathid="10160" d="m469.17,99.62h0c-.43,0-.82-.25-1.12-.7-.27-.43-.42-.98-.42-1.57l-.14-94.43c0-1.27.69-2.27,1.54-2.28.85,0,1.52,1,1.53,2.27l.13,94.44c0,.76-.25,1.47-.67,1.89-.25.26-.54.39-.85.39Zm-.14-98.51c-.57,0-1.07.83-1.07,1.81l.14,94.43c0,.5.12.96.35,1.32.2.31.46.49.72.49h0c.23,0,.41-.13.52-.25.33-.33.53-.93.53-1.55l-.13-94.44c0-.99-.48-1.8-1.06-1.8Z" class="cls-3"/></g><g><path data-cppathid="10161" d="m487.26,99.36c-.73,0-1.3-.91-1.31-2.03l-.13-94.45c0-1.11.58-2.04,1.3-2.04.7,0,1.29.91,1.29,2.04l.15,94.44c0,1.13-.59,2.04-1.3,2.04Z" class="cls-4"/><path data-cppathid="10162" d="m487.26,99.6c-.85,0-1.53-1-1.54-2.27l-.13-94.45c0-.75.25-1.46.67-1.88.25-.25.55-.39.86-.39.86,0,1.53,1,1.53,2.27l.15,94.44c0,1.27-.68,2.27-1.53,2.27Zm-.14-98.52c-.24,0-.42.14-.53.25-.33.33-.53.92-.53,1.55l.13,94.45c.01.99.49,1.79,1.07,1.79s1.05-.82,1.06-1.8l-.15-94.44c0-.98-.49-1.8-1.05-1.8h0Z" class="cls-3"/></g><g><path data-cppathid="10163" d="m505.35,99.34c-.71,0-1.3-.9-1.31-2.04l-.13-94.45c0-1.11.57-2.03,1.29-2.03.72,0,1.3.91,1.3,2.03l.12,94.45c0,1.12-.56,2.03-1.28,2.03Z" class="cls-4"/><path data-cppathid="10164" d="m505.36,99.57h0c-.85,0-1.53-1-1.54-2.27l-.13-94.45c0-1.27.67-2.27,1.52-2.27.87,0,1.54,1,1.54,2.27l.12,94.45c0,1.27-.66,2.26-1.51,2.27Zm-.16-98.52c-.57,0-1.05.83-1.05,1.8l.13,94.45c.01.97.5,1.79,1.07,1.8.57,0,1.05-.82,1.04-1.79l-.12-94.46c0-.97-.49-1.8-1.07-1.8Z" class="cls-3"/></g><g><path data-cppathid="10165" d="m523.44,99.31c-.72,0-1.3-.91-1.3-2.04l-.14-94.45c0-1.12.57-2.04,1.3-2.04.72,0,1.29.92,1.29,2.05l.14,94.43c0,1.13-.59,2.04-1.29,2.04Z" class="cls-4"/><path data-cppathid="10166" d="m523.44,99.55c-.32,0-.62-.14-.87-.39-.42-.42-.66-1.12-.66-1.88l-.14-94.45c0-1.27.67-2.27,1.53-2.27.43,0,.83.25,1.12.72.27.42.41.98.41,1.57l.14,94.43c0,1.28-.67,2.28-1.53,2.28Zm-.13-98.53c-.58,0-1.07.82-1.07,1.8l.14,94.45c0,.63.2,1.22.52,1.55.11.11.3.25.54.25.57,0,1.05-.83,1.06-1.81l-.15-94.43c0-.5-.12-.97-.34-1.32-.2-.32-.45-.49-.71-.49Z" class="cls-3"/></g><g><path data-cppathid="10167" d="m541.54,99.28c-.73,0-1.31-.91-1.31-2.04l-.14-94.43c.01-1.13.59-2.03,1.31-2.04.71,0,1.31.92,1.29,2.04l.14,94.43c0,1.13-.58,2.04-1.28,2.04Z" class="cls-4"/><path data-cppathid="10168" d="m541.54,99.51h0c-.87,0-1.55-1-1.55-2.27l-.14-94.43c.01-1.27.69-2.27,1.54-2.27.32,0,.62.13.88.4.42.43.66,1.13.65,1.88l.14,94.43c0,.76-.24,1.47-.66,1.89-.25.25-.54.38-.85.38Zm-.14-98.51c-.58,0-1.07.83-1.08,1.8l.14,94.43c0,.98.49,1.8,1.07,1.8h.01c.22,0,.4-.13.51-.25.33-.33.53-.93.53-1.55l-.14-94.44c.01-.62-.19-1.21-.52-1.55-.11-.12-.3-.25-.53-.25Z" class="cls-3"/></g><g><path data-cppathid="10169" d="m559.63,99.26c-.72,0-1.31-.92-1.32-2.04l-.13-94.44c0-1.12.59-2.02,1.3-2.03.72,0,1.3.91,1.3,2.03l.13,94.46c0,1.11-.59,2.04-1.28,2.03Z" class="cls-4"/><path data-cppathid="10170" d="m559.63,99.49h0c-.86,0-1.54-1.01-1.55-2.28l-.13-94.44c0-1.26.67-2.26,1.54-2.27.86,0,1.53.99,1.53,2.26l.14,94.46c0,1.25-.68,2.27-1.52,2.27Zm-.14-98.52c-.58,0-1.07.83-1.07,1.79l.13,94.44c0,.97.5,1.8,1.08,1.81v.24s0-.24,0-.24c.56,0,1.05-.84,1.05-1.8l-.13-94.45c0-.97-.48-1.8-1.05-1.8Z" class="cls-3"/></g><g><path data-cppathid="10171" d="m577.71,99.76c-.72,0-1.3-.91-1.3-2.04l-.13-94.43c0-1.12.57-2.05,1.28-2.04.72,0,1.3.9,1.31,2.03l.13,94.45c0,1.12-.58,2.03-1.29,2.04Z" class="cls-4"/><path data-cppathid="10172" d="m577.71,99.99h0c-.43,0-.83-.25-1.12-.7-.27-.42-.42-.98-.41-1.57l-.13-94.43c0-1.28.66-2.28,1.51-2.28s1.54,1,1.56,2.27l.13,94.45c0,1.25-.68,2.27-1.53,2.27h0Zm-.14-98.51c-.58,0-1.05.83-1.05,1.81l.13,94.43c0,.5.12.96.34,1.31.2.31.46.49.72.49.58,0,1.06-.83,1.06-1.8l-.13-94.45c0-.97-.49-1.79-1.07-1.79Z" class="cls-3"/></g></g><g><path data-cppathid="10173" d="m399.16,3c0,1.33-1.12,2.41-2.51,2.42-1.39.01-2.5-1.08-2.51-2.41,0-1.34,1.13-2.41,2.52-2.42,1.38,0,2.5,1.08,2.5,2.41Z" class="cls-4"/><path data-cppathid="10174" d="m396.63,5.65c-1.49,0-2.71-1.19-2.73-2.65,0-1.45,1.23-2.64,2.75-2.66,1.51,0,2.73,1.19,2.75,2.65,0,1.46-1.23,2.65-2.75,2.65h-.03Zm.03-4.83c-1.26.01-2.28.99-2.28,2.18.01,1.2,1.02,2.17,2.25,2.17v.24l.02-.24c1.26,0,2.28-.98,2.27-2.18,0-1.2-1.02-2.18-2.27-2.18Z" class="cls-3"/></g><g><path data-cppathid="10175" d="m417.24,2.97c0,1.34-1.12,2.42-2.5,2.42-1.4.01-2.51-1.08-2.52-2.4-.01-1.36,1.12-2.42,2.51-2.43,1.39,0,2.49,1.07,2.51,2.41Z" class="cls-4"/><path data-cppathid="10176" d="m414.71,5.63c-1.5,0-2.73-1.18-2.74-2.64,0-1.48,1.19-2.66,2.74-2.67,1.52,0,2.73,1.16,2.75,2.64,0,1.46-1.23,2.66-2.74,2.66h-.02Zm.01-4.83c-1.28,0-2.28.97-2.28,2.2.01,1.2,1.03,2.17,2.27,2.17v.24l.02-.24c1.25,0,2.27-.99,2.27-2.19-.02-1.22-1.02-2.17-2.28-2.17Z" class="cls-3"/></g><g><path data-cppathid="10177" d="m435.31,2.95c0,1.34-1.12,2.42-2.5,2.42-1.39,0-2.5-1.08-2.51-2.41,0-1.33,1.12-2.4,2.51-2.42,1.39,0,2.5,1.08,2.51,2.41Z" class="cls-4"/><path data-cppathid="10178" d="m432.79,5.61c-1.5,0-2.72-1.19-2.73-2.65,0-1.47,1.2-2.64,2.74-2.66,1.51,0,2.74,1.18,2.74,2.64,0,1.47-1.23,2.66-2.74,2.66h-.02Zm.03-4.83c-1.29.02-2.29.97-2.29,2.18,0,1.2,1.02,2.18,2.26,2.18v.24l.02-.24c1.25,0,2.27-.98,2.27-2.19,0-1.2-1.02-2.17-2.26-2.17Z" class="cls-3"/></g><g><path data-cppathid="10179" d="m453.37,2.92c.02,1.34-1.13,2.42-2.5,2.41-1.37,0-2.51-1.07-2.51-2.4,0-1.35,1.13-2.42,2.52-2.43,1.37,0,2.5,1.08,2.5,2.41Z" class="cls-4"/><path data-cppathid="10180" d="m450.88,5.57l-.03-.24v-.24h.01c.64,0,1.23-.25,1.66-.68.4-.41.62-.94.61-1.49,0-1.2-1.02-2.18-2.27-2.18-1.26,0-2.28.99-2.28,2.19,0,1.19,1.02,2.16,2.26,2.16v.47c-1.5,0-2.73-1.18-2.73-2.63s1.23-2.66,2.75-2.66c1.51,0,2.73,1.19,2.74,2.65,0,.68-.26,1.33-.75,1.83-.52.52-1.24.82-1.98.82Z" class="cls-3"/></g><g><path data-cppathid="10181" d="m471.45,2.9c0,1.33-1.12,2.43-2.51,2.43s-2.51-1.08-2.52-2.42c0-1.33,1.13-2.43,2.52-2.41,1.39,0,2.51,1.07,2.51,2.4Z" class="cls-4"/><path data-cppathid="10182" d="m468.94,5.56c-1.51,0-2.74-1.19-2.75-2.66,0-.69.27-1.34.76-1.84.52-.52,1.21-.81,1.96-.81,1.55,0,2.78,1.18,2.78,2.64,0,.69-.27,1.35-.77,1.85-.52.53-1.22.82-1.97.82Zm.01-4.83c-.66,0-1.24.24-1.67.67-.41.41-.63.94-.63,1.51,0,1.2,1.03,2.18,2.28,2.18.62,0,1.21-.24,1.64-.68.41-.41.63-.95.63-1.51,0-1.19-1.01-2.17-2.26-2.17h0Z" class="cls-3"/></g><g><path data-cppathid="10183" d="m489.51,2.88c0,1.33-1.1,2.42-2.5,2.42s-2.51-1.08-2.51-2.41c-.01-1.34,1.12-2.43,2.49-2.42,1.4,0,2.52,1.07,2.52,2.41Z" class="cls-4"/><path data-cppathid="10184" d="m487.01,5.53c-1.51,0-2.75-1.18-2.75-2.64,0-.69.26-1.35.77-1.85.52-.52,1.21-.81,1.95-.81,1.54,0,2.77,1.19,2.77,2.65,0,.69-.26,1.34-.76,1.84-.52.52-1.23.81-1.98.81Zm0-4.83c-.64,0-1.21.24-1.64.67-.41.41-.63.95-.63,1.52,0,1.2,1.02,2.17,2.27,2.17.63,0,1.21-.24,1.64-.67.4-.41.63-.94.62-1.51,0-1.2-1.02-2.18-2.27-2.18Z" class="cls-3"/></g><g><path data-cppathid="10185" d="m507.59,2.86c0,1.32-1.12,2.41-2.51,2.4-1.39.01-2.51-1.08-2.51-2.4-.01-1.34,1.12-2.42,2.51-2.42,1.38,0,2.5,1.09,2.51,2.42Z" class="cls-4"/><path data-cppathid="10186" d="m505.06,5.5c-.72,0-1.41-.27-1.92-.77-.52-.5-.8-1.16-.8-1.87,0-.69.26-1.34.75-1.84.52-.53,1.23-.82,2-.82,1.51,0,2.74,1.2,2.75,2.66-.01,1.46-1.24,2.64-2.74,2.64l-.03-.24.02-.23c1.25,0,2.27-.97,2.27-2.17,0-1.2-1.03-2.18-2.27-2.18-.64,0-1.23.24-1.66.68-.4.41-.62.94-.61,1.5,0,.58.23,1.12.66,1.53.43.41.99.64,1.59.64v.47Z" class="cls-3"/></g><g><path data-cppathid="10187" d="m525.65,2.83c.02,1.34-1.11,2.41-2.49,2.41-1.4,0-2.52-1.07-2.52-2.4s1.12-2.42,2.51-2.43c1.38,0,2.49,1.09,2.5,2.42Z" class="cls-4"/><path data-cppathid="10188" d="m523.15,5.47c-1.51,0-2.75-1.18-2.75-2.64s1.23-2.66,2.75-2.67c1.5,0,2.73,1.2,2.73,2.65,0,.69-.26,1.34-.75,1.84-.52.52-1.22.81-1.97.81h0Zm0-4.83c-1.26,0-2.28.99-2.28,2.19s1.02,2.16,2.28,2.16v.24-.24c.63,0,1.22-.24,1.65-.67.4-.41.62-.94.62-1.51,0-1.2-1.02-2.17-2.26-2.18Z" class="cls-3"/></g><g><path data-cppathid="10189" d="m543.73,2.8c0,1.33-1.12,2.42-2.5,2.42s-2.52-1.08-2.53-2.42c0-1.33,1.14-2.42,2.51-2.42s2.52,1.08,2.52,2.42Z" class="cls-4"/><path data-cppathid="10190" d="m541.23,5.46c-1.51,0-2.75-1.19-2.76-2.65,0-1.47,1.24-2.66,2.75-2.66s2.75,1.19,2.75,2.65c0,1.47-1.23,2.66-2.74,2.66Zm-.01-4.84c-1.25,0-2.27.98-2.28,2.19,0,1.2,1.04,2.18,2.29,2.18s2.27-.98,2.27-2.19c0-1.2-1.03-2.18-2.28-2.18Z" class="cls-3"/></g><g><path data-cppathid="10191" d="m561.79,2.76c0,1.34-1.11,2.43-2.5,2.43-1.39.01-2.51-1.07-2.51-2.4,0-1.35,1.12-2.43,2.5-2.44,1.39.02,2.51,1.08,2.51,2.41Z" class="cls-4"/><path data-cppathid="10192" d="m559.27,5.42c-1.5,0-2.73-1.18-2.73-2.63,0-1.47,1.22-2.67,2.74-2.67,1.54.02,2.75,1.18,2.75,2.65s-1.23,2.66-2.74,2.66h-.02Zm.01-4.84c-1.25,0-2.27.99-2.27,2.2,0,1.19,1.01,2.16,2.25,2.16v.24l.02-.24c1.26,0,2.27-.98,2.27-2.19s-1-2.16-2.28-2.18Z" class="cls-3"/></g><g><path data-cppathid="10193" d="m579.87,2.75c0,1.33-1.12,2.41-2.5,2.42-1.38,0-2.5-1.08-2.5-2.41,0-1.32,1.1-2.42,2.5-2.42,1.39,0,2.51,1.08,2.51,2.41Z" class="cls-4"/><path data-cppathid="10194" d="m577.35,5.4c-1.51,0-2.73-1.19-2.73-2.65,0-.69.27-1.35.76-1.85.52-.52,1.22-.81,1.97-.81,1.52,0,2.75,1.19,2.75,2.65,0,1.45-1.22,2.64-2.74,2.66h-.01Zm.02-4.83c-.64,0-1.22.24-1.65.67-.4.41-.63.95-.62,1.51,0,1.2,1.01,2.18,2.26,2.18v.24-.24c1.27-.01,2.29-.99,2.28-2.18,0-1.2-1.02-2.18-2.26-2.18Z" class="cls-3"/></g><g><path data-cppathid="10195" d="m399.31,97.45c0,1.34-1.13,2.42-2.51,2.42-1.39,0-2.52-1.07-2.52-2.41,0-1.34,1.13-2.42,2.51-2.42s2.51,1.08,2.52,2.41Z" class="cls-4"/><path data-cppathid="10196" d="m396.79,100.1c-1.51,0-2.75-1.19-2.75-2.64,0-.69.27-1.34.77-1.84.51-.52,1.24-.82,1.98-.82,1.51,0,2.75,1.19,2.76,2.64,0,1.47-1.23,2.66-2.75,2.66h-.01Zm0-4.83c-.61,0-1.22.25-1.65.68-.41.41-.63.95-.63,1.51,0,1.19,1.02,2.17,2.27,2.17v.23-.23c1.26,0,2.28-.98,2.29-2.18-.01-1.2-1.03-2.18-2.29-2.18Z" class="cls-3"/></g><g><path data-cppathid="10197" d="m417.36,97.42c0,1.34-1.11,2.4-2.5,2.42-1.39.01-2.51-1.08-2.51-2.41s1.12-2.42,2.52-2.43c1.37,0,2.5,1.08,2.49,2.41Z" class="cls-4"/><path data-cppathid="10198" d="m414.85,100.08c-1.51,0-2.73-1.19-2.73-2.65s1.23-2.65,2.75-2.66c.74,0,1.46.31,1.97.82.49.49.76,1.14.75,1.83,0,1.47-1.19,2.64-2.73,2.66h-.01Zm.02-4.83c-1.26,0-2.28.99-2.28,2.19s1.01,2.17,2.26,2.17v.24-.24c1.28-.01,2.28-.97,2.27-2.18,0-.56-.22-1.09-.62-1.5-.42-.43-1.02-.68-1.64-.68Z" class="cls-3"/></g><g><path data-cppathid="10199" d="m435.43,97.4c0,1.33-1.12,2.42-2.5,2.42s-2.5-1.09-2.52-2.41c0-1.33,1.12-2.41,2.52-2.42,1.39,0,2.5,1.08,2.5,2.41Z" class="cls-4"/><path data-cppathid="10200" d="m432.93,100.06c-1.5,0-2.73-1.19-2.75-2.65,0-1.46,1.23-2.65,2.75-2.66,1.51,0,2.74,1.19,2.74,2.65,0,1.47-1.23,2.66-2.74,2.66Zm0-4.84c-1.26,0-2.29.98-2.28,2.19.01,1.2,1.03,2.18,2.28,2.18s2.26-.98,2.26-2.19-1.02-2.18-2.26-2.18Z" class="cls-3"/></g><g><path data-cppathid="10201" d="m453.51,97.35c0,1.36-1.13,2.44-2.51,2.44-1.38,0-2.5-1.08-2.51-2.41,0-1.33,1.12-2.41,2.51-2.42,1.38,0,2.51,1.07,2.51,2.39Z" class="cls-4"/><path data-cppathid="10202" d="m451,100.03h0c-1.5,0-2.74-1.2-2.75-2.65,0-1.46,1.23-2.65,2.75-2.66,1.53,0,2.75,1.18,2.75,2.63s-1.23,2.68-2.75,2.68Zm.02-4.83c-1.27,0-2.3.98-2.3,2.18.01,1.19,1.03,2.17,2.28,2.18,1.25,0,2.27-.99,2.27-2.2s-1.01-2.16-2.25-2.16Z" class="cls-3"/></g><g><path data-cppathid="10203" d="m471.57,97.34c.02,1.34-1.11,2.43-2.51,2.43-1.37,0-2.5-1.09-2.51-2.42,0-1.34,1.13-2.42,2.51-2.42,1.39,0,2.51,1.08,2.51,2.41Z" class="cls-4"/><path data-cppathid="10204" d="m469.06,100.01h0c-1.5-.02-2.73-1.2-2.74-2.65,0-.69.27-1.35.77-1.85.52-.52,1.24-.82,1.98-.82,1.51,0,2.74,1.19,2.74,2.64,0,.68-.26,1.34-.75,1.84-.52.53-1.23.83-2,.83Zm.01-4.84c-.63,0-1.23.24-1.65.68-.41.41-.63.95-.63,1.51,0,1.19,1.02,2.17,2.27,2.18.64,0,1.23-.25,1.67-.69.4-.41.62-.95.61-1.5,0-1.2-1.02-2.18-2.26-2.18Z" class="cls-3"/></g><g><path data-cppathid="10205" d="m489.65,97.32c0,1.32-1.12,2.42-2.5,2.42s-2.51-1.09-2.51-2.43,1.12-2.39,2.5-2.39c1.4-.01,2.52,1.07,2.52,2.4Z" class="cls-4"/><path data-cppathid="10206" d="m487.14,99.98c-1.51,0-2.75-1.2-2.75-2.67s1.23-2.63,2.73-2.63,2.75,1.18,2.75,2.64c0,.69-.27,1.35-.77,1.85-.52.52-1.22.81-1.97.81Zm0-4.83c-1.27,0-2.28.97-2.28,2.16s1.02,2.2,2.28,2.2c.62,0,1.2-.24,1.63-.67.41-.41.64-.95.64-1.51,0-1.2-1.01-2.17-2.26-2.17Z" class="cls-3"/></g><g><path data-cppathid="10207" d="m507.72,97.29c0,1.34-1.11,2.43-2.5,2.43-1.39,0-2.51-1.08-2.52-2.41.01-1.33,1.13-2.42,2.51-2.41,1.39-.01,2.5,1.06,2.51,2.4Z" class="cls-4"/><path data-cppathid="10208" d="m505.22,99.96h0c-1.51-.01-2.74-1.2-2.75-2.65.01-1.47,1.24-2.65,2.74-2.65s2.75,1.16,2.75,2.63c0,.7-.27,1.36-.77,1.86-.52.52-1.22.81-1.97.81Zm.02-4.82c-1.27,0-2.29.97-2.3,2.18.01,1.19,1.03,2.17,2.28,2.17.63,0,1.21-.24,1.64-.67.41-.41.63-.95.63-1.52,0-1.21-1-2.16-2.25-2.16Z" class="cls-3"/></g><g><path data-cppathid="10209" d="m525.78,97.27c.01,1.33-1.1,2.43-2.49,2.43-1.4,0-2.52-1.09-2.52-2.42s1.12-2.42,2.51-2.41c1.38,0,2.5,1.06,2.5,2.4Z" class="cls-4"/><path data-cppathid="10210" d="m523.3,99.92h-.01c-1.52,0-2.76-1.19-2.76-2.65s1.23-2.64,2.73-2.64,2.76,1.18,2.76,2.64c0,.69-.27,1.35-.76,1.85-.52.53-1.21.81-1.96.81Zm0-4.82c-1.28,0-2.29.97-2.29,2.17s1.02,2.18,2.29,2.18v.24s0-.24,0-.24c.62,0,1.19-.24,1.62-.67.41-.41.63-.95.63-1.51,0-1.19-1.01-2.16-2.25-2.16Z" class="cls-3"/></g><g><path data-cppathid="10211" d="m543.87,97.24c0,1.34-1.13,2.42-2.5,2.42-1.4,0-2.52-1.07-2.53-2.41,0-1.34,1.12-2.42,2.52-2.42s2.52,1.08,2.52,2.41Z" class="cls-4"/><path data-cppathid="10212" d="m541.35,99.9c-1.5,0-2.74-1.19-2.75-2.65,0-.69.27-1.35.76-1.84.53-.53,1.23-.81,1.99-.81,1.52,0,2.75,1.19,2.75,2.64,0,.69-.27,1.35-.77,1.84-.52.53-1.22.82-1.97.82h-.01Zm0-4.83c-.63,0-1.22.24-1.65.68-.41.41-.63.94-.63,1.51.01,1.22,1.02,2.17,2.28,2.17v.24-.24c.63,0,1.22-.24,1.65-.67.41-.41.63-.94.63-1.51,0-1.2-1.02-2.17-2.28-2.17Z" class="cls-3"/></g><g><path data-cppathid="10213" d="m561.93,97.22c0,1.34-1.11,2.41-2.5,2.41-1.39,0-2.52-1.08-2.53-2.41.01-1.33,1.13-2.41,2.52-2.42,1.38,0,2.51,1.08,2.51,2.42Z" class="cls-4"/><path data-cppathid="10214" d="m559.45,99.87h-.01c-1.51,0-2.75-1.19-2.77-2.64.01-1.46,1.25-2.66,2.75-2.66,1.51,0,2.74,1.19,2.74,2.66,0,.69-.27,1.34-.76,1.84-.52.52-1.21.81-1.95.81Zm-.02-4.83c-1.26,0-2.28.99-2.29,2.19.01,1.19,1.04,2.17,2.29,2.17h.01c.62,0,1.19-.24,1.62-.66.41-.41.63-.94.63-1.5,0-1.21-1.02-2.19-2.27-2.19Z" class="cls-3"/></g><g><path data-cppathid="10215" d="m580.01,97.19c0,1.34-1.12,2.41-2.51,2.43-1.39,0-2.51-1.09-2.51-2.41s1.12-2.42,2.5-2.43c1.4,0,2.52,1.09,2.53,2.41Z" class="cls-4"/><path data-cppathid="10216" d="m577.49,99.85c-1.51,0-2.75-1.19-2.75-2.65s1.22-2.66,2.73-2.67c1.51,0,2.75,1.19,2.77,2.65.01,1.48-1.19,2.65-2.74,2.67h0Zm-.02-4.84c-1.25,0-2.26.99-2.26,2.19s1.02,2.18,2.28,2.18c1.28-.02,2.28-.98,2.27-2.19,0-1.2-1.04-2.18-2.29-2.18Z" class="cls-3"/></g></g></g><g><g><path data-cppathid="10217" d="m777.58,12.04c0,.87-.7,1.57-1.57,1.57h-188.15c-.87,0-1.57-.7-1.57-1.57h0c0-.87.7-1.57,1.57-1.57h188.15c.86,0,1.57.7,1.57,1.57h0Z" class="cls-2"/><path data-cppathid="10218" d="m776.01,13.84h-188.15c-.99,0-1.81-.81-1.81-1.8s.81-1.8,1.81-1.8h188.15c.99,0,1.8.81,1.8,1.8s-.81,1.8-1.8,1.8Zm-188.15-3.13c-.73,0-1.33.59-1.33,1.33s.6,1.33,1.33,1.33h188.15c.73,0,1.33-.6,1.33-1.33s-.6-1.33-1.33-1.33h-188.15Z" class="cls-3"/></g><g><path data-cppathid="10219" d="m777.58,52.07c0,.86-.7,1.56-1.57,1.56h-188.15c-.87,0-1.57-.7-1.57-1.56h0c0-.87.7-1.57,1.57-1.57h188.15c.86,0,1.57.7,1.57,1.57h0Z" class="cls-2"/><path data-cppathid="10220" d="m776.01,53.87h-188.15c-.99,0-1.81-.81-1.81-1.8s.81-1.81,1.81-1.81h188.15c.99,0,1.8.81,1.8,1.81s-.81,1.8-1.8,1.8Zm-188.15-3.14c-.73,0-1.33.6-1.33,1.34s.6,1.33,1.33,1.33h188.15c.73,0,1.33-.6,1.33-1.33s-.6-1.34-1.33-1.34h-188.15Z" class="cls-3"/></g><g><path data-cppathid="10221" d="m777.58,89.11c0,.87-.7,1.57-1.57,1.57h-188.15c-.87,0-1.57-.7-1.57-1.57h0c0-.87.7-1.57,1.57-1.57h188.15c.86,0,1.57.7,1.57,1.57h0Z" class="cls-2"/><path data-cppathid="10222" d="m776.01,90.91h-188.15c-.99,0-1.81-.81-1.81-1.81s.81-1.81,1.81-1.81h188.15c.99,0,1.8.81,1.8,1.81s-.81,1.81-1.8,1.81Zm-188.15-3.14c-.73,0-1.33.6-1.33,1.33s.6,1.34,1.33,1.34h188.15c.73,0,1.33-.6,1.33-1.34s-.6-1.33-1.33-1.33h-188.15Z" class="cls-3"/></g><g><g><g><path data-cppathid="10223" d="m592.14,99.48c-.71,0-1.3-.89-1.3-2.02l-.13-94.44c0-1.13.58-2.04,1.3-2.04s1.3.92,1.3,2.03l.14,94.44c0,1.13-.57,2.05-1.3,2.03Z" class="cls-4"/><path data-cppathid="10224" d="m592.15,99.72h-.02c-.85,0-1.53-1-1.53-2.26l-.13-94.43c0-1.28.67-2.28,1.53-2.28s1.53,1,1.53,2.27l.13,94.44c0,.76-.24,1.47-.66,1.89-.25.25-.54.38-.86.38Zm-.15-98.5c-.58,0-1.06.81-1.06,1.81l.13,94.43c0,.97.49,1.79,1.06,1.79h.01c.23,0,.41-.13.53-.24.33-.33.53-.92.52-1.55l-.14-94.44c0-.97-.49-1.79-1.06-1.79Z" class="cls-3"/></g><g><path data-cppathid="10225" d="m610.23,99.45c-.72,0-1.29-.89-1.29-2.02l-.13-94.45c0-1.12.57-2.02,1.29-2.03.72,0,1.3.9,1.3,2.03l.14,94.44c0,1.13-.59,2.03-1.31,2.04Z" class="cls-4"/><path data-cppathid="10226" d="m610.24,99.69h0c-.86,0-1.53-.99-1.53-2.26l-.13-94.45c0-.75.24-1.45.66-1.87.25-.26.56-.4.87-.4.86,0,1.53.99,1.54,2.26l.14,94.44c0,1.27-.68,2.27-1.54,2.27Zm-.14-98.5c-.24,0-.42.14-.54.26-.33.34-.53.91-.52,1.53l.13,94.45c0,.98.47,1.79,1.05,1.79s1.08-.83,1.08-1.8l-.14-94.44c0-.99-.49-1.79-1.07-1.79Z" class="cls-3"/></g><g><path data-cppathid="10227" d="m628.34,99.43c-.72,0-1.31-.89-1.31-2.04l-.13-94.44c0-1.13.57-2.03,1.3-2.03.72,0,1.31.91,1.3,2.02l.15,94.44c-.01,1.13-.58,2.04-1.3,2.04Z" class="cls-4"/><path data-cppathid="10228" d="m628.34,99.67c-.86,0-1.54-1-1.54-2.27l-.13-94.44c0-1.27.68-2.27,1.53-2.27.32,0,.62.13.87.39.42.42.67,1.12.66,1.87l.15,94.43c-.01,1.28-.69,2.28-1.54,2.28Zm-.14-98.51c-.59,0-1.06.81-1.07,1.8l.13,94.44c0,.99.48,1.8,1.07,1.8s1.05-.81,1.06-1.81l-.15-94.44c0-.62-.19-1.21-.52-1.53-.12-.12-.3-.26-.54-.26Z" class="cls-3"/></g><g><path data-cppathid="10229" d="m646.43,99.41c-.72.01-1.31-.9-1.3-2.03l-.15-94.44c.01-1.12.58-2.04,1.31-2.04.71,0,1.3.91,1.3,2.04l.12,94.43c.02,1.14-.57,2.04-1.28,2.04Z" class="cls-4"/><path data-cppathid="10230" d="m646.42,99.64c-.31,0-.61-.13-.87-.39-.41-.42-.66-1.12-.66-1.88l-.15-94.44c.01-1.28.69-2.28,1.54-2.28.86,0,1.54,1.01,1.54,2.27l.12,94.43c.01.76-.23,1.47-.64,1.89-.26.26-.56.39-.87.39h0Zm-.13-98.52c-.57,0-1.06.83-1.07,1.81l.15,94.44c0,.63.2,1.22.52,1.54.11.12.3.26.53.26v.23-.23c.24,0,.43-.14.54-.26.33-.33.52-.91.51-1.55l-.12-94.44c0-.97-.49-1.8-1.07-1.8Z" class="cls-3"/></g><g><path data-cppathid="10231" d="m664.52,99.38c-.72,0-1.3-.91-1.3-2.04l-.14-94.43c0-1.12.59-2.04,1.31-2.04.72,0,1.28.9,1.29,2.03l.13,94.44c0,1.13-.58,2.04-1.29,2.04Z" class="cls-4"/><path data-cppathid="10232" d="m664.52,99.62h0c-.43,0-.83-.25-1.12-.7-.27-.43-.42-.98-.42-1.57l-.14-94.43c0-1.27.69-2.27,1.54-2.28.85,0,1.52,1,1.53,2.27l.13,94.44c0,.76-.25,1.47-.66,1.89-.25.26-.55.39-.86.39Zm-.14-98.51c-.57,0-1.07.83-1.07,1.81l.14,94.43c0,.5.12.96.34,1.32.2.31.46.49.72.49h0c.22,0,.4-.13.52-.25.33-.33.54-.93.53-1.55l-.13-94.44c0-.99-.48-1.8-1.05-1.8Z" class="cls-3"/></g><g><path data-cppathid="10233" d="m682.61,99.36c-.73,0-1.3-.91-1.31-2.03l-.13-94.45c0-1.11.58-2.04,1.3-2.04.7,0,1.28.91,1.28,2.04l.15,94.44c0,1.13-.59,2.04-1.3,2.04Z" class="cls-4"/><path data-cppathid="10234" d="m682.61,99.6c-.86,0-1.53-1-1.54-2.27l-.13-94.45c0-.75.25-1.46.67-1.88.25-.25.55-.39.86-.39.86,0,1.52,1,1.53,2.27l.15,94.45c0,1.27-.68,2.27-1.53,2.27Zm-.13-98.52c-.24,0-.42.14-.54.25-.33.33-.53.92-.53,1.55l.13,94.45c0,.99.49,1.79,1.07,1.79s1.06-.82,1.06-1.8l-.15-94.44c0-.98-.49-1.8-1.05-1.8h0Z" class="cls-3"/></g><g><path data-cppathid="10235" d="m700.7,99.34c-.71,0-1.3-.9-1.31-2.04l-.13-94.45c0-1.11.58-2.03,1.29-2.03.72,0,1.3.91,1.3,2.03l.12,94.45c0,1.12-.56,2.03-1.28,2.03Z" class="cls-4"/><path data-cppathid="10236" d="m700.71,99.57h0c-.85,0-1.53-1-1.54-2.27l-.13-94.45c0-1.27.67-2.27,1.52-2.27.87,0,1.54,1,1.54,2.27l.12,94.45c0,1.27-.66,2.26-1.51,2.27Zm-.15-98.52c-.57,0-1.05.83-1.05,1.8l.13,94.45c0,.97.5,1.79,1.07,1.8.57,0,1.05-.82,1.04-1.79l-.12-94.46c0-.97-.49-1.8-1.07-1.8Z" class="cls-3"/></g><g><path data-cppathid="10237" d="m718.8,99.31c-.72,0-1.3-.91-1.3-2.04l-.15-94.45c0-1.12.57-2.04,1.3-2.04.72,0,1.29.92,1.29,2.05l.14,94.43c0,1.13-.59,2.04-1.29,2.04Z" class="cls-4"/><path data-cppathid="10238" d="m718.8,99.55c-.32,0-.62-.14-.87-.39-.41-.42-.66-1.12-.66-1.88l-.14-94.45c0-1.27.67-2.27,1.53-2.27.31,0,.61.14.86.39.42.42.67,1.13.67,1.9l.15,94.43c0,1.28-.67,2.28-1.53,2.28Zm-.14-98.53c-.58,0-1.07.82-1.07,1.8l.14,94.45c0,.63.2,1.22.52,1.55.11.11.3.25.54.25.57,0,1.05-.83,1.05-1.81l-.15-94.43c0-.64-.2-1.24-.53-1.57-.11-.11-.29-.25-.52-.25Z" class="cls-3"/></g><g><path data-cppathid="10239" d="m736.89,99.28c-.73,0-1.31-.91-1.32-2.04l-.14-94.43c.01-1.13.59-2.03,1.31-2.04.71,0,1.31.92,1.29,2.04l.14,94.43c0,1.13-.58,2.04-1.28,2.04Z" class="cls-4"/><path data-cppathid="10240" d="m736.9,99.51h0c-.87,0-1.55-1-1.55-2.27l-.14-94.44c.02-1.27.69-2.27,1.54-2.27.33,0,.63.13.88.39.42.43.66,1.13.65,1.88l.13,94.43c0,.76-.24,1.47-.66,1.89-.25.25-.54.38-.85.38Zm-.14-98.51c-.58,0-1.07.83-1.08,1.8l.14,94.43c0,.98.5,1.8,1.07,1.8h.01c.22,0,.4-.13.51-.25.33-.33.53-.93.52-1.55l-.13-94.44c0-.62-.19-1.21-.52-1.55-.11-.12-.3-.25-.53-.25Z" class="cls-3"/></g><g><path data-cppathid="10241" d="m754.98,99.26c-.72,0-1.31-.92-1.32-2.04l-.13-94.44c0-1.12.59-2.02,1.3-2.03.72,0,1.29.91,1.3,2.03l.13,94.46c0,1.11-.59,2.04-1.28,2.03Z" class="cls-4"/><path data-cppathid="10242" d="m754.98,99.49h0c-.86,0-1.54-1.01-1.55-2.28l-.13-94.44c0-1.26.68-2.26,1.54-2.27.86,0,1.53.99,1.53,2.26l.13,94.46c0,1.25-.68,2.27-1.52,2.27Zm-.14-98.52c-.58,0-1.07.83-1.07,1.79l.13,94.44c.01.99.49,1.8,1.08,1.81v.24-.24c.56,0,1.05-.84,1.05-1.8l-.14-94.45c0-.97-.48-1.8-1.05-1.8Z" class="cls-3"/></g><g><path data-cppathid="10243" d="m773.07,99.76c-.72,0-1.3-.91-1.3-2.04l-.13-94.43c0-1.12.57-2.05,1.28-2.04.72,0,1.3.9,1.31,2.03l.13,94.45c.01,1.12-.58,2.03-1.29,2.04Z" class="cls-4"/><path data-cppathid="10244" d="m773.07,99.99h0c-.43,0-.83-.25-1.12-.71-.27-.42-.42-.98-.41-1.56l-.14-94.43c0-1.28.66-2.28,1.51-2.28s1.54,1,1.55,2.27l.13,94.45c0,1.25-.68,2.27-1.53,2.27h0Zm-.14-98.51c-.58,0-1.05.83-1.05,1.81l.14,94.43c0,.5.11.96.34,1.31.2.31.45.49.72.49.58,0,1.06-.83,1.06-1.8l-.13-94.45c0-.97-.5-1.79-1.07-1.79Z" class="cls-3"/></g></g><g><path data-cppathid="10245" d="m594.52,3c0,1.33-1.12,2.41-2.51,2.42-1.39.01-2.5-1.08-2.51-2.41,0-1.34,1.13-2.41,2.52-2.42,1.38,0,2.5,1.08,2.5,2.41Z" class="cls-4"/><path data-cppathid="10246" d="m591.99,5.65c-1.49,0-2.71-1.19-2.73-2.65,0-1.45,1.24-2.64,2.75-2.66,1.51,0,2.74,1.19,2.74,2.65.01,1.46-1.22,2.65-2.74,2.65h-.02Zm.03-4.83c-1.26.01-2.28.99-2.28,2.18.01,1.2,1.02,2.17,2.26,2.17v.24l.02-.24c1.26,0,2.28-.98,2.27-2.18,0-1.2-1.02-2.18-2.27-2.18Z" class="cls-3"/></g><g><path data-cppathid="10247" d="m612.59,2.97c0,1.34-1.13,2.42-2.5,2.42-1.4.01-2.51-1.08-2.52-2.4-.01-1.36,1.12-2.42,2.51-2.43,1.39,0,2.5,1.07,2.52,2.41Z" class="cls-4"/><path data-cppathid="10248" d="m610.07,5.63c-1.5,0-2.73-1.18-2.74-2.64-.01-1.48,1.19-2.66,2.74-2.67,1.52,0,2.73,1.16,2.75,2.64,0,1.46-1.23,2.66-2.74,2.66h-.02Zm0-4.83c-1.28,0-2.28.97-2.27,2.2.01,1.2,1.03,2.17,2.27,2.17v.24l.02-.24c1.25,0,2.27-.99,2.27-2.19-.02-1.22-1.02-2.17-2.28-2.17Z" class="cls-3"/></g><g><path data-cppathid="10249" d="m630.66,2.95c0,1.34-1.12,2.42-2.5,2.42-1.39,0-2.5-1.08-2.51-2.41,0-1.33,1.12-2.4,2.51-2.42,1.39,0,2.5,1.08,2.5,2.41Z" class="cls-4"/><path data-cppathid="10250" d="m628.13,5.61c-1.49,0-2.71-1.19-2.73-2.65,0-1.47,1.2-2.64,2.74-2.66,1.51,0,2.74,1.18,2.74,2.64,0,1.47-1.23,2.66-2.74,2.66h-.02Zm.03-4.83c-1.29.02-2.29.97-2.29,2.18.01,1.2,1.02,2.18,2.25,2.18v.24l.02-.24c1.25,0,2.27-.98,2.27-2.19,0-1.2-1.02-2.17-2.25-2.17Z" class="cls-3"/></g><g><path data-cppathid="10251" d="m648.73,2.92c.02,1.34-1.13,2.42-2.51,2.41-1.37,0-2.51-1.07-2.51-2.4s1.13-2.42,2.51-2.43c1.38,0,2.5,1.08,2.5,2.41Z" class="cls-4"/><path data-cppathid="10252" d="m646.23,5.57l-.03-.24.02-.24h0c.63,0,1.23-.25,1.66-.68.4-.41.62-.94.61-1.49,0-1.2-1.03-2.18-2.27-2.18-1.26,0-2.28.99-2.28,2.19,0,1.19,1.01,2.16,2.25,2.16v.47c-1.5,0-2.73-1.18-2.73-2.63s1.23-2.66,2.75-2.66c1.5,0,2.73,1.19,2.74,2.65,0,.68-.26,1.33-.75,1.82-.52.52-1.24.82-1.98.82Z" class="cls-3"/></g><g><path data-cppathid="10253" d="m666.8,2.9c0,1.33-1.12,2.43-2.51,2.43s-2.51-1.08-2.52-2.42c0-1.33,1.13-2.43,2.52-2.41,1.39,0,2.51,1.07,2.51,2.4Z" class="cls-4"/><path data-cppathid="10254" d="m664.29,5.56c-1.51,0-2.74-1.19-2.75-2.66,0-.69.27-1.34.77-1.84.52-.52,1.21-.81,1.95-.81,1.55,0,2.78,1.18,2.78,2.64,0,.69-.27,1.35-.77,1.85-.52.53-1.23.82-1.97.82Zm.01-4.83c-.66,0-1.24.24-1.67.67-.41.41-.63.94-.63,1.51,0,1.2,1.03,2.18,2.28,2.18.62,0,1.21-.24,1.64-.68.41-.41.64-.95.64-1.51,0-1.19-1.02-2.17-2.26-2.17h0Z" class="cls-3"/></g><g><path data-cppathid="10255" d="m684.86,2.88c0,1.33-1.11,2.42-2.5,2.42s-2.51-1.08-2.51-2.41c0-1.34,1.12-2.43,2.49-2.42,1.4,0,2.52,1.07,2.52,2.41Z" class="cls-4"/><path data-cppathid="10256" d="m682.36,5.53c-1.51,0-2.75-1.18-2.75-2.64,0-.69.27-1.35.76-1.85.52-.52,1.21-.81,1.95-.81,1.54,0,2.77,1.19,2.77,2.65,0,.69-.26,1.34-.76,1.84-.52.52-1.22.81-1.97.81Zm-.01-4.83c-.64,0-1.21.24-1.64.67-.41.41-.63.95-.63,1.52,0,1.2,1.03,2.17,2.28,2.17.63,0,1.21-.24,1.64-.67.41-.41.63-.94.63-1.51,0-1.2-1.02-2.18-2.28-2.18Z" class="cls-3"/></g><g><path data-cppathid="10257" d="m702.94,2.86c0,1.32-1.12,2.41-2.51,2.4-1.38.01-2.5-1.08-2.5-2.4-.02-1.34,1.11-2.42,2.5-2.42,1.39,0,2.51,1.09,2.51,2.42Z" class="cls-4"/><path data-cppathid="10258" d="m700.41,5.5c-.72,0-1.41-.27-1.92-.77-.51-.5-.8-1.16-.8-1.87-.01-.68.26-1.34.75-1.84.52-.53,1.23-.82,1.99-.82,1.51,0,2.74,1.2,2.75,2.66,0,1.46-1.23,2.64-2.73,2.64l-.03-.24.02-.23c1.25,0,2.27-.97,2.27-2.17,0-1.2-1.03-2.18-2.27-2.18-.63,0-1.23.24-1.66.68-.4.41-.62.94-.61,1.5,0,.58.23,1.12.66,1.53.43.41.99.64,1.59.64v.47Z" class="cls-3"/></g><g><path data-cppathid="10259" d="m721,2.83c.01,1.34-1.11,2.41-2.49,2.41-1.4,0-2.52-1.07-2.52-2.4s1.12-2.42,2.51-2.43c1.38,0,2.5,1.09,2.5,2.42Z" class="cls-4"/><path data-cppathid="10260" d="m718.5,5.47c-1.51,0-2.75-1.18-2.75-2.64s1.23-2.66,2.75-2.67c1.5,0,2.73,1.2,2.73,2.65,0,.69-.26,1.34-.75,1.84-.52.52-1.22.81-1.97.81h0Zm0-4.83c-1.26,0-2.28.99-2.28,2.19s1.02,2.16,2.28,2.16v.24-.24c.63,0,1.22-.24,1.65-.67.4-.41.62-.94.62-1.51,0-1.2-1.02-2.17-2.26-2.18Z" class="cls-3"/></g><g><path data-cppathid="10261" d="m739.09,2.8c0,1.33-1.12,2.42-2.51,2.42s-2.52-1.08-2.53-2.42c0-1.33,1.13-2.42,2.51-2.42s2.52,1.08,2.52,2.42Z" class="cls-4"/><path data-cppathid="10262" d="m736.58,5.46c-1.52,0-2.75-1.19-2.77-2.65.01-1.47,1.24-2.66,2.75-2.66s2.76,1.19,2.76,2.65-1.23,2.66-2.74,2.66Zm-.01-4.84c-1.25,0-2.27.98-2.28,2.19,0,1.2,1.03,2.18,2.29,2.18s2.27-.98,2.27-2.19c0-1.2-1.03-2.18-2.29-2.18Z" class="cls-3"/></g><g><path data-cppathid="10263" d="m757.15,2.76c0,1.34-1.11,2.43-2.51,2.43-1.38.01-2.51-1.07-2.51-2.4,0-1.35,1.12-2.43,2.51-2.44,1.39.02,2.51,1.08,2.51,2.41Z" class="cls-4"/><path data-cppathid="10264" d="m754.62,5.42c-1.5,0-2.72-1.18-2.72-2.63,0-1.47,1.22-2.67,2.74-2.67,1.54.02,2.75,1.18,2.75,2.65,0,1.47-1.23,2.66-2.74,2.66h-.03Zm.02-4.84c-1.25,0-2.27.99-2.27,2.2,0,1.19,1.01,2.16,2.25,2.16v.24l.02-.24c1.25,0,2.27-.98,2.27-2.19s-1-2.16-2.28-2.18Z" class="cls-3"/></g><g><path data-cppathid="10265" d="m775.22,2.75c0,1.33-1.12,2.41-2.5,2.42-1.38,0-2.51-1.08-2.51-2.41,0-1.32,1.1-2.42,2.5-2.42,1.39,0,2.51,1.08,2.51,2.41Z" class="cls-4"/><path data-cppathid="10266" d="m772.7,5.4c-1.51,0-2.73-1.19-2.73-2.65,0-.69.27-1.35.76-1.85.52-.52,1.22-.81,1.97-.81,1.52,0,2.75,1.19,2.75,2.65,0,1.45-1.22,2.64-2.74,2.66h-.01Zm.02-4.83c-.64,0-1.22.24-1.65.67-.4.41-.63.95-.62,1.51,0,1.2,1.01,2.18,2.26,2.18v.24-.24c1.27-.01,2.29-.99,2.28-2.18,0-1.2-1.02-2.18-2.26-2.18Z" class="cls-3"/></g><g><path data-cppathid="10267" d="m594.66,97.45c0,1.34-1.13,2.42-2.51,2.42-1.39,0-2.52-1.07-2.52-2.41,0-1.34,1.13-2.42,2.51-2.42s2.51,1.08,2.52,2.41Z" class="cls-4"/><path data-cppathid="10268" d="m592.14,100.1c-1.51,0-2.75-1.19-2.75-2.64,0-.69.27-1.34.76-1.84.52-.52,1.24-.82,1.99-.82,1.5,0,2.74,1.19,2.75,2.64,0,1.47-1.24,2.66-2.75,2.66h-.01Zm0-4.83c-.62,0-1.22.25-1.65.68-.41.41-.63.95-.63,1.51,0,1.19,1.02,2.17,2.27,2.17v.23-.23c1.26,0,2.28-.98,2.29-2.18-.01-1.2-1.03-2.18-2.28-2.18Z" class="cls-3"/></g><g><path data-cppathid="10269" d="m612.71,97.42c.01,1.34-1.1,2.4-2.5,2.42-1.39.01-2.51-1.08-2.51-2.41s1.12-2.42,2.52-2.43c1.37,0,2.5,1.08,2.49,2.41Z" class="cls-4"/><path data-cppathid="10270" d="m610.2,100.08c-1.51,0-2.73-1.19-2.73-2.65s1.23-2.65,2.75-2.66c.76,0,1.46.29,1.97.82.49.5.76,1.15.75,1.83.01,1.47-1.19,2.64-2.73,2.66h-.01Zm.02-4.83c-1.26,0-2.28.99-2.28,2.19s1.01,2.17,2.26,2.17v.24-.24c1.29-.01,2.28-.97,2.27-2.18,0-.56-.21-1.09-.62-1.5-.42-.43-1.02-.68-1.64-.68Z" class="cls-3"/></g><g><path data-cppathid="10271" d="m630.79,97.4c0,1.33-1.12,2.42-2.5,2.42s-2.5-1.09-2.52-2.41c0-1.33,1.12-2.41,2.52-2.42,1.39,0,2.5,1.08,2.5,2.41Z" class="cls-4"/><path data-cppathid="10272" d="m628.28,100.06c-1.5,0-2.74-1.19-2.75-2.65,0-1.46,1.22-2.65,2.75-2.66,1.51,0,2.74,1.19,2.74,2.65s-1.23,2.66-2.74,2.66Zm0-4.84c-1.26,0-2.28.98-2.28,2.19.01,1.2,1.03,2.18,2.28,2.18s2.26-.98,2.27-2.19c0-1.2-1.02-2.18-2.27-2.18Z" class="cls-3"/></g><g><path data-cppathid="10273" d="m648.87,97.35c0,1.36-1.13,2.44-2.51,2.44-1.39,0-2.5-1.08-2.52-2.41,0-1.33,1.12-2.41,2.52-2.42,1.38,0,2.51,1.07,2.51,2.39Z" class="cls-4"/><path data-cppathid="10274" d="m646.36,100.03h0c-1.51,0-2.74-1.2-2.75-2.65,0-1.46,1.23-2.65,2.75-2.66,1.53,0,2.75,1.18,2.75,2.63s-1.23,2.68-2.75,2.68Zm.02-4.83c-1.28,0-2.3.98-2.3,2.18,0,1.19,1.03,2.17,2.28,2.18,1.25,0,2.27-.99,2.27-2.2s-1.01-2.16-2.25-2.16Z" class="cls-3"/></g><g><path data-cppathid="10275" d="m666.93,97.34c.01,1.34-1.11,2.43-2.51,2.43-1.37,0-2.5-1.09-2.51-2.42,0-1.34,1.13-2.42,2.51-2.42,1.39,0,2.51,1.08,2.51,2.41Z" class="cls-4"/><path data-cppathid="10276" d="m664.42,100.01h0c-1.5-.02-2.73-1.2-2.74-2.65,0-.69.27-1.35.77-1.85.52-.52,1.24-.82,1.97-.82,1.52,0,2.75,1.19,2.75,2.64,0,.68-.26,1.34-.75,1.84-.52.53-1.23.83-2,.83Zm.01-4.84c-.62,0-1.23.24-1.65.68-.41.41-.63.95-.63,1.51.01,1.19,1.03,2.17,2.27,2.18.64,0,1.23-.25,1.67-.69.4-.41.62-.95.61-1.5,0-1.2-1.02-2.18-2.27-2.18Z" class="cls-3"/></g><g><path data-cppathid="10277" d="m685,97.32c0,1.32-1.12,2.42-2.51,2.42s-2.51-1.09-2.51-2.43,1.12-2.39,2.5-2.39c1.4-.01,2.52,1.07,2.52,2.4Z" class="cls-4"/><path data-cppathid="10278" d="m682.5,99.98c-1.51,0-2.75-1.2-2.75-2.67s1.23-2.63,2.73-2.63,2.75,1.18,2.75,2.64c0,.69-.27,1.35-.77,1.85-.52.52-1.22.81-1.97.81Zm0-4.83c-1.27,0-2.28.97-2.28,2.16s1.02,2.2,2.28,2.2c.62,0,1.2-.24,1.63-.67.41-.41.64-.95.63-1.51,0-1.2-1.01-2.17-2.26-2.17Z" class="cls-3"/></g><g><path data-cppathid="10279" d="m703.07,97.29c0,1.34-1.11,2.43-2.5,2.43-1.39,0-2.51-1.08-2.52-2.41.01-1.33,1.13-2.42,2.52-2.41,1.39-.01,2.5,1.06,2.5,2.4Z" class="cls-4"/><path data-cppathid="10280" d="m700.57,99.96h0c-1.51-.01-2.74-1.2-2.75-2.65.02-1.47,1.24-2.65,2.74-2.65s2.74,1.16,2.75,2.63c0,.7-.27,1.36-.77,1.86-.52.52-1.22.81-1.97.81Zm.02-4.82c-1.27,0-2.29.97-2.3,2.18,0,1.19,1.03,2.17,2.28,2.17.62,0,1.21-.24,1.64-.67.41-.41.63-.95.63-1.52,0-1.21-.99-2.16-2.25-2.16Z" class="cls-3"/></g><g><path data-cppathid="10281" d="m721.14,97.27c.01,1.33-1.1,2.43-2.49,2.43-1.4,0-2.53-1.09-2.53-2.42s1.12-2.42,2.52-2.41c1.38,0,2.5,1.06,2.5,2.4Z" class="cls-4"/><path data-cppathid="10282" d="m718.66,99.92h-.01c-1.52,0-2.76-1.19-2.76-2.65s1.23-2.64,2.73-2.64,2.76,1.18,2.76,2.64c.01.69-.26,1.35-.76,1.85-.52.53-1.21.81-1.96.81Zm0-4.82c-1.28,0-2.29.97-2.29,2.17s1.03,2.18,2.29,2.18v.24s0-.24,0-.24c.62,0,1.19-.24,1.62-.67.41-.41.63-.95.62-1.51,0-1.19-1.01-2.16-2.25-2.16Z" class="cls-3"/></g><g><path data-cppathid="10283" d="m739.22,97.24c0,1.34-1.12,2.42-2.5,2.42-1.4,0-2.52-1.07-2.53-2.41,0-1.34,1.13-2.42,2.52-2.42s2.52,1.08,2.52,2.41Z" class="cls-4"/><path data-cppathid="10284" d="m736.7,99.9c-1.51,0-2.74-1.19-2.75-2.65,0-.69.27-1.35.76-1.84.52-.53,1.23-.81,1.99-.81,1.52,0,2.75,1.19,2.75,2.64,0,.69-.27,1.35-.77,1.85-.52.52-1.22.81-1.97.81h-.01Zm0-4.83c-.63,0-1.22.24-1.65.68-.41.41-.63.94-.63,1.51,0,1.2,1.03,2.17,2.28,2.17v.24-.24c.63,0,1.21-.24,1.65-.67.41-.41.63-.94.63-1.51,0-1.2-1.02-2.17-2.28-2.17Z" class="cls-3"/></g><g><path data-cppathid="10285" d="m757.28,97.22c0,1.34-1.11,2.41-2.49,2.41-1.39,0-2.52-1.08-2.53-2.41,0-1.33,1.13-2.41,2.52-2.42,1.38,0,2.51,1.08,2.51,2.42Z" class="cls-4"/><path data-cppathid="10286" d="m754.8,99.87h-.01c-1.51,0-2.75-1.19-2.77-2.64.01-1.46,1.25-2.66,2.75-2.66,1.51,0,2.74,1.19,2.74,2.66,0,.69-.27,1.35-.76,1.84-.52.52-1.21.81-1.96.81Zm-.02-4.83c-1.26,0-2.28.99-2.29,2.19.01,1.19,1.04,2.17,2.3,2.17h0c.62,0,1.2-.24,1.62-.66.41-.41.63-.94.63-1.5,0-1.21-1.02-2.19-2.27-2.19Z" class="cls-3"/></g><g><path data-cppathid="10287" d="m775.36,97.19c.01,1.34-1.11,2.41-2.5,2.43-1.39,0-2.52-1.09-2.52-2.41,0-1.34,1.13-2.42,2.5-2.43,1.4,0,2.52,1.09,2.53,2.41Z" class="cls-4"/><path data-cppathid="10288" d="m772.85,99.85c-1.52,0-2.75-1.19-2.75-2.65,0-1.46,1.22-2.66,2.73-2.67,1.51,0,2.75,1.19,2.77,2.65,0,1.48-1.19,2.65-2.74,2.67h0Zm-.02-4.84c-1.25,0-2.26.99-2.26,2.19s1.02,2.18,2.28,2.18c1.28-.02,2.28-.98,2.27-2.19,0-1.2-1.04-2.18-2.29-2.18Z" class="cls-3"/></g></g></g><g><g><path data-cppathid="10289" d="m972.93,12.04c0,.87-.7,1.57-1.56,1.57h-188.15c-.86,0-1.57-.7-1.57-1.57h0c0-.87.71-1.57,1.57-1.57h188.15c.86,0,1.56.7,1.56,1.57h0Z" class="cls-2"/><path data-cppathid="10290" d="m971.36,13.84h-188.15c-1,0-1.8-.81-1.8-1.8s.81-1.8,1.8-1.8h188.15c.99,0,1.8.81,1.8,1.8s-.81,1.8-1.8,1.8Zm-188.15-3.13c-.73,0-1.33.59-1.33,1.33s.6,1.33,1.33,1.33h188.15c.73,0,1.33-.6,1.33-1.33s-.6-1.33-1.33-1.33h-188.15Z" class="cls-3"/></g><g><path data-cppathid="10291" d="m972.93,52.07c0,.86-.7,1.56-1.56,1.56h-188.15c-.86,0-1.57-.7-1.57-1.56h0c0-.87.71-1.57,1.57-1.57h188.15c.86,0,1.56.7,1.56,1.57h0Z" class="cls-2"/><path data-cppathid="10292" d="m971.36,53.87h-188.15c-1,0-1.8-.81-1.8-1.8s.81-1.81,1.8-1.81h188.15c.99,0,1.8.81,1.8,1.81s-.81,1.8-1.8,1.8Zm-188.15-3.14c-.73,0-1.33.6-1.33,1.34s.6,1.33,1.33,1.33h188.15c.73,0,1.33-.6,1.33-1.33s-.6-1.34-1.33-1.34h-188.15Z" class="cls-3"/></g><g><path data-cppathid="10293" d="m972.93,89.11c0,.87-.7,1.57-1.56,1.57h-188.15c-.86,0-1.57-.7-1.57-1.57h0c0-.87.71-1.57,1.57-1.57h188.15c.86,0,1.56.7,1.56,1.57h0Z" class="cls-2"/><path data-cppathid="10294" d="m971.36,90.91h-188.15c-1,0-1.8-.81-1.8-1.81s.81-1.81,1.8-1.81h188.15c.99,0,1.8.81,1.8,1.81s-.81,1.81-1.8,1.81Zm-188.15-3.14c-.73,0-1.33.6-1.33,1.33s.6,1.34,1.33,1.34h188.15c.73,0,1.33-.6,1.33-1.34s-.6-1.33-1.33-1.33h-188.15Z" class="cls-3"/></g><g><g><g><path data-cppathid="10295" d="m787.49,99.48c-.7,0-1.29-.89-1.29-2.02l-.14-94.44c0-1.13.58-2.04,1.3-2.04s1.3.92,1.3,2.03l.14,94.44c0,1.13-.57,2.05-1.3,2.03Z" class="cls-4"/><path data-cppathid="10296" d="m787.5,99.72h-.01c-.85,0-1.53-1-1.53-2.26l-.13-94.43c0-1.28.67-2.28,1.53-2.28s1.53,1,1.53,2.27l.14,94.44c0,.76-.25,1.47-.67,1.89-.25.25-.55.38-.86.38Zm-.14-98.5c-.58,0-1.06.81-1.06,1.81l.13,94.43c0,.97.49,1.79,1.06,1.79h.01c.23,0,.41-.13.53-.24.33-.33.53-.92.52-1.55l-.13-94.44c0-.97-.49-1.79-1.06-1.79Z" class="cls-3"/></g><g><path data-cppathid="10297" d="m805.59,99.45c-.72,0-1.3-.89-1.3-2.02l-.13-94.45c-.01-1.12.57-2.02,1.29-2.03.72,0,1.3.9,1.3,2.03l.14,94.44c0,1.13-.59,2.03-1.31,2.04Z" class="cls-4"/><path data-cppathid="10298" d="m805.59,99.69h0c-.86,0-1.54-.99-1.54-2.26l-.13-94.45c0-.75.24-1.45.66-1.87.26-.26.56-.4.87-.4.86,0,1.54.99,1.55,2.26l.14,94.44c0,1.27-.68,2.27-1.54,2.27Zm-.14-98.5c-.24,0-.42.14-.54.26-.33.34-.52.91-.52,1.53l.13,94.45c0,.98.48,1.79,1.06,1.79s1.07-.83,1.07-1.8l-.13-94.44c0-.99-.49-1.79-1.07-1.79Z" class="cls-3"/></g><g><path data-cppathid="10299" d="m823.69,99.43c-.73,0-1.31-.89-1.31-2.04l-.14-94.44c0-1.13.57-2.03,1.3-2.03.72,0,1.31.91,1.3,2.02l.14,94.44c0,1.13-.58,2.04-1.3,2.04Z" class="cls-4"/><path data-cppathid="10300" d="m823.69,99.67c-.86,0-1.54-1-1.54-2.27l-.13-94.44c0-1.27.68-2.27,1.53-2.27.32,0,.62.13.88.4.42.42.66,1.12.66,1.86l.14,94.43c-.01,1.28-.68,2.28-1.53,2.28Zm-.14-98.51c-.59,0-1.06.81-1.07,1.8l.13,94.44c0,.99.48,1.8,1.07,1.8s1.05-.81,1.06-1.81l-.14-94.44c0-.62-.2-1.21-.52-1.53-.12-.12-.3-.26-.54-.26Z" class="cls-3"/></g><g><path data-cppathid="10301" d="m841.78,99.41c-.71.01-1.3-.9-1.3-2.03l-.15-94.44c.01-1.12.59-2.04,1.31-2.04.71,0,1.3.91,1.3,2.04l.12,94.43c.01,1.14-.57,2.04-1.28,2.04Z" class="cls-4"/><path data-cppathid="10302" d="m841.77,99.64c-.31,0-.61-.13-.87-.39-.42-.42-.66-1.12-.66-1.88l-.15-94.44c0-1.28.69-2.28,1.54-2.28.86,0,1.54,1.01,1.54,2.27l.12,94.43c.01.76-.23,1.47-.65,1.89-.25.26-.55.39-.87.39h0Zm-.13-98.52c-.57,0-1.06.83-1.07,1.81l.15,94.44c0,.63.19,1.22.52,1.54.11.12.3.26.53.26v.23-.23c.24,0,.43-.14.54-.26.33-.33.52-.91.52-1.55l-.12-94.44c0-.97-.49-1.8-1.07-1.8Z" class="cls-3"/></g><g><path data-cppathid="10303" d="m859.87,99.38c-.72,0-1.31-.91-1.31-2.04l-.14-94.43c0-1.12.59-2.04,1.31-2.04.72,0,1.28.9,1.29,2.03l.13,94.44c0,1.13-.58,2.04-1.29,2.04Z" class="cls-4"/><path data-cppathid="10304" d="m859.87,99.62h0c-.43,0-.83-.25-1.12-.7-.27-.43-.42-.98-.42-1.57l-.13-94.43c0-1.27.68-2.27,1.54-2.28.85,0,1.52,1,1.53,2.27l.13,94.44c0,.76-.25,1.47-.67,1.89-.25.26-.55.39-.86.39Zm-.14-98.51c-.57,0-1.07.83-1.07,1.81l.13,94.43c0,.5.13.96.35,1.32.2.31.46.49.72.49h0c.23,0,.41-.13.52-.25.33-.33.53-.93.53-1.55l-.13-94.44c0-.99-.48-1.8-1.05-1.8Z" class="cls-3"/></g><g><path data-cppathid="10305" d="m877.96,99.36c-.73,0-1.3-.91-1.31-2.03l-.13-94.45c0-1.11.58-2.04,1.3-2.04.7,0,1.28.91,1.29,2.04l.15,94.44c0,1.13-.59,2.04-1.3,2.04Z" class="cls-4"/><path data-cppathid="10306" d="m877.96,99.6c-.86,0-1.53-1-1.54-2.27l-.13-94.45c0-.75.25-1.46.67-1.88.25-.25.55-.39.86-.39.86,0,1.53,1,1.53,2.27l.15,94.44c0,1.27-.68,2.27-1.53,2.27Zm-.14-98.52c-.24,0-.42.14-.53.25-.33.33-.53.92-.53,1.55l.13,94.45c.01.99.49,1.79,1.07,1.79s1.06-.82,1.06-1.8l-.15-94.44c0-.98-.48-1.8-1.05-1.8h0Z" class="cls-3"/></g><g><path data-cppathid="10307" d="m896.06,99.34c-.71,0-1.3-.9-1.31-2.04l-.13-94.45c0-1.11.57-2.03,1.29-2.03.72,0,1.3.91,1.3,2.03l.12,94.45c0,1.12-.57,2.03-1.28,2.03Z" class="cls-4"/><path data-cppathid="10308" d="m896.06,99.57h0c-.85,0-1.53-1-1.55-2.27l-.13-94.45c0-1.27.67-2.27,1.52-2.27.87,0,1.54,1,1.54,2.27l.12,94.45c0,1.27-.66,2.26-1.51,2.27Zm-.15-98.52c-.57,0-1.05.83-1.05,1.8l.13,94.45c0,.97.5,1.79,1.07,1.8.57,0,1.05-.82,1.04-1.79l-.12-94.46c0-.97-.49-1.8-1.07-1.8Z" class="cls-3"/></g><g><path data-cppathid="10309" d="m914.14,99.31c-.72,0-1.3-.91-1.29-2.04l-.15-94.45c0-1.12.57-2.04,1.3-2.04.72,0,1.29.92,1.29,2.05l.14,94.43c0,1.13-.59,2.04-1.3,2.04Z" class="cls-4"/><path data-cppathid="10310" d="m914.14,99.55c-.31,0-.61-.14-.87-.39-.41-.42-.66-1.12-.66-1.88l-.15-94.45c0-1.27.67-2.27,1.53-2.27.31,0,.61.13.86.38.42.42.67,1.13.67,1.9l.14,94.43c0,1.28-.67,2.28-1.53,2.28Zm-.13-98.53c-.58,0-1.07.82-1.07,1.8l.14,94.45c0,.63.2,1.22.52,1.55.12.11.3.25.53.25.57,0,1.06-.83,1.06-1.81l-.14-94.43c0-.64-.2-1.24-.54-1.57-.11-.11-.29-.25-.51-.25Z" class="cls-3"/></g><g><path data-cppathid="10311" d="m932.24,99.28c-.72,0-1.31-.91-1.32-2.04l-.13-94.43c0-1.13.59-2.03,1.3-2.04.71,0,1.31.92,1.28,2.04l.14,94.43c0,1.13-.58,2.04-1.28,2.04Z" class="cls-4"/><path data-cppathid="10312" d="m932.25,99.51h0c-.87,0-1.55-1-1.55-2.27l-.14-94.43c.01-1.27.69-2.27,1.54-2.27.33,0,.62.13.88.39.42.43.66,1.13.65,1.88l.14,94.43c0,.76-.24,1.47-.66,1.89-.25.25-.54.38-.85.38Zm-.14-98.51c-.58,0-1.07.83-1.08,1.8l.14,94.43c0,.98.49,1.8,1.07,1.8h.01c.22,0,.4-.13.52-.25.33-.33.53-.93.52-1.55l-.14-94.44c.01-.62-.18-1.21-.51-1.55-.11-.12-.3-.25-.53-.25Z" class="cls-3"/></g><g><path data-cppathid="10313" d="m950.34,99.26c-.72,0-1.31-.92-1.32-2.04l-.13-94.44c0-1.12.59-2.02,1.3-2.03.72,0,1.29.91,1.3,2.03l.13,94.46c0,1.11-.59,2.04-1.28,2.03Z" class="cls-4"/><path data-cppathid="10314" d="m950.34,99.49h0c-.86,0-1.54-1.01-1.55-2.28l-.13-94.44c0-1.26.67-2.26,1.54-2.27.86,0,1.53.99,1.53,2.26l.13,94.46c0,1.25-.68,2.27-1.52,2.27Zm-.14-98.52c-.58,0-1.07.83-1.07,1.79l.13,94.44c0,.97.5,1.8,1.08,1.81v.24s0-.24,0-.24c.56,0,1.05-.84,1.05-1.8l-.13-94.45c0-.97-.49-1.8-1.05-1.8Z" class="cls-3"/></g><g><path data-cppathid="10315" d="m968.42,99.76c-.72,0-1.31-.91-1.3-2.04l-.14-94.43c0-1.12.57-2.05,1.28-2.04.72,0,1.3.9,1.31,2.03l.13,94.45c0,1.12-.57,2.03-1.29,2.04Z" class="cls-4"/><path data-cppathid="10316" d="m968.42,99.99h0c-.43,0-.83-.25-1.12-.71-.27-.42-.41-.98-.41-1.56l-.14-94.43c0-1.28.66-2.28,1.52-2.28s1.54,1,1.55,2.27l.13,94.45c0,1.25-.68,2.27-1.53,2.27h0Zm-.14-98.51c-.58,0-1.05.83-1.05,1.81l.13,94.43c0,.5.12.96.34,1.31.2.31.46.49.72.49.58,0,1.06-.83,1.06-1.8l-.13-94.45c-.01-.97-.5-1.79-1.07-1.79Z" class="cls-3"/></g></g><g><path data-cppathid="10317" d="m789.87,3c0,1.33-1.12,2.41-2.51,2.42-1.39.01-2.5-1.08-2.52-2.41,0-1.34,1.13-2.41,2.52-2.42,1.38,0,2.5,1.08,2.5,2.41Z" class="cls-4"/><path data-cppathid="10318" d="m787.34,5.65c-1.49,0-2.71-1.19-2.73-2.65,0-1.45,1.23-2.64,2.75-2.66,1.51,0,2.73,1.19,2.74,2.65,0,.71-.28,1.37-.8,1.88-.52.5-1.21.77-1.94.78h-.02Zm.03-4.83c-1.26.01-2.28.99-2.28,2.18.01,1.2,1.02,2.17,2.25,2.17v.24l.02-.24c.61,0,1.18-.23,1.62-.65.43-.41.66-.96.66-1.54,0-1.2-1.02-2.18-2.27-2.18Z" class="cls-3"/></g><g><path data-cppathid="10319" d="m807.94,2.97c0,1.34-1.12,2.42-2.5,2.42-1.4.01-2.51-1.08-2.52-2.4,0-1.36,1.12-2.42,2.51-2.43,1.39,0,2.5,1.07,2.52,2.41Z" class="cls-4"/><path data-cppathid="10320" d="m805.42,5.63c-1.49,0-2.73-1.18-2.74-2.64-.01-1.48,1.19-2.66,2.74-2.67,1.52,0,2.73,1.16,2.75,2.64,0,1.46-1.23,2.66-2.74,2.66h-.02Zm0-4.83c-1.28,0-2.28.97-2.27,2.2.01,1.2,1.03,2.17,2.27,2.17v.24l.02-.24c1.25,0,2.27-.99,2.27-2.19-.02-1.22-1.02-2.17-2.28-2.17Z" class="cls-3"/></g><g><path data-cppathid="10321" d="m826.01,2.95c0,1.34-1.12,2.42-2.5,2.42-1.39,0-2.51-1.08-2.51-2.41,0-1.33,1.11-2.4,2.51-2.42,1.39,0,2.5,1.08,2.5,2.41Z" class="cls-4"/><path data-cppathid="10322" d="m823.49,5.61c-1.49,0-2.72-1.19-2.73-2.65,0-1.47,1.2-2.64,2.74-2.66,1.51,0,2.73,1.18,2.75,2.64,0,1.47-1.23,2.66-2.74,2.66h-.02Zm.03-4.83c-1.29.02-2.29.97-2.29,2.18.01,1.2,1.02,2.18,2.25,2.18v.24l.02-.24c1.25,0,2.27-.98,2.27-2.19,0-1.2-1.02-2.17-2.26-2.17Z" class="cls-3"/></g><g><path data-cppathid="10323" d="m844.08,2.92c.01,1.34-1.13,2.42-2.51,2.41-1.37,0-2.51-1.07-2.51-2.4s1.13-2.42,2.51-2.43c1.38,0,2.5,1.08,2.5,2.41Z" class="cls-4"/><path data-cppathid="10324" d="m841.59,5.57l-.03-.24.02-.24h0c.63,0,1.23-.25,1.66-.68.4-.41.62-.94.62-1.49,0-1.2-1.03-2.18-2.27-2.18-1.25,0-2.28.99-2.28,2.19,0,1.19,1.02,2.16,2.26,2.16v.47c-1.5,0-2.73-1.18-2.73-2.63s1.23-2.66,2.75-2.66c1.5,0,2.73,1.19,2.74,2.65,0,.68-.26,1.33-.75,1.83-.52.52-1.23.82-1.98.82Z" class="cls-3"/></g><g><path data-cppathid="10325" d="m862.15,2.9c0,1.33-1.12,2.43-2.51,2.43s-2.51-1.08-2.51-2.42c0-1.33,1.13-2.43,2.51-2.41,1.39,0,2.51,1.07,2.51,2.4Z" class="cls-4"/><path data-cppathid="10326" d="m859.64,5.56c-1.5,0-2.74-1.19-2.75-2.66,0-.69.27-1.34.77-1.84.51-.52,1.21-.8,1.95-.8,1.55,0,2.78,1.18,2.78,2.64,0,.69-.27,1.35-.77,1.85-.52.52-1.23.82-1.98.82Zm.02-4.83c-.66,0-1.23.24-1.67.67-.41.41-.63.95-.63,1.51,0,1.2,1.03,2.18,2.28,2.18.63,0,1.21-.24,1.65-.68.41-.41.63-.95.63-1.51,0-1.19-1.02-2.17-2.26-2.17h0Z" class="cls-3"/></g><g><path data-cppathid="10327" d="m880.22,2.88c0,1.33-1.11,2.42-2.5,2.42s-2.51-1.08-2.51-2.41c-.01-1.34,1.12-2.43,2.49-2.42,1.4,0,2.52,1.07,2.52,2.41Z" class="cls-4"/><path data-cppathid="10328" d="m877.72,5.53c-1.51,0-2.75-1.18-2.75-2.64,0-.69.26-1.35.76-1.85.52-.52,1.21-.81,1.95-.81,1.54,0,2.77,1.19,2.77,2.65,0,.69-.27,1.35-.76,1.85-.52.52-1.22.81-1.97.81Zm-.01-4.83c-.64,0-1.21.24-1.64.67-.4.41-.63.95-.62,1.51,0,1.2,1.02,2.17,2.27,2.17.63,0,1.21-.24,1.64-.67.4-.41.62-.95.62-1.51,0-1.2-1.02-2.18-2.28-2.18Z" class="cls-3"/></g><g><path data-cppathid="10329" d="m898.29,2.86c0,1.32-1.12,2.41-2.51,2.4-1.38.01-2.51-1.08-2.51-2.4-.01-1.34,1.12-2.42,2.51-2.42,1.38,0,2.5,1.09,2.51,2.42Z" class="cls-4"/><path data-cppathid="10330" d="m895.76,5.5c-.72,0-1.41-.27-1.92-.77-.52-.5-.8-1.16-.8-1.87,0-.68.26-1.34.75-1.84.52-.53,1.23-.82,2-.82,1.51,0,2.74,1.2,2.74,2.66,0,1.46-1.23,2.64-2.73,2.64l-.03-.24.02-.23c1.25,0,2.26-.97,2.27-2.17,0-1.2-1.02-2.18-2.27-2.18-.64,0-1.23.24-1.66.68-.4.41-.62.94-.61,1.5,0,.58.23,1.12.66,1.53.43.41.99.64,1.59.64v.47Z" class="cls-3"/></g><g><path data-cppathid="10331" d="m916.35,2.83c.02,1.34-1.11,2.41-2.48,2.41-1.4,0-2.52-1.07-2.52-2.4s1.12-2.42,2.51-2.43c1.39,0,2.5,1.09,2.5,2.42Z" class="cls-4"/><path data-cppathid="10332" d="m913.86,5.47c-1.51,0-2.75-1.18-2.75-2.64s1.23-2.66,2.74-2.67c1.51,0,2.74,1.2,2.74,2.65,0,.69-.26,1.34-.75,1.84-.52.53-1.22.81-1.97.81h-.01Zm0-4.83c-1.25,0-2.27.99-2.27,2.19s1.02,2.16,2.28,2.16v.24-.24c.63,0,1.22-.24,1.65-.67.4-.41.62-.94.61-1.5,0-1.2-1.02-2.17-2.27-2.18Z" class="cls-3"/></g><g><path data-cppathid="10333" d="m934.44,2.8c0,1.33-1.12,2.42-2.5,2.42s-2.52-1.08-2.53-2.42c0-1.33,1.14-2.42,2.52-2.42s2.51,1.08,2.52,2.42Z" class="cls-4"/><path data-cppathid="10334" d="m931.93,5.46c-1.52,0-2.76-1.19-2.76-2.65s1.23-2.66,2.75-2.66,2.75,1.19,2.75,2.65c0,1.47-1.23,2.66-2.74,2.66Zm-.01-4.84c-1.25,0-2.28.98-2.28,2.19,0,1.2,1.03,2.18,2.29,2.18s2.27-.98,2.27-2.19c0-1.2-1.03-2.18-2.28-2.18Z" class="cls-3"/></g><g><path data-cppathid="10335" d="m952.5,2.76c0,1.34-1.11,2.43-2.51,2.43-1.38.01-2.51-1.07-2.51-2.4,0-1.35,1.12-2.43,2.51-2.44,1.39.02,2.51,1.08,2.51,2.41Z" class="cls-4"/><path data-cppathid="10336" d="m949.98,5.42c-1.51,0-2.73-1.18-2.73-2.63,0-1.47,1.23-2.67,2.74-2.67,1.54.02,2.75,1.18,2.75,2.65s-1.23,2.66-2.74,2.66h-.02Zm.01-4.84c-1.25,0-2.27.99-2.27,2.2,0,1.19,1.01,2.16,2.25,2.16v.24l.02-.24c1.25,0,2.27-.98,2.27-2.19,0-1.2-1-2.16-2.28-2.18Z" class="cls-3"/></g><g><path data-cppathid="10337" d="m970.57,2.75c0,1.33-1.12,2.41-2.51,2.42-1.39,0-2.5-1.08-2.5-2.41,0-1.32,1.1-2.42,2.5-2.42,1.39,0,2.52,1.08,2.52,2.41Z" class="cls-4"/><path data-cppathid="10338" d="m968.06,5.4c-1.51,0-2.73-1.19-2.73-2.65,0-.69.27-1.35.77-1.85.52-.52,1.22-.81,1.97-.81,1.52,0,2.75,1.19,2.75,2.65,0,1.45-1.22,2.64-2.74,2.66h-.01Zm.02-4.83c-.64,0-1.22.24-1.65.67-.41.41-.63.95-.63,1.51,0,1.2,1.01,2.18,2.26,2.18v.24-.24c1.26-.01,2.29-.99,2.28-2.18,0-1.2-1.02-2.18-2.26-2.18Z" class="cls-3"/></g><g><path data-cppathid="10339" d="m790.01,97.45c0,1.34-1.13,2.42-2.51,2.42-1.39,0-2.52-1.07-2.52-2.41,0-1.34,1.13-2.42,2.51-2.42s2.51,1.08,2.52,2.41Z" class="cls-4"/><path data-cppathid="10340" d="m787.49,100.1c-1.51,0-2.74-1.19-2.74-2.64,0-.68.27-1.34.76-1.84.52-.52,1.24-.82,1.98-.82,1.51,0,2.74,1.19,2.76,2.64,0,1.47-1.24,2.66-2.75,2.66h-.01Zm0-4.83c-.62,0-1.21.25-1.64.68-.41.41-.63.94-.63,1.51,0,1.19,1.02,2.17,2.27,2.17v.23-.23c1.26,0,2.28-.98,2.29-2.18-.01-1.2-1.03-2.18-2.29-2.18Z" class="cls-3"/></g><g><path data-cppathid="10341" d="m808.06,97.42c0,1.34-1.1,2.4-2.5,2.42-1.39.01-2.51-1.08-2.51-2.41s1.12-2.42,2.52-2.43c1.37,0,2.5,1.08,2.49,2.41Z" class="cls-4"/><path data-cppathid="10342" d="m805.55,100.08c-1.51,0-2.73-1.19-2.73-2.65s1.23-2.65,2.75-2.66c.75,0,1.45.29,1.97.82.49.5.76,1.14.76,1.83,0,1.47-1.19,2.64-2.73,2.66h-.01Zm.02-4.83c-1.26,0-2.28.99-2.28,2.19s1.02,2.17,2.26,2.17v.24-.24c1.29-.01,2.28-.97,2.27-2.18,0-.56-.22-1.09-.62-1.5-.43-.43-1.01-.68-1.64-.68Z" class="cls-3"/></g><g><path data-cppathid="10343" d="m826.14,97.4c0,1.33-1.12,2.42-2.5,2.42s-2.5-1.09-2.52-2.41c0-1.33,1.12-2.41,2.52-2.42,1.39,0,2.5,1.08,2.5,2.41Z" class="cls-4"/><path data-cppathid="10344" d="m823.64,100.06c-1.5,0-2.74-1.19-2.75-2.65,0-1.46,1.23-2.65,2.75-2.66,1.51,0,2.74,1.19,2.74,2.65s-1.23,2.66-2.74,2.66Zm0-4.84c-1.26,0-2.28.98-2.28,2.19.01,1.2,1.03,2.18,2.28,2.18s2.27-.98,2.27-2.19-1.02-2.18-2.27-2.18Z" class="cls-3"/></g><g><path data-cppathid="10345" d="m844.22,97.35c0,1.36-1.13,2.44-2.51,2.44-1.38,0-2.5-1.08-2.51-2.41,0-1.33,1.12-2.41,2.51-2.42,1.38,0,2.51,1.07,2.51,2.39Z" class="cls-4"/><path data-cppathid="10346" d="m841.71,100.03h0c-1.51,0-2.74-1.2-2.75-2.65,0-1.46,1.23-2.65,2.75-2.66,1.53,0,2.75,1.18,2.75,2.63s-1.23,2.68-2.75,2.68Zm.02-4.83c-1.28,0-2.3.98-2.3,2.18,0,1.19,1.03,2.17,2.28,2.18,1.26,0,2.28-.99,2.28-2.2s-1.01-2.16-2.26-2.16Z" class="cls-3"/></g><g><path data-cppathid="10347" d="m862.28,97.34c.02,1.34-1.11,2.43-2.51,2.43-1.37,0-2.5-1.09-2.5-2.42,0-1.34,1.13-2.42,2.5-2.42,1.39,0,2.51,1.08,2.51,2.41Z" class="cls-4"/><path data-cppathid="10348" d="m859.77,100.01h0c-1.5-.02-2.73-1.2-2.74-2.65,0-.69.27-1.35.77-1.85.52-.52,1.24-.82,1.98-.82,1.52,0,2.75,1.19,2.75,2.64.01.68-.26,1.34-.75,1.84-.52.53-1.23.83-2,.83Zm.01-4.84c-.63,0-1.23.24-1.65.68-.41.41-.63.95-.63,1.51,0,1.19,1.03,2.17,2.27,2.18.64,0,1.23-.25,1.66-.69.4-.41.62-.95.61-1.5,0-1.2-1.02-2.18-2.26-2.18Z" class="cls-3"/></g><g><path data-cppathid="10349" d="m880.36,97.32c0,1.32-1.12,2.42-2.51,2.42s-2.51-1.09-2.51-2.43,1.12-2.39,2.5-2.39c1.4-.01,2.52,1.07,2.52,2.4Z" class="cls-4"/><path data-cppathid="10350" d="m877.85,99.98c-1.52,0-2.75-1.2-2.75-2.67s1.23-2.63,2.74-2.63,2.75,1.18,2.75,2.64c0,.69-.27,1.35-.77,1.85-.52.52-1.22.81-1.97.81Zm0-4.83c-1.27,0-2.29.97-2.29,2.16s1.02,2.2,2.28,2.2c.62,0,1.2-.24,1.63-.67.41-.41.64-.95.63-1.51,0-1.2-1.02-2.17-2.26-2.17Z" class="cls-3"/></g><g><path data-cppathid="10351" d="m898.43,97.29c0,1.34-1.11,2.43-2.5,2.43-1.39,0-2.51-1.08-2.52-2.41.01-1.33,1.13-2.42,2.51-2.41,1.39-.01,2.5,1.06,2.51,2.4Z" class="cls-4"/><path data-cppathid="10352" d="m895.92,99.96h0c-1.51-.01-2.74-1.2-2.75-2.65,0-1.47,1.24-2.65,2.74-2.65s2.75,1.16,2.75,2.63c0,.7-.27,1.36-.77,1.86-.52.52-1.22.81-1.97.81Zm.02-4.82c-1.28,0-2.29.97-2.3,2.18,0,1.19,1.03,2.17,2.28,2.17.62,0,1.21-.24,1.64-.67.41-.41.63-.95.63-1.52-.01-1.21-.99-2.16-2.25-2.16Z" class="cls-3"/></g><g><path data-cppathid="10353" d="m916.49,97.27c.01,1.33-1.1,2.43-2.49,2.43-1.4,0-2.52-1.09-2.52-2.42s1.12-2.42,2.52-2.41c1.38,0,2.5,1.06,2.5,2.4Z" class="cls-4"/><path data-cppathid="10354" d="m914.01,99.92h-.01c-1.52,0-2.76-1.19-2.76-2.65s1.22-2.64,2.73-2.64,2.75,1.18,2.75,2.64c0,.69-.26,1.35-.76,1.85-.52.53-1.21.81-1.96.81Zm0-4.82c-1.28,0-2.29.97-2.29,2.17s1.03,2.18,2.29,2.18v.24s.01-.24.01-.24c.62,0,1.19-.24,1.62-.67.41-.41.63-.95.62-1.51,0-1.19-1.01-2.16-2.25-2.16Z" class="cls-3"/></g><g><path data-cppathid="10355" d="m934.57,97.24c0,1.34-1.12,2.42-2.5,2.42-1.4,0-2.52-1.07-2.53-2.41,0-1.34,1.12-2.42,2.52-2.42s2.51,1.08,2.51,2.41Z" class="cls-4"/><path data-cppathid="10356" d="m932.06,99.9c-1.51,0-2.74-1.19-2.76-2.65,0-.69.27-1.35.77-1.84.53-.53,1.23-.81,1.99-.81,1.52,0,2.75,1.19,2.75,2.64,0,.69-.27,1.35-.77,1.84-.52.53-1.22.82-1.97.82h-.01Zm0-4.83c-.63,0-1.22.24-1.65.68-.4.41-.63.94-.63,1.51.01,1.22,1.02,2.17,2.28,2.17v.24-.24c.64,0,1.22-.24,1.65-.67.41-.41.63-.94.63-1.51,0-1.2-1.02-2.17-2.28-2.17Z" class="cls-3"/></g><g><path data-cppathid="10357" d="m952.64,97.22c0,1.34-1.11,2.41-2.5,2.41-1.39,0-2.52-1.08-2.53-2.41.01-1.33,1.13-2.41,2.52-2.42,1.38,0,2.51,1.08,2.51,2.42Z" class="cls-4"/><path data-cppathid="10358" d="m950.15,99.87h-.01c-1.51,0-2.75-1.19-2.77-2.64.01-1.46,1.25-2.66,2.75-2.66,1.52,0,2.75,1.19,2.75,2.66,0,.69-.27,1.34-.76,1.84-.52.52-1.21.81-1.96.81Zm-.02-4.83c-1.26,0-2.28.99-2.29,2.19,0,1.19,1.04,2.17,2.29,2.17h.01c.62,0,1.19-.24,1.62-.66.41-.41.63-.94.63-1.5,0-1.21-1.02-2.19-2.27-2.19Z" class="cls-3"/></g><g><path data-cppathid="10359" d="m970.71,97.19c0,1.34-1.11,2.41-2.51,2.43-1.39,0-2.51-1.09-2.51-2.41s1.12-2.42,2.49-2.43c1.4,0,2.52,1.09,2.53,2.41Z" class="cls-4"/><path data-cppathid="10360" d="m968.2,99.85c-1.51,0-2.75-1.19-2.75-2.65s1.22-2.66,2.73-2.67c1.51,0,2.76,1.19,2.77,2.65,0,1.48-1.19,2.65-2.74,2.67h0Zm-.02-4.84c-1.25,0-2.25.99-2.25,2.19s1.02,2.18,2.28,2.18c1.28-.02,2.28-.98,2.27-2.19-.01-1.2-1.04-2.18-2.3-2.18Z" class="cls-3"/></g></g></g></g><g class="cls-5"><g><g><path data-cppathid="10361" d="m1168.35,11.94c0,.87-.7,1.57-1.56,1.57h-188.15c-.86,0-1.57-.7-1.57-1.57h0c0-.87.71-1.57,1.57-1.57h188.15c.86,0,1.56.7,1.56,1.57h0Z" class="cls-2"/><path data-cppathid="10362" d="m1166.79,13.74h-188.15c-1,0-1.8-.81-1.8-1.8s.81-1.8,1.8-1.8h188.15c.99,0,1.8.81,1.8,1.8s-.81,1.8-1.8,1.8Zm-188.15-3.13c-.73,0-1.33.59-1.33,1.33s.6,1.33,1.33,1.33h188.15c.73,0,1.33-.6,1.33-1.33s-.6-1.33-1.33-1.33h-188.15Z" class="cls-3"/></g><g><path data-cppathid="10363" d="m1168.35,51.97c0,.86-.7,1.56-1.56,1.56h-188.15c-.86,0-1.57-.7-1.57-1.56h0c0-.87.71-1.57,1.57-1.57h188.15c.86,0,1.56.7,1.56,1.57h0Z" class="cls-2"/><path data-cppathid="10364" d="m1166.79,53.77h-188.15c-1,0-1.8-.81-1.8-1.8s.81-1.81,1.8-1.81h188.15c.99,0,1.8.81,1.8,1.81s-.81,1.8-1.8,1.8Zm-188.15-3.14c-.73,0-1.33.6-1.33,1.34s.6,1.33,1.33,1.33h188.15c.73,0,1.33-.6,1.33-1.33s-.6-1.34-1.33-1.34h-188.15Z" class="cls-3"/></g><g><path data-cppathid="10365" d="m1168.35,89.01c0,.87-.7,1.57-1.56,1.57h-188.15c-.86,0-1.57-.7-1.57-1.57h0c0-.87.71-1.57,1.57-1.57h188.15c.86,0,1.56.7,1.56,1.57h0Z" class="cls-2"/><path data-cppathid="10366" d="m1166.79,90.81h-188.15c-1,0-1.8-.81-1.8-1.81s.81-1.81,1.8-1.81h188.15c.99,0,1.8.81,1.8,1.81s-.81,1.81-1.8,1.81Zm-188.15-3.14c-.73,0-1.33.6-1.33,1.33s.6,1.34,1.33,1.34h188.15c.73,0,1.33-.6,1.33-1.34s-.6-1.33-1.33-1.33h-188.15Z" class="cls-3"/></g><g><g><g><path data-cppathid="10367" d="m982.92,99.38c-.7,0-1.29-.89-1.29-2.02l-.14-94.44c0-1.13.58-2.04,1.3-2.04s1.3.92,1.3,2.03l.14,94.44c0,1.13-.57,2.05-1.3,2.03Z" class="cls-4"/><path data-cppathid="10368" d="m982.93,99.62h-.01c-.85,0-1.53-1-1.53-2.26l-.13-94.43c0-1.28.67-2.28,1.53-2.28s1.53,1,1.53,2.27l.14,94.44c0,.76-.25,1.47-.67,1.89-.25.25-.55.38-.86.38Zm-.14-98.5c-.58,0-1.06.81-1.06,1.81l.13,94.43c0,.97.49,1.79,1.06,1.79h.01c.23,0,.41-.13.53-.24.33-.33.53-.92.52-1.55l-.13-94.44c0-.97-.49-1.79-1.06-1.79Z" class="cls-3"/></g><g><path data-cppathid="10369" d="m1001.02,99.35c-.72,0-1.3-.89-1.3-2.02l-.13-94.45c-.01-1.12.57-2.02,1.29-2.03.72,0,1.3.9,1.3,2.03l.14,94.44c0,1.13-.59,2.03-1.31,2.04Z" class="cls-4"/><path data-cppathid="10370" d="m1001.02,99.59h0c-.86,0-1.54-.99-1.54-2.26l-.13-94.45c0-.75.24-1.45.66-1.87.26-.26.56-.4.87-.4.86,0,1.54.99,1.55,2.26l.14,94.44c0,1.27-.68,2.27-1.54,2.27Zm-.14-98.5c-.24,0-.42.14-.54.26-.33.34-.52.91-.52,1.53l.13,94.45c0,.98.48,1.79,1.06,1.79s1.07-.83,1.07-1.8l-.13-94.44c0-.99-.49-1.79-1.07-1.79Z" class="cls-3"/></g><g><path data-cppathid="10371" d="m1019.11,99.33c-.73,0-1.31-.89-1.31-2.04l-.14-94.44c0-1.13.57-2.03,1.3-2.03.72,0,1.31.91,1.3,2.02l.14,94.44c0,1.13-.58,2.04-1.3,2.04Z" class="cls-4"/><path data-cppathid="10372" d="m1019.11,99.57c-.86,0-1.54-1-1.54-2.27l-.13-94.44c0-1.27.68-2.27,1.53-2.27.32,0,.62.13.88.4.42.42.66,1.12.66,1.86l.14,94.43c-.01,1.28-.68,2.28-1.53,2.28Zm-.14-98.51c-.59,0-1.06.81-1.07,1.8l.13,94.44c0,.99.48,1.8,1.07,1.8s1.05-.81,1.06-1.81l-.14-94.44c0-.62-.2-1.21-.52-1.53-.12-.12-.3-.26-.54-.26Z" class="cls-3"/></g><g><path data-cppathid="10373" d="m1037.2,99.3c-.71.01-1.3-.9-1.3-2.03l-.15-94.44c.01-1.12.59-2.04,1.31-2.04.71,0,1.3.91,1.3,2.04l.12,94.43c.01,1.14-.57,2.04-1.28,2.04Z" class="cls-4"/><path data-cppathid="10374" d="m1037.2,99.54c-.31,0-.61-.13-.87-.39-.42-.42-.66-1.12-.66-1.88l-.15-94.44c0-1.28.69-2.28,1.54-2.28.86,0,1.54,1.01,1.54,2.27l.12,94.43c.01.76-.23,1.47-.65,1.89-.25.26-.55.39-.87.39h0Zm-.13-98.52c-.57,0-1.06.83-1.07,1.81l.15,94.44c0,.63.19,1.22.52,1.54.11.12.3.26.53.26v.23-.23c.24,0,.43-.14.54-.26.33-.33.52-.91.52-1.55l-.12-94.44c0-.97-.49-1.8-1.07-1.8Z" class="cls-3"/></g></g><g><path data-cppathid="10375" d="m985.29,2.9c0,1.33-1.12,2.41-2.51,2.42-1.39.01-2.5-1.08-2.52-2.41,0-1.34,1.13-2.41,2.52-2.42,1.38,0,2.5,1.08,2.5,2.41Z" class="cls-4"/><path data-cppathid="10376" d="m982.77,5.55c-1.49,0-2.71-1.19-2.73-2.65,0-1.45,1.23-2.64,2.75-2.66,1.51,0,2.73,1.19,2.74,2.65,0,.71-.28,1.37-.8,1.88-.52.5-1.21.77-1.94.78h-.02Zm.03-4.83c-1.26.01-2.28.99-2.28,2.18.01,1.2,1.02,2.17,2.25,2.17v.24l.02-.24c.61,0,1.18-.23,1.62-.65.43-.41.66-.96.66-1.54,0-1.2-1.02-2.18-2.27-2.18Z" class="cls-3"/></g><g><path data-cppathid="10377" d="m1003.37,2.87c0,1.34-1.12,2.42-2.5,2.42-1.4.01-2.51-1.08-2.52-2.4,0-1.36,1.12-2.42,2.51-2.43,1.39,0,2.5,1.07,2.52,2.41Z" class="cls-4"/><path data-cppathid="10378" d="m1000.85,5.53c-1.49,0-2.73-1.18-2.74-2.64-.01-1.48,1.19-2.66,2.74-2.67,1.52,0,2.73,1.16,2.75,2.64,0,1.46-1.23,2.66-2.74,2.66h-.02Zm0-4.83c-1.28,0-2.28.97-2.27,2.2.01,1.2,1.03,2.17,2.27,2.17v.24l.02-.24c1.25,0,2.27-.99,2.27-2.19-.02-1.22-1.02-2.17-2.28-2.17Z" class="cls-3"/></g><g><path data-cppathid="10379" d="m1021.44,2.85c0,1.34-1.12,2.42-2.5,2.42-1.39,0-2.51-1.08-2.51-2.41,0-1.33,1.11-2.4,2.51-2.42,1.39,0,2.5,1.08,2.5,2.41Z" class="cls-4"/><path data-cppathid="10380" d="m1018.91,5.5c-1.49,0-2.72-1.19-2.73-2.65,0-1.47,1.2-2.64,2.74-2.66,1.51,0,2.73,1.18,2.75,2.64,0,1.47-1.23,2.66-2.74,2.66h-.02Zm.03-4.83c-1.29.02-2.29.97-2.29,2.18.01,1.2,1.02,2.18,2.25,2.18v.24l.02-.24c1.25,0,2.27-.98,2.27-2.19,0-1.2-1.02-2.17-2.26-2.17Z" class="cls-3"/></g><g><path data-cppathid="10381" d="m1039.51,2.82c.01,1.34-1.13,2.42-2.51,2.41-1.37,0-2.51-1.07-2.51-2.4s1.13-2.42,2.51-2.43c1.38,0,2.5,1.08,2.5,2.41Z" class="cls-4"/><path data-cppathid="10382" d="m1037.01,5.47l-.03-.24.02-.24h0c.63,0,1.23-.25,1.66-.68.4-.41.62-.94.62-1.49,0-1.2-1.03-2.18-2.27-2.18-1.25,0-2.28.99-2.28,2.19,0,1.19,1.02,2.16,2.26,2.16v.47c-1.5,0-2.73-1.18-2.73-2.63s1.23-2.66,2.75-2.66c1.5,0,2.73,1.19,2.74,2.65,0,.68-.26,1.33-.75,1.83-.52.52-1.23.82-1.98.82Z" class="cls-3"/></g><g><path data-cppathid="10383" d="m985.44,97.34c0,1.34-1.13,2.42-2.51,2.42-1.39,0-2.52-1.07-2.52-2.41,0-1.34,1.13-2.42,2.51-2.42s2.51,1.08,2.52,2.41Z" class="cls-4"/><path data-cppathid="10384" d="m982.92,100c-1.51,0-2.74-1.19-2.74-2.64,0-.68.27-1.34.76-1.84.52-.52,1.24-.82,1.98-.82,1.51,0,2.74,1.19,2.76,2.64,0,1.47-1.24,2.66-2.75,2.66h-.01Zm0-4.83c-.62,0-1.21.25-1.64.68-.41.41-.63.94-.63,1.51,0,1.19,1.02,2.17,2.27,2.17v.23-.23c1.26,0,2.28-.98,2.29-2.18-.01-1.2-1.03-2.18-2.29-2.18Z" class="cls-3"/></g><g><path data-cppathid="10385" d="m1003.49,97.32c0,1.34-1.1,2.4-2.5,2.42-1.39.01-2.51-1.08-2.51-2.41s1.12-2.42,2.52-2.43c1.37,0,2.5,1.08,2.49,2.41Z" class="cls-4"/><path data-cppathid="10386" d="m1000.98,99.98c-1.51,0-2.73-1.19-2.73-2.65s1.23-2.65,2.75-2.66c.75,0,1.45.29,1.97.82.49.5.76,1.14.76,1.83,0,1.47-1.19,2.64-2.73,2.66h-.01Zm.02-4.83c-1.26,0-2.28.99-2.28,2.19s1.02,2.17,2.26,2.17v.24-.24c1.29-.01,2.28-.97,2.27-2.18,0-.56-.22-1.09-.62-1.5-.43-.43-1.01-.68-1.64-.68Z" class="cls-3"/></g><g><path data-cppathid="10387" d="m1021.57,97.29c0,1.33-1.12,2.42-2.5,2.42s-2.5-1.09-2.52-2.41c0-1.33,1.12-2.41,2.52-2.42,1.39,0,2.5,1.08,2.5,2.41Z" class="cls-4"/><path data-cppathid="10388" d="m1019.06,99.96c-1.5,0-2.74-1.19-2.75-2.65,0-1.46,1.23-2.65,2.75-2.66,1.51,0,2.74,1.19,2.74,2.65s-1.23,2.66-2.74,2.66Zm0-4.84c-1.26,0-2.28.98-2.28,2.19.01,1.2,1.03,2.18,2.28,2.18s2.27-.98,2.27-2.19-1.02-2.18-2.27-2.18Z" class="cls-3"/></g><g><path data-cppathid="10389" d="m1039.65,97.25c0,1.36-1.13,2.44-2.51,2.44-1.38,0-2.5-1.08-2.51-2.41,0-1.33,1.12-2.41,2.51-2.42,1.38,0,2.51,1.07,2.51,2.39Z" class="cls-4"/><path data-cppathid="10390" d="m1037.14,99.93h0c-1.51,0-2.74-1.2-2.75-2.65,0-1.46,1.23-2.65,2.75-2.66,1.53,0,2.75,1.18,2.75,2.63s-1.23,2.68-2.75,2.68Zm.02-4.83c-1.28,0-2.3.98-2.3,2.18,0,1.19,1.03,2.17,2.28,2.18,1.26,0,2.28-.99,2.28-2.2s-1.01-2.16-2.26-2.16Z" class="cls-3"/></g></g></g></g></g></g></svg>