<?xml version="1.0" encoding="UTF-8"?>
<svg xmlns="http://www.w3.org/2000/svg" onmouseup="{ if(window.parent.document.onmouseup) window.parent.document.onmouseup(arguments[0]);}" viewBox="0 0 100 62.88" data-name="Layer 2" id="Layer_2"><defs><style>
      .cls-1 {
        fill: #2b592b;
      }

      .cls-1, .cls-2, .cls-3, .cls-4, .cls-5, .cls-6, .cls-7 {
        stroke-width: 0px;
      }

      .cls-1, .cls-2, .cls-4, .cls-5, .cls-6, .cls-7 {
        fill-rule: evenodd;
      }

      .cls-2 {
        fill: #5a8d3e;
      }

      .cls-3 {
        fill: #286c36;
      }

      .cls-4 {
        fill: #79aa41;
      }

      .cls-5 {
        fill: #67171f;
      }

      .cls-6 {
        fill: #5c1015;
      }

      .cls-7 {
        fill: #396b34;
      }
    </style></defs><g data-name="Layer 1" id="Layer_1-2"><g><rect data-cppathid="10000" height="15.99" width="59.03" y="14.6" x="21.77" class="cls-3"/><path data-cppathid="10001" d="m33.42,9.95c-.79-1.4-.89-3.31-.6-5.04-.47.28-.94.45-1.31.4-1.23-.14-1.23-2.18-.1-3.86.84-1.25,1.98-.62,2.65.04.35-.51.73-.86,1.11-.94,1.76-.4,2.2,1.05,2.2,1.05,0,0,.45-1.8,2.26-1.35,1.81.45,1.21,2.11,1.21,2.11,0,0,1.7-.81,2.1.35.41,1.15-.5,1.91-.5,1.91,0,0,1.86-.15,1.81,1.11-.05,1.26-1.15,1.51-1.15,1.51,0,0,1.25-.35,1.21.75-.05,1.11-1.15,1.51-1.15,1.51,0,0,.89.41.85,1.05-.04.64-9.23,2.36-10.57-.59Z" class="cls-1"/><path data-cppathid="10002" d="m36.86,17.35c.15-1.75.68-4.11,1.6-5.85,1.45-2.76,4.51-3.41,6.63-.95,0,0-.33-2.52,1.01-3.77,1.34-1.26,3.53-1.1,3.53-1.1,0,0-.17-1.98.92-2.73,1.09-.76,2.7.81,2.7.81.79-2.46,6.77-4.84,7.05-3.11l4.79,28.99-3.63.96h-15.43c-2.25-2.11-10.33-9.97-9.17-13.23Z" class="cls-2"/><path data-cppathid="10003" d="m60.42,1.29l4.68,28.34-3.63.96h-15.43c-1.64-1.53-6.36-6.12-8.37-9.75-.35-.89-.47-1.69-.25-2.32.15-1.75.68-4.11,1.6-5.85,1.45-2.75,4.51-3.41,6.63-.96,0,0-.33-2.51,1.01-3.77,1.35-1.26,3.53-1.11,3.53-1.11,0,0-.17-1.98.92-2.73,1.09-.75,2.69.8,2.69.8.69-2.1,5.17-4.15,6.62-3.61Z" class="cls-7"/><path data-cppathid="10004" d="m22.24,2.79c1.99-1.73,6.06-2.18,8.7-1.5,2.27.59,3.88,3.65,4.01,5.89.11,2.03-.63,3.49-.63,3.49,0,0,5.64-2.64,7.85-.04,2.21,2.61,1.81,6.62,1.81,6.62,0,0,3.81-.6,5.41,1.2,1.61,1.81,1.4,6.01,1.4,6.01,0,0,1.81-1.4,2.81.81.74,1.62.39,4.11.16,5.31H3.33c-.23-.66-.62-2-.5-3.23.17-1.71,6.14-2.4,6.14-2.4,0,0-2.31-.94-1.28-4.24,1.03-3.3,3.99-3.3,3.99-3.3,0,0-1.82-1.59-.57-5.81,1.25-4.21,5.69-3.64,5.69-3.64,0,0-1.37-1.14,1.93-4.21,1.38-1.29,2.57-1.36,3.53-.97Z" class="cls-4"/><path data-cppathid="10005" d="m22.05,4.18c2.42-2.14,9.58-2.98,10.96.09,1.42,3.15.57,7.43.57,7.43,0,0,5.72-2.67,7.81-.19,2.1,2.48,1.72,6.29,1.72,6.29,0,0,3.62-.57,5.15,1.14,1.52,1.72,1.33,5.72,1.33,5.72,0,0,1.71-1.33,2.67.76.73,1.59.35,4.07.13,5.17h-30.51v-.06l-9.84.06h-5.89c-.1-.26-.74-1.9-.6-3.37.16-1.6,5.74-2.23,5.74-2.23,0,0-2.15-.88-1.2-3.96.96-3.08,3.72-3.08,3.72-3.08,0,0-1.7-1.49-.53-5.43,1.17-3.93,5.31-3.4,5.31-3.4,0,0-1.27-1.06,1.8-3.93.6-.56,1.16-.86,1.67-1.01Z" class="cls-2"/><path data-cppathid="10006" d="m80.8,10.81c-1.56-2.18-4.29-2.55-6.23-.3,0,0,.34-2.51-1.01-3.77-1.34-1.26-3.53-1.11-3.53-1.11,0,0,.17-1.98-.92-2.73-1.09-.76-2.69.81-2.69.81-.8-2.45-6.77-4.84-7.06-3.11l-4.79,28.99,3.8,1.01h15.21c1.23-1.15,4.4-4.21,6.71-7.23l.12,7.23h16.98c.05-.41-.05-1.01-.47-1.55-.71-.93-2.75-.66-2.75-.66,0,0,.88,0,.99-1.54.1-1.54-2.75-2.1-2.81-1.76-.05.33.94,0,1.6-2.58.66-2.59-4.46-2.59-4.46-2.59,0,0,.55-.5,1.32-2.86.77-2.36-5.61-2.31-5.61-2.31l.44-1.84s-.11-2.25-1.76-2.75c-1.65-.49-3.09.67-3.09.67Z" class="cls-2"/><path data-cppathid="10007" d="m59.25,1.24l-4.68,28.34,3.8,1.01h15.21c1.1-1.02,3.71-3.54,5.9-6.21l.11,6.21h16.06c.03-.38-.06-.94-.45-1.45-.68-.89-2.6-.63-2.6-.63,0,0,.83,0,.94-1.46.1-1.46-2.6-1.98-2.65-1.66-.05.31.88,0,1.51-2.45.63-2.45-4.21-2.45-4.21-2.45,0,0,.52-.47,1.25-2.71.73-2.24-5.31-2.18-5.31-2.18l.42-1.75s-.11-2.13-1.66-2.6c-1.25-.37-2.36.25-2.76.52-1.58-2.02-4.21-2.29-6.09-.11,0,0,.33-2.51-1.01-3.77-1.35-1.26-3.53-1.1-3.53-1.1,0,0,.17-1.98-.92-2.73-1.09-.75-2.69.8-2.69.8-.68-2.1-5.16-4.15-6.62-3.61Z" class="cls-7"/><path data-cppathid="10008" d="m30.62,18.66c-.11-.2-.23-.4-.37-.61-1.11-1.64-2.59-.9-3.51-.04l-.13.04c-.47-.67-.97-1.11-1.48-1.23-2.39-.54-3,1.44-3,1.44,0,0-.61-2.46-3.07-1.85-2.46.62-1.64,2.87-1.64,2.87,0,0-2.32-1.1-2.87.48-.55,1.57.68,2.6.68,2.6,0,0-2.52-.2-2.45,1.5.07,1.71,1.57,2.05,1.57,2.05,0,0-1.7-.47-1.64,1.03.07,1.51,1.57,2.05,1.57,2.05,0,0-1.22.56-1.17,1.43,0,.05.05.1.13.16h30.95c-.08-.27-.2-.52-.4-.66-.52-.35-1.26.03-1.36-.38-.1-.42,1.12-.94.98-1.67-.14-.73-1.18-.7-2.09-.7s-.91-.77-.91-.77c0,0,.22-1.38-.93-1.92-1.27-.59-1.58,1.05-2.49,1.33-.93.29-1.01-.55-.78-1.31.06-.22.15-.46.24-.75.87-2.53-3.47-1.26-3.77-1.3,0,0,.78-.42.9-1.55.13-1.14-1.89-.56-1.89-.56,0,0,.81-.96-.1-1.69-.28-.22-.63-.17-.99,0Z" class="cls-1"/><path data-cppathid="10009" d="m0,30.1h100v22.13c0,5.85-3.45,10.64-7.66,10.64H7.66c-4.21,0-7.66-4.79-7.66-10.64v-22.13Z" class="cls-5"/><path data-cppathid="10010" d="m100,51.62v.61c0,5.85-3.45,10.64-7.66,10.64H7.66c-4.22,0-7.66-4.79-7.66-10.64v-.61h100Z" class="cls-6"/></g></g></svg>