<?xml version="1.0" encoding="UTF-8"?>
<svg xmlns="http://www.w3.org/2000/svg" onmouseup="{ if(window.parent.document.onmouseup) window.parent.document.onmouseup(arguments[0]);}" viewBox="0 0 60 89.58"><defs><style>
      .cls-1 {
        mix-blend-mode: multiply;
      }

      .cls-1, .cls-2 {
        fill: #568f40;
      }

      .cls-1, .cls-2, .cls-3, .cls-4, .cls-5, .cls-6, .cls-7, .cls-8, .cls-9 {
        stroke-width: 0px;
      }

      .cls-3 {
        fill: #505250;
      }

      .cls-10 {
        isolation: isolate;
      }

      .cls-4 {
        fill: #f9c113;
        mix-blend-mode: overlay;
        opacity: .6;
      }

      .cls-5 {
        fill: #91c83e;
      }

      .cls-6 {
        fill: #2a2b2a;
      }

      .cls-7 {
        fill: #322713;
      }

      .cls-8 {
        fill: #1d1d1b;
      }

      .cls-9 {
        fill: #286236;
      }
    </style></defs><g class="cls-10"><g data-name="Layer 2" id="Layer_2"><g data-name="Layer 1" id="Layer_1-2"><g><g><rect data-cppathid="10000" height="3.3" width="43.42" y="80.6" x="8.4" class="cls-8"/><path data-cppathid="10001" d="m10.43,87.89c0,.93-.76,1.69-1.69,1.69h0c-.93,0-1.69-.76-1.69-1.69v-12.74c0-.94.76-1.69,1.69-1.69h0c.93,0,1.69.76,1.69,1.69v12.74Z" class="cls-3"/><path data-cppathid="10002" d="m8.74,73.46s-.02,0-.03,0v16.11s.02,0,.02,0c.94,0,1.69-.76,1.69-1.69v-12.74c0-.94-.76-1.69-1.69-1.69Z" class="cls-6"/><path data-cppathid="10003" d="m52.94,87.89c0,.93-.76,1.69-1.69,1.69h0c-.93,0-1.68-.76-1.68-1.69v-12.74c0-.94.75-1.69,1.68-1.69h0c.94,0,1.69.76,1.69,1.69v12.74Z" class="cls-3"/><path data-cppathid="10004" d="m51.04,73.48c-.83.1-1.48.8-1.48,1.66v12.74c0,.86.65,1.56,1.48,1.66v-16.07Z" class="cls-6"/></g><g><g><path data-cppathid="10005" d="m41.56,1.78s-.85-1.2-2.72-1.28h-17.67c-1.87.09-2.72,1.28-2.72,1.28l-3.93,5.79h30.97l-3.93-5.79Z" class="cls-5"/><path data-cppathid="10006" d="m45.48,8.07H14.51c-.19,0-.36-.1-.44-.27-.09-.16-.08-.36.03-.52l3.92-5.78c.05-.07,1.03-1.41,3.12-1.5h17.7c2.12.1,3.1,1.43,3.14,1.49l3.93,5.79c.11.16.12.36.03.52-.09.17-.26.27-.44.27Zm-30.02-1.01h29.07l-3.39-4.99s-.74-.99-2.33-1.06h-17.65c-1.56.07-2.29,1.03-2.32,1.07l-3.38,4.99Z" class="cls-9"/></g><path data-cppathid="10007" d="m40.26,2.43s-.76-1.05-2.43-1.13h-15.69c-1.66.08-2.42,1.13-2.42,1.13l-3.48,5.14h27.49l-3.48-5.14Z" class="cls-7"/><g><path data-cppathid="10008" d="m1.97,17.19c.95,6.6,8.13,56.4,9.42,62.97,1.38,7.04,8.02,6.75,8.02,6.75h21.18s6.64.29,8.02-6.75c1.28-6.57,8.47-56.37,9.42-62.97H1.97Z" class="cls-2"/><path data-cppathid="10009" d="m40.69,87.41h-21.4c-.72,0-7.04-.2-8.4-7.15C9.52,73.25,1.55,17.82,1.47,17.26c-.02-.14.02-.29.12-.4.1-.11.24-.17.38-.17h56.05c.15,0,.28.07.38.17.1.11.14.26.12.4-.08.56-8.06,56.03-9.42,62.99-1.36,6.96-7.69,7.15-8.41,7.15Zm-21.29-1.01h21.29c1.03,0,6.23-.3,7.42-6.34,1.28-6.56,8.47-56.42,9.33-62.37H2.55c.85,5.95,8.04,55.76,9.33,62.37,1.18,6.04,6.38,6.34,7.41,6.34h.11Z" class="cls-9"/></g><g><path data-cppathid="10010" d="m31.64,14.79l26.26-.81-4.21-5.9s-1.02-1.81-2.96-1.7c-1.45.08-13.44.04-19.2.01h0s-.58,0-1.54,0c-.96,0-1.54,0-1.54,0h0c-5.76.04-17.75.08-19.21,0-1.93-.11-2.95,1.7-2.95,1.7l-4.21,5.9,26.26.81v.11l1.64-.05,1.65.05v-.11Z" class="cls-5"/><path data-cppathid="10011" d="m28.35,15.39c-.12,0-.23-.04-.32-.11l-25.95-.79c-.19,0-.35-.12-.44-.28-.08-.17-.07-.37.04-.52l4.21-5.9s1.17-2.03,3.4-1.91c.56.03,2.77.05,6.57.05,4.14,0,9.25-.02,12.49-.03.04-.01.05-.03.12-.01h1.54s1.53,0,1.53,0c.04,0,.08,0,.13.01,3.23.01,8.34.03,12.48.03,3.8,0,6.02-.02,6.58-.05,2.23-.13,3.37,1.87,3.42,1.96l4.18,5.86c.11.15.13.35.04.52-.08.16-.25.28-.44.28l-25.94.79c-.1.08-.21.14-.34.11l-1.65-.05-1.61.05h-.02Zm1.63-1.06l1.37.05c.08-.06.18-.1.28-.1l25.31-.77-3.66-5.14c-.03-.06-.88-1.49-2.37-1.49h-.14c-.58.04-2.81.05-6.64.05-4.19,0-9.38-.02-12.61-.04-.04,0-.08,0-.12-.01h-1.41s-1.42,0-1.42,0c-.04.01-.07.01-.11.01-3.23.02-8.41.04-12.6.04-3.82,0-6.06-.02-6.63-.05h-.15c-1.49,0-2.33,1.43-2.34,1.45l-3.69,5.18,25.31.77c.11,0,.2.04.28.1l1.33-.05Z" class="cls-9"/></g><g><rect data-cppathid="10012" height="5.11" width="58.99" y="13.01" x=".5" class="cls-2"/><path data-cppathid="10013" d="m59.49,18.63H.5c-.28,0-.5-.23-.5-.51v-5.11c0-.28.22-.5.5-.5h58.99c.28,0,.51.22.51.5v5.11c0,.28-.23.51-.51.51ZM1.01,17.62h57.98v-4.1H1.01v4.1Z" class="cls-9"/></g><rect data-cppathid="10014" height="1.19" width="58.99" y="13.01" x=".5" class="cls-4"/><rect data-cppathid="10015" height="2.27" width="58.99" y="15.85" x=".5" class="cls-1"/><path data-cppathid="10016" d="m11.05,6.8c-2.98,0-3.92,1.62-3.92,1.62l-2.98,3.85h9.97s.05,0,.06-.02c1.36-3.15,2.92-4.06,6.92-4.35,3.17-.22,25.03-.87,28.2-1.09.04,0-18.6-.01-18.56-.01H11.05Z" class="cls-4"/><path data-cppathid="10017" d="m20.5,79.76c-1.03-4.94-6.82-60.53-6.82-60.53l-9.67.26c.17.51,8.1,55.93,8.1,55.93,0,0,1.39,6.66,2.3,8.09,2.17,3.4,12.91,2.55,16.66,2.64,0,0-9.54-1.45-10.56-6.38Z" class="cls-4"/></g></g></g></g></g></svg>