<?xml version="1.0" encoding="UTF-8"?>
<svg xmlns="http://www.w3.org/2000/svg" onmouseup="{ if(window.parent.document.onmouseup) window.parent.document.onmouseup(arguments[0]);}" xml:space="preserve" style="enable-background:new 0 0 60 199.1;" viewBox="0 0 60 199.1" y="0px" x="0px" id="Layer_2_00000183243322538364967270000007961533148498387593_" version="1.1" xmlns:xlink="http://www.w3.org/1999/xlink"><style type="text/css">
	.st0{fill-rule:evenodd;clip-rule:evenodd;fill:#767F34;}
	.st1{fill-rule:evenodd;clip-rule:evenodd;fill:#5D642B;}
	.st2{fill-rule:evenodd;clip-rule:evenodd;fill:#899238;}
	.st3{fill-rule:evenodd;clip-rule:evenodd;fill:#67171F;}
	.st4{fill-rule:evenodd;clip-rule:evenodd;fill:#A44B25;}
</style><g id="Layer_1-2"><g><path data-cppathid="10000" d="M16.6,71.3c-0.9,0.2-1.8,0.4-2.8,0.4c-5.6,0-10.2-4.6-10.2-10.2c0-3,1.3-5.7,3.3-7.6C2.8,51.6,0,47.1,0,42    c0-6.8,4.9-12.4,11.3-13.5c1-3.6,2.9-6.8,5.5-9.3C16.3,18,16,16.7,16,15.4c0-4.8,3.7-8.7,8.5-9c-0.2-0.5-0.3-1.1-0.3-1.6    c0-2.6,2.1-4.7,4.7-4.7s4.7,2.1,4.7,4.7c0,0.1,0,0.2,0,0.2c0.5-0.1,1.1-0.2,1.7-0.2c3.5,0,6.4,2.9,6.4,6.4c0,0.9-0.2,1.8-0.5,2.6    c5.3,0.3,9.5,4.6,9.5,10c0,1.4-0.3,2.8-0.8,4c0.2,0,0.5-0.1,0.8-0.1c2.3,0,4.2,1.9,4.2,4.2c0,1.6-0.9,3.1-2.3,3.7    C57,38.1,60,42.8,60,48.4c0,7.3-5.3,13.3-12.2,14.5c1.8,2.3,2.9,5.3,2.9,8.5c0,7.4-5.9,13.4-13.2,13.7c0.2,0.8,0.4,1.6,0.4,2.5    c0,4.6-3.7,8.3-8.3,8.3s-8.3-3.7-8.3-8.3c0-0.2,0-0.5,0-0.7h0c-4.1,0-7.5-3.4-7.5-7.5c0-2.6,1.3-4.9,3.3-6.2    C16.9,72.5,16.7,71.9,16.6,71.3L16.6,71.3z" class="st0"/><path data-cppathid="10001" d="M41.4,13.3c0,0.1-0.1,0.2-0.1,0.4c5.3,0.3,9.5,4.6,9.5,10c0,1.4-0.3,2.8-0.8,4c0.2,0,0.5-0.1,0.8-0.1    c2.3,0,4.2,1.9,4.2,4.2c0,1.6-0.9,3.1-2.3,3.7c0.3,0.2,0.7,0.4,1,0.6c-2.4,0.5-4.6,0.8-5,0.6c-7.7-3.2-2.2-6.8-2.5-10.9    c-0.2-2.9-0.3-3.4-2.5-3.4c-5.8,0-6.7-6.1-4.6-7.9C39.5,14,40.4,13.6,41.4,13.3z" class="st1"/><path data-cppathid="10002" d="M52.5,35.5C57,38.1,60,42.8,60,48.4c0,7.3-5.3,13.3-12.2,14.5c1.8,2.3,2.9,5.3,2.9,8.5    c0,7.4-5.9,13.4-13.2,13.7c0.2,0.8,0.4,1.6,0.4,2.5c0,4.6-3.7,8.3-8.3,8.3s-8.3-3.7-8.3-8.3c0-0.2,0-0.5,0-0.7h0    c-4.1,0-7.5-3.4-7.5-7.5c0-2.6,1.3-4.9,3.3-6.2c-0.2-0.3,2.2-5.7,7.6-6.1c4.6-0.3,7.9,4.9,10.7,2.7c2.8-2.1,0.9-4.3-0.2-6.2    c-3.2-5.5,2.4-10.5,8.2-9.4c2.5,0.5,0.5-3,0.1-3.8c-0.5-1.2-1-3-0.9-6.4C42.8,37.1,52.5,35.6,52.5,35.5L52.5,35.5z" class="st1"/><path data-cppathid="10003" d="M17.6,66.9c-0.7,0.2-1.5,0.3-2.2,0.3c-5.1,0-9.1-4.1-9.1-9.2c0-2.7,1.2-5.1,3-6.8C5.6,49.2,3,45.2,3,40.6    c0-6,4.4-11.1,10.1-12.1c0.9-3.2,2.6-6.1,5-8.4c-0.5-1-0.8-2.2-0.8-3.5c0-4.3,3.4-7.8,7.6-8.1c-0.2-0.4-0.3-0.9-0.3-1.5    c0-2.3,1.9-4.2,4.2-4.2s4.2,1.9,4.2,4.2c0,0.1,0,0.1,0,0.2c0.5-0.1,1-0.2,1.5-0.2c3.2,0,5.7,2.6,5.7,5.7c0,0.1,0,0.2,0,0.3    c-0.8-1.8-2.7-3.1-4.8-3.1c-0.5,0-1,0.1-1.4,0.2c0-0.1,0-0.1,0-0.2c0-2.2-1.8-3.9-3.9-3.9s-3.9,1.8-3.9,3.9c0,0.5,0.1,0.9,0.2,1.4    c-3.9,0.2-7,3.5-7,7.4c0,1.1,0.3,2.2,0.7,3.2c-2.2,2.1-3.8,4.7-4.6,7.7c-5.3,0.9-9.4,5.5-9.4,11.1c0,4.2,2.3,7.9,5.8,9.8    c-1.7,1.5-2.8,3.8-2.8,6.2c0,4.7,3.8,8.4,8.4,8.4c0.8,0,1.6-0.1,2.3-0.3v0l-1.3,0.9C18.8,66.1,18.3,66.5,17.6,66.9L17.6,66.9z" class="st2"/><path data-cppathid="10004" d="M27.5,162.8l0.1-79.8c0,0-0.4-0.2-1.8-2.5c-1.4-2.3,1.9,0.1,1.9,0.1s0.3-2.9,0.7-3.1c0.4-0.3,0.5,3.3,0.9,3.2    c0.4-0.1,1.8-1,2-0.2c0.2,0.8-1.9,2.3-1.9,2.3l2.1,81.2h-3.3L27.5,162.8L27.5,162.8z" class="st3"/><path data-cppathid="10005" d="M12.8,163.4h32.4V191c0,4.5-3.7,8.1-8.1,8.1H20.9c-4.5,0-8.1-3.6-8.1-8.1C12.8,191,12.8,163.4,12.8,163.4z" class="st4"/></g></g></svg>