<?xml version="1.0" encoding="UTF-8"?>
<svg xmlns="http://www.w3.org/2000/svg" onmouseup="{ if(window.parent.document.onmouseup) window.parent.document.onmouseup(arguments[0]);}" viewBox="0 0 50 165.48" data-name="Layer 2" id="Layer_2"><defs><style>
      .cls-1 {
        fill: #3fb549;
      }

      .cls-1, .cls-2, .cls-3, .cls-4, .cls-5, .cls-6, .cls-7, .cls-8, .cls-9 {
        stroke-width: 0px;
      }

      .cls-2 {
        fill: #189d49;
      }

      .cls-3 {
        fill: #b15b27;
      }

      .cls-4 {
        fill: #a44b25;
      }

      .cls-5 {
        fill: #14763c;
      }

      .cls-6 {
        fill: #5c3a14;
      }

      .cls-7 {
        fill: #904220;
      }

      .cls-8 {
        fill: #ca672a;
      }

      .cls-9 {
        fill: #75491d;
      }
    </style></defs><g data-name="Layer 1" id="Layer_1-2"><g><polygon data-cppathid="10000" points="15.44 165.48 34.56 165.48 38.79 132.91 11.21 132.91 15.44 165.48" class="cls-4"/><polygon data-cppathid="10001" points="26.95 165.48 34.56 165.48 38.32 136.5 28.46 136.5 26.95 165.48" class="cls-7"/><rect data-cppathid="10002" transform="translate(50 257.71) rotate(180)" height="8.12" width="6.93" y="124.8" x="21.53" class="cls-9"/><rect data-cppathid="10003" transform="translate(54.21 258.31) rotate(180)" height="8.46" width="2.72" y="124.92" x="25.75" class="cls-6"/><path data-cppathid="10004" d="m8.48,67.83c.52-1.2-.83-5.21.17-7.58,1.22-2.89,2.39-6.15,2.56-8.62.2-2.96-1.78-5.04-1.15-9.32.75-5.06,4.6-10.78,6.18-13.47,1.58-2.69.79-9.03,2.38-12.52s3.01-3.8,3.96-7.29c.95-3.49.79-8.24,2.42-9.03,1.62.79,1.76,7.13,2.71,10.62.95,3.49,2.01,4.12,3.59,7.61,1.58,3.49-1.27,10.94,0,14.1.52,1.3,3.11,2.27,4.6,4.12,2.13,2.64,1.05,6.68,1.43,9.67.27,2.18,2.71,4.99,2.92,8.23.13,1.86-1.64,7.67-1.5,9.44.18,2.3,3.64,5.55,5.39,8.17,1.53,2.3.41,7.87,1.58,13.63.87,4.28,4.28,5.28,4.28,10.14,0,4.6-2.2,10.99-3.01,13.95-1.21,4.38-.92,8.51-5.71,12.52-5.41,4.54-10.86,5.07-16.28,4.75-5.43-.32-11.61.2-16.28-4.75-3.46-3.66-4.96-9.51-6.26-12.84-1.4-3.58-2.46-4.7-2.46-10.62,0-3.49,2.55-6.17,3.09-9.51.48-2.99-1.06-6.63-.63-9.83.29-2.15.81-4.5,1.39-6.69.75-2.8,3.99-3.42,4.63-4.88Z" class="cls-2"/><g><path data-cppathid="10005" d="m29.5,126.94c-1.5.11-3,.09-4.5,0-4.59-.27-9.72.06-14.02-2.83,5.14,3.24,13.71,2.56,18.52,2.83Z" class="cls-1"/><path data-cppathid="10006" d="m3.09,89.22c.48-2.99-1.06-6.63-.63-9.83.29-2.15.81-4.5,1.39-6.69.75-2.8,3.99-3.42,4.63-4.88.52-1.2-.83-5.21.17-7.58,1.22-2.89,2.39-6.15,2.56-8.62.2-2.96-1.78-5.04-1.15-9.32.75-5.06,4.6-10.78,6.18-13.47,1.58-2.69.79-9.03,2.38-12.52,1.58-3.49,3.01-3.8,3.96-7.29.95-3.49.79-8.24,2.42-9.03-.6.8-.46,7.08-1.41,10.57-.95,3.49-.4,8.93-2.22,10.25-1.9,1.37,1,7.48-.59,10.17-1.58,2.69-5.39,6.27-6.14,11.33-.63,4.28,1.35,6.36,1.15,9.32-.17,2.47-1.34,5.73-2.56,8.62-1,2.37,2.9,6.51,2.38,7.71-.64,1.46-7.8,2.87-8.55,5.67-.59,2.18,4.41,8.45,3.93,11.44-.54,3.34-6.4,10.16-6.4,13.65,0,5.91,1.92,4.74,3.32,8.32,1.3,3.33-2.2,11.91,1.26,15.57,0,0,.01.01.02.02-.15-.15-.3-.3-.45-.46-3.46-3.66-4.96-9.51-6.26-12.84-1.4-3.58-2.46-4.7-2.46-10.62,0-3.49,2.55-6.17,3.09-9.51Z" class="cls-1"/></g><path data-cppathid="10007" d="m20.52,123.19c3.38-2.22,1.68-7.73,5.22-8.95,5.12-1.77,15.3-3.28,15.14-6.69-.11-2.44-8.43-5.3-8-7.82.54-3.19,4.03-4.11,4.03-6.68,0-4.87-4.42-10.75-4.66-12.97-.24-2.22,1.06-9.79.79-12.24s-1.53-7.2-2.8-8.15-4.67-4.17-4.75-5.28c-.14-1.77,3.22-4.81,3.1-6.67-.22-3.23-2.08-3.55-2.36-5.73-.37-2.99,1.66-8.79.63-12.43-.64-2.28-1.61-3.04-1.19-4.52.94-3.28,1.59-6.32,1.35-8.8-.38-3.81-2.39-3.57-2.48-7.18-.08-2.95,2.09-8.29.46-9.09,1.62.79,1.76,7.13,2.71,10.62.95,3.49,2.01,4.12,3.59,7.61,1.58,3.49-1.27,10.93,0,14.1.52,1.3,3.11,2.27,4.6,4.12,2.13,2.64,1.05,6.68,1.43,9.67.27,2.18,2.71,4.99,2.93,8.23.13,1.86-1.64,7.67-1.5,9.44.18,2.3,3.64,5.55,5.39,8.17,1.53,2.3.41,7.87,1.58,13.63.87,4.28,4.28,5.28,4.28,10.14,0,4.6-2.2,10.99-3.01,13.95-1.21,4.38-.92,8.51-5.71,12.52-5.41,4.54-10.86,5.07-16.28,4.75-5.26-.31-11.23.17-15.85-4.32,1.61.1,7.99,2.79,11.38.57Z" class="cls-5"/><rect data-cppathid="10008" transform="translate(50 273.01) rotate(180)" height="7.18" width="27.58" y="132.91" x="11.21" class="cls-8"/><rect data-cppathid="10009" transform="translate(68.36 273.01) rotate(180)" height="7.18" width="9.21" y="132.91" x="29.57" class="cls-3"/></g></g></svg>