<?xml version="1.0" encoding="UTF-8"?>
<svg xmlns="http://www.w3.org/2000/svg" onmouseup="{ if(window.parent.document.onmouseup) window.parent.document.onmouseup(arguments[0]);}" viewBox="0 0 50 17.68" data-name="Layer 2" id="Layer_2"><defs><style>
      .cls-1 {
        font-family: Montserrat-ExtraBold, Montserrat;
        font-size: 10px;
        font-weight: 700;
      }

      .cls-1, .cls-2 {
        fill: #fff;
      }

      .cls-3 {
        fill: #ff9a36;
      }

      .cls-3, .cls-2, .cls-4 {
        stroke-width: 0px;
      }

      .cls-4 {
        opacity: .1;
      }
    </style></defs><g data-name="Layer 1" id="Layer_1-2"><g><path data-cppathid="10000" d="m45.46,14.81l-40.5,2.13c-2.3.12-4.23-1.71-4.23-4.01V4.75C.73,2.53,2.53.73,4.75.73h40.5c2.22,0,4.02,1.8,4.02,4.02v6.05c0,2.14-1.67,3.9-3.81,4.01Z" class="cls-3"/><path data-cppathid="10001" d="m45.25.73c2.22,0,4.02,1.8,4.02,4.02v6.05c0,2.14-1.67,3.9-3.81,4.01l-40.5,2.13c-.07,0-.14,0-.22,0-2.2,0-4.02-1.79-4.02-4.02V4.75C.73,2.53,2.53.73,4.75.73h40.5m0-.73H4.75C2.13,0,0,2.13,0,4.75v8.18c0,2.62,2.13,4.75,4.74,4.75.08,0,.17,0,.25,0l40.5-2.13c2.52-.13,4.5-2.22,4.5-4.74v-6.05c0-2.62-2.13-4.75-4.75-4.75h0Z" class="cls-2"/><path data-cppathid="10002" d="m33.34,10.2C20.29,10.2,8.66,7.41,1.11,3.05c-.24.52-.38,1.09-.38,1.7v8.18c0,2.3,1.93,4.14,4.23,4.01l40.5-2.13c2.14-.11,3.81-1.88,3.81-4.01v-2.07c-4.9.95-10.28,1.47-15.93,1.47Z" class="cls-4"/><text data-cppathid="10003" transform="translate(5.32 11.96)" class="cls-1"><tspan data-cppathid="10004" y="0" x="0">MASUK</tspan></text></g></g></svg>