<?xml version="1.0" encoding="UTF-8"?>
<svg xmlns="http://www.w3.org/2000/svg" onmouseup="{ if(window.parent.document.onmouseup) window.parent.document.onmouseup(arguments[0]);}" xml:space="preserve" style="enable-background:new 0 0 36 36;" viewBox="0 0 36 36" y="0px" x="0px" id="S_VolumeThree_18_N_2x" version="1.1" xmlns:xlink="http://www.w3.org/1999/xlink"><style type="text/css">
	.st0{fill:#FFFFFF;}
</style><path data-cppathid="10000" d="M6.7,12.1H1c-0.6,0-1,0.4-1,1V23c0,0.6,0.4,1,1,1h5.7c0.3,0,0.7,0.1,0.9,0.3l7.1,7.3c0.3,0.3,0.8,0.2,1-0.1  c0.1-0.1,0.2-0.3,0.2-0.5V5c0-0.4-0.3-0.7-0.7-0.7c-0.2,0-0.3,0.1-0.5,0.2l-7.1,7.3C7.4,12,7.1,12.1,6.7,12.1z" class="st0"/><path data-cppathid="10001" d="M22,18c0,1.5-0.5,3-1.4,4.2c-0.3,0.4-0.3,0.9,0.1,1.3l0,0c0.4,0.4,1,0.4,1.4,0c0,0,0.1-0.1,0.1-0.1  c2.4-3.2,2.4-7.7,0-10.9c-0.3-0.4-1-0.5-1.4-0.2c0,0-0.1,0.1-0.1,0.1l0,0c-0.3,0.3-0.4,0.9-0.1,1.3C21.5,15,22,16.5,22,18z" class="st0"/><path data-cppathid="10002" d="M28,18c0,3.1-1.1,6.1-3.1,8.4c-0.3,0.4-0.3,1,0.1,1.3l0,0c0.4,0.4,1,0.4,1.4,0c0,0,0,0,0.1-0.1  c4.8-5.6,4.8-13.8,0-19.4c-0.4-0.4-1-0.5-1.4-0.1c0,0,0,0-0.1,0.1l0,0c-0.4,0.4-0.4,0.9-0.1,1.3C26.9,11.9,28,14.9,28,18z" class="st0"/><path data-cppathid="10003" d="M34,18c0,4.7-1.7,9.2-4.8,12.6c-0.4,0.4-0.3,1,0,1.4l0,0c0.4,0.4,1,0.4,1.4,0c0,0,0,0,0,0  c3.4-3.9,5.3-8.8,5.3-14c0-5.2-1.9-10.2-5.3-14c-0.4-0.4-1-0.4-1.4-0.1c0,0,0,0,0,0l0,0c-0.4,0.4-0.4,1,0,1.4  C32.3,8.8,34,13.3,34,18z" class="st0"/></svg>